%TF.GenerationSoftware,KiCad,Pcbnew,7.0.1*%
%TF.CreationDate,2023-10-29T13:19:35+05:30*%
%TF.ProjectId,MAZEBLAZE-V3,4d415a45-424c-4415-9a45-2d56332e6b69,rev?*%
%TF.SameCoordinates,Original*%
%TF.FileFunction,Copper,L1,Top*%
%TF.FilePolarity,Positive*%
%FSLAX46Y46*%
G04 Gerber Fmt 4.6, Leading zero omitted, Abs format (unit mm)*
G04 Created by KiCad (PCBNEW 7.0.1) date 2023-10-29 13:19:35*
%MOMM*%
%LPD*%
G01*
G04 APERTURE LIST*
G04 Aperture macros list*
%AMRoundRect*
0 Rectangle with rounded corners*
0 $1 Rounding radius*
0 $2 $3 $4 $5 $6 $7 $8 $9 X,Y pos of 4 corners*
0 Add a 4 corners polygon primitive as box body*
4,1,4,$2,$3,$4,$5,$6,$7,$8,$9,$2,$3,0*
0 Add four circle primitives for the rounded corners*
1,1,$1+$1,$2,$3*
1,1,$1+$1,$4,$5*
1,1,$1+$1,$6,$7*
1,1,$1+$1,$8,$9*
0 Add four rect primitives between the rounded corners*
20,1,$1+$1,$2,$3,$4,$5,0*
20,1,$1+$1,$4,$5,$6,$7,0*
20,1,$1+$1,$6,$7,$8,$9,0*
20,1,$1+$1,$8,$9,$2,$3,0*%
G04 Aperture macros list end*
%TA.AperFunction,SMDPad,CuDef*%
%ADD10RoundRect,0.250000X-0.625000X0.312500X-0.625000X-0.312500X0.625000X-0.312500X0.625000X0.312500X0*%
%TD*%
%TA.AperFunction,SMDPad,CuDef*%
%ADD11RoundRect,0.250000X-1.000000X1.500000X-1.000000X-1.500000X1.000000X-1.500000X1.000000X1.500000X0*%
%TD*%
%TA.AperFunction,SMDPad,CuDef*%
%ADD12RoundRect,0.218750X0.218750X0.256250X-0.218750X0.256250X-0.218750X-0.256250X0.218750X-0.256250X0*%
%TD*%
%TA.AperFunction,SMDPad,CuDef*%
%ADD13RoundRect,0.250000X0.650000X-1.000000X0.650000X1.000000X-0.650000X1.000000X-0.650000X-1.000000X0*%
%TD*%
%TA.AperFunction,ComponentPad*%
%ADD14C,1.524000*%
%TD*%
%TA.AperFunction,ComponentPad*%
%ADD15R,1.700000X1.700000*%
%TD*%
%TA.AperFunction,ComponentPad*%
%ADD16O,1.700000X1.700000*%
%TD*%
%TA.AperFunction,ComponentPad*%
%ADD17C,1.800000*%
%TD*%
%TA.AperFunction,ComponentPad*%
%ADD18O,1.320800X2.641600*%
%TD*%
%TA.AperFunction,SMDPad,CuDef*%
%ADD19RoundRect,0.250000X0.375000X0.625000X-0.375000X0.625000X-0.375000X-0.625000X0.375000X-0.625000X0*%
%TD*%
%TA.AperFunction,SMDPad,CuDef*%
%ADD20R,4.194800X5.405100*%
%TD*%
%TA.AperFunction,SMDPad,CuDef*%
%ADD21R,4.094800X5.305100*%
%TD*%
%TA.AperFunction,SMDPad,CuDef*%
%ADD22RoundRect,0.250000X0.312500X0.625000X-0.312500X0.625000X-0.312500X-0.625000X0.312500X-0.625000X0*%
%TD*%
%TA.AperFunction,ComponentPad*%
%ADD23C,1.950000*%
%TD*%
%TA.AperFunction,SMDPad,CuDef*%
%ADD24RoundRect,0.200000X-0.200000X-0.275000X0.200000X-0.275000X0.200000X0.275000X-0.200000X0.275000X0*%
%TD*%
%TA.AperFunction,SMDPad,CuDef*%
%ADD25RoundRect,0.250000X-0.900000X1.000000X-0.900000X-1.000000X0.900000X-1.000000X0.900000X1.000000X0*%
%TD*%
%TA.AperFunction,SMDPad,CuDef*%
%ADD26RoundRect,0.250000X0.300000X-2.050000X0.300000X2.050000X-0.300000X2.050000X-0.300000X-2.050000X0*%
%TD*%
%TA.AperFunction,SMDPad,CuDef*%
%ADD27RoundRect,0.250000X2.375000X-2.025000X2.375000X2.025000X-2.375000X2.025000X-2.375000X-2.025000X0*%
%TD*%
%TA.AperFunction,SMDPad,CuDef*%
%ADD28RoundRect,0.250002X5.149998X-4.449998X5.149998X4.449998X-5.149998X4.449998X-5.149998X-4.449998X0*%
%TD*%
%TA.AperFunction,ComponentPad*%
%ADD29R,1.560000X1.560000*%
%TD*%
%TA.AperFunction,ComponentPad*%
%ADD30C,1.560000*%
%TD*%
%TA.AperFunction,SMDPad,CuDef*%
%ADD31RoundRect,0.250000X1.500000X0.550000X-1.500000X0.550000X-1.500000X-0.550000X1.500000X-0.550000X0*%
%TD*%
%TA.AperFunction,ViaPad*%
%ADD32C,0.800000*%
%TD*%
%TA.AperFunction,Conductor*%
%ADD33C,1.000000*%
%TD*%
%TA.AperFunction,Conductor*%
%ADD34C,1.500000*%
%TD*%
%TA.AperFunction,Conductor*%
%ADD35C,0.300000*%
%TD*%
%TA.AperFunction,Conductor*%
%ADD36C,0.600000*%
%TD*%
%TA.AperFunction,Conductor*%
%ADD37C,0.250000*%
%TD*%
G04 APERTURE END LIST*
D10*
%TO.P,R6,1*%
%TO.N,BIN2*%
X144570000Y-98297500D03*
%TO.P,R6,2*%
%TO.N,Net-(U2-BI2)*%
X144570000Y-101222500D03*
%TD*%
D11*
%TO.P,C6,1*%
%TO.N,5V*%
X120760000Y-107640000D03*
%TO.P,C6,2*%
%TO.N,GND*%
X120760000Y-114140000D03*
%TD*%
D12*
%TO.P,D2,1,K*%
%TO.N,Net-(D2-K)*%
X103710000Y-86740000D03*
%TO.P,D2,2,A*%
%TO.N,VIN_SW*%
X102135000Y-86740000D03*
%TD*%
D13*
%TO.P,D7,1,K*%
%TO.N,Net-(D7-K)*%
X97380000Y-96780000D03*
%TO.P,D7,2,A*%
%TO.N,VIN_SW*%
X97380000Y-92780000D03*
%TD*%
D14*
%TO.P,M2,1,+*%
%TO.N,Net-(M2-+)*%
X156740000Y-67970000D03*
%TO.P,M2,2,-*%
%TO.N,Net-(M2--)*%
X156740000Y-59970000D03*
%TD*%
D15*
%TO.P,J5,1,Pin_1*%
%TO.N,GND*%
X117350000Y-127140000D03*
D16*
%TO.P,J5,2,Pin_2*%
%TO.N,3V3*%
X119890000Y-127140000D03*
%TO.P,J5,3,Pin_3*%
%TO.N,SENS1*%
X122430000Y-127140000D03*
%TO.P,J5,4,Pin_4*%
%TO.N,SENS2*%
X124970000Y-127140000D03*
%TO.P,J5,5,Pin_5*%
%TO.N,SENS3*%
X127510000Y-127140000D03*
%TO.P,J5,6,Pin_6*%
%TO.N,SENS4*%
X130050000Y-127140000D03*
%TO.P,J5,7,Pin_7*%
%TO.N,SENS5*%
X132590000Y-127140000D03*
%TO.P,J5,8,Pin_8*%
%TO.N,SENS6*%
X135130000Y-127140000D03*
%TD*%
D10*
%TO.P,R4,1*%
%TO.N,AIN2*%
X134400000Y-98397500D03*
%TO.P,R4,2*%
%TO.N,Net-(U2-AI2)*%
X134400000Y-101322500D03*
%TD*%
D15*
%TO.P,J2,1,Pin_1*%
%TO.N,GND*%
X121770000Y-47200000D03*
D16*
%TO.P,J2,2,Pin_2*%
%TO.N,3V3*%
X119230000Y-47200000D03*
%TO.P,J2,3,Pin_3*%
%TO.N,SCL*%
X116690000Y-47200000D03*
%TO.P,J2,4,Pin_4*%
%TO.N,SDA*%
X114150000Y-47200000D03*
%TD*%
D17*
%TO.P,U2,1,VM*%
%TO.N,VIN_SW*%
X131860000Y-120970000D03*
%TO.P,U2,2,VCC*%
%TO.N,3V3*%
X134400000Y-120970000D03*
%TO.P,U2,3,GND*%
%TO.N,GND*%
X136940000Y-120970000D03*
%TO.P,U2,4,A01*%
%TO.N,Net-(M1-+)*%
X139480000Y-120970000D03*
%TO.P,U2,5,A02*%
%TO.N,Net-(M1--)*%
X142020000Y-120970000D03*
%TO.P,U2,6,B02*%
%TO.N,Net-(M2--)*%
X144560000Y-120970000D03*
%TO.P,U2,7,B01*%
%TO.N,Net-(M2-+)*%
X147100000Y-120970000D03*
%TO.P,U2,8,GND*%
%TO.N,GND*%
X149640000Y-120970000D03*
%TO.P,U2,9,GND*%
X149640000Y-105730000D03*
%TO.P,U2,10,PWMB*%
%TO.N,PWMB*%
X147100000Y-105730000D03*
%TO.P,U2,11,BI2*%
%TO.N,Net-(U2-BI2)*%
X144560000Y-105730000D03*
%TO.P,U2,12,BI1*%
%TO.N,Net-(U2-BI1)*%
X142020000Y-105730000D03*
%TO.P,U2,13,STBY*%
%TO.N,STBY*%
X139480000Y-105730000D03*
%TO.P,U2,14,AI1*%
%TO.N,Net-(U2-AI1)*%
X136940000Y-105730000D03*
%TO.P,U2,15,AI2*%
%TO.N,Net-(U2-AI2)*%
X134400000Y-105730000D03*
%TO.P,U2,16,PWMA*%
%TO.N,PWMA*%
X131860000Y-105730000D03*
%TD*%
D18*
%TO.P,12V_SW1,1,A*%
%TO.N,unconnected-(12V_SW1-A-Pad1)*%
X92150000Y-81460000D03*
%TO.P,12V_SW1,2,B*%
%TO.N,VIN*%
X94690000Y-81460000D03*
%TO.P,12V_SW1,3,C*%
%TO.N,VIN_SW*%
X97230000Y-81460000D03*
%TO.P,12V_SW1,4,A*%
%TO.N,unconnected-(12V_SW1-A-Pad4)*%
X92150000Y-86540000D03*
%TO.P,12V_SW1,5,B*%
%TO.N,VIN*%
X94690000Y-86540000D03*
%TO.P,12V_SW1,6,C*%
%TO.N,VIN_SW*%
X97230000Y-86540000D03*
%TD*%
D19*
%TO.P,D1,1,K*%
%TO.N,Net-(D1-K)*%
X168570000Y-48420000D03*
%TO.P,D1,2,A*%
%TO.N,IO23*%
X165770000Y-48420000D03*
%TD*%
D14*
%TO.P,M1,1,+*%
%TO.N,Net-(M1-+)*%
X95834540Y-59631920D03*
%TO.P,M1,2,-*%
%TO.N,Net-(M1--)*%
X95834540Y-67631920D03*
%TD*%
D20*
%TO.P,L3,1,1*%
%TO.N,Net-(D8-K)*%
X102384800Y-115630000D03*
D21*
%TO.P,L3,2,2*%
%TO.N,5V*%
X113540000Y-115680000D03*
%TD*%
D10*
%TO.P,R3,1*%
%TO.N,AIN1*%
X136990000Y-98425000D03*
%TO.P,R3,2*%
%TO.N,Net-(U2-AI1)*%
X136990000Y-101350000D03*
%TD*%
D22*
%TO.P,R2,1*%
%TO.N,Net-(D2-K)*%
X103730000Y-89940000D03*
%TO.P,R2,2*%
%TO.N,GND*%
X100805000Y-89940000D03*
%TD*%
D23*
%TO.P,J1,1,Pin_1*%
%TO.N,VIN*%
X89540000Y-46430000D03*
%TO.P,J1,2,Pin_2*%
%TO.N,GND*%
X94540000Y-46430000D03*
%TD*%
D24*
%TO.P,R1,1*%
%TO.N,Net-(D1-K)*%
X171390000Y-48450000D03*
%TO.P,R1,2*%
%TO.N,GND*%
X173040000Y-48450000D03*
%TD*%
D10*
%TO.P,R5,1*%
%TO.N,BIN1*%
X141960000Y-98267500D03*
%TO.P,R5,2*%
%TO.N,Net-(U2-BI1)*%
X141960000Y-101192500D03*
%TD*%
D25*
%TO.P,D8,1,K*%
%TO.N,Net-(D8-K)*%
X97640000Y-109000000D03*
%TO.P,D8,2,A*%
%TO.N,GND*%
X97640000Y-113300000D03*
%TD*%
D26*
%TO.P,U5,1,VIN*%
%TO.N,Net-(D7-K)*%
X104885000Y-105965000D03*
%TO.P,U5,2,OUT*%
%TO.N,Net-(D8-K)*%
X106585000Y-105965000D03*
%TO.P,U5,3,GND*%
%TO.N,GND*%
X108285000Y-105965000D03*
D27*
X105510000Y-99240000D03*
X111060000Y-99240000D03*
D28*
X108285000Y-96815000D03*
D27*
X105510000Y-94390000D03*
X111060000Y-94390000D03*
D26*
%TO.P,U5,4,FB*%
%TO.N,5V*%
X109985000Y-105965000D03*
%TO.P,U5,5,~{ON}/OFF*%
%TO.N,GND*%
X111685000Y-105965000D03*
%TD*%
D29*
%TO.P,U3,J2-1,3V3*%
%TO.N,3V3*%
X106410000Y-76340000D03*
D30*
%TO.P,U3,J2-2,EN*%
%TO.N,unconnected-(U3-EN-PadJ2-2)*%
X108950000Y-76340000D03*
%TO.P,U3,J2-3,SENSOR_VP*%
%TO.N,SENS1*%
X111490000Y-76340000D03*
%TO.P,U3,J2-4,SENSOR_VN*%
%TO.N,SENS2*%
X114030000Y-76340000D03*
%TO.P,U3,J2-5,IO34*%
%TO.N,SENS3*%
X116570000Y-76340000D03*
%TO.P,U3,J2-6,IO35*%
%TO.N,SENS4*%
X119110000Y-76340000D03*
%TO.P,U3,J2-7,IO32*%
%TO.N,SENS5*%
X121650000Y-76340000D03*
%TO.P,U3,J2-8,IO33*%
%TO.N,SENS6*%
X124190000Y-76340000D03*
%TO.P,U3,J2-9,IO25*%
%TO.N,unconnected-(U3-IO25-PadJ2-9)*%
X126730000Y-76340000D03*
%TO.P,U3,J2-10,IO26*%
%TO.N,unconnected-(U3-IO26-PadJ2-10)*%
X129270000Y-76340000D03*
%TO.P,U3,J2-11,IO27*%
%TO.N,PWMA*%
X131810000Y-76340000D03*
%TO.P,U3,J2-12,IO14*%
%TO.N,AIN2*%
X134350000Y-76340000D03*
%TO.P,U3,J2-13,IO12*%
%TO.N,AIN1*%
X136890000Y-76340000D03*
%TO.P,U3,J2-14,GND1*%
%TO.N,GND*%
X139430000Y-76340000D03*
%TO.P,U3,J2-15,IO13*%
%TO.N,STBY*%
X141970000Y-76340000D03*
%TO.P,U3,J2-16,SD2*%
%TO.N,BIN1*%
X144510000Y-76340000D03*
%TO.P,U3,J2-17,SD3*%
%TO.N,BIN2*%
X147050000Y-76340000D03*
%TO.P,U3,J2-18,CMD*%
%TO.N,PWMB*%
X149590000Y-76340000D03*
%TO.P,U3,J2-19,EXT_5V*%
%TO.N,5V*%
X152130000Y-76340000D03*
%TO.P,U3,J3-1,GND3*%
%TO.N,GND*%
X106410000Y-50940000D03*
%TO.P,U3,J3-2,IO23*%
%TO.N,unconnected-(U3-IO23-PadJ3-2)*%
X108950000Y-50940000D03*
%TO.P,U3,J3-3,IO22*%
%TO.N,SCL*%
X111490000Y-50940000D03*
%TO.P,U3,J3-4,TXD0*%
%TO.N,unconnected-(U3-TXD0-PadJ3-4)*%
X114030000Y-50940000D03*
%TO.P,U3,J3-5,RXD0*%
%TO.N,unconnected-(U3-RXD0-PadJ3-5)*%
X116570000Y-50940000D03*
%TO.P,U3,J3-6,IO21*%
%TO.N,SDA*%
X119110000Y-50940000D03*
%TO.P,U3,J3-7,GND2*%
%TO.N,unconnected-(U3-GND2-PadJ3-7)*%
X121650000Y-50940000D03*
%TO.P,U3,J3-8,IO19*%
%TO.N,unconnected-(U3-IO19-PadJ3-8)*%
X124190000Y-50940000D03*
%TO.P,U3,J3-9,IO18*%
%TO.N,unconnected-(U3-IO18-PadJ3-9)*%
X126730000Y-50940000D03*
%TO.P,U3,J3-10,IO5*%
%TO.N,unconnected-(U3-IO5-PadJ3-10)*%
X129270000Y-50940000D03*
%TO.P,U3,J3-11,IO17*%
%TO.N,unconnected-(U3-IO17-PadJ3-11)*%
X131810000Y-50940000D03*
%TO.P,U3,J3-12,IO16*%
%TO.N,unconnected-(U3-IO16-PadJ3-12)*%
X134350000Y-50940000D03*
%TO.P,U3,J3-13,IO4*%
%TO.N,unconnected-(U3-IO4-PadJ3-13)*%
X136890000Y-50940000D03*
%TO.P,U3,J3-14,IO0*%
%TO.N,unconnected-(U3-IO0-PadJ3-14)*%
X139430000Y-50940000D03*
%TO.P,U3,J3-15,IO2*%
%TO.N,unconnected-(U3-IO2-PadJ3-15)*%
X141970000Y-50940000D03*
%TO.P,U3,J3-16,IO15*%
%TO.N,unconnected-(U3-IO15-PadJ3-16)*%
X144510000Y-50940000D03*
%TO.P,U3,J3-17,SD1*%
%TO.N,unconnected-(U3-SD1-PadJ3-17)*%
X147050000Y-50940000D03*
%TO.P,U3,J3-18,SD0*%
%TO.N,unconnected-(U3-SD0-PadJ3-18)*%
X149590000Y-50940000D03*
%TO.P,U3,J3-19,CLK*%
%TO.N,IO23*%
X152130000Y-50940000D03*
%TD*%
D31*
%TO.P,C5,1*%
%TO.N,Net-(D7-K)*%
X98120000Y-103730000D03*
%TO.P,C5,2*%
%TO.N,GND*%
X92720000Y-103730000D03*
%TD*%
D32*
%TO.N,5V*%
X121880000Y-87500000D03*
%TO.N,GND*%
X98460000Y-116190000D03*
X110910000Y-99070000D03*
X120700000Y-114900000D03*
X124680000Y-53400000D03*
X105830000Y-93990000D03*
X97690000Y-115290000D03*
X174520000Y-48430000D03*
X110910000Y-93990000D03*
X108370000Y-99070000D03*
X111690000Y-105945000D03*
X108370000Y-96530000D03*
X120760000Y-116980000D03*
X108290000Y-105945000D03*
X93730000Y-103660000D03*
X105830000Y-96530000D03*
X110910000Y-96530000D03*
X105830000Y-99070000D03*
X90810000Y-101930000D03*
X100790000Y-92150000D03*
X108370000Y-93990000D03*
X91620000Y-103670000D03*
X120750000Y-113440000D03*
%TO.N,Net-(M1-+)*%
X134500000Y-112950000D03*
%TO.N,Net-(M1--)*%
X131460000Y-111680000D03*
%TO.N,VIN_SW*%
X131520000Y-115460000D03*
%TD*%
D33*
%TO.N,5V*%
X109985000Y-108645000D02*
X111860000Y-110520000D01*
X121880000Y-87500000D02*
X118230000Y-91150000D01*
X115320000Y-100690000D02*
X115320000Y-110520000D01*
X111860000Y-110520000D02*
X115320000Y-110520000D01*
X116330000Y-110520000D02*
X119210000Y-107640000D01*
X109985000Y-105965000D02*
X109985000Y-108645000D01*
X118230000Y-91150000D02*
X118230000Y-97780000D01*
X115320000Y-110520000D02*
X116330000Y-110520000D01*
X115320000Y-110520000D02*
X115320000Y-113900000D01*
X115320000Y-113900000D02*
X113540000Y-115680000D01*
X118230000Y-97780000D02*
X115320000Y-100690000D01*
X119210000Y-107640000D02*
X120760000Y-107640000D01*
%TO.N,GND*%
X100805000Y-92135000D02*
X100790000Y-92150000D01*
X120760000Y-114140000D02*
X120760000Y-116980000D01*
D34*
X97640000Y-113300000D02*
X97640000Y-115240000D01*
X97690000Y-115290000D02*
X97640000Y-115340000D01*
X97640000Y-115240000D02*
X97690000Y-115290000D01*
X90780000Y-102830000D02*
X90780000Y-101800000D01*
X97640000Y-115340000D02*
X97640000Y-115370000D01*
X97640000Y-115370000D02*
X98460000Y-116190000D01*
D35*
X174500000Y-48450000D02*
X174520000Y-48430000D01*
D34*
X92720000Y-103730000D02*
X91680000Y-103730000D01*
X91680000Y-103730000D02*
X90780000Y-102830000D01*
D35*
X173040000Y-48450000D02*
X174500000Y-48450000D01*
D33*
X100805000Y-89940000D02*
X100805000Y-92135000D01*
D34*
%TO.N,VIN*%
X94780000Y-81370000D02*
X94780000Y-78340000D01*
X89540000Y-73100000D02*
X89540000Y-46430000D01*
X94690000Y-81460000D02*
X94690000Y-86540000D01*
X94780000Y-78340000D02*
X89540000Y-73100000D01*
X94690000Y-81460000D02*
X94780000Y-81370000D01*
D35*
%TO.N,Net-(D1-K)*%
X171360000Y-48420000D02*
X171390000Y-48450000D01*
X168570000Y-48420000D02*
X171360000Y-48420000D01*
%TO.N,IO23*%
X165770000Y-48420000D02*
X153010000Y-48420000D01*
X153010000Y-48420000D02*
X152150000Y-49280000D01*
X152150000Y-50940000D02*
X152150000Y-49280000D01*
D33*
%TO.N,Net-(D2-K)*%
X103710000Y-86740000D02*
X103710000Y-89920000D01*
X103710000Y-89920000D02*
X103730000Y-89940000D01*
D36*
%TO.N,Net-(M1-+)*%
X139480000Y-114770000D02*
X137660000Y-112950000D01*
X137660000Y-112950000D02*
X134500000Y-112950000D01*
X139480000Y-120970000D02*
X139480000Y-114770000D01*
%TO.N,Net-(M1--)*%
X138960000Y-111680000D02*
X131460000Y-111680000D01*
X142020000Y-114740000D02*
X138960000Y-111680000D01*
X142020000Y-120970000D02*
X142020000Y-114740000D01*
%TO.N,Net-(M2-+)*%
X147100000Y-118460000D02*
X147100000Y-120970000D01*
X156740000Y-67970000D02*
X156740000Y-108820000D01*
X156740000Y-108820000D02*
X147100000Y-118460000D01*
%TO.N,Net-(M2--)*%
X154950000Y-108140000D02*
X145450000Y-117640000D01*
X144560000Y-118520000D02*
X144560000Y-120970000D01*
X156740000Y-61650000D02*
X154950000Y-63440000D01*
X145450000Y-117640000D02*
X145440000Y-117640000D01*
X156740000Y-59970000D02*
X156740000Y-61650000D01*
X145440000Y-117640000D02*
X144560000Y-118520000D01*
X154950000Y-63440000D02*
X154950000Y-108140000D01*
D34*
%TO.N,VIN_SW*%
X131970000Y-115910000D02*
X131970000Y-120860000D01*
X131520000Y-115460000D02*
X131970000Y-115910000D01*
D33*
X101935000Y-86540000D02*
X102135000Y-86740000D01*
D34*
X97230000Y-92630000D02*
X97380000Y-92780000D01*
D33*
X97230000Y-86540000D02*
X101935000Y-86540000D01*
D34*
X97230000Y-81460000D02*
X97230000Y-92630000D01*
X131970000Y-120860000D02*
X131860000Y-120970000D01*
D36*
%TO.N,3V3*%
X104730000Y-74660000D02*
X104730000Y-49040000D01*
X117730000Y-45700000D02*
X119230000Y-47200000D01*
X108070000Y-45700000D02*
X117730000Y-45700000D01*
X106410000Y-76340000D02*
X104730000Y-74660000D01*
X104730000Y-49040000D02*
X108070000Y-45700000D01*
D35*
%TO.N,PWMB*%
X145430000Y-78720000D02*
X145880000Y-78270000D01*
X146718062Y-78270000D02*
X147308062Y-77680000D01*
X147100000Y-105730000D02*
X147100000Y-95320000D01*
X145430000Y-93650000D02*
X145430000Y-78720000D01*
X147308062Y-77680000D02*
X148250000Y-77680000D01*
X148250000Y-77680000D02*
X149590000Y-76340000D01*
X145880000Y-78270000D02*
X146718062Y-78270000D01*
X147100000Y-95320000D02*
X145430000Y-93650000D01*
%TO.N,PWMA*%
X131860000Y-105730000D02*
X131860000Y-76050000D01*
X131860000Y-105730000D02*
X131840000Y-105710000D01*
%TO.N,BIN2*%
X144590000Y-95870000D02*
X144590000Y-95590000D01*
X144930000Y-78460000D02*
X147050000Y-76340000D01*
X144590000Y-95590000D02*
X144930000Y-95250000D01*
X144930000Y-95250000D02*
X144930000Y-78460000D01*
X144570000Y-98297500D02*
X144570000Y-95890000D01*
X144570000Y-95890000D02*
X144590000Y-95870000D01*
%TO.N,AIN2*%
X134350000Y-98347500D02*
X134350000Y-76340000D01*
X134400000Y-98397500D02*
X134350000Y-98347500D01*
%TO.N,BIN1*%
X141960000Y-96380000D02*
X144430000Y-93910000D01*
X144430000Y-93910000D02*
X144430000Y-76440000D01*
X144430000Y-76440000D02*
X144530000Y-76340000D01*
X141960000Y-98267500D02*
X141960000Y-96380000D01*
%TO.N,AIN1*%
X136890000Y-98325000D02*
X136890000Y-76340000D01*
X136990000Y-98425000D02*
X136890000Y-98325000D01*
X136910000Y-76340000D02*
X136858000Y-76392000D01*
%TO.N,Net-(U2-AI1)*%
X136940000Y-105730000D02*
X136940000Y-101400000D01*
X136940000Y-101400000D02*
X136990000Y-101350000D01*
%TO.N,Net-(U2-AI2)*%
X134400000Y-105730000D02*
X134400000Y-101322500D01*
%TO.N,SENS1*%
X114710000Y-79560000D02*
X111490000Y-76340000D01*
X125070000Y-122690000D02*
X125070000Y-82884212D01*
X122430000Y-125330000D02*
X125070000Y-122690000D01*
X121745788Y-79560000D02*
X114710000Y-79560000D01*
X125070000Y-82884212D02*
X121745788Y-79560000D01*
X122430000Y-127140000D02*
X122430000Y-125330000D01*
%TO.N,Net-(U2-BI1)*%
X142020000Y-101252500D02*
X141960000Y-101192500D01*
X142020000Y-105730000D02*
X142020000Y-101252500D01*
%TO.N,Net-(U2-BI2)*%
X144560000Y-105730000D02*
X144560000Y-101232500D01*
X144560000Y-101232500D02*
X144570000Y-101222500D01*
%TO.N,SENS2*%
X124970000Y-123497106D02*
X125570000Y-122897106D01*
X124970000Y-127140000D02*
X124970000Y-123497106D01*
X116750000Y-79060000D02*
X114030000Y-76340000D01*
X125570000Y-122897106D02*
X125570000Y-82677106D01*
X125570000Y-82677106D02*
X121952894Y-79060000D01*
X121952894Y-79060000D02*
X116750000Y-79060000D01*
%TO.N,SENS3*%
X118790000Y-78560000D02*
X116570000Y-76340000D01*
X122160000Y-78560000D02*
X118790000Y-78560000D01*
X127530000Y-127345000D02*
X127515000Y-127360000D01*
X126070000Y-122527106D02*
X126070000Y-82470000D01*
X126070000Y-82470000D02*
X122160000Y-78560000D01*
X127510000Y-123967106D02*
X126070000Y-122527106D01*
X127510000Y-127140000D02*
X127510000Y-123967106D01*
%TO.N,STBY*%
X143930000Y-93480000D02*
X143930000Y-78300000D01*
X139480000Y-105730000D02*
X139600000Y-105610000D01*
X139600000Y-97810000D02*
X143930000Y-93480000D01*
X143930000Y-78300000D02*
X141970000Y-76340000D01*
X139600000Y-105610000D02*
X139600000Y-97810000D01*
%TO.N,SENS4*%
X130050000Y-126480000D02*
X128010000Y-124440000D01*
X128010000Y-123760000D02*
X126570000Y-122320000D01*
X130050000Y-127140000D02*
X130050000Y-126480000D01*
X126570000Y-82262894D02*
X122367106Y-78060000D01*
X120830000Y-78060000D02*
X119110000Y-76340000D01*
X128010000Y-124440000D02*
X128010000Y-123760000D01*
X122367106Y-78060000D02*
X120830000Y-78060000D01*
X126570000Y-122320000D02*
X126570000Y-82262894D01*
%TO.N,SENS5*%
X121650000Y-76340000D02*
X121650000Y-76580000D01*
X121650000Y-76580000D02*
X127070000Y-82000000D01*
X127070000Y-122112894D02*
X132097106Y-127140000D01*
X127070000Y-82000000D02*
X127070000Y-122112894D01*
X132097106Y-127140000D02*
X132590000Y-127140000D01*
%TO.N,SENS6*%
X130334212Y-124670000D02*
X134290000Y-124670000D01*
X127570000Y-121905788D02*
X130334212Y-124670000D01*
X134290000Y-124670000D02*
X135130000Y-125510000D01*
X135130000Y-125510000D02*
X135130000Y-127140000D01*
X124190000Y-78412894D02*
X127570000Y-81792894D01*
X127570000Y-81792894D02*
X127570000Y-121905788D01*
X124190000Y-76340000D02*
X124190000Y-78412894D01*
D34*
%TO.N,Net-(D7-K)*%
X98120000Y-103730000D02*
X100310000Y-103730000D01*
X100310000Y-103730000D02*
X102545000Y-105965000D01*
X97380000Y-96780000D02*
X97380000Y-102990000D01*
X102545000Y-105965000D02*
X104885000Y-105965000D01*
X97380000Y-102990000D02*
X98120000Y-103730000D01*
%TO.N,Net-(D8-K)*%
X97640000Y-109000000D02*
X100010000Y-109000000D01*
X103610000Y-110730000D02*
X102384800Y-111955200D01*
X106585000Y-109655000D02*
X105510000Y-110730000D01*
X101740000Y-110730000D02*
X103610000Y-110730000D01*
X105510000Y-110730000D02*
X103610000Y-110730000D01*
X102384800Y-111955200D02*
X102384800Y-115630000D01*
X100010000Y-109000000D02*
X101740000Y-110730000D01*
X106585000Y-105965000D02*
X106585000Y-109655000D01*
D37*
%TO.N,SCL*%
X112595000Y-49835000D02*
X114055000Y-49835000D01*
X114055000Y-49835000D02*
X116690000Y-47200000D01*
X111490000Y-50940000D02*
X112595000Y-49835000D01*
%TD*%
%TA.AperFunction,Conductor*%
%TO.N,GND*%
G36*
X173436949Y-42026598D02*
G01*
X173696897Y-42035798D01*
X173704338Y-42036286D01*
X174010534Y-42065713D01*
X174010559Y-42065716D01*
X174277382Y-42093252D01*
X174284398Y-42094181D01*
X174584369Y-42142732D01*
X174585350Y-42142896D01*
X174852746Y-42188878D01*
X174859396Y-42190210D01*
X175153609Y-42257582D01*
X175155056Y-42257922D01*
X175420537Y-42322259D01*
X175426727Y-42323931D01*
X175715029Y-42409889D01*
X175716678Y-42410394D01*
X175978252Y-42492807D01*
X175983978Y-42494766D01*
X176265377Y-42598893D01*
X176267436Y-42599677D01*
X176523457Y-42699767D01*
X176528742Y-42701976D01*
X176802392Y-42823871D01*
X176804598Y-42824882D01*
X177053845Y-42942265D01*
X177058606Y-42944635D01*
X177323419Y-43083750D01*
X177326014Y-43085153D01*
X177566984Y-43219183D01*
X177571282Y-43221689D01*
X177826385Y-43377518D01*
X177829142Y-43379253D01*
X178060740Y-43529359D01*
X178064577Y-43531950D01*
X178221019Y-43641992D01*
X178308912Y-43703816D01*
X178311841Y-43705941D01*
X178532878Y-43871380D01*
X178536305Y-43874040D01*
X178768951Y-44061271D01*
X178772032Y-44063834D01*
X178981447Y-44243825D01*
X178984395Y-44246442D01*
X179204483Y-44448335D01*
X179207596Y-44451293D01*
X179227086Y-44470475D01*
X179404370Y-44644961D01*
X179406939Y-44647566D01*
X179613544Y-44863274D01*
X179616717Y-44866714D01*
X179797306Y-45070183D01*
X179799898Y-45073103D01*
X179802063Y-45075609D01*
X179994388Y-45304320D01*
X179997561Y-45308253D01*
X180166261Y-45526324D01*
X180168046Y-45528689D01*
X180345364Y-45769579D01*
X180348470Y-45773998D01*
X180501875Y-46002630D01*
X180503309Y-46004816D01*
X180664889Y-46256963D01*
X180667879Y-46261875D01*
X180805292Y-46499929D01*
X180806406Y-46501901D01*
X180951593Y-46764381D01*
X180954413Y-46769789D01*
X181075167Y-47015952D01*
X181075998Y-47017680D01*
X181204240Y-47289663D01*
X181206837Y-47295564D01*
X181310278Y-47548221D01*
X181310863Y-47549676D01*
X181421697Y-47830468D01*
X181424018Y-47836855D01*
X181509631Y-48094223D01*
X181510010Y-48095383D01*
X181603027Y-48384476D01*
X181605019Y-48391337D01*
X181672236Y-48650601D01*
X181672451Y-48651445D01*
X181747435Y-48949269D01*
X181749044Y-48956587D01*
X181797133Y-49211843D01*
X181797229Y-49212357D01*
X181854279Y-49522360D01*
X181855454Y-49530112D01*
X181881514Y-49748516D01*
X181881534Y-49748689D01*
X181921849Y-50090659D01*
X181922702Y-50105136D01*
X181929461Y-70486419D01*
X181914712Y-70545114D01*
X181873938Y-70589837D01*
X181816853Y-70609936D01*
X181477361Y-70641257D01*
X180576479Y-70762317D01*
X179681388Y-70920697D01*
X179026159Y-71064937D01*
X178793649Y-71116121D01*
X178350513Y-71233167D01*
X177914791Y-71348254D01*
X177046328Y-71616696D01*
X176189779Y-71920978D01*
X175346612Y-72260576D01*
X174518277Y-72634908D01*
X173706198Y-73043330D01*
X172911792Y-73485130D01*
X172136412Y-73959554D01*
X171381422Y-74465771D01*
X170648093Y-75002926D01*
X169937750Y-75570046D01*
X169251541Y-76166219D01*
X168590697Y-76790374D01*
X167956364Y-77441429D01*
X167349618Y-78118276D01*
X166871997Y-78697819D01*
X166776003Y-78814298D01*
X166771502Y-78819759D01*
X166223039Y-79544627D01*
X165705151Y-80291666D01*
X165461600Y-80676170D01*
X165235105Y-81033746D01*
X165218729Y-81059599D01*
X164764660Y-81847013D01*
X164764652Y-81847027D01*
X164764651Y-81847030D01*
X164393032Y-82558189D01*
X164343656Y-82652678D01*
X163956515Y-83475067D01*
X163603841Y-84312899D01*
X163286292Y-85164611D01*
X163004397Y-86028776D01*
X162758635Y-86903935D01*
X162656140Y-87337400D01*
X162652303Y-87349594D01*
X162651136Y-87358676D01*
X162649410Y-87366037D01*
X162653991Y-87382200D01*
X162629563Y-105591382D01*
X162627835Y-105600541D01*
X162629341Y-105636299D01*
X162629431Y-105643713D01*
X162628923Y-105672345D01*
X162628876Y-105674206D01*
X162620781Y-105921231D01*
X162619680Y-105934147D01*
X162606383Y-106030356D01*
X162605499Y-106035846D01*
X162572834Y-106213147D01*
X162570815Y-106222193D01*
X162543965Y-106324375D01*
X162541276Y-106333244D01*
X162482579Y-106503658D01*
X162480651Y-106508874D01*
X162444934Y-106599197D01*
X162439539Y-106610994D01*
X162324429Y-106831439D01*
X162323557Y-106833079D01*
X162311620Y-106855128D01*
X162305983Y-106864524D01*
X148131317Y-128284415D01*
X148127490Y-128288342D01*
X148105506Y-128323300D01*
X148102449Y-128327929D01*
X148041948Y-128415211D01*
X148041624Y-128415677D01*
X147879381Y-128647466D01*
X147872736Y-128656121D01*
X147763124Y-128786594D01*
X147762008Y-128787904D01*
X147617597Y-128955032D01*
X147610931Y-128962159D01*
X147481710Y-129089858D01*
X147479646Y-129091852D01*
X147327141Y-129235738D01*
X147320676Y-129241426D01*
X147176827Y-129359396D01*
X147173679Y-129361894D01*
X147010628Y-129486998D01*
X147004574Y-129491360D01*
X146848869Y-129596580D01*
X146844529Y-129599382D01*
X146670955Y-129706426D01*
X146665496Y-129709604D01*
X146500224Y-129800251D01*
X146494613Y-129803145D01*
X146311079Y-129891971D01*
X146306383Y-129894124D01*
X146133973Y-129968870D01*
X146127039Y-129971632D01*
X145933886Y-130041894D01*
X145930089Y-130043206D01*
X145753307Y-130101100D01*
X145745036Y-130103494D01*
X145541687Y-130154774D01*
X145538895Y-130155444D01*
X145361782Y-130195771D01*
X145352191Y-130197561D01*
X145133667Y-130229509D01*
X145131960Y-130229746D01*
X144962989Y-130252056D01*
X144952126Y-130253007D01*
X144672780Y-130265111D01*
X144672208Y-130265134D01*
X144562324Y-130269387D01*
X144556722Y-130269477D01*
X144517445Y-130269221D01*
X144514623Y-130269731D01*
X107662211Y-130458268D01*
X107651981Y-130457898D01*
X107545243Y-130449613D01*
X107544694Y-130449569D01*
X107264409Y-130426561D01*
X107254020Y-130425265D01*
X107085361Y-130396945D01*
X107083732Y-130396660D01*
X106865318Y-130356983D01*
X106856170Y-130354962D01*
X106679685Y-130308905D01*
X106677026Y-130308179D01*
X106474368Y-130250453D01*
X106466497Y-130247925D01*
X106290646Y-130184891D01*
X106287035Y-130183533D01*
X106094915Y-130107844D01*
X106088340Y-130105031D01*
X105917047Y-130025832D01*
X105912587Y-130023661D01*
X105730168Y-129930288D01*
X105724874Y-129927412D01*
X105560824Y-129833049D01*
X105555643Y-129829898D01*
X105383203Y-129719152D01*
X105379084Y-129716389D01*
X105224539Y-129608168D01*
X105218792Y-129603890D01*
X105056743Y-129475853D01*
X105053753Y-129473415D01*
X104910854Y-129353101D01*
X104904765Y-129347617D01*
X104752944Y-129201434D01*
X104750984Y-129199504D01*
X104622431Y-129070098D01*
X104616084Y-129063206D01*
X104471999Y-128894387D01*
X104470934Y-128893123D01*
X104361626Y-128761538D01*
X104355282Y-128753209D01*
X104194457Y-128522476D01*
X104194143Y-128522023D01*
X104184838Y-128508546D01*
X104131927Y-128431912D01*
X104129007Y-128427482D01*
X104106228Y-128391259D01*
X104103574Y-128388489D01*
X103523035Y-127496700D01*
X105795787Y-127496700D01*
X105825413Y-127765952D01*
X105838975Y-127817827D01*
X105893928Y-128028024D01*
X105974825Y-128218390D01*
X105999871Y-128277328D01*
X106140982Y-128508547D01*
X106265208Y-128657820D01*
X106314255Y-128716756D01*
X106515998Y-128897518D01*
X106741910Y-129046980D01*
X106833377Y-129089858D01*
X106987177Y-129161957D01*
X107232416Y-129235738D01*
X107246569Y-129239996D01*
X107514561Y-129279436D01*
X107717631Y-129279436D01*
X107717634Y-129279436D01*
X107920156Y-129264613D01*
X107920155Y-129264613D01*
X108184553Y-129205716D01*
X108437558Y-129108950D01*
X108673777Y-128976377D01*
X108888177Y-128810824D01*
X109076186Y-128615817D01*
X109233799Y-128395515D01*
X109357656Y-128154611D01*
X109445118Y-127898241D01*
X109494319Y-127631869D01*
X109504212Y-127361171D01*
X109474586Y-127091918D01*
X109406072Y-126829848D01*
X109300130Y-126580546D01*
X109227886Y-126462170D01*
X109159017Y-126349324D01*
X108985746Y-126141117D01*
X108880758Y-126047048D01*
X108784002Y-125960354D01*
X108558090Y-125810892D01*
X108501452Y-125784341D01*
X108312822Y-125695914D01*
X108053437Y-125617877D01*
X108053431Y-125617876D01*
X107785439Y-125578436D01*
X107582369Y-125578436D01*
X107582366Y-125578436D01*
X107379843Y-125593258D01*
X107115449Y-125652155D01*
X106862441Y-125748922D01*
X106626223Y-125881495D01*
X106411825Y-126047045D01*
X106223813Y-126242056D01*
X106066201Y-126462356D01*
X105942342Y-126703265D01*
X105854881Y-126959631D01*
X105805680Y-127226002D01*
X105795787Y-127496700D01*
X103523035Y-127496700D01*
X94053397Y-112950000D01*
X90095434Y-106870011D01*
X90090309Y-106861396D01*
X90077247Y-106837269D01*
X90076377Y-106835633D01*
X90013821Y-106715841D01*
X89962114Y-106616824D01*
X89956737Y-106605067D01*
X89920710Y-106513968D01*
X89918810Y-106508831D01*
X89860365Y-106339158D01*
X89857677Y-106330289D01*
X89855279Y-106321163D01*
X89830666Y-106227501D01*
X89828649Y-106218463D01*
X89796133Y-106041994D01*
X89795263Y-106036598D01*
X89781564Y-105937489D01*
X89780487Y-105925252D01*
X89774043Y-105756119D01*
X89773977Y-105753778D01*
X89772125Y-105649374D01*
X89772216Y-105641963D01*
X89773517Y-105611035D01*
X89770530Y-105595098D01*
X89770841Y-105027074D01*
X89771222Y-104330008D01*
X95869500Y-104330008D01*
X95880000Y-104432796D01*
X95935186Y-104599334D01*
X96027288Y-104748657D01*
X96151342Y-104872711D01*
X96151344Y-104872712D01*
X96300666Y-104964814D01*
X96393720Y-104995649D01*
X96467202Y-105019999D01*
X96477703Y-105021071D01*
X96569991Y-105030500D01*
X99670008Y-105030499D01*
X99767466Y-105020543D01*
X99821627Y-105027074D01*
X99867746Y-105056220D01*
X101606182Y-106794656D01*
X101615448Y-106805024D01*
X101636513Y-106831439D01*
X101637493Y-106832667D01*
X101687394Y-106876265D01*
X101693494Y-106881968D01*
X101700467Y-106888942D01*
X101731740Y-106915051D01*
X101733853Y-106916856D01*
X101768510Y-106947134D01*
X101807004Y-106980765D01*
X101810760Y-106983009D01*
X101826624Y-106994266D01*
X101829978Y-106997066D01*
X101829979Y-106997067D01*
X101829981Y-106997068D01*
X101864996Y-107016936D01*
X101914450Y-107044997D01*
X101916854Y-107046397D01*
X102000236Y-107096215D01*
X102000239Y-107096216D01*
X102004323Y-107097749D01*
X102021953Y-107105996D01*
X102025753Y-107108152D01*
X102025755Y-107108153D01*
X102117468Y-107140245D01*
X102119998Y-107141162D01*
X102210976Y-107175307D01*
X102214972Y-107176032D01*
X102215269Y-107176086D01*
X102234088Y-107181053D01*
X102238217Y-107182498D01*
X102334251Y-107197707D01*
X102336847Y-107198149D01*
X102400369Y-107209677D01*
X102432452Y-107215500D01*
X102432453Y-107215500D01*
X102436830Y-107215500D01*
X102456226Y-107217026D01*
X102460540Y-107217710D01*
X102555299Y-107215583D01*
X102557622Y-107215531D01*
X102560404Y-107215500D01*
X103710501Y-107215500D01*
X103772501Y-107232113D01*
X103817888Y-107277500D01*
X103834501Y-107339500D01*
X103834501Y-108065009D01*
X103845000Y-108167796D01*
X103900186Y-108334334D01*
X103966053Y-108441123D01*
X103984485Y-108503515D01*
X103968791Y-108566651D01*
X103923293Y-108613153D01*
X103860514Y-108630219D01*
X101460055Y-108630219D01*
X101412602Y-108620780D01*
X101372374Y-108593900D01*
X100948816Y-108170342D01*
X100939550Y-108159974D01*
X100917506Y-108132332D01*
X100867603Y-108088732D01*
X100861507Y-108083033D01*
X100854527Y-108076053D01*
X100823255Y-108049945D01*
X100821140Y-108048139D01*
X100796809Y-108026882D01*
X100747996Y-107984235D01*
X100744236Y-107981988D01*
X100728370Y-107970730D01*
X100725018Y-107967931D01*
X100640548Y-107920001D01*
X100638145Y-107918601D01*
X100554765Y-107868785D01*
X100550671Y-107867249D01*
X100533046Y-107859003D01*
X100529245Y-107856847D01*
X100529244Y-107856846D01*
X100529243Y-107856846D01*
X100437568Y-107824767D01*
X100434954Y-107823819D01*
X100344028Y-107789694D01*
X100344025Y-107789693D01*
X100344024Y-107789693D01*
X100339721Y-107788911D01*
X100320917Y-107783948D01*
X100316782Y-107782501D01*
X100220847Y-107767306D01*
X100218106Y-107766840D01*
X100122550Y-107749500D01*
X100122547Y-107749500D01*
X100118170Y-107749500D01*
X100098773Y-107747973D01*
X100094460Y-107747290D01*
X99997358Y-107749469D01*
X99994578Y-107749500D01*
X99336478Y-107749500D01*
X99276046Y-107733777D01*
X99230939Y-107690596D01*
X99132711Y-107531342D01*
X99008657Y-107407288D01*
X98859334Y-107315186D01*
X98692797Y-107260000D01*
X98590009Y-107249500D01*
X96689991Y-107249500D01*
X96587203Y-107260000D01*
X96420665Y-107315186D01*
X96271342Y-107407288D01*
X96147288Y-107531342D01*
X96055186Y-107680665D01*
X96000000Y-107847202D01*
X95989500Y-107949990D01*
X95989500Y-110050008D01*
X96000000Y-110152796D01*
X96055186Y-110319334D01*
X96147288Y-110468657D01*
X96271342Y-110592711D01*
X96271344Y-110592712D01*
X96420666Y-110684814D01*
X96532016Y-110721712D01*
X96587202Y-110739999D01*
X96597703Y-110741071D01*
X96689991Y-110750500D01*
X98590008Y-110750499D01*
X98692797Y-110739999D01*
X98859334Y-110684814D01*
X99008656Y-110592712D01*
X99132712Y-110468656D01*
X99224814Y-110319334D01*
X99224813Y-110319334D01*
X99230939Y-110309404D01*
X99276046Y-110266223D01*
X99336478Y-110250500D01*
X99440664Y-110250500D01*
X99488117Y-110259939D01*
X99528345Y-110286819D01*
X100773251Y-111531725D01*
X100800131Y-111571953D01*
X100809570Y-111619406D01*
X100809570Y-112302951D01*
X100792957Y-112364951D01*
X100747570Y-112410338D01*
X100685570Y-112426951D01*
X100239528Y-112426951D01*
X100209722Y-112430155D01*
X100179915Y-112433359D01*
X100045069Y-112483654D01*
X99929854Y-112569904D01*
X99843604Y-112685118D01*
X99793309Y-112819966D01*
X99786900Y-112879580D01*
X99786900Y-118380419D01*
X99793309Y-118440033D01*
X99843604Y-118574881D01*
X99929854Y-118690096D01*
X100045069Y-118776346D01*
X100179917Y-118826641D01*
X100239527Y-118833050D01*
X100685570Y-118833050D01*
X100747570Y-118849663D01*
X100792957Y-118895050D01*
X100809570Y-118957050D01*
X100809570Y-122530219D01*
X114909569Y-122530219D01*
X114909570Y-122530219D01*
X114890400Y-119865668D01*
X114883870Y-118957941D01*
X114900184Y-118895565D01*
X114945610Y-118849811D01*
X115007867Y-118833049D01*
X115635270Y-118833049D01*
X115635272Y-118833049D01*
X115694883Y-118826641D01*
X115829731Y-118776346D01*
X115944946Y-118690096D01*
X116031196Y-118574881D01*
X116081491Y-118440033D01*
X116087900Y-118380423D01*
X116087899Y-114586998D01*
X116093585Y-114549881D01*
X116110117Y-114516172D01*
X116116767Y-114506618D01*
X116122399Y-114499148D01*
X116159698Y-114453407D01*
X116173783Y-114426439D01*
X116181918Y-114413015D01*
X116188373Y-114403740D01*
X116199295Y-114388049D01*
X116222568Y-114333815D01*
X116226588Y-114325350D01*
X116253909Y-114273049D01*
X116255429Y-114267738D01*
X116262275Y-114243808D01*
X116267539Y-114229019D01*
X116279540Y-114201058D01*
X116291417Y-114143256D01*
X116293652Y-114134148D01*
X116309886Y-114077418D01*
X116312196Y-114047078D01*
X116314376Y-114031540D01*
X116320500Y-114001742D01*
X116320500Y-113942756D01*
X116320858Y-113933341D01*
X116321154Y-113929449D01*
X116325337Y-113874524D01*
X116321494Y-113844348D01*
X116320500Y-113828683D01*
X116320500Y-111641898D01*
X116333637Y-111586352D01*
X116370263Y-111542576D01*
X116422619Y-111519844D01*
X116443007Y-111516188D01*
X116464440Y-111512347D01*
X116473736Y-111511043D01*
X116532438Y-111505074D01*
X116561467Y-111495965D01*
X116576700Y-111492226D01*
X116606653Y-111486858D01*
X116661426Y-111464978D01*
X116670301Y-111461819D01*
X116687675Y-111456367D01*
X116726588Y-111444159D01*
X116753194Y-111429390D01*
X116767362Y-111422662D01*
X116795617Y-111411377D01*
X116844879Y-111378909D01*
X116852910Y-111374043D01*
X116904502Y-111345409D01*
X116927587Y-111325589D01*
X116940114Y-111316144D01*
X116965519Y-111299402D01*
X117007251Y-111257668D01*
X117014123Y-111251300D01*
X117058895Y-111212866D01*
X117077524Y-111188798D01*
X117087883Y-111177036D01*
X118865934Y-109398984D01*
X118919781Y-109367372D01*
X118982209Y-109366009D01*
X119037386Y-109395244D01*
X119071319Y-109447663D01*
X119075186Y-109459334D01*
X119167288Y-109608657D01*
X119291342Y-109732711D01*
X119291344Y-109732712D01*
X119440666Y-109824814D01*
X119552017Y-109861712D01*
X119607202Y-109879999D01*
X119617702Y-109881071D01*
X119709991Y-109890500D01*
X121810008Y-109890499D01*
X121912797Y-109879999D01*
X122079334Y-109824814D01*
X122228656Y-109732712D01*
X122352712Y-109608656D01*
X122444814Y-109459334D01*
X122499999Y-109292797D01*
X122510500Y-109190009D01*
X122510499Y-106089992D01*
X122499999Y-105987203D01*
X122444814Y-105820666D01*
X122387593Y-105727895D01*
X122352711Y-105671342D01*
X122228657Y-105547288D01*
X122079334Y-105455186D01*
X121912797Y-105400000D01*
X121810009Y-105389500D01*
X119709991Y-105389500D01*
X119607203Y-105400000D01*
X119440665Y-105455186D01*
X119291342Y-105547288D01*
X119167288Y-105671342D01*
X119075186Y-105820665D01*
X119020000Y-105987202D01*
X119009500Y-106089991D01*
X119009500Y-106558728D01*
X118999859Y-106606666D01*
X118972435Y-106647149D01*
X118931494Y-106673881D01*
X118917687Y-106679397D01*
X118878566Y-106695022D01*
X118869698Y-106698179D01*
X118813410Y-106715841D01*
X118786809Y-106730605D01*
X118772639Y-106737335D01*
X118744385Y-106748622D01*
X118695121Y-106781087D01*
X118687070Y-106785964D01*
X118635498Y-106814590D01*
X118612414Y-106834407D01*
X118599887Y-106843853D01*
X118574481Y-106860598D01*
X118532775Y-106902303D01*
X118525868Y-106908704D01*
X118481103Y-106947135D01*
X118462480Y-106971193D01*
X118452108Y-106982969D01*
X116532181Y-108902899D01*
X116482818Y-108933149D01*
X116425102Y-108937691D01*
X116371615Y-108915536D01*
X116334015Y-108871513D01*
X116320500Y-108815218D01*
X116320500Y-101155783D01*
X116329939Y-101108330D01*
X116356819Y-101068102D01*
X116997938Y-100426983D01*
X118927409Y-98497510D01*
X118929579Y-98495394D01*
X118993053Y-98435059D01*
X119026763Y-98386624D01*
X119032405Y-98379141D01*
X119069697Y-98333408D01*
X119083786Y-98306433D01*
X119091908Y-98293027D01*
X119109295Y-98268049D01*
X119132568Y-98213815D01*
X119136590Y-98205346D01*
X119163909Y-98153049D01*
X119172275Y-98123808D01*
X119177539Y-98109019D01*
X119189540Y-98081058D01*
X119201417Y-98023256D01*
X119203652Y-98014148D01*
X119219886Y-97957418D01*
X119222196Y-97927078D01*
X119224376Y-97911540D01*
X119230500Y-97881742D01*
X119230500Y-97822756D01*
X119230858Y-97813341D01*
X119232394Y-97793165D01*
X119235337Y-97754524D01*
X119231494Y-97724348D01*
X119230500Y-97708683D01*
X119230500Y-91615783D01*
X119239939Y-91568330D01*
X119266819Y-91528102D01*
X120362489Y-90432432D01*
X122623341Y-88171580D01*
X122719698Y-88053407D01*
X122813910Y-87873049D01*
X122869887Y-87677418D01*
X122885337Y-87474523D01*
X122859630Y-87272672D01*
X122793816Y-87080127D01*
X122690591Y-86904773D01*
X122554179Y-86753786D01*
X122554178Y-86753785D01*
X122554176Y-86753783D01*
X122390166Y-86633348D01*
X122205268Y-86548393D01*
X122007055Y-86502396D01*
X121803638Y-86497242D01*
X121603348Y-86533140D01*
X121414382Y-86608622D01*
X121244480Y-86720599D01*
X117532646Y-90432432D01*
X117530399Y-90434623D01*
X117466948Y-90494939D01*
X117433244Y-90543362D01*
X117427573Y-90550882D01*
X117390301Y-90596593D01*
X117376210Y-90623566D01*
X117368082Y-90636983D01*
X117350705Y-90661950D01*
X117327439Y-90716165D01*
X117323399Y-90724671D01*
X117296090Y-90776952D01*
X117287720Y-90806201D01*
X117282459Y-90820978D01*
X117270460Y-90848942D01*
X117258587Y-90906713D01*
X117256342Y-90915860D01*
X117240113Y-90972580D01*
X117237802Y-91002925D01*
X117235622Y-91018466D01*
X117229500Y-91048259D01*
X117229500Y-91107242D01*
X117229142Y-91116656D01*
X117224663Y-91175477D01*
X117228506Y-91205651D01*
X117229500Y-91221317D01*
X117229500Y-97314217D01*
X117220061Y-97361670D01*
X117193181Y-97401898D01*
X114622646Y-99972432D01*
X114620399Y-99974623D01*
X114556948Y-100034939D01*
X114523244Y-100083362D01*
X114517573Y-100090882D01*
X114480301Y-100136593D01*
X114466210Y-100163566D01*
X114458082Y-100176983D01*
X114440705Y-100201950D01*
X114417439Y-100256165D01*
X114413399Y-100264671D01*
X114386090Y-100316952D01*
X114377720Y-100346201D01*
X114372459Y-100360978D01*
X114360460Y-100388942D01*
X114348587Y-100446713D01*
X114346342Y-100455860D01*
X114330113Y-100512580D01*
X114330112Y-100512582D01*
X114330113Y-100512582D01*
X114327923Y-100541342D01*
X114327802Y-100542925D01*
X114325622Y-100558466D01*
X114319500Y-100588259D01*
X114319500Y-100647242D01*
X114319142Y-100656656D01*
X114314663Y-100715477D01*
X114318506Y-100745651D01*
X114319500Y-100761317D01*
X114319500Y-108506219D01*
X114302887Y-108568219D01*
X114257500Y-108613606D01*
X114195500Y-108630219D01*
X111436501Y-108630219D01*
X111389048Y-108620780D01*
X111348820Y-108593900D01*
X111053624Y-108298704D01*
X111020646Y-108239615D01*
X111023601Y-108172012D01*
X111024999Y-108167797D01*
X111035500Y-108065009D01*
X111035499Y-103864992D01*
X111024999Y-103762203D01*
X110969814Y-103595666D01*
X110877712Y-103446344D01*
X110877711Y-103446342D01*
X110753657Y-103322288D01*
X110604334Y-103230186D01*
X110437797Y-103175000D01*
X110344535Y-103165473D01*
X110335008Y-103164500D01*
X109634991Y-103164500D01*
X109532203Y-103175000D01*
X109365665Y-103230186D01*
X109216342Y-103322288D01*
X109092288Y-103446342D01*
X109000186Y-103595665D01*
X108945000Y-103762202D01*
X108934500Y-103864990D01*
X108934500Y-108065008D01*
X108945000Y-108167796D01*
X108978206Y-108268003D01*
X108984500Y-108307007D01*
X108984500Y-108506219D01*
X108967887Y-108568219D01*
X108922500Y-108613606D01*
X108860500Y-108630219D01*
X107959500Y-108630219D01*
X107897500Y-108613606D01*
X107852113Y-108568219D01*
X107835500Y-108506219D01*
X107835500Y-105908847D01*
X107834339Y-105895946D01*
X107820377Y-105740812D01*
X107760493Y-105523830D01*
X107662829Y-105321027D01*
X107662828Y-105321025D01*
X107659179Y-105316002D01*
X107641567Y-105281436D01*
X107635499Y-105243120D01*
X107635499Y-103864991D01*
X107624999Y-103762203D01*
X107624999Y-103762202D01*
X107569814Y-103595666D01*
X107477712Y-103446344D01*
X107477711Y-103446342D01*
X107353657Y-103322288D01*
X107204334Y-103230186D01*
X107037797Y-103175000D01*
X106944535Y-103165473D01*
X106935008Y-103164500D01*
X106234991Y-103164500D01*
X106132203Y-103175000D01*
X105965665Y-103230186D01*
X105804007Y-103329897D01*
X105802567Y-103327563D01*
X105767077Y-103348048D01*
X105702890Y-103348040D01*
X105667432Y-103327562D01*
X105665993Y-103329897D01*
X105504334Y-103230186D01*
X105337797Y-103175000D01*
X105244535Y-103165473D01*
X105235008Y-103164500D01*
X104534991Y-103164500D01*
X104432203Y-103175000D01*
X104265665Y-103230186D01*
X104116342Y-103322288D01*
X103992288Y-103446342D01*
X103900186Y-103595665D01*
X103845000Y-103762202D01*
X103834500Y-103864991D01*
X103834500Y-104590500D01*
X103817887Y-104652500D01*
X103772500Y-104697887D01*
X103710500Y-104714500D01*
X103114337Y-104714500D01*
X103066884Y-104705061D01*
X103026656Y-104678181D01*
X101248816Y-102900342D01*
X101239550Y-102889974D01*
X101217506Y-102862332D01*
X101167603Y-102818732D01*
X101161507Y-102813033D01*
X101154527Y-102806053D01*
X101123255Y-102779945D01*
X101121140Y-102778139D01*
X101096809Y-102756882D01*
X101047996Y-102714235D01*
X101044236Y-102711988D01*
X101028370Y-102700730D01*
X101025018Y-102697931D01*
X100940548Y-102650001D01*
X100938145Y-102648601D01*
X100854765Y-102598785D01*
X100850671Y-102597249D01*
X100833046Y-102589003D01*
X100829245Y-102586847D01*
X100829244Y-102586846D01*
X100829243Y-102586846D01*
X100737568Y-102554767D01*
X100734954Y-102553819D01*
X100644028Y-102519694D01*
X100644025Y-102519693D01*
X100644024Y-102519693D01*
X100639721Y-102518911D01*
X100620917Y-102513948D01*
X100616782Y-102512501D01*
X100520847Y-102497306D01*
X100518106Y-102496840D01*
X100422550Y-102479500D01*
X100422547Y-102479500D01*
X100418170Y-102479500D01*
X100398773Y-102477973D01*
X100394460Y-102477290D01*
X100297358Y-102479469D01*
X100294578Y-102479500D01*
X99912007Y-102479500D01*
X99873003Y-102473206D01*
X99772797Y-102440000D01*
X99670009Y-102429500D01*
X98754500Y-102429500D01*
X98692500Y-102412887D01*
X98647113Y-102367500D01*
X98630500Y-102305500D01*
X98630500Y-98271196D01*
X98648961Y-98206100D01*
X98659767Y-98188579D01*
X98714814Y-98099334D01*
X98769999Y-97932797D01*
X98780500Y-97830009D01*
X98780499Y-95729992D01*
X98769999Y-95627203D01*
X98714814Y-95460666D01*
X98635561Y-95332175D01*
X98622711Y-95311342D01*
X98498657Y-95187288D01*
X98349334Y-95095186D01*
X98182797Y-95040000D01*
X98080009Y-95029500D01*
X96679991Y-95029500D01*
X96577203Y-95040000D01*
X96410665Y-95095186D01*
X96261342Y-95187288D01*
X96137288Y-95311342D01*
X96045186Y-95460665D01*
X95990000Y-95627202D01*
X95979500Y-95729990D01*
X95979500Y-97830008D01*
X95990000Y-97932796D01*
X96045186Y-98099334D01*
X96111039Y-98206100D01*
X96129500Y-98271196D01*
X96129500Y-102557770D01*
X96120061Y-102605223D01*
X96093183Y-102645448D01*
X96060233Y-102678398D01*
X96027286Y-102711345D01*
X95935186Y-102860665D01*
X95880000Y-103027202D01*
X95869500Y-103129990D01*
X95869500Y-104330008D01*
X89771222Y-104330008D01*
X89780479Y-87415747D01*
X89785135Y-87399387D01*
X89784264Y-87395733D01*
X89783221Y-87385729D01*
X89778159Y-87370076D01*
X89675897Y-86937587D01*
X89430140Y-86062444D01*
X89148241Y-85198264D01*
X88830688Y-84346541D01*
X88478029Y-83508744D01*
X88352349Y-83241767D01*
X88284654Y-83097963D01*
X88090872Y-82686319D01*
X87669885Y-81880687D01*
X87215797Y-81093238D01*
X86928608Y-80639845D01*
X86729395Y-80325341D01*
X86706055Y-80291674D01*
X86447513Y-79918732D01*
X86211497Y-79578284D01*
X85765960Y-78989446D01*
X85663032Y-78853412D01*
X85262011Y-78366818D01*
X85084918Y-78151934D01*
X84552424Y-77557918D01*
X84478174Y-77475089D01*
X84368311Y-77362330D01*
X83843840Y-76824032D01*
X83182995Y-76199877D01*
X82496787Y-75603704D01*
X81786445Y-75036583D01*
X81700184Y-74973398D01*
X81053116Y-74499428D01*
X80298122Y-73993210D01*
X79522752Y-73518790D01*
X78728343Y-73076990D01*
X78588205Y-73006510D01*
X77916261Y-72668566D01*
X77321968Y-72399999D01*
X83254340Y-72399999D01*
X83274936Y-72635407D01*
X83299725Y-72727919D01*
X83336097Y-72863663D01*
X83435965Y-73077829D01*
X83571505Y-73271401D01*
X83738599Y-73438495D01*
X83932171Y-73574035D01*
X84146337Y-73673903D01*
X84330393Y-73723220D01*
X84374592Y-73735063D01*
X84551032Y-73750500D01*
X84551034Y-73750500D01*
X84668966Y-73750500D01*
X84668968Y-73750500D01*
X84788648Y-73740029D01*
X84845408Y-73735063D01*
X85073663Y-73673903D01*
X85287829Y-73574035D01*
X85481401Y-73438495D01*
X85648495Y-73271401D01*
X85784035Y-73077830D01*
X85883903Y-72863663D01*
X85945063Y-72635408D01*
X85965659Y-72400000D01*
X85945063Y-72164592D01*
X85883903Y-71936337D01*
X85784035Y-71722171D01*
X85648495Y-71528599D01*
X85481401Y-71361505D01*
X85287829Y-71225965D01*
X85073663Y-71126097D01*
X85036417Y-71116117D01*
X84845407Y-71064936D01*
X84668968Y-71049500D01*
X84668966Y-71049500D01*
X84551034Y-71049500D01*
X84551032Y-71049500D01*
X84374592Y-71064936D01*
X84146336Y-71126097D01*
X83932170Y-71225965D01*
X83738598Y-71361505D01*
X83571508Y-71528595D01*
X83571505Y-71528598D01*
X83571505Y-71528599D01*
X83458894Y-71689425D01*
X83435964Y-71722172D01*
X83336097Y-71936337D01*
X83274936Y-72164592D01*
X83254340Y-72399999D01*
X77321968Y-72399999D01*
X77087935Y-72294237D01*
X76244751Y-71954632D01*
X75388211Y-71650353D01*
X74519747Y-71381911D01*
X74338759Y-71334106D01*
X73640891Y-71149778D01*
X72753151Y-70954354D01*
X71858057Y-70795973D01*
X70957181Y-70674915D01*
X70617843Y-70643608D01*
X70560710Y-70623477D01*
X70519930Y-70578684D01*
X70505235Y-70519921D01*
X70532339Y-54839999D01*
X83254340Y-54839999D01*
X83274936Y-55075407D01*
X83305641Y-55189999D01*
X83336097Y-55303663D01*
X83435965Y-55517829D01*
X83571505Y-55711401D01*
X83738599Y-55878495D01*
X83932171Y-56014035D01*
X84146337Y-56113903D01*
X84374591Y-56175062D01*
X84374592Y-56175063D01*
X84551032Y-56190500D01*
X84551034Y-56190500D01*
X84668966Y-56190500D01*
X84668968Y-56190500D01*
X84786594Y-56180208D01*
X84845408Y-56175063D01*
X85073663Y-56113903D01*
X85287829Y-56014035D01*
X85481401Y-55878495D01*
X85648495Y-55711401D01*
X85784035Y-55517830D01*
X85883903Y-55303663D01*
X85945063Y-55075408D01*
X85965659Y-54840000D01*
X85955714Y-54726336D01*
X85945063Y-54604592D01*
X85920299Y-54512170D01*
X85883903Y-54376337D01*
X85784035Y-54162171D01*
X85648495Y-53968599D01*
X85481401Y-53801505D01*
X85287829Y-53665965D01*
X85073663Y-53566097D01*
X85073662Y-53566096D01*
X84845407Y-53504936D01*
X84668968Y-53489500D01*
X84668966Y-53489500D01*
X84551034Y-53489500D01*
X84551032Y-53489500D01*
X84374592Y-53504936D01*
X84146336Y-53566097D01*
X83932170Y-53665965D01*
X83738598Y-53801505D01*
X83571508Y-53968595D01*
X83435964Y-54162172D01*
X83336097Y-54376337D01*
X83274936Y-54604592D01*
X83254340Y-54839999D01*
X70532339Y-54839999D01*
X70540486Y-50127190D01*
X70541338Y-50112908D01*
X70582013Y-49767882D01*
X70586280Y-49732128D01*
X70607742Y-49552254D01*
X70608912Y-49544537D01*
X70666133Y-49233606D01*
X70714157Y-48978699D01*
X70715755Y-48971431D01*
X70790958Y-48672736D01*
X70858186Y-48413423D01*
X70860144Y-48406679D01*
X70953422Y-48116776D01*
X70953542Y-48116412D01*
X71039181Y-47858964D01*
X71041465Y-47852681D01*
X71152482Y-47571421D01*
X71152948Y-47570265D01*
X71256360Y-47317676D01*
X71258915Y-47311870D01*
X71387379Y-47039415D01*
X71388056Y-47038009D01*
X71508787Y-46791893D01*
X71511528Y-46786634D01*
X71656947Y-46523732D01*
X71657927Y-46521999D01*
X71711033Y-46429999D01*
X88059442Y-46429999D01*
X88079635Y-46673687D01*
X88079635Y-46673690D01*
X88079636Y-46673692D01*
X88103971Y-46769789D01*
X88139665Y-46910738D01*
X88237887Y-47134664D01*
X88269309Y-47182759D01*
X88284345Y-47215199D01*
X88289500Y-47250581D01*
X88289500Y-73022814D01*
X88288720Y-73036698D01*
X88284761Y-73071826D01*
X88289219Y-73137932D01*
X88289500Y-73146274D01*
X88289500Y-73156155D01*
X88293153Y-73196749D01*
X88293371Y-73199521D01*
X88299904Y-73296414D01*
X88300973Y-73300657D01*
X88304229Y-73319820D01*
X88304622Y-73324185D01*
X88330465Y-73417824D01*
X88331158Y-73420447D01*
X88335706Y-73438494D01*
X88354904Y-73514684D01*
X88356712Y-73518664D01*
X88363342Y-73536950D01*
X88364506Y-73541168D01*
X88406657Y-73628699D01*
X88407835Y-73631217D01*
X88447992Y-73719625D01*
X88450483Y-73723220D01*
X88460271Y-73740029D01*
X88462170Y-73743974D01*
X88519258Y-73822548D01*
X88520868Y-73824817D01*
X88576178Y-73904652D01*
X88579268Y-73907742D01*
X88591905Y-73922537D01*
X88594478Y-73926078D01*
X88594479Y-73926079D01*
X88664699Y-73993216D01*
X88666688Y-73995162D01*
X93493181Y-78821655D01*
X93520061Y-78861883D01*
X93529500Y-78909336D01*
X93529500Y-80517034D01*
X93515636Y-80574008D01*
X93477144Y-80618242D01*
X93422632Y-80639845D01*
X93364288Y-80633985D01*
X93315160Y-80601974D01*
X93286234Y-80550968D01*
X93237145Y-80378439D01*
X93141244Y-80185844D01*
X93011592Y-80014157D01*
X92852597Y-79869214D01*
X92669674Y-79755953D01*
X92669673Y-79755952D01*
X92469056Y-79678233D01*
X92257573Y-79638700D01*
X92042427Y-79638700D01*
X91830944Y-79678232D01*
X91830944Y-79678233D01*
X91630325Y-79755953D01*
X91447402Y-79869214D01*
X91288407Y-80014157D01*
X91158755Y-80185844D01*
X91062855Y-80378438D01*
X91003977Y-80585370D01*
X90989100Y-80745931D01*
X90989100Y-82174069D01*
X91003977Y-82334629D01*
X91062855Y-82541561D01*
X91158755Y-82734155D01*
X91288407Y-82905842D01*
X91447402Y-83050785D01*
X91447404Y-83050786D01*
X91447405Y-83050787D01*
X91630326Y-83164047D01*
X91830944Y-83241767D01*
X92042427Y-83281300D01*
X92257571Y-83281300D01*
X92257573Y-83281300D01*
X92469056Y-83241767D01*
X92669674Y-83164047D01*
X92852595Y-83050787D01*
X93011591Y-82905844D01*
X93141245Y-82734153D01*
X93181823Y-82652662D01*
X93204500Y-82607121D01*
X93248285Y-82558189D01*
X93310918Y-82538477D01*
X93374835Y-82553510D01*
X93422115Y-82599074D01*
X93439500Y-82662392D01*
X93439500Y-85337608D01*
X93422115Y-85400926D01*
X93374835Y-85446490D01*
X93310918Y-85461523D01*
X93248285Y-85441811D01*
X93204500Y-85392879D01*
X93141245Y-85265846D01*
X93011592Y-85094157D01*
X92852597Y-84949214D01*
X92669674Y-84835953D01*
X92469056Y-84758233D01*
X92257573Y-84718700D01*
X92042427Y-84718700D01*
X91830944Y-84758232D01*
X91830944Y-84758233D01*
X91630325Y-84835953D01*
X91447402Y-84949214D01*
X91288407Y-85094157D01*
X91158755Y-85265844D01*
X91062855Y-85458438D01*
X91003977Y-85665370D01*
X90989100Y-85825931D01*
X90989100Y-87254069D01*
X91003977Y-87414629D01*
X91062855Y-87621561D01*
X91158755Y-87814155D01*
X91288407Y-87985842D01*
X91447402Y-88130785D01*
X91447404Y-88130786D01*
X91447405Y-88130787D01*
X91630326Y-88244047D01*
X91830944Y-88321767D01*
X92042427Y-88361300D01*
X92257571Y-88361300D01*
X92257573Y-88361300D01*
X92469056Y-88321767D01*
X92669674Y-88244047D01*
X92852595Y-88130787D01*
X93011591Y-87985844D01*
X93096769Y-87873049D01*
X93141244Y-87814155D01*
X93176978Y-87742392D01*
X93237144Y-87621562D01*
X93296022Y-87414629D01*
X93296528Y-87409160D01*
X93316633Y-87352108D01*
X93361336Y-87311356D01*
X93420000Y-87296601D01*
X93478664Y-87311356D01*
X93523367Y-87352108D01*
X93543471Y-87409160D01*
X93543977Y-87414629D01*
X93602855Y-87621561D01*
X93698755Y-87814155D01*
X93828407Y-87985842D01*
X93987402Y-88130785D01*
X93987404Y-88130786D01*
X93987405Y-88130787D01*
X94170326Y-88244047D01*
X94370944Y-88321767D01*
X94582427Y-88361300D01*
X94797571Y-88361300D01*
X94797573Y-88361300D01*
X95009056Y-88321767D01*
X95209674Y-88244047D01*
X95392595Y-88130787D01*
X95551591Y-87985844D01*
X95681245Y-87814153D01*
X95712522Y-87751340D01*
X95744500Y-87687121D01*
X95788285Y-87638189D01*
X95850918Y-87618477D01*
X95914835Y-87633510D01*
X95962115Y-87679074D01*
X95979500Y-87742392D01*
X95979500Y-92552804D01*
X95978721Y-92566685D01*
X95974761Y-92601829D01*
X95979219Y-92667939D01*
X95979500Y-92676280D01*
X95979500Y-93830008D01*
X95990000Y-93932796D01*
X96045186Y-94099334D01*
X96137288Y-94248657D01*
X96261342Y-94372711D01*
X96261344Y-94372712D01*
X96410666Y-94464814D01*
X96522017Y-94501712D01*
X96577202Y-94519999D01*
X96587703Y-94521071D01*
X96679991Y-94530500D01*
X98080008Y-94530499D01*
X98182797Y-94519999D01*
X98349334Y-94464814D01*
X98498656Y-94372712D01*
X98622712Y-94248656D01*
X98714814Y-94099334D01*
X98769999Y-93932797D01*
X98780500Y-93830009D01*
X98780499Y-91729992D01*
X98769999Y-91627203D01*
X98714814Y-91460666D01*
X98668763Y-91386005D01*
X98622713Y-91311345D01*
X98616367Y-91304999D01*
X98516816Y-91205448D01*
X98489939Y-91165223D01*
X98480500Y-91117770D01*
X98480500Y-87664500D01*
X98497113Y-87602500D01*
X98542500Y-87557113D01*
X98604500Y-87540500D01*
X101393387Y-87540500D01*
X101458484Y-87558961D01*
X101467108Y-87564280D01*
X101467109Y-87564281D01*
X101610213Y-87652549D01*
X101690013Y-87678992D01*
X101769814Y-87705436D01*
X101868326Y-87715500D01*
X101889912Y-87715500D01*
X101924024Y-87720284D01*
X101957582Y-87729887D01*
X102160477Y-87745337D01*
X102362328Y-87719630D01*
X102362328Y-87719629D01*
X102374836Y-87718037D01*
X102374937Y-87718837D01*
X102395016Y-87715500D01*
X102401674Y-87715500D01*
X102500185Y-87705436D01*
X102546496Y-87690089D01*
X102604362Y-87685239D01*
X102658093Y-87707266D01*
X102695903Y-87751340D01*
X102709500Y-87807796D01*
X102709500Y-89045627D01*
X102703206Y-89084632D01*
X102677500Y-89162204D01*
X102667000Y-89264990D01*
X102667000Y-90615008D01*
X102677500Y-90717796D01*
X102732686Y-90884334D01*
X102824788Y-91033657D01*
X102948842Y-91157711D01*
X102948844Y-91157712D01*
X103098166Y-91249814D01*
X103209516Y-91286712D01*
X103264702Y-91304999D01*
X103275202Y-91306071D01*
X103367491Y-91315500D01*
X104092508Y-91315499D01*
X104195297Y-91304999D01*
X104361834Y-91249814D01*
X104511156Y-91157712D01*
X104635212Y-91033656D01*
X104727314Y-90884334D01*
X104782499Y-90717797D01*
X104793000Y-90615009D01*
X104792999Y-89264992D01*
X104782499Y-89162203D01*
X104727314Y-88995666D01*
X104727313Y-88995664D01*
X104722755Y-88981909D01*
X104724169Y-88981440D01*
X104710500Y-88933241D01*
X104710500Y-86689260D01*
X104706767Y-86652547D01*
X104695074Y-86537562D01*
X104644448Y-86376207D01*
X104639404Y-86351688D01*
X104637936Y-86337315D01*
X104585049Y-86177714D01*
X104585049Y-86177713D01*
X104496781Y-86034609D01*
X104496780Y-86034608D01*
X104496779Y-86034606D01*
X104377893Y-85915720D01*
X104234785Y-85827450D01*
X104075185Y-85774563D01*
X103976674Y-85764500D01*
X103949774Y-85764500D01*
X103918694Y-85760542D01*
X103862285Y-85745937D01*
X103659063Y-85735630D01*
X103496455Y-85760542D01*
X103479952Y-85763070D01*
X103461176Y-85764500D01*
X103443326Y-85764500D01*
X103344814Y-85774563D01*
X103185214Y-85827450D01*
X103042106Y-85915720D01*
X103010181Y-85947646D01*
X102954594Y-85979740D01*
X102890406Y-85979740D01*
X102834819Y-85947646D01*
X102802893Y-85915720D01*
X102659784Y-85827449D01*
X102657552Y-85826710D01*
X102606685Y-85794437D01*
X102590059Y-85776947D01*
X102541642Y-85743247D01*
X102534119Y-85737575D01*
X102488405Y-85700300D01*
X102461440Y-85686215D01*
X102448019Y-85678084D01*
X102423049Y-85660705D01*
X102423048Y-85660704D01*
X102423046Y-85660703D01*
X102368845Y-85637443D01*
X102360336Y-85633402D01*
X102308053Y-85606092D01*
X102302126Y-85604396D01*
X102278798Y-85597721D01*
X102264020Y-85592459D01*
X102236058Y-85580460D01*
X102178272Y-85568583D01*
X102169128Y-85566338D01*
X102112421Y-85550113D01*
X102082075Y-85547802D01*
X102066534Y-85545622D01*
X102036742Y-85539500D01*
X102036741Y-85539500D01*
X101977758Y-85539500D01*
X101968344Y-85539142D01*
X101959198Y-85538445D01*
X101909524Y-85534663D01*
X101909523Y-85534663D01*
X101879349Y-85538506D01*
X101863683Y-85539500D01*
X98604500Y-85539500D01*
X98542500Y-85522887D01*
X98497113Y-85477500D01*
X98480500Y-85415500D01*
X98480500Y-81403847D01*
X98479347Y-81391032D01*
X98465377Y-81235812D01*
X98405493Y-81018830D01*
X98403181Y-81014029D01*
X98390900Y-80960226D01*
X98390900Y-80745931D01*
X98376022Y-80585370D01*
X98317144Y-80378438D01*
X98221244Y-80185844D01*
X98091592Y-80014157D01*
X97932597Y-79869214D01*
X97749674Y-79755953D01*
X97749673Y-79755952D01*
X97549056Y-79678233D01*
X97337573Y-79638700D01*
X97122427Y-79638700D01*
X96910944Y-79678232D01*
X96910944Y-79678233D01*
X96710325Y-79755953D01*
X96527402Y-79869214D01*
X96368407Y-80014157D01*
X96253454Y-80166381D01*
X96205632Y-80204622D01*
X96145343Y-80215316D01*
X96087286Y-80195858D01*
X96045618Y-80150991D01*
X96030500Y-80091655D01*
X96030500Y-78417186D01*
X96031280Y-78403302D01*
X96035238Y-78368173D01*
X96030781Y-78302068D01*
X96030500Y-78293726D01*
X96030500Y-78283850D01*
X96030500Y-78283845D01*
X96026839Y-78243178D01*
X96026630Y-78240516D01*
X96020096Y-78143588D01*
X96019028Y-78139352D01*
X96015768Y-78120169D01*
X96015377Y-78115812D01*
X95989533Y-78022169D01*
X95988839Y-78019543D01*
X95965096Y-77925316D01*
X95963290Y-77921340D01*
X95956655Y-77903040D01*
X95955493Y-77898830D01*
X95913346Y-77811311D01*
X95912189Y-77808839D01*
X95884184Y-77747182D01*
X95872008Y-77720375D01*
X95871062Y-77719010D01*
X95869517Y-77716780D01*
X95859724Y-77699962D01*
X95858692Y-77697819D01*
X95857829Y-77696027D01*
X95824249Y-77649808D01*
X95800740Y-77617450D01*
X95799162Y-77615228D01*
X95743820Y-77535346D01*
X95740734Y-77532260D01*
X95728091Y-77517458D01*
X95725522Y-77513922D01*
X95655299Y-77446782D01*
X95653310Y-77444836D01*
X91003344Y-72794870D01*
X98150097Y-72794870D01*
X98150098Y-72794871D01*
X98861214Y-72995238D01*
X103766798Y-72989982D01*
X103805367Y-72989941D01*
X103867423Y-73006510D01*
X103912865Y-73051903D01*
X103929500Y-73113941D01*
X103929500Y-74750196D01*
X103938017Y-74787518D01*
X103940345Y-74801219D01*
X103944631Y-74839252D01*
X103957272Y-74875380D01*
X103961119Y-74888736D01*
X103969638Y-74926058D01*
X103986250Y-74960553D01*
X103991570Y-74973398D01*
X104004209Y-75009520D01*
X104012793Y-75023181D01*
X104024576Y-75041933D01*
X104031298Y-75054095D01*
X104047908Y-75088586D01*
X104071772Y-75118510D01*
X104079818Y-75129850D01*
X104100184Y-75162262D01*
X105093181Y-76155259D01*
X105120061Y-76195487D01*
X105129500Y-76242940D01*
X105129500Y-77167869D01*
X105135909Y-77227483D01*
X105186204Y-77362331D01*
X105272454Y-77477546D01*
X105387669Y-77563796D01*
X105522517Y-77614091D01*
X105582127Y-77620500D01*
X107237872Y-77620499D01*
X107297483Y-77614091D01*
X107432331Y-77563796D01*
X107547546Y-77477546D01*
X107633796Y-77362331D01*
X107684091Y-77227483D01*
X107690500Y-77167873D01*
X107690499Y-77167021D01*
X107690656Y-77166417D01*
X107691210Y-77161265D01*
X107691966Y-77161346D01*
X107706040Y-77106903D01*
X107748780Y-77061856D01*
X107808002Y-77043178D01*
X107868853Y-77055556D01*
X107916073Y-77095884D01*
X107930584Y-77116607D01*
X107965333Y-77166233D01*
X108123767Y-77324667D01*
X108307304Y-77453181D01*
X108510370Y-77547872D01*
X108726794Y-77605863D01*
X108950000Y-77625391D01*
X109173206Y-77605863D01*
X109389630Y-77547872D01*
X109592696Y-77453181D01*
X109776233Y-77324667D01*
X109934667Y-77166233D01*
X110063181Y-76982696D01*
X110107618Y-76887399D01*
X110153375Y-76835224D01*
X110220000Y-76815805D01*
X110286625Y-76835224D01*
X110332381Y-76887399D01*
X110376819Y-76982696D01*
X110505333Y-77166233D01*
X110663767Y-77324667D01*
X110847304Y-77453181D01*
X111050370Y-77547872D01*
X111266794Y-77605863D01*
X111490000Y-77625391D01*
X111713206Y-77605863D01*
X111740829Y-77598460D01*
X111805017Y-77598458D01*
X111860607Y-77630553D01*
X114189564Y-79959510D01*
X114202912Y-79976169D01*
X114255831Y-80025864D01*
X114258628Y-80028575D01*
X114278962Y-80048909D01*
X114282443Y-80051609D01*
X114291326Y-80059195D01*
X114324607Y-80090448D01*
X114343198Y-80100668D01*
X114359462Y-80111351D01*
X114376235Y-80124362D01*
X114418138Y-80142495D01*
X114428626Y-80147633D01*
X114468632Y-80169627D01*
X114489197Y-80174906D01*
X114507593Y-80181205D01*
X114527074Y-80189636D01*
X114572178Y-80196779D01*
X114583597Y-80199144D01*
X114627823Y-80210500D01*
X114649045Y-80210500D01*
X114668443Y-80212026D01*
X114689405Y-80215347D01*
X114734863Y-80211049D01*
X114746531Y-80210500D01*
X121424980Y-80210500D01*
X121472433Y-80219939D01*
X121512661Y-80246819D01*
X124383181Y-83117339D01*
X124410061Y-83157567D01*
X124419500Y-83205020D01*
X124419500Y-122369192D01*
X124410061Y-122416645D01*
X124383181Y-122456873D01*
X122030484Y-124809568D01*
X122013831Y-124822910D01*
X121964133Y-124875833D01*
X121961427Y-124878626D01*
X121941083Y-124898971D01*
X121938376Y-124902460D01*
X121930807Y-124911321D01*
X121899551Y-124944607D01*
X121889322Y-124963212D01*
X121878645Y-124979467D01*
X121865636Y-124996238D01*
X121847506Y-125038132D01*
X121842370Y-125048616D01*
X121820372Y-125088632D01*
X121815091Y-125109199D01*
X121808791Y-125127600D01*
X121800364Y-125147074D01*
X121793223Y-125192161D01*
X121790855Y-125203598D01*
X121779500Y-125247824D01*
X121779500Y-125269045D01*
X121777973Y-125288444D01*
X121774653Y-125309403D01*
X121778950Y-125354861D01*
X121779500Y-125366530D01*
X121779500Y-125882279D01*
X121765489Y-125939536D01*
X121726623Y-125983854D01*
X121558598Y-126101505D01*
X121391505Y-126268598D01*
X121261575Y-126454159D01*
X121217257Y-126493025D01*
X121160000Y-126507036D01*
X121102743Y-126493025D01*
X121058425Y-126454159D01*
X120985019Y-126349324D01*
X120928495Y-126268599D01*
X120761401Y-126101505D01*
X120567830Y-125965965D01*
X120353663Y-125866097D01*
X120292502Y-125849709D01*
X120125407Y-125804936D01*
X119890000Y-125784340D01*
X119654592Y-125804936D01*
X119426336Y-125866097D01*
X119212170Y-125965965D01*
X119018598Y-126101505D01*
X118851505Y-126268598D01*
X118715965Y-126462170D01*
X118616097Y-126676336D01*
X118554936Y-126904592D01*
X118534340Y-127139999D01*
X118554936Y-127375407D01*
X118587437Y-127496701D01*
X118616097Y-127603663D01*
X118715965Y-127817830D01*
X118851505Y-128011401D01*
X119018599Y-128178495D01*
X119212170Y-128314035D01*
X119426337Y-128413903D01*
X119654592Y-128475063D01*
X119890000Y-128495659D01*
X120125408Y-128475063D01*
X120353663Y-128413903D01*
X120567830Y-128314035D01*
X120761401Y-128178495D01*
X120928495Y-128011401D01*
X121058426Y-127825839D01*
X121102743Y-127786975D01*
X121160000Y-127772964D01*
X121217257Y-127786975D01*
X121261573Y-127825839D01*
X121391505Y-128011401D01*
X121558599Y-128178495D01*
X121752170Y-128314035D01*
X121966337Y-128413903D01*
X122194592Y-128475063D01*
X122430000Y-128495659D01*
X122665408Y-128475063D01*
X122893663Y-128413903D01*
X123107830Y-128314035D01*
X123301401Y-128178495D01*
X123468495Y-128011401D01*
X123598426Y-127825839D01*
X123642743Y-127786975D01*
X123700000Y-127772964D01*
X123757257Y-127786975D01*
X123801573Y-127825839D01*
X123931505Y-128011401D01*
X124098599Y-128178495D01*
X124292170Y-128314035D01*
X124506337Y-128413903D01*
X124734592Y-128475063D01*
X124970000Y-128495659D01*
X125205408Y-128475063D01*
X125433663Y-128413903D01*
X125647830Y-128314035D01*
X125841401Y-128178495D01*
X126008495Y-128011401D01*
X126138426Y-127825839D01*
X126182743Y-127786975D01*
X126240000Y-127772964D01*
X126297257Y-127786975D01*
X126341573Y-127825839D01*
X126471505Y-128011401D01*
X126638599Y-128178495D01*
X126832170Y-128314035D01*
X127046337Y-128413903D01*
X127274592Y-128475063D01*
X127510000Y-128495659D01*
X127745408Y-128475063D01*
X127973663Y-128413903D01*
X128187830Y-128314035D01*
X128381401Y-128178495D01*
X128548495Y-128011401D01*
X128678426Y-127825839D01*
X128722743Y-127786975D01*
X128780000Y-127772964D01*
X128837257Y-127786975D01*
X128881573Y-127825839D01*
X129011505Y-128011401D01*
X129178599Y-128178495D01*
X129372170Y-128314035D01*
X129586337Y-128413903D01*
X129814592Y-128475063D01*
X130050000Y-128495659D01*
X130285408Y-128475063D01*
X130513663Y-128413903D01*
X130727830Y-128314035D01*
X130921401Y-128178495D01*
X131088495Y-128011401D01*
X131218426Y-127825839D01*
X131262743Y-127786975D01*
X131320000Y-127772964D01*
X131377257Y-127786975D01*
X131421573Y-127825839D01*
X131551505Y-128011401D01*
X131718599Y-128178495D01*
X131912170Y-128314035D01*
X132126337Y-128413903D01*
X132354592Y-128475063D01*
X132590000Y-128495659D01*
X132825408Y-128475063D01*
X133053663Y-128413903D01*
X133267830Y-128314035D01*
X133461401Y-128178495D01*
X133628495Y-128011401D01*
X133758426Y-127825839D01*
X133802743Y-127786975D01*
X133860000Y-127772964D01*
X133917257Y-127786975D01*
X133961573Y-127825839D01*
X134091505Y-128011401D01*
X134258599Y-128178495D01*
X134452170Y-128314035D01*
X134666337Y-128413903D01*
X134894592Y-128475063D01*
X135130000Y-128495659D01*
X135365408Y-128475063D01*
X135593663Y-128413903D01*
X135807830Y-128314035D01*
X136001401Y-128178495D01*
X136168495Y-128011401D01*
X136304035Y-127817830D01*
X136403903Y-127603663D01*
X136448355Y-127437764D01*
X142795787Y-127437764D01*
X142825413Y-127707016D01*
X142846317Y-127786975D01*
X142893928Y-127969088D01*
X142999870Y-128218390D01*
X142999871Y-128218392D01*
X143140982Y-128449611D01*
X143279298Y-128615815D01*
X143314255Y-128657820D01*
X143515998Y-128838582D01*
X143741910Y-128988044D01*
X143848211Y-129037875D01*
X143987177Y-129103021D01*
X144246562Y-129181058D01*
X144246569Y-129181060D01*
X144514561Y-129220500D01*
X144717631Y-129220500D01*
X144717634Y-129220500D01*
X144920156Y-129205677D01*
X144947867Y-129199504D01*
X145184553Y-129146780D01*
X145437558Y-129050014D01*
X145673777Y-128917441D01*
X145888177Y-128751888D01*
X146076186Y-128556881D01*
X146233799Y-128336579D01*
X146357656Y-128095675D01*
X146445118Y-127839305D01*
X146494319Y-127572933D01*
X146504212Y-127302235D01*
X146474586Y-127032982D01*
X146406072Y-126770912D01*
X146300130Y-126521610D01*
X146194985Y-126349324D01*
X146159017Y-126290388D01*
X145985746Y-126082181D01*
X145880758Y-125988112D01*
X145784002Y-125901418D01*
X145558090Y-125751956D01*
X145539256Y-125743127D01*
X145312822Y-125636978D01*
X145053437Y-125558941D01*
X145053431Y-125558940D01*
X144785439Y-125519500D01*
X144582369Y-125519500D01*
X144582366Y-125519500D01*
X144379843Y-125534322D01*
X144115449Y-125593219D01*
X143862441Y-125689986D01*
X143626223Y-125822559D01*
X143411825Y-125988109D01*
X143223813Y-126183120D01*
X143066201Y-126403420D01*
X142942342Y-126644329D01*
X142854881Y-126900695D01*
X142805680Y-127167066D01*
X142795787Y-127437764D01*
X136448355Y-127437764D01*
X136465063Y-127375408D01*
X136485659Y-127140000D01*
X136465063Y-126904592D01*
X136403903Y-126676337D01*
X136304035Y-126462171D01*
X136168495Y-126268599D01*
X136001401Y-126101505D01*
X136001400Y-126101504D01*
X135833376Y-125983851D01*
X135794510Y-125939533D01*
X135780500Y-125882277D01*
X135780500Y-125595504D01*
X135782841Y-125574294D01*
X135780561Y-125501737D01*
X135780500Y-125497842D01*
X135780500Y-125469081D01*
X135780500Y-125469075D01*
X135779946Y-125464695D01*
X135779030Y-125453054D01*
X135777597Y-125407430D01*
X135771675Y-125387047D01*
X135767732Y-125368010D01*
X135765071Y-125346942D01*
X135748266Y-125304498D01*
X135744481Y-125293444D01*
X135731744Y-125249602D01*
X135731744Y-125249601D01*
X135720934Y-125231322D01*
X135712380Y-125213862D01*
X135704568Y-125194129D01*
X135677723Y-125157180D01*
X135671332Y-125147451D01*
X135648081Y-125108135D01*
X135633068Y-125093122D01*
X135620435Y-125078330D01*
X135607963Y-125061163D01*
X135572779Y-125032056D01*
X135564140Y-125024194D01*
X134810434Y-124270488D01*
X134797091Y-124253833D01*
X134744166Y-124204134D01*
X134741369Y-124201423D01*
X134721034Y-124181088D01*
X134717547Y-124178383D01*
X134708671Y-124170801D01*
X134675394Y-124139552D01*
X134656793Y-124129326D01*
X134640532Y-124118645D01*
X134623764Y-124105638D01*
X134581870Y-124087508D01*
X134571379Y-124082369D01*
X134531367Y-124060372D01*
X134510800Y-124055091D01*
X134492398Y-124048791D01*
X134472924Y-124040364D01*
X134427837Y-124033223D01*
X134416398Y-124030854D01*
X134372178Y-124019500D01*
X134372177Y-124019500D01*
X134350955Y-124019500D01*
X134331556Y-124017973D01*
X134310596Y-124014653D01*
X134310595Y-124014653D01*
X134288558Y-124016736D01*
X134265139Y-124018950D01*
X134253470Y-124019500D01*
X130655020Y-124019500D01*
X130607567Y-124010061D01*
X130567339Y-123983181D01*
X128256819Y-121672661D01*
X128229939Y-121632433D01*
X128220500Y-121584980D01*
X128220500Y-115431825D01*
X130264761Y-115431825D01*
X130275391Y-115589478D01*
X130279904Y-115656412D01*
X130332143Y-115863725D01*
X130334905Y-115874686D01*
X130427990Y-116079621D01*
X130427992Y-116079624D01*
X130427993Y-116079626D01*
X130556180Y-116264654D01*
X130683183Y-116391657D01*
X130710061Y-116431883D01*
X130719500Y-116479336D01*
X130719500Y-120118177D01*
X130714345Y-120153559D01*
X130699309Y-120185998D01*
X130624076Y-120301150D01*
X130530844Y-120513696D01*
X130473865Y-120738700D01*
X130454699Y-120970000D01*
X130473865Y-121201299D01*
X130473865Y-121201301D01*
X130473866Y-121201305D01*
X130530843Y-121426300D01*
X130624076Y-121638849D01*
X130751021Y-121833153D01*
X130908216Y-122003913D01*
X131091374Y-122146470D01*
X131295497Y-122256936D01*
X131405258Y-122294617D01*
X131515015Y-122332297D01*
X131515017Y-122332297D01*
X131515019Y-122332298D01*
X131743951Y-122370500D01*
X131976048Y-122370500D01*
X131976049Y-122370500D01*
X132204981Y-122332298D01*
X132424503Y-122256936D01*
X132628626Y-122146470D01*
X132811784Y-122003913D01*
X132968979Y-121833153D01*
X133026191Y-121745582D01*
X133070982Y-121704349D01*
X133130000Y-121689404D01*
X133189018Y-121704349D01*
X133233808Y-121745582D01*
X133291021Y-121833153D01*
X133448216Y-122003913D01*
X133631374Y-122146470D01*
X133835497Y-122256936D01*
X133945258Y-122294617D01*
X134055015Y-122332297D01*
X134055017Y-122332297D01*
X134055019Y-122332298D01*
X134283951Y-122370500D01*
X134516048Y-122370500D01*
X134516049Y-122370500D01*
X134744981Y-122332298D01*
X134964503Y-122256936D01*
X135168626Y-122146470D01*
X135351784Y-122003913D01*
X135508979Y-121833153D01*
X135635924Y-121638849D01*
X135729157Y-121426300D01*
X135786134Y-121201305D01*
X135805300Y-120970000D01*
X135786134Y-120738695D01*
X135729157Y-120513700D01*
X135635924Y-120301151D01*
X135508979Y-120106847D01*
X135351784Y-119936087D01*
X135168626Y-119793530D01*
X134964503Y-119683064D01*
X134964499Y-119683062D01*
X134964498Y-119683062D01*
X134744984Y-119607702D01*
X134573281Y-119579050D01*
X134516049Y-119569500D01*
X134283951Y-119569500D01*
X134238164Y-119577140D01*
X134055015Y-119607702D01*
X133835501Y-119683062D01*
X133631372Y-119793531D01*
X133448215Y-119936087D01*
X133435730Y-119949651D01*
X133386697Y-119982268D01*
X133328146Y-119988585D01*
X133273283Y-119967178D01*
X133234484Y-119922874D01*
X133220500Y-119865668D01*
X133220500Y-115987185D01*
X133221280Y-115973301D01*
X133225238Y-115938172D01*
X133220781Y-115872067D01*
X133220500Y-115863725D01*
X133220500Y-115853849D01*
X133216844Y-115813235D01*
X133216626Y-115810458D01*
X133210096Y-115713588D01*
X133209028Y-115709352D01*
X133205768Y-115690169D01*
X133205377Y-115685812D01*
X133179533Y-115592169D01*
X133178839Y-115589543D01*
X133155096Y-115495316D01*
X133153290Y-115491340D01*
X133146655Y-115473040D01*
X133145493Y-115468830D01*
X133103346Y-115381311D01*
X133102189Y-115378839D01*
X133079709Y-115329346D01*
X133062008Y-115290375D01*
X133061062Y-115289010D01*
X133059517Y-115286780D01*
X133049724Y-115269962D01*
X133049343Y-115269172D01*
X133047829Y-115266027D01*
X132990740Y-115187450D01*
X132989162Y-115185228D01*
X132933820Y-115105346D01*
X132930734Y-115102260D01*
X132918091Y-115087458D01*
X132915522Y-115083922D01*
X132845299Y-115016782D01*
X132843310Y-115014836D01*
X132364529Y-114536054D01*
X132253375Y-114443257D01*
X132235019Y-114427932D01*
X132039245Y-114316847D01*
X131982061Y-114296837D01*
X131826780Y-114242500D01*
X131604464Y-114207290D01*
X131604460Y-114207290D01*
X131424429Y-114211330D01*
X131379421Y-114212340D01*
X131158902Y-114257492D01*
X130949992Y-114341292D01*
X130759398Y-114461050D01*
X130593249Y-114612916D01*
X130456893Y-114792001D01*
X130388345Y-114926534D01*
X130354701Y-114992565D01*
X130347710Y-115015846D01*
X130289963Y-115208151D01*
X130264761Y-115431825D01*
X128220500Y-115431825D01*
X128220500Y-111680000D01*
X130554540Y-111680000D01*
X130574326Y-111868257D01*
X130632820Y-112048284D01*
X130727466Y-112212216D01*
X130854129Y-112352889D01*
X131007269Y-112464151D01*
X131180197Y-112541144D01*
X131365352Y-112580500D01*
X131365354Y-112580500D01*
X131554646Y-112580500D01*
X131554648Y-112580500D01*
X131678083Y-112554262D01*
X131739803Y-112541144D01*
X131816193Y-112507132D01*
X131851931Y-112491221D01*
X131902367Y-112480500D01*
X133535037Y-112480500D01*
X133591332Y-112494015D01*
X133635355Y-112531615D01*
X133657510Y-112585102D01*
X133652968Y-112642818D01*
X133614326Y-112761742D01*
X133594540Y-112950000D01*
X133614326Y-113138257D01*
X133672820Y-113318284D01*
X133767466Y-113482216D01*
X133894129Y-113622889D01*
X134047269Y-113734151D01*
X134220197Y-113811144D01*
X134405352Y-113850500D01*
X134405354Y-113850500D01*
X134594646Y-113850500D01*
X134594648Y-113850500D01*
X134718084Y-113824262D01*
X134779803Y-113811144D01*
X134891930Y-113761221D01*
X134942367Y-113750500D01*
X137277060Y-113750500D01*
X137324513Y-113759939D01*
X137364741Y-113786819D01*
X138643181Y-115065258D01*
X138670061Y-115105486D01*
X138679500Y-115152939D01*
X138679500Y-119757719D01*
X138666900Y-119812180D01*
X138631664Y-119855569D01*
X138568705Y-119904572D01*
X138528215Y-119936087D01*
X138371020Y-120106848D01*
X138244076Y-120301150D01*
X138150844Y-120513696D01*
X138093865Y-120738700D01*
X138074699Y-120970000D01*
X138093865Y-121201299D01*
X138093865Y-121201301D01*
X138093866Y-121201305D01*
X138150843Y-121426300D01*
X138244076Y-121638849D01*
X138371021Y-121833153D01*
X138528216Y-122003913D01*
X138711374Y-122146470D01*
X138915497Y-122256936D01*
X139025258Y-122294617D01*
X139135015Y-122332297D01*
X139135017Y-122332297D01*
X139135019Y-122332298D01*
X139363951Y-122370500D01*
X139596048Y-122370500D01*
X139596049Y-122370500D01*
X139824981Y-122332298D01*
X140044503Y-122256936D01*
X140248626Y-122146470D01*
X140431784Y-122003913D01*
X140588979Y-121833153D01*
X140646191Y-121745582D01*
X140690982Y-121704349D01*
X140750000Y-121689404D01*
X140809018Y-121704349D01*
X140853808Y-121745582D01*
X140911021Y-121833153D01*
X141068216Y-122003913D01*
X141251374Y-122146470D01*
X141455497Y-122256936D01*
X141565258Y-122294617D01*
X141675015Y-122332297D01*
X141675017Y-122332297D01*
X141675019Y-122332298D01*
X141903951Y-122370500D01*
X142136048Y-122370500D01*
X142136049Y-122370500D01*
X142364981Y-122332298D01*
X142584503Y-122256936D01*
X142788626Y-122146470D01*
X142971784Y-122003913D01*
X143128979Y-121833153D01*
X143186191Y-121745582D01*
X143230982Y-121704349D01*
X143290000Y-121689404D01*
X143349018Y-121704349D01*
X143393808Y-121745582D01*
X143451021Y-121833153D01*
X143608216Y-122003913D01*
X143791374Y-122146470D01*
X143995497Y-122256936D01*
X144105258Y-122294617D01*
X144215015Y-122332297D01*
X144215017Y-122332297D01*
X144215019Y-122332298D01*
X144443951Y-122370500D01*
X144676048Y-122370500D01*
X144676049Y-122370500D01*
X144904981Y-122332298D01*
X145124503Y-122256936D01*
X145328626Y-122146470D01*
X145511784Y-122003913D01*
X145668979Y-121833153D01*
X145726191Y-121745582D01*
X145770982Y-121704349D01*
X145830000Y-121689404D01*
X145889018Y-121704349D01*
X145933808Y-121745582D01*
X145991021Y-121833153D01*
X146148216Y-122003913D01*
X146331374Y-122146470D01*
X146535497Y-122256936D01*
X146645258Y-122294617D01*
X146755015Y-122332297D01*
X146755017Y-122332297D01*
X146755019Y-122332298D01*
X146983951Y-122370500D01*
X147216048Y-122370500D01*
X147216049Y-122370500D01*
X147444981Y-122332298D01*
X147664503Y-122256936D01*
X147868626Y-122146470D01*
X148051784Y-122003913D01*
X148208979Y-121833153D01*
X148335924Y-121638849D01*
X148429157Y-121426300D01*
X148486134Y-121201305D01*
X148505300Y-120970000D01*
X148486134Y-120738695D01*
X148429157Y-120513700D01*
X148335924Y-120301151D01*
X148208979Y-120106847D01*
X148051784Y-119936087D01*
X147948335Y-119855569D01*
X147913100Y-119812180D01*
X147900500Y-119757719D01*
X147900500Y-118842940D01*
X147909939Y-118795487D01*
X147936819Y-118755259D01*
X157374605Y-109317473D01*
X157376629Y-109311418D01*
X157390187Y-109289840D01*
X157398219Y-109278521D01*
X157422092Y-109248586D01*
X157438704Y-109214088D01*
X157445423Y-109201931D01*
X157465789Y-109169522D01*
X157478433Y-109133385D01*
X157483747Y-109120556D01*
X157500360Y-109086061D01*
X157508882Y-109048721D01*
X157512720Y-109035399D01*
X157525368Y-108999255D01*
X157529655Y-108961197D01*
X157531980Y-108947520D01*
X157540500Y-108910194D01*
X157540500Y-108729806D01*
X157540500Y-72727919D01*
X166624120Y-72727919D01*
X166644716Y-72963327D01*
X166696384Y-73156155D01*
X166705877Y-73191583D01*
X166805745Y-73405749D01*
X166941285Y-73599321D01*
X167108379Y-73766415D01*
X167301951Y-73901955D01*
X167516117Y-74001823D01*
X167744372Y-74062983D01*
X167920812Y-74078420D01*
X167920814Y-74078420D01*
X168038746Y-74078420D01*
X168038748Y-74078420D01*
X168156374Y-74068128D01*
X168215188Y-74062983D01*
X168443443Y-74001823D01*
X168657609Y-73901955D01*
X168851181Y-73766415D01*
X169018275Y-73599321D01*
X169153815Y-73405750D01*
X169253683Y-73191583D01*
X169314843Y-72963328D01*
X169335439Y-72727920D01*
X169314843Y-72492512D01*
X169253683Y-72264257D01*
X169153815Y-72050091D01*
X169018275Y-71856519D01*
X168851181Y-71689425D01*
X168657609Y-71553885D01*
X168443443Y-71454017D01*
X168215187Y-71392856D01*
X168038748Y-71377420D01*
X168038746Y-71377420D01*
X167920814Y-71377420D01*
X167920812Y-71377420D01*
X167744372Y-71392856D01*
X167516116Y-71454017D01*
X167301950Y-71553885D01*
X167108378Y-71689425D01*
X166941288Y-71856515D01*
X166941285Y-71856518D01*
X166941285Y-71856519D01*
X166872586Y-71954632D01*
X166805744Y-72050092D01*
X166705877Y-72264257D01*
X166644716Y-72492512D01*
X166624120Y-72727919D01*
X157540500Y-72727919D01*
X157540500Y-69006308D01*
X157549939Y-68958855D01*
X157576819Y-68918627D01*
X157615456Y-68879990D01*
X157710826Y-68784620D01*
X157837534Y-68603662D01*
X157930894Y-68403450D01*
X157988070Y-68190068D01*
X158007323Y-67970000D01*
X157988070Y-67749932D01*
X157930894Y-67536550D01*
X157837534Y-67336339D01*
X157710826Y-67155380D01*
X157554620Y-66999174D01*
X157373662Y-66872466D01*
X157255358Y-66817300D01*
X157173451Y-66779106D01*
X156960065Y-66721929D01*
X156740000Y-66702676D01*
X156519934Y-66721929D01*
X156306548Y-66779106D01*
X156106338Y-66872466D01*
X155945623Y-66985000D01*
X155882610Y-67007160D01*
X155817243Y-66993414D01*
X155768491Y-66947753D01*
X155750500Y-66883425D01*
X155750500Y-63822940D01*
X155759939Y-63775487D01*
X155786819Y-63735259D01*
X156551927Y-62970151D01*
X157337826Y-62184252D01*
X157369816Y-62152262D01*
X157390190Y-62119834D01*
X157398222Y-62108515D01*
X157422091Y-62078587D01*
X157438698Y-62044100D01*
X157445426Y-62031928D01*
X157465789Y-61999522D01*
X157478431Y-61963391D01*
X157483751Y-61950549D01*
X157500360Y-61916061D01*
X157508882Y-61878721D01*
X157512720Y-61865399D01*
X157525368Y-61829255D01*
X157529655Y-61791197D01*
X157531980Y-61777520D01*
X157540500Y-61740194D01*
X157540500Y-61559806D01*
X157540500Y-61006308D01*
X157549939Y-60958855D01*
X157576819Y-60918627D01*
X157615456Y-60879990D01*
X157710826Y-60784620D01*
X157837534Y-60603662D01*
X157930894Y-60403450D01*
X157988070Y-60190068D01*
X158007323Y-59970000D01*
X157988070Y-59749932D01*
X157930894Y-59536550D01*
X157837534Y-59336339D01*
X157710826Y-59155380D01*
X157554620Y-58999174D01*
X157373662Y-58872466D01*
X157255358Y-58817300D01*
X157173451Y-58779106D01*
X156960065Y-58721929D01*
X156740000Y-58702676D01*
X156519934Y-58721929D01*
X156306548Y-58779106D01*
X156106338Y-58872466D01*
X155925379Y-58999174D01*
X155769174Y-59155379D01*
X155642466Y-59336338D01*
X155549106Y-59536548D01*
X155491929Y-59749934D01*
X155472676Y-59969999D01*
X155491929Y-60190065D01*
X155549106Y-60403451D01*
X155642466Y-60603662D01*
X155769174Y-60784620D01*
X155903181Y-60918627D01*
X155930061Y-60958855D01*
X155939500Y-61006308D01*
X155939500Y-61267060D01*
X155930061Y-61314513D01*
X155903181Y-61354740D01*
X154447738Y-62810184D01*
X154383961Y-62873960D01*
X154320184Y-62937737D01*
X154299817Y-62970151D01*
X154291772Y-62981489D01*
X154267908Y-63011413D01*
X154251300Y-63045899D01*
X154244576Y-63058064D01*
X154224211Y-63090475D01*
X154211565Y-63126613D01*
X154206246Y-63139453D01*
X154189639Y-63173938D01*
X154181118Y-63211268D01*
X154177270Y-63224623D01*
X154164631Y-63260743D01*
X154160345Y-63298780D01*
X154158017Y-63312480D01*
X154149500Y-63349803D01*
X154149500Y-107757060D01*
X154140061Y-107804513D01*
X154113181Y-107844741D01*
X144974522Y-116983398D01*
X144952815Y-117000709D01*
X144937738Y-117010182D01*
X144905749Y-117042172D01*
X144905748Y-117042174D01*
X144057738Y-117890184D01*
X143993961Y-117953960D01*
X143930184Y-118017737D01*
X143909817Y-118050151D01*
X143901772Y-118061489D01*
X143877908Y-118091413D01*
X143861300Y-118125899D01*
X143854576Y-118138064D01*
X143834211Y-118170475D01*
X143821565Y-118206613D01*
X143816246Y-118219453D01*
X143799639Y-118253938D01*
X143791118Y-118291268D01*
X143787270Y-118304623D01*
X143774631Y-118340743D01*
X143770345Y-118378780D01*
X143768017Y-118392480D01*
X143759500Y-118429803D01*
X143759500Y-119757719D01*
X143746900Y-119812180D01*
X143711664Y-119855569D01*
X143648705Y-119904572D01*
X143608215Y-119936087D01*
X143451018Y-120106849D01*
X143393808Y-120194417D01*
X143349017Y-120235650D01*
X143290000Y-120250595D01*
X143230983Y-120235650D01*
X143186192Y-120194417D01*
X143128981Y-120106849D01*
X142971784Y-119936087D01*
X142954808Y-119922874D01*
X142868335Y-119855569D01*
X142833100Y-119812180D01*
X142820500Y-119757719D01*
X142820500Y-114649807D01*
X142820500Y-114649806D01*
X142811981Y-114612481D01*
X142809653Y-114598776D01*
X142805368Y-114560745D01*
X142792725Y-114524613D01*
X142788881Y-114511276D01*
X142780360Y-114473939D01*
X142770472Y-114453405D01*
X142763748Y-114439441D01*
X142758428Y-114426597D01*
X142745790Y-114390480D01*
X142725425Y-114358069D01*
X142718699Y-114345898D01*
X142702092Y-114311414D01*
X142678229Y-114281491D01*
X142670181Y-114270149D01*
X142649815Y-114237737D01*
X142539703Y-114127625D01*
X142539700Y-114127621D01*
X139494252Y-111082174D01*
X139462262Y-111050184D01*
X139429850Y-111029818D01*
X139418510Y-111021772D01*
X139388586Y-110997908D01*
X139354095Y-110981298D01*
X139341933Y-110974576D01*
X139326327Y-110964770D01*
X139309520Y-110954209D01*
X139273398Y-110941570D01*
X139260553Y-110936250D01*
X139226058Y-110919638D01*
X139188736Y-110911119D01*
X139175380Y-110907272D01*
X139139252Y-110894631D01*
X139101219Y-110890345D01*
X139087518Y-110888017D01*
X139050196Y-110879500D01*
X139050194Y-110879500D01*
X139004954Y-110879500D01*
X131902367Y-110879500D01*
X131851931Y-110868779D01*
X131739802Y-110818855D01*
X131554648Y-110779500D01*
X131554646Y-110779500D01*
X131365354Y-110779500D01*
X131365352Y-110779500D01*
X131180197Y-110818855D01*
X131007269Y-110895848D01*
X130854129Y-111007110D01*
X130727466Y-111147783D01*
X130632820Y-111311715D01*
X130574326Y-111491742D01*
X130554540Y-111680000D01*
X128220500Y-111680000D01*
X128220500Y-81878399D01*
X128222841Y-81857189D01*
X128222521Y-81847013D01*
X128220560Y-81784631D01*
X128220500Y-81780737D01*
X128220500Y-81751975D01*
X128220500Y-81751969D01*
X128219946Y-81747589D01*
X128219030Y-81735948D01*
X128218932Y-81732819D01*
X128217597Y-81690325D01*
X128211675Y-81669942D01*
X128207732Y-81650905D01*
X128205071Y-81629836D01*
X128188263Y-81587385D01*
X128184480Y-81576336D01*
X128171744Y-81532496D01*
X128160937Y-81514223D01*
X128152382Y-81496760D01*
X128144568Y-81477023D01*
X128117733Y-81440087D01*
X128111325Y-81430330D01*
X128088084Y-81391032D01*
X128088081Y-81391029D01*
X128073068Y-81376016D01*
X128060435Y-81361224D01*
X128047963Y-81344057D01*
X128012779Y-81314950D01*
X128004140Y-81307088D01*
X124876819Y-78179767D01*
X124849939Y-78139539D01*
X124840500Y-78092086D01*
X124840500Y-77512267D01*
X124854511Y-77455010D01*
X124893374Y-77410693D01*
X125016233Y-77324667D01*
X125174667Y-77166233D01*
X125303181Y-76982696D01*
X125347618Y-76887399D01*
X125393375Y-76835224D01*
X125460000Y-76815805D01*
X125526625Y-76835224D01*
X125572381Y-76887399D01*
X125616819Y-76982696D01*
X125745333Y-77166233D01*
X125903767Y-77324667D01*
X126087304Y-77453181D01*
X126290370Y-77547872D01*
X126506794Y-77605863D01*
X126730000Y-77625391D01*
X126953206Y-77605863D01*
X127169630Y-77547872D01*
X127372696Y-77453181D01*
X127556233Y-77324667D01*
X127714667Y-77166233D01*
X127843181Y-76982696D01*
X127887618Y-76887399D01*
X127933375Y-76835224D01*
X128000000Y-76815805D01*
X128066625Y-76835224D01*
X128112381Y-76887399D01*
X128156819Y-76982696D01*
X128285333Y-77166233D01*
X128443767Y-77324667D01*
X128627304Y-77453181D01*
X128830370Y-77547872D01*
X129046794Y-77605863D01*
X129270000Y-77625391D01*
X129493206Y-77605863D01*
X129709630Y-77547872D01*
X129912696Y-77453181D01*
X130096233Y-77324667D01*
X130254667Y-77166233D01*
X130383181Y-76982696D01*
X130427618Y-76887399D01*
X130473375Y-76835224D01*
X130540000Y-76815805D01*
X130606625Y-76835224D01*
X130652381Y-76887399D01*
X130696819Y-76982696D01*
X130825333Y-77166233D01*
X130983767Y-77324667D01*
X131109500Y-77412706D01*
X131156624Y-77445703D01*
X131195489Y-77490021D01*
X131209500Y-77547278D01*
X131209500Y-104415715D01*
X131192023Y-104479188D01*
X131144519Y-104524769D01*
X131091375Y-104553529D01*
X130908215Y-104696087D01*
X130751020Y-104866848D01*
X130624076Y-105061150D01*
X130530844Y-105273696D01*
X130473865Y-105498700D01*
X130454699Y-105730000D01*
X130473865Y-105961299D01*
X130473865Y-105961301D01*
X130473866Y-105961305D01*
X130521524Y-106149499D01*
X130530844Y-106186303D01*
X130594003Y-106330289D01*
X130624076Y-106398849D01*
X130751021Y-106593153D01*
X130824656Y-106673142D01*
X130902172Y-106757348D01*
X130908216Y-106763913D01*
X131091374Y-106906470D01*
X131295497Y-107016936D01*
X131377236Y-107044997D01*
X131515015Y-107092297D01*
X131515017Y-107092297D01*
X131515019Y-107092298D01*
X131743951Y-107130500D01*
X131976048Y-107130500D01*
X131976049Y-107130500D01*
X132204981Y-107092298D01*
X132424503Y-107016936D01*
X132628626Y-106906470D01*
X132811784Y-106763913D01*
X132968979Y-106593153D01*
X133026191Y-106505582D01*
X133070982Y-106464349D01*
X133130000Y-106449404D01*
X133189018Y-106464349D01*
X133233808Y-106505582D01*
X133291021Y-106593153D01*
X133364656Y-106673142D01*
X133442172Y-106757348D01*
X133448216Y-106763913D01*
X133631374Y-106906470D01*
X133835497Y-107016936D01*
X133917236Y-107044997D01*
X134055015Y-107092297D01*
X134055017Y-107092297D01*
X134055019Y-107092298D01*
X134283951Y-107130500D01*
X134516048Y-107130500D01*
X134516049Y-107130500D01*
X134744981Y-107092298D01*
X134964503Y-107016936D01*
X135168626Y-106906470D01*
X135351784Y-106763913D01*
X135508979Y-106593153D01*
X135566191Y-106505582D01*
X135610982Y-106464349D01*
X135670000Y-106449404D01*
X135729018Y-106464349D01*
X135773808Y-106505582D01*
X135831021Y-106593153D01*
X135904656Y-106673142D01*
X135982172Y-106757348D01*
X135988216Y-106763913D01*
X136171374Y-106906470D01*
X136375497Y-107016936D01*
X136457236Y-107044997D01*
X136595015Y-107092297D01*
X136595017Y-107092297D01*
X136595019Y-107092298D01*
X136823951Y-107130500D01*
X137056048Y-107130500D01*
X137056049Y-107130500D01*
X137284981Y-107092298D01*
X137504503Y-107016936D01*
X137708626Y-106906470D01*
X137891784Y-106763913D01*
X138048979Y-106593153D01*
X138106191Y-106505582D01*
X138150982Y-106464349D01*
X138210000Y-106449404D01*
X138269018Y-106464349D01*
X138313808Y-106505582D01*
X138371021Y-106593153D01*
X138444656Y-106673142D01*
X138522172Y-106757348D01*
X138528216Y-106763913D01*
X138711374Y-106906470D01*
X138915497Y-107016936D01*
X138997236Y-107044997D01*
X139135015Y-107092297D01*
X139135017Y-107092297D01*
X139135019Y-107092298D01*
X139363951Y-107130500D01*
X139596048Y-107130500D01*
X139596049Y-107130500D01*
X139824981Y-107092298D01*
X140044503Y-107016936D01*
X140248626Y-106906470D01*
X140431784Y-106763913D01*
X140588979Y-106593153D01*
X140646191Y-106505582D01*
X140690982Y-106464349D01*
X140750000Y-106449404D01*
X140809018Y-106464349D01*
X140853808Y-106505582D01*
X140911021Y-106593153D01*
X140984656Y-106673142D01*
X141062172Y-106757348D01*
X141068216Y-106763913D01*
X141251374Y-106906470D01*
X141455497Y-107016936D01*
X141537236Y-107044997D01*
X141675015Y-107092297D01*
X141675017Y-107092297D01*
X141675019Y-107092298D01*
X141903951Y-107130500D01*
X142136048Y-107130500D01*
X142136049Y-107130500D01*
X142364981Y-107092298D01*
X142584503Y-107016936D01*
X142788626Y-106906470D01*
X142971784Y-106763913D01*
X143128979Y-106593153D01*
X143186191Y-106505582D01*
X143230982Y-106464349D01*
X143290000Y-106449404D01*
X143349018Y-106464349D01*
X143393808Y-106505582D01*
X143451021Y-106593153D01*
X143524656Y-106673142D01*
X143602172Y-106757348D01*
X143608216Y-106763913D01*
X143791374Y-106906470D01*
X143995497Y-107016936D01*
X144077236Y-107044997D01*
X144215015Y-107092297D01*
X144215017Y-107092297D01*
X144215019Y-107092298D01*
X144443951Y-107130500D01*
X144676048Y-107130500D01*
X144676049Y-107130500D01*
X144904981Y-107092298D01*
X145124503Y-107016936D01*
X145328626Y-106906470D01*
X145511784Y-106763913D01*
X145668979Y-106593153D01*
X145726191Y-106505582D01*
X145770982Y-106464349D01*
X145830000Y-106449404D01*
X145889018Y-106464349D01*
X145933808Y-106505582D01*
X145991021Y-106593153D01*
X146064656Y-106673142D01*
X146142172Y-106757348D01*
X146148216Y-106763913D01*
X146331374Y-106906470D01*
X146535497Y-107016936D01*
X146617236Y-107044997D01*
X146755015Y-107092297D01*
X146755017Y-107092297D01*
X146755019Y-107092298D01*
X146983951Y-107130500D01*
X147216048Y-107130500D01*
X147216049Y-107130500D01*
X147444981Y-107092298D01*
X147664503Y-107016936D01*
X147868626Y-106906470D01*
X148051784Y-106763913D01*
X148208979Y-106593153D01*
X148335924Y-106398849D01*
X148429157Y-106186300D01*
X148486134Y-105961305D01*
X148505300Y-105730000D01*
X148486134Y-105498695D01*
X148429157Y-105273700D01*
X148335924Y-105061151D01*
X148208979Y-104866847D01*
X148051784Y-104696087D01*
X147868626Y-104553530D01*
X147815481Y-104524769D01*
X147767977Y-104479188D01*
X147750500Y-104415715D01*
X147750500Y-95405505D01*
X147752841Y-95384294D01*
X147750561Y-95311724D01*
X147750500Y-95307829D01*
X147750500Y-95279082D01*
X147750500Y-95279075D01*
X147749947Y-95274700D01*
X147749031Y-95263063D01*
X147747598Y-95217431D01*
X147741675Y-95197045D01*
X147737731Y-95178004D01*
X147735071Y-95156942D01*
X147718267Y-95114501D01*
X147714484Y-95103452D01*
X147701745Y-95059602D01*
X147698594Y-95054275D01*
X147690937Y-95041326D01*
X147682376Y-95023850D01*
X147674568Y-95004129D01*
X147647731Y-94967191D01*
X147641317Y-94957425D01*
X147618081Y-94918135D01*
X147603074Y-94903128D01*
X147590436Y-94888331D01*
X147577963Y-94871163D01*
X147542779Y-94842056D01*
X147534140Y-94834194D01*
X146116819Y-93416873D01*
X146089939Y-93376645D01*
X146080500Y-93329192D01*
X146080500Y-79044500D01*
X146097113Y-78982500D01*
X146142500Y-78937113D01*
X146204500Y-78920500D01*
X146632557Y-78920500D01*
X146653766Y-78922841D01*
X146656356Y-78922759D01*
X146656358Y-78922760D01*
X146726324Y-78920560D01*
X146730219Y-78920500D01*
X146758982Y-78920500D01*
X146758987Y-78920500D01*
X146763364Y-78919946D01*
X146775003Y-78919030D01*
X146820631Y-78917597D01*
X146841011Y-78911675D01*
X146860051Y-78907732D01*
X146881120Y-78905071D01*
X146923582Y-78888258D01*
X146934619Y-78884480D01*
X146978460Y-78871744D01*
X146996732Y-78860936D01*
X147014198Y-78852380D01*
X147033933Y-78844568D01*
X147070878Y-78817725D01*
X147080610Y-78811332D01*
X147119927Y-78788081D01*
X147134936Y-78773071D01*
X147149725Y-78760439D01*
X147166899Y-78747963D01*
X147196008Y-78712774D01*
X147203842Y-78704164D01*
X147541191Y-78366816D01*
X147581417Y-78339939D01*
X147628870Y-78330500D01*
X148164495Y-78330500D01*
X148185704Y-78332841D01*
X148188294Y-78332759D01*
X148188296Y-78332760D01*
X148258262Y-78330560D01*
X148262157Y-78330500D01*
X148290920Y-78330500D01*
X148290925Y-78330500D01*
X148295302Y-78329946D01*
X148306941Y-78329030D01*
X148352569Y-78327597D01*
X148372949Y-78321675D01*
X148391989Y-78317732D01*
X148413058Y-78315071D01*
X148455520Y-78298258D01*
X148466557Y-78294480D01*
X148510398Y-78281744D01*
X148528670Y-78270936D01*
X148546136Y-78262380D01*
X148565871Y-78254568D01*
X148602816Y-78227725D01*
X148612548Y-78221332D01*
X148651865Y-78198081D01*
X148666874Y-78183071D01*
X148681663Y-78170439D01*
X148698837Y-78157963D01*
X148727946Y-78122774D01*
X148735790Y-78114154D01*
X149219393Y-77630551D01*
X149274980Y-77598459D01*
X149339166Y-77598459D01*
X149366794Y-77605863D01*
X149590000Y-77625391D01*
X149813206Y-77605863D01*
X150029630Y-77547872D01*
X150232696Y-77453181D01*
X150416233Y-77324667D01*
X150574667Y-77166233D01*
X150703181Y-76982696D01*
X150747618Y-76887399D01*
X150793375Y-76835224D01*
X150860000Y-76815805D01*
X150926625Y-76835224D01*
X150972381Y-76887399D01*
X151016819Y-76982696D01*
X151145333Y-77166233D01*
X151303767Y-77324667D01*
X151487304Y-77453181D01*
X151690370Y-77547872D01*
X151906794Y-77605863D01*
X152130000Y-77625391D01*
X152353206Y-77605863D01*
X152569630Y-77547872D01*
X152772696Y-77453181D01*
X152956233Y-77324667D01*
X153114667Y-77166233D01*
X153243181Y-76982696D01*
X153337872Y-76779630D01*
X153395863Y-76563206D01*
X153415391Y-76340000D01*
X153395863Y-76116794D01*
X153337872Y-75900370D01*
X153243181Y-75697305D01*
X153114667Y-75513767D01*
X152956233Y-75355333D01*
X152772696Y-75226819D01*
X152634253Y-75162262D01*
X152569631Y-75132128D01*
X152353203Y-75074136D01*
X152130000Y-75054608D01*
X151906796Y-75074136D01*
X151690368Y-75132128D01*
X151487304Y-75226819D01*
X151303766Y-75355333D01*
X151145333Y-75513766D01*
X151016819Y-75697304D01*
X150972382Y-75792600D01*
X150926625Y-75844776D01*
X150860000Y-75864195D01*
X150793375Y-75844776D01*
X150747618Y-75792600D01*
X150740531Y-75777403D01*
X150703181Y-75697305D01*
X150574667Y-75513767D01*
X150416233Y-75355333D01*
X150232696Y-75226819D01*
X150094253Y-75162262D01*
X150029631Y-75132128D01*
X149813203Y-75074136D01*
X149590000Y-75054608D01*
X149366796Y-75074136D01*
X149150368Y-75132128D01*
X148947304Y-75226819D01*
X148763766Y-75355333D01*
X148605333Y-75513766D01*
X148476819Y-75697304D01*
X148432382Y-75792600D01*
X148386625Y-75844776D01*
X148320000Y-75864195D01*
X148253375Y-75844776D01*
X148207618Y-75792600D01*
X148200531Y-75777403D01*
X148163181Y-75697305D01*
X148034667Y-75513767D01*
X147876233Y-75355333D01*
X147692696Y-75226819D01*
X147554253Y-75162262D01*
X147489631Y-75132128D01*
X147273203Y-75074136D01*
X147050000Y-75054608D01*
X146826796Y-75074136D01*
X146610368Y-75132128D01*
X146407304Y-75226819D01*
X146223766Y-75355333D01*
X146065333Y-75513766D01*
X145936819Y-75697304D01*
X145892382Y-75792600D01*
X145846625Y-75844776D01*
X145780000Y-75864195D01*
X145713375Y-75844776D01*
X145667618Y-75792600D01*
X145660531Y-75777403D01*
X145623181Y-75697305D01*
X145494667Y-75513767D01*
X145336233Y-75355333D01*
X145152696Y-75226819D01*
X145014253Y-75162262D01*
X144949631Y-75132128D01*
X144733203Y-75074136D01*
X144510000Y-75054608D01*
X144286796Y-75074136D01*
X144070368Y-75132128D01*
X143867304Y-75226819D01*
X143683766Y-75355333D01*
X143525333Y-75513766D01*
X143396819Y-75697304D01*
X143352382Y-75792600D01*
X143306625Y-75844776D01*
X143240000Y-75864195D01*
X143173375Y-75844776D01*
X143127618Y-75792600D01*
X143120531Y-75777403D01*
X143083181Y-75697305D01*
X142954667Y-75513767D01*
X142796233Y-75355333D01*
X142612696Y-75226819D01*
X142474253Y-75162262D01*
X142409631Y-75132128D01*
X142193203Y-75074136D01*
X141970000Y-75054608D01*
X141746796Y-75074136D01*
X141530368Y-75132128D01*
X141327304Y-75226819D01*
X141143766Y-75355333D01*
X140985333Y-75513766D01*
X140856819Y-75697304D01*
X140762128Y-75900368D01*
X140704136Y-76116796D01*
X140684608Y-76339999D01*
X140704136Y-76563203D01*
X140762128Y-76779631D01*
X140782830Y-76824026D01*
X140856819Y-76982696D01*
X140985333Y-77166233D01*
X141143767Y-77324667D01*
X141327304Y-77453181D01*
X141530370Y-77547872D01*
X141746794Y-77605863D01*
X141970000Y-77625391D01*
X142193206Y-77605863D01*
X142220829Y-77598460D01*
X142285017Y-77598458D01*
X142340607Y-77630553D01*
X143243181Y-78533127D01*
X143270061Y-78573355D01*
X143279500Y-78620808D01*
X143279500Y-93159192D01*
X143270061Y-93206645D01*
X143243181Y-93246873D01*
X139200484Y-97289568D01*
X139183831Y-97302910D01*
X139134133Y-97355833D01*
X139131427Y-97358626D01*
X139111083Y-97378971D01*
X139108376Y-97382460D01*
X139100807Y-97391321D01*
X139069551Y-97424607D01*
X139059322Y-97443212D01*
X139048645Y-97459467D01*
X139035636Y-97476238D01*
X139017506Y-97518132D01*
X139012370Y-97528616D01*
X138990372Y-97568632D01*
X138985091Y-97589199D01*
X138978791Y-97607600D01*
X138970364Y-97627074D01*
X138963223Y-97672161D01*
X138960855Y-97683598D01*
X138949500Y-97727824D01*
X138949500Y-97749045D01*
X138947973Y-97768444D01*
X138944653Y-97789405D01*
X138945009Y-97793166D01*
X138948950Y-97834861D01*
X138949500Y-97846530D01*
X138949500Y-104350775D01*
X138932023Y-104414249D01*
X138884520Y-104459827D01*
X138764520Y-104524769D01*
X138711372Y-104553531D01*
X138528215Y-104696087D01*
X138371018Y-104866849D01*
X138313808Y-104954417D01*
X138269017Y-104995650D01*
X138210000Y-105010595D01*
X138150983Y-104995650D01*
X138106192Y-104954417D01*
X138048981Y-104866849D01*
X137891784Y-104696087D01*
X137767475Y-104599334D01*
X137708626Y-104553530D01*
X137655481Y-104524769D01*
X137607977Y-104479188D01*
X137590500Y-104415715D01*
X137590500Y-102532589D01*
X137605071Y-102474268D01*
X137645360Y-102429654D01*
X137701898Y-102409231D01*
X137752931Y-102404017D01*
X137767797Y-102402499D01*
X137934334Y-102347314D01*
X138083656Y-102255212D01*
X138207712Y-102131156D01*
X138299814Y-101981834D01*
X138354999Y-101815297D01*
X138365500Y-101712509D01*
X138365499Y-100987492D01*
X138354999Y-100884703D01*
X138299814Y-100718166D01*
X138207712Y-100568844D01*
X138207711Y-100568842D01*
X138083657Y-100444788D01*
X137934334Y-100352686D01*
X137767797Y-100297500D01*
X137665009Y-100287000D01*
X136314991Y-100287000D01*
X136212203Y-100297500D01*
X136045665Y-100352686D01*
X135896342Y-100444788D01*
X135796431Y-100544700D01*
X135740844Y-100576794D01*
X135676656Y-100576794D01*
X135621069Y-100544700D01*
X135493657Y-100417288D01*
X135344334Y-100325186D01*
X135177797Y-100270000D01*
X135075009Y-100259500D01*
X133724991Y-100259500D01*
X133622203Y-100270000D01*
X133455665Y-100325186D01*
X133306342Y-100417288D01*
X133182288Y-100541342D01*
X133090186Y-100690665D01*
X133035000Y-100857202D01*
X133024500Y-100959990D01*
X133024500Y-101685008D01*
X133035000Y-101787796D01*
X133090186Y-101954334D01*
X133182288Y-102103657D01*
X133306342Y-102227711D01*
X133306344Y-102227712D01*
X133455666Y-102319814D01*
X133599573Y-102367500D01*
X133622203Y-102374999D01*
X133638104Y-102376624D01*
X133694641Y-102397048D01*
X133734929Y-102441662D01*
X133749500Y-102499982D01*
X133749500Y-104415715D01*
X133732023Y-104479188D01*
X133684519Y-104524769D01*
X133631375Y-104553529D01*
X133448215Y-104696087D01*
X133291020Y-104866847D01*
X133233807Y-104954418D01*
X133189016Y-104995650D01*
X133129998Y-105010595D01*
X133070981Y-104995649D01*
X133026191Y-104954417D01*
X132968979Y-104866847D01*
X132811784Y-104696087D01*
X132628626Y-104553530D01*
X132575481Y-104524769D01*
X132527977Y-104479188D01*
X132510500Y-104415715D01*
X132510500Y-77477256D01*
X132524511Y-77419999D01*
X132563377Y-77375681D01*
X132582443Y-77362331D01*
X132636233Y-77324667D01*
X132794667Y-77166233D01*
X132923181Y-76982696D01*
X132967618Y-76887399D01*
X133013375Y-76835224D01*
X133080000Y-76815805D01*
X133146625Y-76835224D01*
X133192381Y-76887399D01*
X133236819Y-76982696D01*
X133365333Y-77166233D01*
X133523767Y-77324667D01*
X133646625Y-77410693D01*
X133685489Y-77455010D01*
X133699500Y-77512267D01*
X133699500Y-97229846D01*
X133688877Y-97280061D01*
X133658829Y-97321673D01*
X133614504Y-97347552D01*
X133455665Y-97400186D01*
X133306342Y-97492288D01*
X133182288Y-97616342D01*
X133090186Y-97765665D01*
X133035000Y-97932202D01*
X133024500Y-98034990D01*
X133024500Y-98760008D01*
X133035000Y-98862796D01*
X133090186Y-99029334D01*
X133182288Y-99178657D01*
X133306342Y-99302711D01*
X133306344Y-99302712D01*
X133455666Y-99394814D01*
X133567017Y-99431712D01*
X133622202Y-99449999D01*
X133632703Y-99451071D01*
X133724991Y-99460500D01*
X135075008Y-99460499D01*
X135177797Y-99449999D01*
X135344334Y-99394814D01*
X135493656Y-99302712D01*
X135593569Y-99202798D01*
X135649155Y-99170705D01*
X135713342Y-99170705D01*
X135768930Y-99202799D01*
X135896342Y-99330211D01*
X135896344Y-99330212D01*
X136045666Y-99422314D01*
X136129214Y-99449999D01*
X136212202Y-99477499D01*
X136222703Y-99478571D01*
X136314991Y-99488000D01*
X137665008Y-99487999D01*
X137767797Y-99477499D01*
X137934334Y-99422314D01*
X138083656Y-99330212D01*
X138207712Y-99206156D01*
X138299814Y-99056834D01*
X138354999Y-98890297D01*
X138365500Y-98787509D01*
X138365499Y-98062492D01*
X138363692Y-98044807D01*
X138354999Y-97959703D01*
X138349958Y-97944489D01*
X138299814Y-97793166D01*
X138207712Y-97643844D01*
X138207711Y-97643842D01*
X138083657Y-97519788D01*
X137934334Y-97427686D01*
X137767797Y-97372500D01*
X137665009Y-97362000D01*
X137664500Y-97362000D01*
X137664186Y-97361915D01*
X137658725Y-97361358D01*
X137658815Y-97360476D01*
X137602500Y-97345387D01*
X137557113Y-97300000D01*
X137540500Y-97238000D01*
X137540500Y-77512267D01*
X137554511Y-77455010D01*
X137593374Y-77410693D01*
X137716233Y-77324667D01*
X137874667Y-77166233D01*
X138003181Y-76982696D01*
X138097872Y-76779630D01*
X138155863Y-76563206D01*
X138175391Y-76340000D01*
X138155863Y-76116794D01*
X138097872Y-75900370D01*
X138003181Y-75697305D01*
X137874667Y-75513767D01*
X137716233Y-75355333D01*
X137532696Y-75226819D01*
X137394253Y-75162262D01*
X137329631Y-75132128D01*
X137113203Y-75074136D01*
X136890000Y-75054608D01*
X136666796Y-75074136D01*
X136450368Y-75132128D01*
X136247304Y-75226819D01*
X136063766Y-75355333D01*
X135905333Y-75513766D01*
X135776819Y-75697304D01*
X135732382Y-75792600D01*
X135686625Y-75844776D01*
X135620000Y-75864195D01*
X135553375Y-75844776D01*
X135507618Y-75792600D01*
X135500531Y-75777403D01*
X135463181Y-75697305D01*
X135334667Y-75513767D01*
X135176233Y-75355333D01*
X134992696Y-75226819D01*
X134854253Y-75162262D01*
X134789631Y-75132128D01*
X134573203Y-75074136D01*
X134350000Y-75054608D01*
X134126796Y-75074136D01*
X133910368Y-75132128D01*
X133707304Y-75226819D01*
X133523766Y-75355333D01*
X133365333Y-75513766D01*
X133236819Y-75697304D01*
X133192382Y-75792600D01*
X133146625Y-75844776D01*
X133080000Y-75864195D01*
X133013375Y-75844776D01*
X132967618Y-75792600D01*
X132960531Y-75777403D01*
X132923181Y-75697305D01*
X132794667Y-75513767D01*
X132636233Y-75355333D01*
X132452696Y-75226819D01*
X132314253Y-75162262D01*
X132249631Y-75132128D01*
X132033203Y-75074136D01*
X131810000Y-75054608D01*
X131586796Y-75074136D01*
X131370368Y-75132128D01*
X131167304Y-75226819D01*
X130983766Y-75355333D01*
X130825333Y-75513766D01*
X130696819Y-75697304D01*
X130652382Y-75792600D01*
X130606625Y-75844776D01*
X130540000Y-75864195D01*
X130473375Y-75844776D01*
X130427618Y-75792600D01*
X130420531Y-75777403D01*
X130383181Y-75697305D01*
X130254667Y-75513767D01*
X130096233Y-75355333D01*
X129912696Y-75226819D01*
X129774253Y-75162262D01*
X129709631Y-75132128D01*
X129493203Y-75074136D01*
X129270000Y-75054608D01*
X129046796Y-75074136D01*
X128830368Y-75132128D01*
X128627304Y-75226819D01*
X128443766Y-75355333D01*
X128285333Y-75513766D01*
X128156819Y-75697304D01*
X128112382Y-75792600D01*
X128066625Y-75844776D01*
X128000000Y-75864195D01*
X127933375Y-75844776D01*
X127887618Y-75792600D01*
X127880531Y-75777403D01*
X127843181Y-75697305D01*
X127714667Y-75513767D01*
X127556233Y-75355333D01*
X127372696Y-75226819D01*
X127234253Y-75162262D01*
X127169631Y-75132128D01*
X126953203Y-75074136D01*
X126730000Y-75054608D01*
X126506796Y-75074136D01*
X126290368Y-75132128D01*
X126087304Y-75226819D01*
X125903766Y-75355333D01*
X125745333Y-75513766D01*
X125616819Y-75697304D01*
X125572382Y-75792600D01*
X125526625Y-75844776D01*
X125460000Y-75864195D01*
X125393375Y-75844776D01*
X125347618Y-75792600D01*
X125340531Y-75777403D01*
X125303181Y-75697305D01*
X125174667Y-75513767D01*
X125016233Y-75355333D01*
X124832696Y-75226819D01*
X124694253Y-75162262D01*
X124629631Y-75132128D01*
X124413203Y-75074136D01*
X124190000Y-75054608D01*
X123966796Y-75074136D01*
X123750368Y-75132128D01*
X123547304Y-75226819D01*
X123363766Y-75355333D01*
X123205333Y-75513766D01*
X123076819Y-75697304D01*
X123032382Y-75792600D01*
X122986625Y-75844776D01*
X122920000Y-75864195D01*
X122853375Y-75844776D01*
X122807618Y-75792600D01*
X122800531Y-75777403D01*
X122763181Y-75697305D01*
X122634667Y-75513767D01*
X122476233Y-75355333D01*
X122292696Y-75226819D01*
X122154253Y-75162262D01*
X122089631Y-75132128D01*
X121873203Y-75074136D01*
X121650000Y-75054608D01*
X121426796Y-75074136D01*
X121210368Y-75132128D01*
X121007304Y-75226819D01*
X120823766Y-75355333D01*
X120665333Y-75513766D01*
X120536819Y-75697304D01*
X120492382Y-75792600D01*
X120446625Y-75844776D01*
X120380000Y-75864195D01*
X120313375Y-75844776D01*
X120267618Y-75792600D01*
X120260531Y-75777403D01*
X120223181Y-75697305D01*
X120094667Y-75513767D01*
X119936233Y-75355333D01*
X119752696Y-75226819D01*
X119614253Y-75162262D01*
X119549631Y-75132128D01*
X119333203Y-75074136D01*
X119110000Y-75054608D01*
X118886796Y-75074136D01*
X118670368Y-75132128D01*
X118467304Y-75226819D01*
X118283766Y-75355333D01*
X118125333Y-75513766D01*
X117996819Y-75697304D01*
X117952382Y-75792600D01*
X117906625Y-75844776D01*
X117840000Y-75864195D01*
X117773375Y-75844776D01*
X117727618Y-75792600D01*
X117720531Y-75777403D01*
X117683181Y-75697305D01*
X117554667Y-75513767D01*
X117396233Y-75355333D01*
X117212696Y-75226819D01*
X117074253Y-75162262D01*
X117009631Y-75132128D01*
X116793203Y-75074136D01*
X116570000Y-75054608D01*
X116346796Y-75074136D01*
X116130368Y-75132128D01*
X115927304Y-75226819D01*
X115743766Y-75355333D01*
X115585333Y-75513766D01*
X115456819Y-75697304D01*
X115412382Y-75792600D01*
X115366625Y-75844776D01*
X115300000Y-75864195D01*
X115233375Y-75844776D01*
X115187618Y-75792600D01*
X115180531Y-75777403D01*
X115143181Y-75697305D01*
X115014667Y-75513767D01*
X114856233Y-75355333D01*
X114672696Y-75226819D01*
X114534253Y-75162262D01*
X114469631Y-75132128D01*
X114253203Y-75074136D01*
X114030000Y-75054608D01*
X113806796Y-75074136D01*
X113590368Y-75132128D01*
X113387304Y-75226819D01*
X113203766Y-75355333D01*
X113045333Y-75513766D01*
X112916819Y-75697304D01*
X112872382Y-75792600D01*
X112826625Y-75844776D01*
X112760000Y-75864195D01*
X112693375Y-75844776D01*
X112647618Y-75792600D01*
X112640531Y-75777403D01*
X112603181Y-75697305D01*
X112474667Y-75513767D01*
X112316233Y-75355333D01*
X112132696Y-75226819D01*
X111994253Y-75162262D01*
X111929631Y-75132128D01*
X111713203Y-75074136D01*
X111490000Y-75054608D01*
X111266796Y-75074136D01*
X111050368Y-75132128D01*
X110847304Y-75226819D01*
X110663766Y-75355333D01*
X110505333Y-75513766D01*
X110376819Y-75697304D01*
X110332382Y-75792600D01*
X110286625Y-75844776D01*
X110220000Y-75864195D01*
X110153375Y-75844776D01*
X110107618Y-75792600D01*
X110100531Y-75777403D01*
X110063181Y-75697305D01*
X109934667Y-75513767D01*
X109776233Y-75355333D01*
X109592696Y-75226819D01*
X109454253Y-75162262D01*
X109389631Y-75132128D01*
X109173203Y-75074136D01*
X108950000Y-75054608D01*
X108726796Y-75074136D01*
X108510368Y-75132128D01*
X108307304Y-75226819D01*
X108123766Y-75355333D01*
X107965333Y-75513766D01*
X107916074Y-75584117D01*
X107868857Y-75624444D01*
X107808010Y-75636824D01*
X107748789Y-75618152D01*
X107706046Y-75573110D01*
X107691962Y-75518653D01*
X107691209Y-75518735D01*
X107690657Y-75513608D01*
X107690499Y-75512994D01*
X107690499Y-75512130D01*
X107690499Y-75512128D01*
X107684091Y-75452517D01*
X107633796Y-75317669D01*
X107547546Y-75202454D01*
X107432331Y-75116204D01*
X107297483Y-75065909D01*
X107237873Y-75059500D01*
X107237869Y-75059500D01*
X106312940Y-75059500D01*
X106265487Y-75050061D01*
X106225259Y-75023181D01*
X105566819Y-74364741D01*
X105539939Y-74324513D01*
X105530500Y-74277060D01*
X105530500Y-73111960D01*
X105547091Y-73049998D01*
X105592423Y-73004617D01*
X105654365Y-72987960D01*
X125782579Y-72966395D01*
X125800867Y-55189999D01*
X166584340Y-55189999D01*
X166604936Y-55425407D01*
X166629701Y-55517830D01*
X166666097Y-55653663D01*
X166765965Y-55867829D01*
X166901505Y-56061401D01*
X167068599Y-56228495D01*
X167262171Y-56364035D01*
X167476337Y-56463903D01*
X167704592Y-56525063D01*
X167881032Y-56540500D01*
X167881034Y-56540500D01*
X167998966Y-56540500D01*
X167998968Y-56540500D01*
X168116593Y-56530208D01*
X168175408Y-56525063D01*
X168403663Y-56463903D01*
X168617829Y-56364035D01*
X168811401Y-56228495D01*
X168978495Y-56061401D01*
X169114035Y-55867830D01*
X169213903Y-55653663D01*
X169275063Y-55425408D01*
X169295659Y-55190000D01*
X169275063Y-54954592D01*
X169213903Y-54726337D01*
X169114035Y-54512171D01*
X168978495Y-54318599D01*
X168811401Y-54151505D01*
X168617829Y-54015965D01*
X168403663Y-53916097D01*
X168403662Y-53916096D01*
X168175407Y-53854936D01*
X167998968Y-53839500D01*
X167998966Y-53839500D01*
X167881034Y-53839500D01*
X167881032Y-53839500D01*
X167704592Y-53854936D01*
X167476336Y-53916097D01*
X167262170Y-54015965D01*
X167068598Y-54151505D01*
X166901508Y-54318595D01*
X166901505Y-54318598D01*
X166901505Y-54318599D01*
X166861077Y-54376337D01*
X166765964Y-54512172D01*
X166666097Y-54726337D01*
X166604936Y-54954592D01*
X166584340Y-55189999D01*
X125800867Y-55189999D01*
X125802249Y-53846395D01*
X125802249Y-53846394D01*
X106321223Y-53852368D01*
X105654537Y-53852572D01*
X105592522Y-53835973D01*
X105547119Y-53790584D01*
X105530500Y-53728573D01*
X105530500Y-49422940D01*
X105539939Y-49375487D01*
X105566819Y-49335259D01*
X108365259Y-46536819D01*
X108405487Y-46509939D01*
X108452940Y-46500500D01*
X112791429Y-46500500D01*
X112851072Y-46515786D01*
X112896010Y-46557875D01*
X112915164Y-46616391D01*
X112903811Y-46676903D01*
X112888483Y-46709773D01*
X112876096Y-46736338D01*
X112814936Y-46964592D01*
X112794340Y-47200000D01*
X112814936Y-47435407D01*
X112851071Y-47570265D01*
X112876097Y-47663663D01*
X112975965Y-47877830D01*
X113111505Y-48071401D01*
X113278599Y-48238495D01*
X113472170Y-48374035D01*
X113686337Y-48473903D01*
X113914591Y-48535062D01*
X113914592Y-48535063D01*
X114160728Y-48556598D01*
X114225407Y-48581750D01*
X114266442Y-48637716D01*
X114270981Y-48706964D01*
X114237601Y-48767807D01*
X113832228Y-49173181D01*
X113792000Y-49200061D01*
X113744547Y-49209500D01*
X112677744Y-49209500D01*
X112657237Y-49207235D01*
X112587127Y-49209439D01*
X112583232Y-49209500D01*
X112555650Y-49209500D01*
X112551665Y-49210003D01*
X112540033Y-49210918D01*
X112496369Y-49212290D01*
X112477129Y-49217880D01*
X112458081Y-49221825D01*
X112438209Y-49224335D01*
X112397599Y-49240413D01*
X112386554Y-49244194D01*
X112344610Y-49256381D01*
X112327365Y-49266579D01*
X112309904Y-49275133D01*
X112291267Y-49282512D01*
X112255931Y-49308185D01*
X112246174Y-49314595D01*
X112208580Y-49336829D01*
X112194413Y-49350996D01*
X112179624Y-49363626D01*
X112163413Y-49375404D01*
X112135572Y-49409058D01*
X112127711Y-49417697D01*
X111888491Y-49656917D01*
X111832904Y-49689011D01*
X111768717Y-49689011D01*
X111713206Y-49674137D01*
X111713205Y-49674136D01*
X111713202Y-49674136D01*
X111489999Y-49654608D01*
X111266796Y-49674136D01*
X111050368Y-49732128D01*
X110847304Y-49826819D01*
X110663766Y-49955333D01*
X110505333Y-50113766D01*
X110376819Y-50297304D01*
X110332382Y-50392600D01*
X110286625Y-50444776D01*
X110220000Y-50464195D01*
X110153375Y-50444776D01*
X110107618Y-50392600D01*
X110100531Y-50377403D01*
X110063181Y-50297305D01*
X109934667Y-50113767D01*
X109776233Y-49955333D01*
X109592696Y-49826819D01*
X109435954Y-49753729D01*
X109389631Y-49732128D01*
X109173203Y-49674136D01*
X108950000Y-49654608D01*
X108726796Y-49674136D01*
X108510368Y-49732128D01*
X108307304Y-49826819D01*
X108123766Y-49955333D01*
X107965333Y-50113766D01*
X107836819Y-50297304D01*
X107742128Y-50500368D01*
X107684136Y-50716796D01*
X107664608Y-50940000D01*
X107684136Y-51163203D01*
X107742128Y-51379631D01*
X107768052Y-51435224D01*
X107836819Y-51582696D01*
X107965333Y-51766233D01*
X108123767Y-51924667D01*
X108307304Y-52053181D01*
X108510370Y-52147872D01*
X108726794Y-52205863D01*
X108950000Y-52225391D01*
X109173206Y-52205863D01*
X109389630Y-52147872D01*
X109592696Y-52053181D01*
X109776233Y-51924667D01*
X109934667Y-51766233D01*
X110063181Y-51582696D01*
X110107618Y-51487399D01*
X110153375Y-51435224D01*
X110220000Y-51415805D01*
X110286625Y-51435224D01*
X110332381Y-51487399D01*
X110376819Y-51582696D01*
X110505333Y-51766233D01*
X110663767Y-51924667D01*
X110847304Y-52053181D01*
X111050370Y-52147872D01*
X111266794Y-52205863D01*
X111490000Y-52225391D01*
X111713206Y-52205863D01*
X111929630Y-52147872D01*
X112132696Y-52053181D01*
X112316233Y-51924667D01*
X112474667Y-51766233D01*
X112603181Y-51582696D01*
X112647618Y-51487399D01*
X112693375Y-51435224D01*
X112760000Y-51415805D01*
X112826625Y-51435224D01*
X112872381Y-51487399D01*
X112916819Y-51582696D01*
X113045333Y-51766233D01*
X113203767Y-51924667D01*
X113387304Y-52053181D01*
X113590370Y-52147872D01*
X113806794Y-52205863D01*
X114030000Y-52225391D01*
X114253206Y-52205863D01*
X114469630Y-52147872D01*
X114672696Y-52053181D01*
X114856233Y-51924667D01*
X115014667Y-51766233D01*
X115143181Y-51582696D01*
X115187618Y-51487399D01*
X115233375Y-51435224D01*
X115300000Y-51415805D01*
X115366625Y-51435224D01*
X115412381Y-51487399D01*
X115456819Y-51582696D01*
X115585333Y-51766233D01*
X115743767Y-51924667D01*
X115927304Y-52053181D01*
X116130370Y-52147872D01*
X116346794Y-52205863D01*
X116570000Y-52225391D01*
X116793206Y-52205863D01*
X117009630Y-52147872D01*
X117212696Y-52053181D01*
X117396233Y-51924667D01*
X117554667Y-51766233D01*
X117683181Y-51582696D01*
X117727618Y-51487399D01*
X117773375Y-51435224D01*
X117840000Y-51415805D01*
X117906625Y-51435224D01*
X117952381Y-51487399D01*
X117996819Y-51582696D01*
X118125333Y-51766233D01*
X118283767Y-51924667D01*
X118467304Y-52053181D01*
X118670370Y-52147872D01*
X118886794Y-52205863D01*
X119110000Y-52225391D01*
X119333206Y-52205863D01*
X119549630Y-52147872D01*
X119752696Y-52053181D01*
X119936233Y-51924667D01*
X120094667Y-51766233D01*
X120223181Y-51582696D01*
X120267618Y-51487399D01*
X120313375Y-51435224D01*
X120380000Y-51415805D01*
X120446625Y-51435224D01*
X120492381Y-51487399D01*
X120536819Y-51582696D01*
X120665333Y-51766233D01*
X120823767Y-51924667D01*
X121007304Y-52053181D01*
X121210370Y-52147872D01*
X121426794Y-52205863D01*
X121650000Y-52225391D01*
X121873206Y-52205863D01*
X122089630Y-52147872D01*
X122292696Y-52053181D01*
X122476233Y-51924667D01*
X122634667Y-51766233D01*
X122763181Y-51582696D01*
X122807618Y-51487399D01*
X122853375Y-51435224D01*
X122920000Y-51415805D01*
X122986625Y-51435224D01*
X123032381Y-51487399D01*
X123076819Y-51582696D01*
X123205333Y-51766233D01*
X123363767Y-51924667D01*
X123547304Y-52053181D01*
X123750370Y-52147872D01*
X123966794Y-52205863D01*
X124190000Y-52225391D01*
X124413206Y-52205863D01*
X124629630Y-52147872D01*
X124832696Y-52053181D01*
X125016233Y-51924667D01*
X125174667Y-51766233D01*
X125303181Y-51582696D01*
X125347618Y-51487399D01*
X125393375Y-51435224D01*
X125460000Y-51415805D01*
X125526625Y-51435224D01*
X125572381Y-51487399D01*
X125616819Y-51582696D01*
X125745333Y-51766233D01*
X125903767Y-51924667D01*
X126087304Y-52053181D01*
X126290370Y-52147872D01*
X126506794Y-52205863D01*
X126730000Y-52225391D01*
X126953206Y-52205863D01*
X127169630Y-52147872D01*
X127372696Y-52053181D01*
X127556233Y-51924667D01*
X127714667Y-51766233D01*
X127843181Y-51582696D01*
X127887618Y-51487399D01*
X127933375Y-51435224D01*
X128000000Y-51415805D01*
X128066625Y-51435224D01*
X128112381Y-51487399D01*
X128156819Y-51582696D01*
X128285333Y-51766233D01*
X128443767Y-51924667D01*
X128627304Y-52053181D01*
X128830370Y-52147872D01*
X129046794Y-52205863D01*
X129270000Y-52225391D01*
X129493206Y-52205863D01*
X129709630Y-52147872D01*
X129912696Y-52053181D01*
X130096233Y-51924667D01*
X130254667Y-51766233D01*
X130383181Y-51582696D01*
X130427618Y-51487399D01*
X130473375Y-51435224D01*
X130540000Y-51415805D01*
X130606625Y-51435224D01*
X130652381Y-51487399D01*
X130696819Y-51582696D01*
X130825333Y-51766233D01*
X130983767Y-51924667D01*
X131167304Y-52053181D01*
X131370370Y-52147872D01*
X131586794Y-52205863D01*
X131810000Y-52225391D01*
X132033206Y-52205863D01*
X132249630Y-52147872D01*
X132452696Y-52053181D01*
X132636233Y-51924667D01*
X132794667Y-51766233D01*
X132923181Y-51582696D01*
X132967618Y-51487399D01*
X133013375Y-51435224D01*
X133080000Y-51415805D01*
X133146625Y-51435224D01*
X133192381Y-51487399D01*
X133236819Y-51582696D01*
X133365333Y-51766233D01*
X133523767Y-51924667D01*
X133707304Y-52053181D01*
X133910370Y-52147872D01*
X134126794Y-52205863D01*
X134350000Y-52225391D01*
X134573206Y-52205863D01*
X134789630Y-52147872D01*
X134992696Y-52053181D01*
X135176233Y-51924667D01*
X135334667Y-51766233D01*
X135463181Y-51582696D01*
X135507618Y-51487399D01*
X135553375Y-51435224D01*
X135620000Y-51415805D01*
X135686625Y-51435224D01*
X135732381Y-51487399D01*
X135776819Y-51582696D01*
X135905333Y-51766233D01*
X136063767Y-51924667D01*
X136247304Y-52053181D01*
X136450370Y-52147872D01*
X136666794Y-52205863D01*
X136890000Y-52225391D01*
X137113206Y-52205863D01*
X137329630Y-52147872D01*
X137532696Y-52053181D01*
X137716233Y-51924667D01*
X137874667Y-51766233D01*
X138003181Y-51582696D01*
X138047618Y-51487399D01*
X138093375Y-51435224D01*
X138160000Y-51415805D01*
X138226625Y-51435224D01*
X138272381Y-51487399D01*
X138316819Y-51582696D01*
X138445333Y-51766233D01*
X138603767Y-51924667D01*
X138787304Y-52053181D01*
X138990370Y-52147872D01*
X139206794Y-52205863D01*
X139430000Y-52225391D01*
X139653206Y-52205863D01*
X139869630Y-52147872D01*
X140072696Y-52053181D01*
X140256233Y-51924667D01*
X140414667Y-51766233D01*
X140543181Y-51582696D01*
X140587618Y-51487399D01*
X140633375Y-51435224D01*
X140700000Y-51415805D01*
X140766625Y-51435224D01*
X140812381Y-51487399D01*
X140856819Y-51582696D01*
X140985333Y-51766233D01*
X141143767Y-51924667D01*
X141327304Y-52053181D01*
X141530370Y-52147872D01*
X141746794Y-52205863D01*
X141970000Y-52225391D01*
X142193206Y-52205863D01*
X142409630Y-52147872D01*
X142612696Y-52053181D01*
X142796233Y-51924667D01*
X142954667Y-51766233D01*
X143083181Y-51582696D01*
X143127618Y-51487399D01*
X143173375Y-51435224D01*
X143240000Y-51415805D01*
X143306625Y-51435224D01*
X143352381Y-51487399D01*
X143396819Y-51582696D01*
X143525333Y-51766233D01*
X143683767Y-51924667D01*
X143867304Y-52053181D01*
X144070370Y-52147872D01*
X144286794Y-52205863D01*
X144510000Y-52225391D01*
X144733206Y-52205863D01*
X144949630Y-52147872D01*
X145152696Y-52053181D01*
X145336233Y-51924667D01*
X145494667Y-51766233D01*
X145623181Y-51582696D01*
X145667618Y-51487399D01*
X145713375Y-51435224D01*
X145780000Y-51415805D01*
X145846625Y-51435224D01*
X145892381Y-51487399D01*
X145936819Y-51582696D01*
X146065333Y-51766233D01*
X146223767Y-51924667D01*
X146407304Y-52053181D01*
X146610370Y-52147872D01*
X146826794Y-52205863D01*
X147050000Y-52225391D01*
X147273206Y-52205863D01*
X147489630Y-52147872D01*
X147692696Y-52053181D01*
X147876233Y-51924667D01*
X148034667Y-51766233D01*
X148163181Y-51582696D01*
X148207618Y-51487399D01*
X148253375Y-51435224D01*
X148320000Y-51415805D01*
X148386625Y-51435224D01*
X148432381Y-51487399D01*
X148476819Y-51582696D01*
X148605333Y-51766233D01*
X148763767Y-51924667D01*
X148947304Y-52053181D01*
X149150370Y-52147872D01*
X149366794Y-52205863D01*
X149590000Y-52225391D01*
X149813206Y-52205863D01*
X150029630Y-52147872D01*
X150232696Y-52053181D01*
X150416233Y-51924667D01*
X150574667Y-51766233D01*
X150703181Y-51582696D01*
X150747618Y-51487399D01*
X150793375Y-51435224D01*
X150860000Y-51415805D01*
X150926625Y-51435224D01*
X150972381Y-51487399D01*
X151016819Y-51582696D01*
X151145333Y-51766233D01*
X151303767Y-51924667D01*
X151487304Y-52053181D01*
X151690370Y-52147872D01*
X151906794Y-52205863D01*
X152130000Y-52225391D01*
X152353206Y-52205863D01*
X152569630Y-52147872D01*
X152772696Y-52053181D01*
X152956233Y-51924667D01*
X153114667Y-51766233D01*
X153243181Y-51582696D01*
X153337872Y-51379630D01*
X153395863Y-51163206D01*
X153415391Y-50940000D01*
X153395863Y-50716794D01*
X153337872Y-50500370D01*
X153243181Y-50297305D01*
X153114667Y-50113767D01*
X152956233Y-49955333D01*
X152853376Y-49883312D01*
X152814511Y-49838995D01*
X152800500Y-49781738D01*
X152800500Y-49600808D01*
X152809939Y-49553355D01*
X152836819Y-49513127D01*
X153243127Y-49106819D01*
X153283355Y-49079939D01*
X153330808Y-49070500D01*
X164530019Y-49070500D01*
X164588340Y-49085071D01*
X164632955Y-49125361D01*
X164653377Y-49181900D01*
X164655000Y-49197796D01*
X164710186Y-49364334D01*
X164802288Y-49513657D01*
X164926342Y-49637711D01*
X164957480Y-49656917D01*
X165075666Y-49729814D01*
X165147837Y-49753729D01*
X165242202Y-49784999D01*
X165252703Y-49786071D01*
X165344991Y-49795500D01*
X166195008Y-49795499D01*
X166297797Y-49784999D01*
X166464334Y-49729814D01*
X166613656Y-49637712D01*
X166737712Y-49513656D01*
X166829814Y-49364334D01*
X166884999Y-49197797D01*
X166895500Y-49095009D01*
X166895500Y-49095008D01*
X167444500Y-49095008D01*
X167455000Y-49197796D01*
X167510186Y-49364334D01*
X167602288Y-49513657D01*
X167726342Y-49637711D01*
X167757480Y-49656917D01*
X167875666Y-49729814D01*
X167947837Y-49753729D01*
X168042202Y-49784999D01*
X168052703Y-49786071D01*
X168144991Y-49795500D01*
X168995008Y-49795499D01*
X169097797Y-49784999D01*
X169264334Y-49729814D01*
X169413656Y-49637712D01*
X169537712Y-49513656D01*
X169629814Y-49364334D01*
X169684999Y-49197797D01*
X169685263Y-49195211D01*
X169686624Y-49181896D01*
X169707048Y-49125359D01*
X169751662Y-49085071D01*
X169809982Y-49070500D01*
X170510375Y-49070500D01*
X170571290Y-49086494D01*
X170616491Y-49130349D01*
X170634528Y-49160185D01*
X170754815Y-49280472D01*
X170900394Y-49368478D01*
X171062804Y-49419086D01*
X171105214Y-49422940D01*
X171133383Y-49425500D01*
X171133384Y-49425500D01*
X171646616Y-49425500D01*
X171646617Y-49425500D01*
X171674786Y-49422940D01*
X171717196Y-49419086D01*
X171879606Y-49368478D01*
X172025185Y-49280472D01*
X172145472Y-49160185D01*
X172233478Y-49014606D01*
X172284086Y-48852196D01*
X172290500Y-48781616D01*
X172290500Y-48118384D01*
X172284086Y-48047804D01*
X172233478Y-47885394D01*
X172162051Y-47767240D01*
X172145471Y-47739813D01*
X172025186Y-47619528D01*
X171907229Y-47548221D01*
X171879606Y-47531522D01*
X171717196Y-47480914D01*
X171717193Y-47480913D01*
X171646617Y-47474500D01*
X171646616Y-47474500D01*
X171133384Y-47474500D01*
X171133383Y-47474500D01*
X171062806Y-47480913D01*
X170981598Y-47506218D01*
X170900394Y-47531522D01*
X170900392Y-47531522D01*
X170900392Y-47531523D01*
X170754813Y-47619528D01*
X170641161Y-47733181D01*
X170600933Y-47760061D01*
X170553480Y-47769500D01*
X169809981Y-47769500D01*
X169751660Y-47754929D01*
X169707045Y-47714639D01*
X169686623Y-47658100D01*
X169684999Y-47642203D01*
X169661161Y-47570265D01*
X169629814Y-47475666D01*
X169537712Y-47326344D01*
X169537711Y-47326342D01*
X169413657Y-47202288D01*
X169264334Y-47110186D01*
X169097797Y-47055000D01*
X168995009Y-47044500D01*
X168144991Y-47044500D01*
X168042203Y-47055000D01*
X167875665Y-47110186D01*
X167726342Y-47202288D01*
X167602288Y-47326342D01*
X167510186Y-47475665D01*
X167455000Y-47642202D01*
X167444500Y-47744990D01*
X167444500Y-49095008D01*
X166895500Y-49095008D01*
X166895499Y-47744992D01*
X166894292Y-47733181D01*
X166884999Y-47642203D01*
X166861161Y-47570265D01*
X166829814Y-47475666D01*
X166737712Y-47326344D01*
X166737711Y-47326342D01*
X166613657Y-47202288D01*
X166464334Y-47110186D01*
X166297797Y-47055000D01*
X166195009Y-47044500D01*
X165344991Y-47044500D01*
X165242203Y-47055000D01*
X165075665Y-47110186D01*
X164926342Y-47202288D01*
X164802288Y-47326342D01*
X164710186Y-47475665D01*
X164655000Y-47642203D01*
X164653376Y-47658104D01*
X164632952Y-47714641D01*
X164588338Y-47754929D01*
X164530018Y-47769500D01*
X153095505Y-47769500D01*
X153074294Y-47767158D01*
X153001724Y-47769439D01*
X152997829Y-47769500D01*
X152969074Y-47769500D01*
X152964701Y-47770052D01*
X152953069Y-47770967D01*
X152907428Y-47772401D01*
X152887041Y-47778324D01*
X152867998Y-47782268D01*
X152846942Y-47784928D01*
X152804496Y-47801733D01*
X152793450Y-47805514D01*
X152749602Y-47818254D01*
X152731324Y-47829063D01*
X152713861Y-47837618D01*
X152694130Y-47845431D01*
X152657187Y-47872270D01*
X152647428Y-47878680D01*
X152608135Y-47901918D01*
X152593125Y-47916928D01*
X152578336Y-47929558D01*
X152561164Y-47942034D01*
X152532057Y-47977218D01*
X152524196Y-47985856D01*
X151750484Y-48759568D01*
X151733831Y-48772910D01*
X151684133Y-48825833D01*
X151681427Y-48828626D01*
X151661083Y-48848971D01*
X151658376Y-48852460D01*
X151650807Y-48861321D01*
X151619551Y-48894607D01*
X151609322Y-48913212D01*
X151598645Y-48929467D01*
X151585636Y-48946238D01*
X151567506Y-48988132D01*
X151562370Y-48998616D01*
X151540372Y-49038632D01*
X151535091Y-49059199D01*
X151528791Y-49077600D01*
X151520364Y-49097074D01*
X151513223Y-49142161D01*
X151510855Y-49153593D01*
X151503590Y-49181896D01*
X151499500Y-49197824D01*
X151499500Y-49219045D01*
X151497973Y-49238444D01*
X151494653Y-49259403D01*
X151498950Y-49304861D01*
X151499500Y-49316530D01*
X151499500Y-49753729D01*
X151485489Y-49810986D01*
X151446624Y-49855303D01*
X151325517Y-49940104D01*
X151303763Y-49955336D01*
X151145333Y-50113766D01*
X151016819Y-50297304D01*
X150972382Y-50392600D01*
X150926625Y-50444776D01*
X150860000Y-50464195D01*
X150793375Y-50444776D01*
X150747618Y-50392600D01*
X150740531Y-50377403D01*
X150703181Y-50297305D01*
X150574667Y-50113767D01*
X150416233Y-49955333D01*
X150232696Y-49826819D01*
X150075954Y-49753729D01*
X150029631Y-49732128D01*
X149813203Y-49674136D01*
X149590000Y-49654608D01*
X149366796Y-49674136D01*
X149150368Y-49732128D01*
X148947304Y-49826819D01*
X148763766Y-49955333D01*
X148605333Y-50113766D01*
X148476819Y-50297304D01*
X148432382Y-50392600D01*
X148386625Y-50444776D01*
X148320000Y-50464195D01*
X148253375Y-50444776D01*
X148207618Y-50392600D01*
X148200531Y-50377403D01*
X148163181Y-50297305D01*
X148034667Y-50113767D01*
X147876233Y-49955333D01*
X147692696Y-49826819D01*
X147535954Y-49753729D01*
X147489631Y-49732128D01*
X147273203Y-49674136D01*
X147050000Y-49654608D01*
X146826796Y-49674136D01*
X146610368Y-49732128D01*
X146407304Y-49826819D01*
X146223766Y-49955333D01*
X146065333Y-50113766D01*
X145936819Y-50297304D01*
X145892382Y-50392600D01*
X145846625Y-50444776D01*
X145780000Y-50464195D01*
X145713375Y-50444776D01*
X145667618Y-50392600D01*
X145660531Y-50377403D01*
X145623181Y-50297305D01*
X145494667Y-50113767D01*
X145336233Y-49955333D01*
X145152696Y-49826819D01*
X144995954Y-49753729D01*
X144949631Y-49732128D01*
X144733203Y-49674136D01*
X144510000Y-49654608D01*
X144286796Y-49674136D01*
X144070368Y-49732128D01*
X143867304Y-49826819D01*
X143683766Y-49955333D01*
X143525333Y-50113766D01*
X143396819Y-50297304D01*
X143352382Y-50392600D01*
X143306625Y-50444776D01*
X143240000Y-50464195D01*
X143173375Y-50444776D01*
X143127618Y-50392600D01*
X143120531Y-50377403D01*
X143083181Y-50297305D01*
X142954667Y-50113767D01*
X142796233Y-49955333D01*
X142612696Y-49826819D01*
X142455954Y-49753729D01*
X142409631Y-49732128D01*
X142193203Y-49674136D01*
X141970000Y-49654608D01*
X141746796Y-49674136D01*
X141530368Y-49732128D01*
X141327304Y-49826819D01*
X141143766Y-49955333D01*
X140985333Y-50113766D01*
X140856819Y-50297304D01*
X140812382Y-50392600D01*
X140766625Y-50444776D01*
X140700000Y-50464195D01*
X140633375Y-50444776D01*
X140587618Y-50392600D01*
X140580531Y-50377403D01*
X140543181Y-50297305D01*
X140414667Y-50113767D01*
X140256233Y-49955333D01*
X140072696Y-49826819D01*
X139915954Y-49753729D01*
X139869631Y-49732128D01*
X139653203Y-49674136D01*
X139430000Y-49654608D01*
X139206796Y-49674136D01*
X138990368Y-49732128D01*
X138787304Y-49826819D01*
X138603766Y-49955333D01*
X138445333Y-50113766D01*
X138316819Y-50297304D01*
X138272382Y-50392600D01*
X138226625Y-50444776D01*
X138160000Y-50464195D01*
X138093375Y-50444776D01*
X138047618Y-50392600D01*
X138040531Y-50377403D01*
X138003181Y-50297305D01*
X137874667Y-50113767D01*
X137716233Y-49955333D01*
X137532696Y-49826819D01*
X137375954Y-49753729D01*
X137329631Y-49732128D01*
X137113203Y-49674136D01*
X136890000Y-49654608D01*
X136666796Y-49674136D01*
X136450368Y-49732128D01*
X136247304Y-49826819D01*
X136063766Y-49955333D01*
X135905333Y-50113766D01*
X135776819Y-50297304D01*
X135732382Y-50392600D01*
X135686625Y-50444776D01*
X135620000Y-50464195D01*
X135553375Y-50444776D01*
X135507618Y-50392600D01*
X135500531Y-50377403D01*
X135463181Y-50297305D01*
X135334667Y-50113767D01*
X135176233Y-49955333D01*
X134992696Y-49826819D01*
X134835954Y-49753729D01*
X134789631Y-49732128D01*
X134573203Y-49674136D01*
X134350000Y-49654608D01*
X134126796Y-49674136D01*
X133910368Y-49732128D01*
X133707304Y-49826819D01*
X133523766Y-49955333D01*
X133365333Y-50113766D01*
X133236819Y-50297304D01*
X133192382Y-50392600D01*
X133146625Y-50444776D01*
X133080000Y-50464195D01*
X133013375Y-50444776D01*
X132967618Y-50392600D01*
X132960531Y-50377403D01*
X132923181Y-50297305D01*
X132794667Y-50113767D01*
X132636233Y-49955333D01*
X132452696Y-49826819D01*
X132295954Y-49753729D01*
X132249631Y-49732128D01*
X132033203Y-49674136D01*
X131810000Y-49654608D01*
X131586796Y-49674136D01*
X131370368Y-49732128D01*
X131167304Y-49826819D01*
X130983766Y-49955333D01*
X130825333Y-50113766D01*
X130696819Y-50297304D01*
X130652382Y-50392600D01*
X130606625Y-50444776D01*
X130540000Y-50464195D01*
X130473375Y-50444776D01*
X130427618Y-50392600D01*
X130420531Y-50377403D01*
X130383181Y-50297305D01*
X130254667Y-50113767D01*
X130096233Y-49955333D01*
X129912696Y-49826819D01*
X129755954Y-49753729D01*
X129709631Y-49732128D01*
X129493203Y-49674136D01*
X129270000Y-49654608D01*
X129046796Y-49674136D01*
X128830368Y-49732128D01*
X128627304Y-49826819D01*
X128443766Y-49955333D01*
X128285333Y-50113766D01*
X128156819Y-50297304D01*
X128112382Y-50392600D01*
X128066625Y-50444776D01*
X128000000Y-50464195D01*
X127933375Y-50444776D01*
X127887618Y-50392600D01*
X127880531Y-50377403D01*
X127843181Y-50297305D01*
X127714667Y-50113767D01*
X127556233Y-49955333D01*
X127372696Y-49826819D01*
X127215954Y-49753729D01*
X127169631Y-49732128D01*
X126953203Y-49674136D01*
X126730000Y-49654608D01*
X126506796Y-49674136D01*
X126290368Y-49732128D01*
X126087304Y-49826819D01*
X125903766Y-49955333D01*
X125745333Y-50113766D01*
X125616819Y-50297304D01*
X125572382Y-50392600D01*
X125526625Y-50444776D01*
X125460000Y-50464195D01*
X125393375Y-50444776D01*
X125347618Y-50392600D01*
X125340531Y-50377403D01*
X125303181Y-50297305D01*
X125174667Y-50113767D01*
X125016233Y-49955333D01*
X124832696Y-49826819D01*
X124675954Y-49753729D01*
X124629631Y-49732128D01*
X124413203Y-49674136D01*
X124190000Y-49654608D01*
X123966796Y-49674136D01*
X123750368Y-49732128D01*
X123547304Y-49826819D01*
X123363766Y-49955333D01*
X123205333Y-50113766D01*
X123076819Y-50297304D01*
X123032382Y-50392600D01*
X122986625Y-50444776D01*
X122920000Y-50464195D01*
X122853375Y-50444776D01*
X122807618Y-50392600D01*
X122800531Y-50377403D01*
X122763181Y-50297305D01*
X122634667Y-50113767D01*
X122476233Y-49955333D01*
X122292696Y-49826819D01*
X122135954Y-49753729D01*
X122089631Y-49732128D01*
X121873203Y-49674136D01*
X121650000Y-49654608D01*
X121426796Y-49674136D01*
X121210368Y-49732128D01*
X121007304Y-49826819D01*
X120823766Y-49955333D01*
X120665333Y-50113766D01*
X120536819Y-50297304D01*
X120492382Y-50392600D01*
X120446625Y-50444776D01*
X120380000Y-50464195D01*
X120313375Y-50444776D01*
X120267618Y-50392600D01*
X120260531Y-50377403D01*
X120223181Y-50297305D01*
X120094667Y-50113767D01*
X119936233Y-49955333D01*
X119752696Y-49826819D01*
X119595954Y-49753729D01*
X119549631Y-49732128D01*
X119333203Y-49674136D01*
X119110000Y-49654608D01*
X118886796Y-49674136D01*
X118670368Y-49732128D01*
X118467304Y-49826819D01*
X118283766Y-49955333D01*
X118125333Y-50113766D01*
X117996819Y-50297304D01*
X117952382Y-50392600D01*
X117906625Y-50444776D01*
X117840000Y-50464195D01*
X117773375Y-50444776D01*
X117727618Y-50392600D01*
X117720531Y-50377403D01*
X117683181Y-50297305D01*
X117554667Y-50113767D01*
X117396233Y-49955333D01*
X117212696Y-49826819D01*
X117055954Y-49753729D01*
X117009631Y-49732128D01*
X116793203Y-49674136D01*
X116570000Y-49654608D01*
X116346796Y-49674136D01*
X116130368Y-49732128D01*
X115927304Y-49826819D01*
X115743766Y-49955333D01*
X115585333Y-50113766D01*
X115456819Y-50297304D01*
X115412382Y-50392600D01*
X115366625Y-50444776D01*
X115300000Y-50464195D01*
X115233375Y-50444776D01*
X115187618Y-50392600D01*
X115180531Y-50377403D01*
X115143181Y-50297305D01*
X115014667Y-50113767D01*
X114925425Y-50024525D01*
X114893331Y-49968938D01*
X114893331Y-49904750D01*
X114925423Y-49849165D01*
X116234353Y-48540235D01*
X116289939Y-48508143D01*
X116354126Y-48508143D01*
X116454592Y-48535063D01*
X116690000Y-48555659D01*
X116925408Y-48535063D01*
X117153663Y-48473903D01*
X117367830Y-48374035D01*
X117561401Y-48238495D01*
X117728495Y-48071401D01*
X117858426Y-47885839D01*
X117902743Y-47846975D01*
X117960000Y-47832964D01*
X118017257Y-47846975D01*
X118061573Y-47885839D01*
X118191505Y-48071401D01*
X118358599Y-48238495D01*
X118552170Y-48374035D01*
X118766337Y-48473903D01*
X118994592Y-48535063D01*
X119230000Y-48555659D01*
X119465408Y-48535063D01*
X119693663Y-48473903D01*
X119907830Y-48374035D01*
X120101401Y-48238495D01*
X120268495Y-48071401D01*
X120404035Y-47877830D01*
X120503903Y-47663663D01*
X120565063Y-47435408D01*
X120585659Y-47200000D01*
X120565063Y-46964592D01*
X120503903Y-46736337D01*
X120404035Y-46522171D01*
X120268495Y-46328599D01*
X120101401Y-46161505D01*
X119907830Y-46025965D01*
X119693663Y-45926097D01*
X119632502Y-45909709D01*
X119465407Y-45864936D01*
X119229999Y-45844340D01*
X119082007Y-45857288D01*
X119028789Y-45850282D01*
X118983519Y-45821441D01*
X118281693Y-45119615D01*
X118281691Y-45119612D01*
X118264252Y-45102174D01*
X118264252Y-45102173D01*
X118232262Y-45070184D01*
X118220709Y-45062925D01*
X118199849Y-45049817D01*
X118188511Y-45041772D01*
X118158586Y-45017908D01*
X118124095Y-45001298D01*
X118111933Y-44994576D01*
X118096327Y-44984770D01*
X118079520Y-44974209D01*
X118043398Y-44961570D01*
X118030553Y-44956250D01*
X117996058Y-44939638D01*
X117958736Y-44931119D01*
X117945380Y-44927272D01*
X117909252Y-44914631D01*
X117871219Y-44910345D01*
X117857518Y-44908017D01*
X117820196Y-44899500D01*
X117820194Y-44899500D01*
X117774954Y-44899500D01*
X108160194Y-44899500D01*
X107979805Y-44899500D01*
X107979803Y-44899500D01*
X107942490Y-44908016D01*
X107928785Y-44910345D01*
X107890747Y-44914631D01*
X107864875Y-44923683D01*
X107854620Y-44927272D01*
X107854611Y-44927275D01*
X107841255Y-44931122D01*
X107803938Y-44939640D01*
X107769459Y-44956244D01*
X107756618Y-44961563D01*
X107720479Y-44974209D01*
X107688064Y-44994577D01*
X107675897Y-45001301D01*
X107641414Y-45017907D01*
X107611487Y-45041773D01*
X107600152Y-45049815D01*
X107567740Y-45070181D01*
X107518306Y-45119615D01*
X104100185Y-48537735D01*
X104079817Y-48570151D01*
X104071772Y-48581489D01*
X104047908Y-48611413D01*
X104031300Y-48645899D01*
X104024576Y-48658064D01*
X104004211Y-48690475D01*
X103991565Y-48726613D01*
X103986246Y-48739453D01*
X103969639Y-48773938D01*
X103961118Y-48811268D01*
X103957270Y-48824623D01*
X103944631Y-48860743D01*
X103940345Y-48898780D01*
X103938017Y-48912480D01*
X103929500Y-48949803D01*
X103929500Y-53729140D01*
X103912893Y-53791129D01*
X103867522Y-53836514D01*
X103805538Y-53853140D01*
X98160000Y-53854871D01*
X98150097Y-72794870D01*
X91003344Y-72794870D01*
X90826819Y-72618345D01*
X90799939Y-72578117D01*
X90790500Y-72530664D01*
X90790500Y-67631919D01*
X94567216Y-67631919D01*
X94586469Y-67851985D01*
X94586470Y-67851988D01*
X94643646Y-68065370D01*
X94737006Y-68265582D01*
X94863714Y-68446540D01*
X95019920Y-68602746D01*
X95200878Y-68729454D01*
X95401090Y-68822814D01*
X95614472Y-68879990D01*
X95834540Y-68899243D01*
X96054608Y-68879990D01*
X96267990Y-68822814D01*
X96468202Y-68729454D01*
X96649160Y-68602746D01*
X96805366Y-68446540D01*
X96932074Y-68265582D01*
X97025434Y-68065370D01*
X97082610Y-67851988D01*
X97101863Y-67631920D01*
X97082610Y-67411852D01*
X97025434Y-67198470D01*
X96932074Y-66998259D01*
X96805366Y-66817300D01*
X96649160Y-66661094D01*
X96468202Y-66534386D01*
X96267991Y-66441026D01*
X96054605Y-66383849D01*
X95834540Y-66364596D01*
X95614474Y-66383849D01*
X95401088Y-66441026D01*
X95200878Y-66534386D01*
X95019919Y-66661094D01*
X94863714Y-66817299D01*
X94737006Y-66998258D01*
X94643646Y-67198468D01*
X94586469Y-67411854D01*
X94567216Y-67631919D01*
X90790500Y-67631919D01*
X90790500Y-59631920D01*
X94567216Y-59631920D01*
X94586469Y-59851985D01*
X94586470Y-59851988D01*
X94643646Y-60065370D01*
X94737006Y-60265582D01*
X94863714Y-60446540D01*
X95019920Y-60602746D01*
X95200878Y-60729454D01*
X95401090Y-60822814D01*
X95614472Y-60879990D01*
X95834540Y-60899243D01*
X96054608Y-60879990D01*
X96267990Y-60822814D01*
X96468202Y-60729454D01*
X96649160Y-60602746D01*
X96805366Y-60446540D01*
X96932074Y-60265582D01*
X97025434Y-60065370D01*
X97082610Y-59851988D01*
X97101863Y-59631920D01*
X97082610Y-59411852D01*
X97025434Y-59198470D01*
X96932074Y-58998259D01*
X96805366Y-58817300D01*
X96649160Y-58661094D01*
X96468202Y-58534386D01*
X96468201Y-58534385D01*
X96267991Y-58441026D01*
X96054605Y-58383849D01*
X95834540Y-58364596D01*
X95614474Y-58383849D01*
X95401088Y-58441026D01*
X95200878Y-58534386D01*
X95019919Y-58661094D01*
X94863714Y-58817299D01*
X94737006Y-58998258D01*
X94643646Y-59198468D01*
X94586469Y-59411854D01*
X94567216Y-59631920D01*
X90790500Y-59631920D01*
X90790500Y-47250581D01*
X90795655Y-47215199D01*
X90810691Y-47182759D01*
X90842111Y-47134667D01*
X90940336Y-46910736D01*
X91000364Y-46673692D01*
X91020557Y-46430000D01*
X91000364Y-46186308D01*
X90940336Y-45949264D01*
X90842111Y-45725333D01*
X90708368Y-45520623D01*
X90542754Y-45340719D01*
X90495989Y-45304320D01*
X90349793Y-45190530D01*
X90349789Y-45190527D01*
X90349788Y-45190527D01*
X90134733Y-45074145D01*
X90134731Y-45074144D01*
X90134727Y-45074142D01*
X89903459Y-44994748D01*
X89690830Y-44959267D01*
X89662263Y-44954500D01*
X89417737Y-44954500D01*
X89389170Y-44959267D01*
X89176540Y-44994748D01*
X88945272Y-45074142D01*
X88730206Y-45190530D01*
X88537249Y-45340716D01*
X88537246Y-45340718D01*
X88537246Y-45340719D01*
X88371632Y-45520623D01*
X88353468Y-45548425D01*
X88237887Y-45725335D01*
X88139665Y-45949261D01*
X88079635Y-46186312D01*
X88059442Y-46429999D01*
X71711033Y-46429999D01*
X71795314Y-46283993D01*
X71798252Y-46279165D01*
X71960013Y-46026735D01*
X71961325Y-46024735D01*
X72114726Y-45796108D01*
X72117779Y-45791765D01*
X72295269Y-45550642D01*
X72296942Y-45548425D01*
X72465626Y-45330375D01*
X72468744Y-45326509D01*
X72661270Y-45097559D01*
X72663290Y-45095221D01*
X72846459Y-44888846D01*
X72849569Y-44885473D01*
X73056369Y-44669558D01*
X73058835Y-44667059D01*
X73255581Y-44473419D01*
X73258648Y-44470505D01*
X73478875Y-44268486D01*
X73481811Y-44265878D01*
X73691142Y-44085959D01*
X73694144Y-44083463D01*
X73926974Y-43896083D01*
X73930326Y-43893480D01*
X74151360Y-43728044D01*
X74154123Y-43726039D01*
X74398666Y-43554027D01*
X74402528Y-43551418D01*
X74634022Y-43401380D01*
X74636705Y-43399692D01*
X74892011Y-43243739D01*
X74896221Y-43241284D01*
X75137146Y-43107278D01*
X75139605Y-43105949D01*
X75404675Y-42966699D01*
X75409385Y-42964353D01*
X75658502Y-42847032D01*
X75660654Y-42846046D01*
X75934572Y-42724031D01*
X75939747Y-42721869D01*
X76195704Y-42621803D01*
X76197614Y-42621076D01*
X76479281Y-42516850D01*
X76484970Y-42514903D01*
X76746398Y-42432537D01*
X76748028Y-42432037D01*
X77036524Y-42346022D01*
X77042692Y-42344356D01*
X77308107Y-42280035D01*
X77309119Y-42279796D01*
X77603894Y-42212296D01*
X77610481Y-42210977D01*
X77877765Y-42165014D01*
X77878447Y-42164900D01*
X78178848Y-42116280D01*
X78185840Y-42115354D01*
X78452286Y-42087856D01*
X78758924Y-42058386D01*
X78766338Y-42057899D01*
X79025524Y-42048726D01*
X79341588Y-42038875D01*
X79349355Y-42038878D01*
X79566418Y-42045844D01*
X79566949Y-42045862D01*
X79566949Y-42045908D01*
X79567117Y-42045868D01*
X79897448Y-42056935D01*
X79902025Y-42057955D01*
X79915823Y-42057782D01*
X79925799Y-42058058D01*
X79955203Y-42060059D01*
X79968079Y-42057708D01*
X172496186Y-42035622D01*
X172508665Y-42037845D01*
X172538285Y-42035883D01*
X172546482Y-42035612D01*
X172553959Y-42035612D01*
X172557199Y-42035115D01*
X172895601Y-42023778D01*
X172895769Y-42023807D01*
X172895768Y-42023772D01*
X172896319Y-42023754D01*
X173113900Y-42016773D01*
X173121643Y-42016770D01*
X173436949Y-42026598D01*
G37*
%TD.AperFunction*%
%TD*%
M02*
