%TF.GenerationSoftware,KiCad,Pcbnew,7.0.1*%
%TF.CreationDate,2023-10-29T13:19:21+05:30*%
%TF.ProjectId,MAZEBLAZE-V3,4d415a45-424c-4415-9a45-2d56332e6b69,rev?*%
%TF.SameCoordinates,Original*%
%TF.FileFunction,Drillmap*%
%TF.FilePolarity,Positive*%
%FSLAX45Y45*%
G04 Gerber Fmt 4.5, Leading zero omitted, Abs format (unit mm)*
G04 Created by KiCad (PCBNEW 7.0.1) date 2023-10-29 13:19:21*
%MOMM*%
%LPD*%
G01*
G04 APERTURE LIST*
%ADD10C,0.100000*%
%ADD11C,0.200000*%
%ADD12C,0.220000*%
%ADD13C,0.320000*%
G04 APERTURE END LIST*
D10*
X14456000Y-13026998D02*
G75*
G03*
X14810446Y-12832591I3160J414558D01*
G01*
X10413000Y-12843000D02*
G75*
G03*
X10765707Y-13045879I367000J230000D01*
G01*
X16230929Y-10686044D02*
X14810446Y-12832591D01*
X18192321Y-5009789D02*
G75*
G03*
X17254236Y-4203511I-880001J-75001D01*
G01*
X8978000Y-8738000D02*
X8977000Y-10565000D01*
X7992084Y-4205722D02*
X17254236Y-4203511D01*
X8977156Y-10564563D02*
G75*
G03*
X9009227Y-10686607I213974J-9007D01*
G01*
X7992084Y-4205722D02*
G75*
G03*
X7054000Y-5012000I-58084J-881278D01*
G01*
X18193000Y-7060000D02*
G75*
G03*
X16265454Y-8734635I201000J-2178000D01*
G01*
X10765707Y-13045879D02*
X14456000Y-13027000D01*
X16230931Y-10686045D02*
G75*
G03*
X16263000Y-10564000I-181911J113035D01*
G01*
X9009227Y-10686607D02*
X10413000Y-12843000D01*
X16265454Y-8734635D02*
X16263000Y-10564000D01*
X8977999Y-8738000D02*
G75*
G03*
X7050454Y-7063366I-2128545J-503365D01*
G01*
X18192320Y-5009789D02*
X18193000Y-7060000D01*
X7054000Y-5012000D02*
X7050454Y-7063366D01*
D11*
D12*
X8351000Y-5374000D02*
X8571000Y-5594000D01*
X8571000Y-5374000D02*
X8351000Y-5594000D01*
X8351000Y-7130000D02*
X8571000Y-7350000D01*
X8571000Y-7130000D02*
X8351000Y-7350000D01*
X16684000Y-5409000D02*
X16904000Y-5629000D01*
X16904000Y-5409000D02*
X16684000Y-5629000D01*
X16687978Y-7162792D02*
X16907978Y-7382792D01*
X16907978Y-7162792D02*
X16687978Y-7382792D01*
D13*
X10925000Y-12742894D02*
G75*
G03*
X10925000Y-12742894I-160000J0D01*
G01*
X14625000Y-12737000D02*
G75*
G03*
X14625000Y-12737000I-160000J0D01*
G01*
D11*
X7293073Y-13363403D02*
X7293073Y-13163403D01*
X7293073Y-13163403D02*
X7340692Y-13163403D01*
X7340692Y-13163403D02*
X7369263Y-13172927D01*
X7369263Y-13172927D02*
X7388311Y-13191975D01*
X7388311Y-13191975D02*
X7397835Y-13211022D01*
X7397835Y-13211022D02*
X7407359Y-13249117D01*
X7407359Y-13249117D02*
X7407359Y-13277689D01*
X7407359Y-13277689D02*
X7397835Y-13315784D01*
X7397835Y-13315784D02*
X7388311Y-13334832D01*
X7388311Y-13334832D02*
X7369263Y-13353879D01*
X7369263Y-13353879D02*
X7340692Y-13363403D01*
X7340692Y-13363403D02*
X7293073Y-13363403D01*
X7493073Y-13363403D02*
X7493073Y-13230070D01*
X7493073Y-13268165D02*
X7502597Y-13249117D01*
X7502597Y-13249117D02*
X7512121Y-13239594D01*
X7512121Y-13239594D02*
X7531168Y-13230070D01*
X7531168Y-13230070D02*
X7550216Y-13230070D01*
X7616882Y-13363403D02*
X7616882Y-13230070D01*
X7616882Y-13163403D02*
X7607359Y-13172927D01*
X7607359Y-13172927D02*
X7616882Y-13182451D01*
X7616882Y-13182451D02*
X7626406Y-13172927D01*
X7626406Y-13172927D02*
X7616882Y-13163403D01*
X7616882Y-13163403D02*
X7616882Y-13182451D01*
X7740692Y-13363403D02*
X7721644Y-13353879D01*
X7721644Y-13353879D02*
X7712121Y-13334832D01*
X7712121Y-13334832D02*
X7712121Y-13163403D01*
X7845454Y-13363403D02*
X7826406Y-13353879D01*
X7826406Y-13353879D02*
X7816882Y-13334832D01*
X7816882Y-13334832D02*
X7816882Y-13163403D01*
X8074025Y-13363403D02*
X8074025Y-13163403D01*
X8074025Y-13163403D02*
X8140692Y-13306260D01*
X8140692Y-13306260D02*
X8207359Y-13163403D01*
X8207359Y-13163403D02*
X8207359Y-13363403D01*
X8388311Y-13363403D02*
X8388311Y-13258641D01*
X8388311Y-13258641D02*
X8378787Y-13239594D01*
X8378787Y-13239594D02*
X8359740Y-13230070D01*
X8359740Y-13230070D02*
X8321644Y-13230070D01*
X8321644Y-13230070D02*
X8302597Y-13239594D01*
X8388311Y-13353879D02*
X8369263Y-13363403D01*
X8369263Y-13363403D02*
X8321644Y-13363403D01*
X8321644Y-13363403D02*
X8302597Y-13353879D01*
X8302597Y-13353879D02*
X8293073Y-13334832D01*
X8293073Y-13334832D02*
X8293073Y-13315784D01*
X8293073Y-13315784D02*
X8302597Y-13296737D01*
X8302597Y-13296737D02*
X8321644Y-13287213D01*
X8321644Y-13287213D02*
X8369263Y-13287213D01*
X8369263Y-13287213D02*
X8388311Y-13277689D01*
X8483549Y-13230070D02*
X8483549Y-13430070D01*
X8483549Y-13239594D02*
X8502597Y-13230070D01*
X8502597Y-13230070D02*
X8540692Y-13230070D01*
X8540692Y-13230070D02*
X8559740Y-13239594D01*
X8559740Y-13239594D02*
X8569264Y-13249117D01*
X8569264Y-13249117D02*
X8578787Y-13268165D01*
X8578787Y-13268165D02*
X8578787Y-13325308D01*
X8578787Y-13325308D02*
X8569264Y-13344356D01*
X8569264Y-13344356D02*
X8559740Y-13353879D01*
X8559740Y-13353879D02*
X8540692Y-13363403D01*
X8540692Y-13363403D02*
X8502597Y-13363403D01*
X8502597Y-13363403D02*
X8483549Y-13353879D01*
X8664502Y-13344356D02*
X8674025Y-13353879D01*
X8674025Y-13353879D02*
X8664502Y-13363403D01*
X8664502Y-13363403D02*
X8654978Y-13353879D01*
X8654978Y-13353879D02*
X8664502Y-13344356D01*
X8664502Y-13344356D02*
X8664502Y-13363403D01*
X8664502Y-13239594D02*
X8674025Y-13249117D01*
X8674025Y-13249117D02*
X8664502Y-13258641D01*
X8664502Y-13258641D02*
X8654978Y-13249117D01*
X8654978Y-13249117D02*
X8664502Y-13239594D01*
X8664502Y-13239594D02*
X8664502Y-13258641D01*
X6845454Y-13590879D02*
X7045454Y-13790879D01*
X7045454Y-13590879D02*
X6845454Y-13790879D01*
X7283549Y-13602451D02*
X7293073Y-13592927D01*
X7293073Y-13592927D02*
X7312121Y-13583403D01*
X7312121Y-13583403D02*
X7359740Y-13583403D01*
X7359740Y-13583403D02*
X7378787Y-13592927D01*
X7378787Y-13592927D02*
X7388311Y-13602451D01*
X7388311Y-13602451D02*
X7397835Y-13621498D01*
X7397835Y-13621498D02*
X7397835Y-13640546D01*
X7397835Y-13640546D02*
X7388311Y-13669117D01*
X7388311Y-13669117D02*
X7274025Y-13783403D01*
X7274025Y-13783403D02*
X7397835Y-13783403D01*
X7483549Y-13764356D02*
X7493073Y-13773879D01*
X7493073Y-13773879D02*
X7483549Y-13783403D01*
X7483549Y-13783403D02*
X7474025Y-13773879D01*
X7474025Y-13773879D02*
X7483549Y-13764356D01*
X7483549Y-13764356D02*
X7483549Y-13783403D01*
X7569263Y-13602451D02*
X7578787Y-13592927D01*
X7578787Y-13592927D02*
X7597835Y-13583403D01*
X7597835Y-13583403D02*
X7645454Y-13583403D01*
X7645454Y-13583403D02*
X7664502Y-13592927D01*
X7664502Y-13592927D02*
X7674025Y-13602451D01*
X7674025Y-13602451D02*
X7683549Y-13621498D01*
X7683549Y-13621498D02*
X7683549Y-13640546D01*
X7683549Y-13640546D02*
X7674025Y-13669117D01*
X7674025Y-13669117D02*
X7559740Y-13783403D01*
X7559740Y-13783403D02*
X7683549Y-13783403D01*
X7807359Y-13583403D02*
X7826406Y-13583403D01*
X7826406Y-13583403D02*
X7845454Y-13592927D01*
X7845454Y-13592927D02*
X7854978Y-13602451D01*
X7854978Y-13602451D02*
X7864502Y-13621498D01*
X7864502Y-13621498D02*
X7874025Y-13659594D01*
X7874025Y-13659594D02*
X7874025Y-13707213D01*
X7874025Y-13707213D02*
X7864502Y-13745308D01*
X7864502Y-13745308D02*
X7854978Y-13764356D01*
X7854978Y-13764356D02*
X7845454Y-13773879D01*
X7845454Y-13773879D02*
X7826406Y-13783403D01*
X7826406Y-13783403D02*
X7807359Y-13783403D01*
X7807359Y-13783403D02*
X7788311Y-13773879D01*
X7788311Y-13773879D02*
X7778787Y-13764356D01*
X7778787Y-13764356D02*
X7769263Y-13745308D01*
X7769263Y-13745308D02*
X7759740Y-13707213D01*
X7759740Y-13707213D02*
X7759740Y-13659594D01*
X7759740Y-13659594D02*
X7769263Y-13621498D01*
X7769263Y-13621498D02*
X7778787Y-13602451D01*
X7778787Y-13602451D02*
X7788311Y-13592927D01*
X7788311Y-13592927D02*
X7807359Y-13583403D01*
X7997835Y-13583403D02*
X8016883Y-13583403D01*
X8016883Y-13583403D02*
X8035930Y-13592927D01*
X8035930Y-13592927D02*
X8045454Y-13602451D01*
X8045454Y-13602451D02*
X8054978Y-13621498D01*
X8054978Y-13621498D02*
X8064502Y-13659594D01*
X8064502Y-13659594D02*
X8064502Y-13707213D01*
X8064502Y-13707213D02*
X8054978Y-13745308D01*
X8054978Y-13745308D02*
X8045454Y-13764356D01*
X8045454Y-13764356D02*
X8035930Y-13773879D01*
X8035930Y-13773879D02*
X8016883Y-13783403D01*
X8016883Y-13783403D02*
X7997835Y-13783403D01*
X7997835Y-13783403D02*
X7978787Y-13773879D01*
X7978787Y-13773879D02*
X7969263Y-13764356D01*
X7969263Y-13764356D02*
X7959740Y-13745308D01*
X7959740Y-13745308D02*
X7950216Y-13707213D01*
X7950216Y-13707213D02*
X7950216Y-13659594D01*
X7950216Y-13659594D02*
X7959740Y-13621498D01*
X7959740Y-13621498D02*
X7969263Y-13602451D01*
X7969263Y-13602451D02*
X7978787Y-13592927D01*
X7978787Y-13592927D02*
X7997835Y-13583403D01*
X8150216Y-13783403D02*
X8150216Y-13650070D01*
X8150216Y-13669117D02*
X8159740Y-13659594D01*
X8159740Y-13659594D02*
X8178787Y-13650070D01*
X8178787Y-13650070D02*
X8207359Y-13650070D01*
X8207359Y-13650070D02*
X8226406Y-13659594D01*
X8226406Y-13659594D02*
X8235930Y-13678641D01*
X8235930Y-13678641D02*
X8235930Y-13783403D01*
X8235930Y-13678641D02*
X8245454Y-13659594D01*
X8245454Y-13659594D02*
X8264502Y-13650070D01*
X8264502Y-13650070D02*
X8293073Y-13650070D01*
X8293073Y-13650070D02*
X8312121Y-13659594D01*
X8312121Y-13659594D02*
X8321644Y-13678641D01*
X8321644Y-13678641D02*
X8321644Y-13783403D01*
X8416883Y-13783403D02*
X8416883Y-13650070D01*
X8416883Y-13669117D02*
X8426406Y-13659594D01*
X8426406Y-13659594D02*
X8445454Y-13650070D01*
X8445454Y-13650070D02*
X8474026Y-13650070D01*
X8474026Y-13650070D02*
X8493073Y-13659594D01*
X8493073Y-13659594D02*
X8502597Y-13678641D01*
X8502597Y-13678641D02*
X8502597Y-13783403D01*
X8502597Y-13678641D02*
X8512121Y-13659594D01*
X8512121Y-13659594D02*
X8531168Y-13650070D01*
X8531168Y-13650070D02*
X8559740Y-13650070D01*
X8559740Y-13650070D02*
X8578787Y-13659594D01*
X8578787Y-13659594D02*
X8588311Y-13678641D01*
X8588311Y-13678641D02*
X8588311Y-13783403D01*
X8978787Y-13573879D02*
X8807359Y-13831022D01*
X9235930Y-13583403D02*
X9254978Y-13583403D01*
X9254978Y-13583403D02*
X9274026Y-13592927D01*
X9274026Y-13592927D02*
X9283549Y-13602451D01*
X9283549Y-13602451D02*
X9293073Y-13621498D01*
X9293073Y-13621498D02*
X9302597Y-13659594D01*
X9302597Y-13659594D02*
X9302597Y-13707213D01*
X9302597Y-13707213D02*
X9293073Y-13745308D01*
X9293073Y-13745308D02*
X9283549Y-13764356D01*
X9283549Y-13764356D02*
X9274026Y-13773879D01*
X9274026Y-13773879D02*
X9254978Y-13783403D01*
X9254978Y-13783403D02*
X9235930Y-13783403D01*
X9235930Y-13783403D02*
X9216883Y-13773879D01*
X9216883Y-13773879D02*
X9207359Y-13764356D01*
X9207359Y-13764356D02*
X9197835Y-13745308D01*
X9197835Y-13745308D02*
X9188311Y-13707213D01*
X9188311Y-13707213D02*
X9188311Y-13659594D01*
X9188311Y-13659594D02*
X9197835Y-13621498D01*
X9197835Y-13621498D02*
X9207359Y-13602451D01*
X9207359Y-13602451D02*
X9216883Y-13592927D01*
X9216883Y-13592927D02*
X9235930Y-13583403D01*
X9388311Y-13764356D02*
X9397835Y-13773879D01*
X9397835Y-13773879D02*
X9388311Y-13783403D01*
X9388311Y-13783403D02*
X9378788Y-13773879D01*
X9378788Y-13773879D02*
X9388311Y-13764356D01*
X9388311Y-13764356D02*
X9388311Y-13783403D01*
X9521645Y-13583403D02*
X9540692Y-13583403D01*
X9540692Y-13583403D02*
X9559740Y-13592927D01*
X9559740Y-13592927D02*
X9569264Y-13602451D01*
X9569264Y-13602451D02*
X9578788Y-13621498D01*
X9578788Y-13621498D02*
X9588311Y-13659594D01*
X9588311Y-13659594D02*
X9588311Y-13707213D01*
X9588311Y-13707213D02*
X9578788Y-13745308D01*
X9578788Y-13745308D02*
X9569264Y-13764356D01*
X9569264Y-13764356D02*
X9559740Y-13773879D01*
X9559740Y-13773879D02*
X9540692Y-13783403D01*
X9540692Y-13783403D02*
X9521645Y-13783403D01*
X9521645Y-13783403D02*
X9502597Y-13773879D01*
X9502597Y-13773879D02*
X9493073Y-13764356D01*
X9493073Y-13764356D02*
X9483549Y-13745308D01*
X9483549Y-13745308D02*
X9474026Y-13707213D01*
X9474026Y-13707213D02*
X9474026Y-13659594D01*
X9474026Y-13659594D02*
X9483549Y-13621498D01*
X9483549Y-13621498D02*
X9493073Y-13602451D01*
X9493073Y-13602451D02*
X9502597Y-13592927D01*
X9502597Y-13592927D02*
X9521645Y-13583403D01*
X9702597Y-13669117D02*
X9683549Y-13659594D01*
X9683549Y-13659594D02*
X9674026Y-13650070D01*
X9674026Y-13650070D02*
X9664502Y-13631022D01*
X9664502Y-13631022D02*
X9664502Y-13621498D01*
X9664502Y-13621498D02*
X9674026Y-13602451D01*
X9674026Y-13602451D02*
X9683549Y-13592927D01*
X9683549Y-13592927D02*
X9702597Y-13583403D01*
X9702597Y-13583403D02*
X9740692Y-13583403D01*
X9740692Y-13583403D02*
X9759740Y-13592927D01*
X9759740Y-13592927D02*
X9769264Y-13602451D01*
X9769264Y-13602451D02*
X9778788Y-13621498D01*
X9778788Y-13621498D02*
X9778788Y-13631022D01*
X9778788Y-13631022D02*
X9769264Y-13650070D01*
X9769264Y-13650070D02*
X9759740Y-13659594D01*
X9759740Y-13659594D02*
X9740692Y-13669117D01*
X9740692Y-13669117D02*
X9702597Y-13669117D01*
X9702597Y-13669117D02*
X9683549Y-13678641D01*
X9683549Y-13678641D02*
X9674026Y-13688165D01*
X9674026Y-13688165D02*
X9664502Y-13707213D01*
X9664502Y-13707213D02*
X9664502Y-13745308D01*
X9664502Y-13745308D02*
X9674026Y-13764356D01*
X9674026Y-13764356D02*
X9683549Y-13773879D01*
X9683549Y-13773879D02*
X9702597Y-13783403D01*
X9702597Y-13783403D02*
X9740692Y-13783403D01*
X9740692Y-13783403D02*
X9759740Y-13773879D01*
X9759740Y-13773879D02*
X9769264Y-13764356D01*
X9769264Y-13764356D02*
X9778788Y-13745308D01*
X9778788Y-13745308D02*
X9778788Y-13707213D01*
X9778788Y-13707213D02*
X9769264Y-13688165D01*
X9769264Y-13688165D02*
X9759740Y-13678641D01*
X9759740Y-13678641D02*
X9740692Y-13669117D01*
X9950216Y-13583403D02*
X9912121Y-13583403D01*
X9912121Y-13583403D02*
X9893073Y-13592927D01*
X9893073Y-13592927D02*
X9883549Y-13602451D01*
X9883549Y-13602451D02*
X9864502Y-13631022D01*
X9864502Y-13631022D02*
X9854978Y-13669117D01*
X9854978Y-13669117D02*
X9854978Y-13745308D01*
X9854978Y-13745308D02*
X9864502Y-13764356D01*
X9864502Y-13764356D02*
X9874026Y-13773879D01*
X9874026Y-13773879D02*
X9893073Y-13783403D01*
X9893073Y-13783403D02*
X9931169Y-13783403D01*
X9931169Y-13783403D02*
X9950216Y-13773879D01*
X9950216Y-13773879D02*
X9959740Y-13764356D01*
X9959740Y-13764356D02*
X9969264Y-13745308D01*
X9969264Y-13745308D02*
X9969264Y-13697689D01*
X9969264Y-13697689D02*
X9959740Y-13678641D01*
X9959740Y-13678641D02*
X9950216Y-13669117D01*
X9950216Y-13669117D02*
X9931169Y-13659594D01*
X9931169Y-13659594D02*
X9893073Y-13659594D01*
X9893073Y-13659594D02*
X9874026Y-13669117D01*
X9874026Y-13669117D02*
X9864502Y-13678641D01*
X9864502Y-13678641D02*
X9854978Y-13697689D01*
X10140692Y-13583403D02*
X10102597Y-13583403D01*
X10102597Y-13583403D02*
X10083549Y-13592927D01*
X10083549Y-13592927D02*
X10074026Y-13602451D01*
X10074026Y-13602451D02*
X10054978Y-13631022D01*
X10054978Y-13631022D02*
X10045454Y-13669117D01*
X10045454Y-13669117D02*
X10045454Y-13745308D01*
X10045454Y-13745308D02*
X10054978Y-13764356D01*
X10054978Y-13764356D02*
X10064502Y-13773879D01*
X10064502Y-13773879D02*
X10083549Y-13783403D01*
X10083549Y-13783403D02*
X10121645Y-13783403D01*
X10121645Y-13783403D02*
X10140692Y-13773879D01*
X10140692Y-13773879D02*
X10150216Y-13764356D01*
X10150216Y-13764356D02*
X10159740Y-13745308D01*
X10159740Y-13745308D02*
X10159740Y-13697689D01*
X10159740Y-13697689D02*
X10150216Y-13678641D01*
X10150216Y-13678641D02*
X10140692Y-13669117D01*
X10140692Y-13669117D02*
X10121645Y-13659594D01*
X10121645Y-13659594D02*
X10083549Y-13659594D01*
X10083549Y-13659594D02*
X10064502Y-13669117D01*
X10064502Y-13669117D02*
X10054978Y-13678641D01*
X10054978Y-13678641D02*
X10045454Y-13697689D01*
X10235930Y-13583403D02*
X10235930Y-13621498D01*
X10312121Y-13583403D02*
X10312121Y-13621498D01*
X10607359Y-13859594D02*
X10597835Y-13850070D01*
X10597835Y-13850070D02*
X10578788Y-13821498D01*
X10578788Y-13821498D02*
X10569264Y-13802451D01*
X10569264Y-13802451D02*
X10559740Y-13773879D01*
X10559740Y-13773879D02*
X10550216Y-13726260D01*
X10550216Y-13726260D02*
X10550216Y-13688165D01*
X10550216Y-13688165D02*
X10559740Y-13640546D01*
X10559740Y-13640546D02*
X10569264Y-13611975D01*
X10569264Y-13611975D02*
X10578788Y-13592927D01*
X10578788Y-13592927D02*
X10597835Y-13564356D01*
X10597835Y-13564356D02*
X10607359Y-13554832D01*
X10769264Y-13650070D02*
X10769264Y-13783403D01*
X10721645Y-13573879D02*
X10674026Y-13716737D01*
X10674026Y-13716737D02*
X10797835Y-13716737D01*
X11026407Y-13783403D02*
X11026407Y-13583403D01*
X11112121Y-13783403D02*
X11112121Y-13678641D01*
X11112121Y-13678641D02*
X11102597Y-13659594D01*
X11102597Y-13659594D02*
X11083550Y-13650070D01*
X11083550Y-13650070D02*
X11054978Y-13650070D01*
X11054978Y-13650070D02*
X11035931Y-13659594D01*
X11035931Y-13659594D02*
X11026407Y-13669117D01*
X11235930Y-13783403D02*
X11216883Y-13773879D01*
X11216883Y-13773879D02*
X11207359Y-13764356D01*
X11207359Y-13764356D02*
X11197835Y-13745308D01*
X11197835Y-13745308D02*
X11197835Y-13688165D01*
X11197835Y-13688165D02*
X11207359Y-13669117D01*
X11207359Y-13669117D02*
X11216883Y-13659594D01*
X11216883Y-13659594D02*
X11235930Y-13650070D01*
X11235930Y-13650070D02*
X11264502Y-13650070D01*
X11264502Y-13650070D02*
X11283550Y-13659594D01*
X11283550Y-13659594D02*
X11293073Y-13669117D01*
X11293073Y-13669117D02*
X11302597Y-13688165D01*
X11302597Y-13688165D02*
X11302597Y-13745308D01*
X11302597Y-13745308D02*
X11293073Y-13764356D01*
X11293073Y-13764356D02*
X11283550Y-13773879D01*
X11283550Y-13773879D02*
X11264502Y-13783403D01*
X11264502Y-13783403D02*
X11235930Y-13783403D01*
X11416883Y-13783403D02*
X11397835Y-13773879D01*
X11397835Y-13773879D02*
X11388311Y-13754832D01*
X11388311Y-13754832D02*
X11388311Y-13583403D01*
X11569264Y-13773879D02*
X11550216Y-13783403D01*
X11550216Y-13783403D02*
X11512121Y-13783403D01*
X11512121Y-13783403D02*
X11493073Y-13773879D01*
X11493073Y-13773879D02*
X11483550Y-13754832D01*
X11483550Y-13754832D02*
X11483550Y-13678641D01*
X11483550Y-13678641D02*
X11493073Y-13659594D01*
X11493073Y-13659594D02*
X11512121Y-13650070D01*
X11512121Y-13650070D02*
X11550216Y-13650070D01*
X11550216Y-13650070D02*
X11569264Y-13659594D01*
X11569264Y-13659594D02*
X11578788Y-13678641D01*
X11578788Y-13678641D02*
X11578788Y-13697689D01*
X11578788Y-13697689D02*
X11483550Y-13716737D01*
X11654978Y-13773879D02*
X11674026Y-13783403D01*
X11674026Y-13783403D02*
X11712121Y-13783403D01*
X11712121Y-13783403D02*
X11731169Y-13773879D01*
X11731169Y-13773879D02*
X11740692Y-13754832D01*
X11740692Y-13754832D02*
X11740692Y-13745308D01*
X11740692Y-13745308D02*
X11731169Y-13726260D01*
X11731169Y-13726260D02*
X11712121Y-13716737D01*
X11712121Y-13716737D02*
X11683550Y-13716737D01*
X11683550Y-13716737D02*
X11664502Y-13707213D01*
X11664502Y-13707213D02*
X11654978Y-13688165D01*
X11654978Y-13688165D02*
X11654978Y-13678641D01*
X11654978Y-13678641D02*
X11664502Y-13659594D01*
X11664502Y-13659594D02*
X11683550Y-13650070D01*
X11683550Y-13650070D02*
X11712121Y-13650070D01*
X11712121Y-13650070D02*
X11731169Y-13659594D01*
X11807359Y-13859594D02*
X11816883Y-13850070D01*
X11816883Y-13850070D02*
X11835931Y-13821498D01*
X11835931Y-13821498D02*
X11845454Y-13802451D01*
X11845454Y-13802451D02*
X11854978Y-13773879D01*
X11854978Y-13773879D02*
X11864502Y-13726260D01*
X11864502Y-13726260D02*
X11864502Y-13688165D01*
X11864502Y-13688165D02*
X11854978Y-13640546D01*
X11854978Y-13640546D02*
X11845454Y-13611975D01*
X11845454Y-13611975D02*
X11835931Y-13592927D01*
X11835931Y-13592927D02*
X11816883Y-13564356D01*
X11816883Y-13564356D02*
X11807359Y-13554832D01*
X12169264Y-13859594D02*
X12159740Y-13850070D01*
X12159740Y-13850070D02*
X12140692Y-13821498D01*
X12140692Y-13821498D02*
X12131169Y-13802451D01*
X12131169Y-13802451D02*
X12121645Y-13773879D01*
X12121645Y-13773879D02*
X12112121Y-13726260D01*
X12112121Y-13726260D02*
X12112121Y-13688165D01*
X12112121Y-13688165D02*
X12121645Y-13640546D01*
X12121645Y-13640546D02*
X12131169Y-13611975D01*
X12131169Y-13611975D02*
X12140692Y-13592927D01*
X12140692Y-13592927D02*
X12159740Y-13564356D01*
X12159740Y-13564356D02*
X12169264Y-13554832D01*
X12245454Y-13650070D02*
X12245454Y-13783403D01*
X12245454Y-13669117D02*
X12254978Y-13659594D01*
X12254978Y-13659594D02*
X12274026Y-13650070D01*
X12274026Y-13650070D02*
X12302597Y-13650070D01*
X12302597Y-13650070D02*
X12321645Y-13659594D01*
X12321645Y-13659594D02*
X12331169Y-13678641D01*
X12331169Y-13678641D02*
X12331169Y-13783403D01*
X12454978Y-13783403D02*
X12435931Y-13773879D01*
X12435931Y-13773879D02*
X12426407Y-13764356D01*
X12426407Y-13764356D02*
X12416883Y-13745308D01*
X12416883Y-13745308D02*
X12416883Y-13688165D01*
X12416883Y-13688165D02*
X12426407Y-13669117D01*
X12426407Y-13669117D02*
X12435931Y-13659594D01*
X12435931Y-13659594D02*
X12454978Y-13650070D01*
X12454978Y-13650070D02*
X12483550Y-13650070D01*
X12483550Y-13650070D02*
X12502597Y-13659594D01*
X12502597Y-13659594D02*
X12512121Y-13669117D01*
X12512121Y-13669117D02*
X12521645Y-13688165D01*
X12521645Y-13688165D02*
X12521645Y-13745308D01*
X12521645Y-13745308D02*
X12512121Y-13764356D01*
X12512121Y-13764356D02*
X12502597Y-13773879D01*
X12502597Y-13773879D02*
X12483550Y-13783403D01*
X12483550Y-13783403D02*
X12454978Y-13783403D01*
X12578788Y-13650070D02*
X12654978Y-13650070D01*
X12607359Y-13583403D02*
X12607359Y-13754832D01*
X12607359Y-13754832D02*
X12616883Y-13773879D01*
X12616883Y-13773879D02*
X12635931Y-13783403D01*
X12635931Y-13783403D02*
X12654978Y-13783403D01*
X12874026Y-13650070D02*
X12874026Y-13850070D01*
X12874026Y-13659594D02*
X12893073Y-13650070D01*
X12893073Y-13650070D02*
X12931169Y-13650070D01*
X12931169Y-13650070D02*
X12950216Y-13659594D01*
X12950216Y-13659594D02*
X12959740Y-13669117D01*
X12959740Y-13669117D02*
X12969264Y-13688165D01*
X12969264Y-13688165D02*
X12969264Y-13745308D01*
X12969264Y-13745308D02*
X12959740Y-13764356D01*
X12959740Y-13764356D02*
X12950216Y-13773879D01*
X12950216Y-13773879D02*
X12931169Y-13783403D01*
X12931169Y-13783403D02*
X12893073Y-13783403D01*
X12893073Y-13783403D02*
X12874026Y-13773879D01*
X13083550Y-13783403D02*
X13064502Y-13773879D01*
X13064502Y-13773879D02*
X13054978Y-13754832D01*
X13054978Y-13754832D02*
X13054978Y-13583403D01*
X13245454Y-13783403D02*
X13245454Y-13678641D01*
X13245454Y-13678641D02*
X13235931Y-13659594D01*
X13235931Y-13659594D02*
X13216883Y-13650070D01*
X13216883Y-13650070D02*
X13178788Y-13650070D01*
X13178788Y-13650070D02*
X13159740Y-13659594D01*
X13245454Y-13773879D02*
X13226407Y-13783403D01*
X13226407Y-13783403D02*
X13178788Y-13783403D01*
X13178788Y-13783403D02*
X13159740Y-13773879D01*
X13159740Y-13773879D02*
X13150216Y-13754832D01*
X13150216Y-13754832D02*
X13150216Y-13735784D01*
X13150216Y-13735784D02*
X13159740Y-13716737D01*
X13159740Y-13716737D02*
X13178788Y-13707213D01*
X13178788Y-13707213D02*
X13226407Y-13707213D01*
X13226407Y-13707213D02*
X13245454Y-13697689D01*
X13312121Y-13650070D02*
X13388312Y-13650070D01*
X13340693Y-13583403D02*
X13340693Y-13754832D01*
X13340693Y-13754832D02*
X13350216Y-13773879D01*
X13350216Y-13773879D02*
X13369264Y-13783403D01*
X13369264Y-13783403D02*
X13388312Y-13783403D01*
X13531169Y-13773879D02*
X13512121Y-13783403D01*
X13512121Y-13783403D02*
X13474026Y-13783403D01*
X13474026Y-13783403D02*
X13454978Y-13773879D01*
X13454978Y-13773879D02*
X13445454Y-13754832D01*
X13445454Y-13754832D02*
X13445454Y-13678641D01*
X13445454Y-13678641D02*
X13454978Y-13659594D01*
X13454978Y-13659594D02*
X13474026Y-13650070D01*
X13474026Y-13650070D02*
X13512121Y-13650070D01*
X13512121Y-13650070D02*
X13531169Y-13659594D01*
X13531169Y-13659594D02*
X13540693Y-13678641D01*
X13540693Y-13678641D02*
X13540693Y-13697689D01*
X13540693Y-13697689D02*
X13445454Y-13716737D01*
X13712121Y-13783403D02*
X13712121Y-13583403D01*
X13712121Y-13773879D02*
X13693074Y-13783403D01*
X13693074Y-13783403D02*
X13654978Y-13783403D01*
X13654978Y-13783403D02*
X13635931Y-13773879D01*
X13635931Y-13773879D02*
X13626407Y-13764356D01*
X13626407Y-13764356D02*
X13616883Y-13745308D01*
X13616883Y-13745308D02*
X13616883Y-13688165D01*
X13616883Y-13688165D02*
X13626407Y-13669117D01*
X13626407Y-13669117D02*
X13635931Y-13659594D01*
X13635931Y-13659594D02*
X13654978Y-13650070D01*
X13654978Y-13650070D02*
X13693074Y-13650070D01*
X13693074Y-13650070D02*
X13712121Y-13659594D01*
X13788312Y-13859594D02*
X13797835Y-13850070D01*
X13797835Y-13850070D02*
X13816883Y-13821498D01*
X13816883Y-13821498D02*
X13826407Y-13802451D01*
X13826407Y-13802451D02*
X13835931Y-13773879D01*
X13835931Y-13773879D02*
X13845454Y-13726260D01*
X13845454Y-13726260D02*
X13845454Y-13688165D01*
X13845454Y-13688165D02*
X13835931Y-13640546D01*
X13835931Y-13640546D02*
X13826407Y-13611975D01*
X13826407Y-13611975D02*
X13816883Y-13592927D01*
X13816883Y-13592927D02*
X13797835Y-13564356D01*
X13797835Y-13564356D02*
X13788312Y-13554832D01*
X7045454Y-14010879D02*
G75*
G03*
X7045454Y-14010879I-100000J0D01*
G01*
X7274025Y-13903403D02*
X7397835Y-13903403D01*
X7397835Y-13903403D02*
X7331168Y-13979594D01*
X7331168Y-13979594D02*
X7359740Y-13979594D01*
X7359740Y-13979594D02*
X7378787Y-13989117D01*
X7378787Y-13989117D02*
X7388311Y-13998641D01*
X7388311Y-13998641D02*
X7397835Y-14017689D01*
X7397835Y-14017689D02*
X7397835Y-14065308D01*
X7397835Y-14065308D02*
X7388311Y-14084356D01*
X7388311Y-14084356D02*
X7378787Y-14093879D01*
X7378787Y-14093879D02*
X7359740Y-14103403D01*
X7359740Y-14103403D02*
X7302597Y-14103403D01*
X7302597Y-14103403D02*
X7283549Y-14093879D01*
X7283549Y-14093879D02*
X7274025Y-14084356D01*
X7483549Y-14084356D02*
X7493073Y-14093879D01*
X7493073Y-14093879D02*
X7483549Y-14103403D01*
X7483549Y-14103403D02*
X7474025Y-14093879D01*
X7474025Y-14093879D02*
X7483549Y-14084356D01*
X7483549Y-14084356D02*
X7483549Y-14103403D01*
X7569263Y-13922451D02*
X7578787Y-13912927D01*
X7578787Y-13912927D02*
X7597835Y-13903403D01*
X7597835Y-13903403D02*
X7645454Y-13903403D01*
X7645454Y-13903403D02*
X7664502Y-13912927D01*
X7664502Y-13912927D02*
X7674025Y-13922451D01*
X7674025Y-13922451D02*
X7683549Y-13941498D01*
X7683549Y-13941498D02*
X7683549Y-13960546D01*
X7683549Y-13960546D02*
X7674025Y-13989117D01*
X7674025Y-13989117D02*
X7559740Y-14103403D01*
X7559740Y-14103403D02*
X7683549Y-14103403D01*
X7807359Y-13903403D02*
X7826406Y-13903403D01*
X7826406Y-13903403D02*
X7845454Y-13912927D01*
X7845454Y-13912927D02*
X7854978Y-13922451D01*
X7854978Y-13922451D02*
X7864502Y-13941498D01*
X7864502Y-13941498D02*
X7874025Y-13979594D01*
X7874025Y-13979594D02*
X7874025Y-14027213D01*
X7874025Y-14027213D02*
X7864502Y-14065308D01*
X7864502Y-14065308D02*
X7854978Y-14084356D01*
X7854978Y-14084356D02*
X7845454Y-14093879D01*
X7845454Y-14093879D02*
X7826406Y-14103403D01*
X7826406Y-14103403D02*
X7807359Y-14103403D01*
X7807359Y-14103403D02*
X7788311Y-14093879D01*
X7788311Y-14093879D02*
X7778787Y-14084356D01*
X7778787Y-14084356D02*
X7769263Y-14065308D01*
X7769263Y-14065308D02*
X7759740Y-14027213D01*
X7759740Y-14027213D02*
X7759740Y-13979594D01*
X7759740Y-13979594D02*
X7769263Y-13941498D01*
X7769263Y-13941498D02*
X7778787Y-13922451D01*
X7778787Y-13922451D02*
X7788311Y-13912927D01*
X7788311Y-13912927D02*
X7807359Y-13903403D01*
X7997835Y-13903403D02*
X8016883Y-13903403D01*
X8016883Y-13903403D02*
X8035930Y-13912927D01*
X8035930Y-13912927D02*
X8045454Y-13922451D01*
X8045454Y-13922451D02*
X8054978Y-13941498D01*
X8054978Y-13941498D02*
X8064502Y-13979594D01*
X8064502Y-13979594D02*
X8064502Y-14027213D01*
X8064502Y-14027213D02*
X8054978Y-14065308D01*
X8054978Y-14065308D02*
X8045454Y-14084356D01*
X8045454Y-14084356D02*
X8035930Y-14093879D01*
X8035930Y-14093879D02*
X8016883Y-14103403D01*
X8016883Y-14103403D02*
X7997835Y-14103403D01*
X7997835Y-14103403D02*
X7978787Y-14093879D01*
X7978787Y-14093879D02*
X7969263Y-14084356D01*
X7969263Y-14084356D02*
X7959740Y-14065308D01*
X7959740Y-14065308D02*
X7950216Y-14027213D01*
X7950216Y-14027213D02*
X7950216Y-13979594D01*
X7950216Y-13979594D02*
X7959740Y-13941498D01*
X7959740Y-13941498D02*
X7969263Y-13922451D01*
X7969263Y-13922451D02*
X7978787Y-13912927D01*
X7978787Y-13912927D02*
X7997835Y-13903403D01*
X8150216Y-14103403D02*
X8150216Y-13970070D01*
X8150216Y-13989117D02*
X8159740Y-13979594D01*
X8159740Y-13979594D02*
X8178787Y-13970070D01*
X8178787Y-13970070D02*
X8207359Y-13970070D01*
X8207359Y-13970070D02*
X8226406Y-13979594D01*
X8226406Y-13979594D02*
X8235930Y-13998641D01*
X8235930Y-13998641D02*
X8235930Y-14103403D01*
X8235930Y-13998641D02*
X8245454Y-13979594D01*
X8245454Y-13979594D02*
X8264502Y-13970070D01*
X8264502Y-13970070D02*
X8293073Y-13970070D01*
X8293073Y-13970070D02*
X8312121Y-13979594D01*
X8312121Y-13979594D02*
X8321644Y-13998641D01*
X8321644Y-13998641D02*
X8321644Y-14103403D01*
X8416883Y-14103403D02*
X8416883Y-13970070D01*
X8416883Y-13989117D02*
X8426406Y-13979594D01*
X8426406Y-13979594D02*
X8445454Y-13970070D01*
X8445454Y-13970070D02*
X8474026Y-13970070D01*
X8474026Y-13970070D02*
X8493073Y-13979594D01*
X8493073Y-13979594D02*
X8502597Y-13998641D01*
X8502597Y-13998641D02*
X8502597Y-14103403D01*
X8502597Y-13998641D02*
X8512121Y-13979594D01*
X8512121Y-13979594D02*
X8531168Y-13970070D01*
X8531168Y-13970070D02*
X8559740Y-13970070D01*
X8559740Y-13970070D02*
X8578787Y-13979594D01*
X8578787Y-13979594D02*
X8588311Y-13998641D01*
X8588311Y-13998641D02*
X8588311Y-14103403D01*
X8978787Y-13893879D02*
X8807359Y-14151022D01*
X9235930Y-13903403D02*
X9254978Y-13903403D01*
X9254978Y-13903403D02*
X9274026Y-13912927D01*
X9274026Y-13912927D02*
X9283549Y-13922451D01*
X9283549Y-13922451D02*
X9293073Y-13941498D01*
X9293073Y-13941498D02*
X9302597Y-13979594D01*
X9302597Y-13979594D02*
X9302597Y-14027213D01*
X9302597Y-14027213D02*
X9293073Y-14065308D01*
X9293073Y-14065308D02*
X9283549Y-14084356D01*
X9283549Y-14084356D02*
X9274026Y-14093879D01*
X9274026Y-14093879D02*
X9254978Y-14103403D01*
X9254978Y-14103403D02*
X9235930Y-14103403D01*
X9235930Y-14103403D02*
X9216883Y-14093879D01*
X9216883Y-14093879D02*
X9207359Y-14084356D01*
X9207359Y-14084356D02*
X9197835Y-14065308D01*
X9197835Y-14065308D02*
X9188311Y-14027213D01*
X9188311Y-14027213D02*
X9188311Y-13979594D01*
X9188311Y-13979594D02*
X9197835Y-13941498D01*
X9197835Y-13941498D02*
X9207359Y-13922451D01*
X9207359Y-13922451D02*
X9216883Y-13912927D01*
X9216883Y-13912927D02*
X9235930Y-13903403D01*
X9388311Y-14084356D02*
X9397835Y-14093879D01*
X9397835Y-14093879D02*
X9388311Y-14103403D01*
X9388311Y-14103403D02*
X9378788Y-14093879D01*
X9378788Y-14093879D02*
X9388311Y-14084356D01*
X9388311Y-14084356D02*
X9388311Y-14103403D01*
X9588311Y-14103403D02*
X9474026Y-14103403D01*
X9531168Y-14103403D02*
X9531168Y-13903403D01*
X9531168Y-13903403D02*
X9512121Y-13931975D01*
X9512121Y-13931975D02*
X9493073Y-13951022D01*
X9493073Y-13951022D02*
X9474026Y-13960546D01*
X9664502Y-13922451D02*
X9674026Y-13912927D01*
X9674026Y-13912927D02*
X9693073Y-13903403D01*
X9693073Y-13903403D02*
X9740692Y-13903403D01*
X9740692Y-13903403D02*
X9759740Y-13912927D01*
X9759740Y-13912927D02*
X9769264Y-13922451D01*
X9769264Y-13922451D02*
X9778788Y-13941498D01*
X9778788Y-13941498D02*
X9778788Y-13960546D01*
X9778788Y-13960546D02*
X9769264Y-13989117D01*
X9769264Y-13989117D02*
X9654978Y-14103403D01*
X9654978Y-14103403D02*
X9778788Y-14103403D01*
X9950216Y-13903403D02*
X9912121Y-13903403D01*
X9912121Y-13903403D02*
X9893073Y-13912927D01*
X9893073Y-13912927D02*
X9883549Y-13922451D01*
X9883549Y-13922451D02*
X9864502Y-13951022D01*
X9864502Y-13951022D02*
X9854978Y-13989117D01*
X9854978Y-13989117D02*
X9854978Y-14065308D01*
X9854978Y-14065308D02*
X9864502Y-14084356D01*
X9864502Y-14084356D02*
X9874026Y-14093879D01*
X9874026Y-14093879D02*
X9893073Y-14103403D01*
X9893073Y-14103403D02*
X9931169Y-14103403D01*
X9931169Y-14103403D02*
X9950216Y-14093879D01*
X9950216Y-14093879D02*
X9959740Y-14084356D01*
X9959740Y-14084356D02*
X9969264Y-14065308D01*
X9969264Y-14065308D02*
X9969264Y-14017689D01*
X9969264Y-14017689D02*
X9959740Y-13998641D01*
X9959740Y-13998641D02*
X9950216Y-13989117D01*
X9950216Y-13989117D02*
X9931169Y-13979594D01*
X9931169Y-13979594D02*
X9893073Y-13979594D01*
X9893073Y-13979594D02*
X9874026Y-13989117D01*
X9874026Y-13989117D02*
X9864502Y-13998641D01*
X9864502Y-13998641D02*
X9854978Y-14017689D01*
X10093073Y-13903403D02*
X10112121Y-13903403D01*
X10112121Y-13903403D02*
X10131169Y-13912927D01*
X10131169Y-13912927D02*
X10140692Y-13922451D01*
X10140692Y-13922451D02*
X10150216Y-13941498D01*
X10150216Y-13941498D02*
X10159740Y-13979594D01*
X10159740Y-13979594D02*
X10159740Y-14027213D01*
X10159740Y-14027213D02*
X10150216Y-14065308D01*
X10150216Y-14065308D02*
X10140692Y-14084356D01*
X10140692Y-14084356D02*
X10131169Y-14093879D01*
X10131169Y-14093879D02*
X10112121Y-14103403D01*
X10112121Y-14103403D02*
X10093073Y-14103403D01*
X10093073Y-14103403D02*
X10074026Y-14093879D01*
X10074026Y-14093879D02*
X10064502Y-14084356D01*
X10064502Y-14084356D02*
X10054978Y-14065308D01*
X10054978Y-14065308D02*
X10045454Y-14027213D01*
X10045454Y-14027213D02*
X10045454Y-13979594D01*
X10045454Y-13979594D02*
X10054978Y-13941498D01*
X10054978Y-13941498D02*
X10064502Y-13922451D01*
X10064502Y-13922451D02*
X10074026Y-13912927D01*
X10074026Y-13912927D02*
X10093073Y-13903403D01*
X10235930Y-13903403D02*
X10235930Y-13941498D01*
X10312121Y-13903403D02*
X10312121Y-13941498D01*
X10607359Y-14179594D02*
X10597835Y-14170070D01*
X10597835Y-14170070D02*
X10578788Y-14141498D01*
X10578788Y-14141498D02*
X10569264Y-14122451D01*
X10569264Y-14122451D02*
X10559740Y-14093879D01*
X10559740Y-14093879D02*
X10550216Y-14046260D01*
X10550216Y-14046260D02*
X10550216Y-14008165D01*
X10550216Y-14008165D02*
X10559740Y-13960546D01*
X10559740Y-13960546D02*
X10569264Y-13931975D01*
X10569264Y-13931975D02*
X10578788Y-13912927D01*
X10578788Y-13912927D02*
X10597835Y-13884356D01*
X10597835Y-13884356D02*
X10607359Y-13874832D01*
X10674026Y-13922451D02*
X10683550Y-13912927D01*
X10683550Y-13912927D02*
X10702597Y-13903403D01*
X10702597Y-13903403D02*
X10750216Y-13903403D01*
X10750216Y-13903403D02*
X10769264Y-13912927D01*
X10769264Y-13912927D02*
X10778788Y-13922451D01*
X10778788Y-13922451D02*
X10788311Y-13941498D01*
X10788311Y-13941498D02*
X10788311Y-13960546D01*
X10788311Y-13960546D02*
X10778788Y-13989117D01*
X10778788Y-13989117D02*
X10664502Y-14103403D01*
X10664502Y-14103403D02*
X10788311Y-14103403D01*
X11026407Y-14103403D02*
X11026407Y-13903403D01*
X11112121Y-14103403D02*
X11112121Y-13998641D01*
X11112121Y-13998641D02*
X11102597Y-13979594D01*
X11102597Y-13979594D02*
X11083550Y-13970070D01*
X11083550Y-13970070D02*
X11054978Y-13970070D01*
X11054978Y-13970070D02*
X11035931Y-13979594D01*
X11035931Y-13979594D02*
X11026407Y-13989117D01*
X11235930Y-14103403D02*
X11216883Y-14093879D01*
X11216883Y-14093879D02*
X11207359Y-14084356D01*
X11207359Y-14084356D02*
X11197835Y-14065308D01*
X11197835Y-14065308D02*
X11197835Y-14008165D01*
X11197835Y-14008165D02*
X11207359Y-13989117D01*
X11207359Y-13989117D02*
X11216883Y-13979594D01*
X11216883Y-13979594D02*
X11235930Y-13970070D01*
X11235930Y-13970070D02*
X11264502Y-13970070D01*
X11264502Y-13970070D02*
X11283550Y-13979594D01*
X11283550Y-13979594D02*
X11293073Y-13989117D01*
X11293073Y-13989117D02*
X11302597Y-14008165D01*
X11302597Y-14008165D02*
X11302597Y-14065308D01*
X11302597Y-14065308D02*
X11293073Y-14084356D01*
X11293073Y-14084356D02*
X11283550Y-14093879D01*
X11283550Y-14093879D02*
X11264502Y-14103403D01*
X11264502Y-14103403D02*
X11235930Y-14103403D01*
X11416883Y-14103403D02*
X11397835Y-14093879D01*
X11397835Y-14093879D02*
X11388311Y-14074832D01*
X11388311Y-14074832D02*
X11388311Y-13903403D01*
X11569264Y-14093879D02*
X11550216Y-14103403D01*
X11550216Y-14103403D02*
X11512121Y-14103403D01*
X11512121Y-14103403D02*
X11493073Y-14093879D01*
X11493073Y-14093879D02*
X11483550Y-14074832D01*
X11483550Y-14074832D02*
X11483550Y-13998641D01*
X11483550Y-13998641D02*
X11493073Y-13979594D01*
X11493073Y-13979594D02*
X11512121Y-13970070D01*
X11512121Y-13970070D02*
X11550216Y-13970070D01*
X11550216Y-13970070D02*
X11569264Y-13979594D01*
X11569264Y-13979594D02*
X11578788Y-13998641D01*
X11578788Y-13998641D02*
X11578788Y-14017689D01*
X11578788Y-14017689D02*
X11483550Y-14036737D01*
X11654978Y-14093879D02*
X11674026Y-14103403D01*
X11674026Y-14103403D02*
X11712121Y-14103403D01*
X11712121Y-14103403D02*
X11731169Y-14093879D01*
X11731169Y-14093879D02*
X11740692Y-14074832D01*
X11740692Y-14074832D02*
X11740692Y-14065308D01*
X11740692Y-14065308D02*
X11731169Y-14046260D01*
X11731169Y-14046260D02*
X11712121Y-14036737D01*
X11712121Y-14036737D02*
X11683550Y-14036737D01*
X11683550Y-14036737D02*
X11664502Y-14027213D01*
X11664502Y-14027213D02*
X11654978Y-14008165D01*
X11654978Y-14008165D02*
X11654978Y-13998641D01*
X11654978Y-13998641D02*
X11664502Y-13979594D01*
X11664502Y-13979594D02*
X11683550Y-13970070D01*
X11683550Y-13970070D02*
X11712121Y-13970070D01*
X11712121Y-13970070D02*
X11731169Y-13979594D01*
X11807359Y-14179594D02*
X11816883Y-14170070D01*
X11816883Y-14170070D02*
X11835931Y-14141498D01*
X11835931Y-14141498D02*
X11845454Y-14122451D01*
X11845454Y-14122451D02*
X11854978Y-14093879D01*
X11854978Y-14093879D02*
X11864502Y-14046260D01*
X11864502Y-14046260D02*
X11864502Y-14008165D01*
X11864502Y-14008165D02*
X11854978Y-13960546D01*
X11854978Y-13960546D02*
X11845454Y-13931975D01*
X11845454Y-13931975D02*
X11835931Y-13912927D01*
X11835931Y-13912927D02*
X11816883Y-13884356D01*
X11816883Y-13884356D02*
X11807359Y-13874832D01*
X12169264Y-14179594D02*
X12159740Y-14170070D01*
X12159740Y-14170070D02*
X12140692Y-14141498D01*
X12140692Y-14141498D02*
X12131169Y-14122451D01*
X12131169Y-14122451D02*
X12121645Y-14093879D01*
X12121645Y-14093879D02*
X12112121Y-14046260D01*
X12112121Y-14046260D02*
X12112121Y-14008165D01*
X12112121Y-14008165D02*
X12121645Y-13960546D01*
X12121645Y-13960546D02*
X12131169Y-13931975D01*
X12131169Y-13931975D02*
X12140692Y-13912927D01*
X12140692Y-13912927D02*
X12159740Y-13884356D01*
X12159740Y-13884356D02*
X12169264Y-13874832D01*
X12245454Y-13970070D02*
X12245454Y-14103403D01*
X12245454Y-13989117D02*
X12254978Y-13979594D01*
X12254978Y-13979594D02*
X12274026Y-13970070D01*
X12274026Y-13970070D02*
X12302597Y-13970070D01*
X12302597Y-13970070D02*
X12321645Y-13979594D01*
X12321645Y-13979594D02*
X12331169Y-13998641D01*
X12331169Y-13998641D02*
X12331169Y-14103403D01*
X12454978Y-14103403D02*
X12435931Y-14093879D01*
X12435931Y-14093879D02*
X12426407Y-14084356D01*
X12426407Y-14084356D02*
X12416883Y-14065308D01*
X12416883Y-14065308D02*
X12416883Y-14008165D01*
X12416883Y-14008165D02*
X12426407Y-13989117D01*
X12426407Y-13989117D02*
X12435931Y-13979594D01*
X12435931Y-13979594D02*
X12454978Y-13970070D01*
X12454978Y-13970070D02*
X12483550Y-13970070D01*
X12483550Y-13970070D02*
X12502597Y-13979594D01*
X12502597Y-13979594D02*
X12512121Y-13989117D01*
X12512121Y-13989117D02*
X12521645Y-14008165D01*
X12521645Y-14008165D02*
X12521645Y-14065308D01*
X12521645Y-14065308D02*
X12512121Y-14084356D01*
X12512121Y-14084356D02*
X12502597Y-14093879D01*
X12502597Y-14093879D02*
X12483550Y-14103403D01*
X12483550Y-14103403D02*
X12454978Y-14103403D01*
X12578788Y-13970070D02*
X12654978Y-13970070D01*
X12607359Y-13903403D02*
X12607359Y-14074832D01*
X12607359Y-14074832D02*
X12616883Y-14093879D01*
X12616883Y-14093879D02*
X12635931Y-14103403D01*
X12635931Y-14103403D02*
X12654978Y-14103403D01*
X12874026Y-13970070D02*
X12874026Y-14170070D01*
X12874026Y-13979594D02*
X12893073Y-13970070D01*
X12893073Y-13970070D02*
X12931169Y-13970070D01*
X12931169Y-13970070D02*
X12950216Y-13979594D01*
X12950216Y-13979594D02*
X12959740Y-13989117D01*
X12959740Y-13989117D02*
X12969264Y-14008165D01*
X12969264Y-14008165D02*
X12969264Y-14065308D01*
X12969264Y-14065308D02*
X12959740Y-14084356D01*
X12959740Y-14084356D02*
X12950216Y-14093879D01*
X12950216Y-14093879D02*
X12931169Y-14103403D01*
X12931169Y-14103403D02*
X12893073Y-14103403D01*
X12893073Y-14103403D02*
X12874026Y-14093879D01*
X13083550Y-14103403D02*
X13064502Y-14093879D01*
X13064502Y-14093879D02*
X13054978Y-14074832D01*
X13054978Y-14074832D02*
X13054978Y-13903403D01*
X13245454Y-14103403D02*
X13245454Y-13998641D01*
X13245454Y-13998641D02*
X13235931Y-13979594D01*
X13235931Y-13979594D02*
X13216883Y-13970070D01*
X13216883Y-13970070D02*
X13178788Y-13970070D01*
X13178788Y-13970070D02*
X13159740Y-13979594D01*
X13245454Y-14093879D02*
X13226407Y-14103403D01*
X13226407Y-14103403D02*
X13178788Y-14103403D01*
X13178788Y-14103403D02*
X13159740Y-14093879D01*
X13159740Y-14093879D02*
X13150216Y-14074832D01*
X13150216Y-14074832D02*
X13150216Y-14055784D01*
X13150216Y-14055784D02*
X13159740Y-14036737D01*
X13159740Y-14036737D02*
X13178788Y-14027213D01*
X13178788Y-14027213D02*
X13226407Y-14027213D01*
X13226407Y-14027213D02*
X13245454Y-14017689D01*
X13312121Y-13970070D02*
X13388312Y-13970070D01*
X13340693Y-13903403D02*
X13340693Y-14074832D01*
X13340693Y-14074832D02*
X13350216Y-14093879D01*
X13350216Y-14093879D02*
X13369264Y-14103403D01*
X13369264Y-14103403D02*
X13388312Y-14103403D01*
X13531169Y-14093879D02*
X13512121Y-14103403D01*
X13512121Y-14103403D02*
X13474026Y-14103403D01*
X13474026Y-14103403D02*
X13454978Y-14093879D01*
X13454978Y-14093879D02*
X13445454Y-14074832D01*
X13445454Y-14074832D02*
X13445454Y-13998641D01*
X13445454Y-13998641D02*
X13454978Y-13979594D01*
X13454978Y-13979594D02*
X13474026Y-13970070D01*
X13474026Y-13970070D02*
X13512121Y-13970070D01*
X13512121Y-13970070D02*
X13531169Y-13979594D01*
X13531169Y-13979594D02*
X13540693Y-13998641D01*
X13540693Y-13998641D02*
X13540693Y-14017689D01*
X13540693Y-14017689D02*
X13445454Y-14036737D01*
X13712121Y-14103403D02*
X13712121Y-13903403D01*
X13712121Y-14093879D02*
X13693074Y-14103403D01*
X13693074Y-14103403D02*
X13654978Y-14103403D01*
X13654978Y-14103403D02*
X13635931Y-14093879D01*
X13635931Y-14093879D02*
X13626407Y-14084356D01*
X13626407Y-14084356D02*
X13616883Y-14065308D01*
X13616883Y-14065308D02*
X13616883Y-14008165D01*
X13616883Y-14008165D02*
X13626407Y-13989117D01*
X13626407Y-13989117D02*
X13635931Y-13979594D01*
X13635931Y-13979594D02*
X13654978Y-13970070D01*
X13654978Y-13970070D02*
X13693074Y-13970070D01*
X13693074Y-13970070D02*
X13712121Y-13979594D01*
X13788312Y-14179594D02*
X13797835Y-14170070D01*
X13797835Y-14170070D02*
X13816883Y-14141498D01*
X13816883Y-14141498D02*
X13826407Y-14122451D01*
X13826407Y-14122451D02*
X13835931Y-14093879D01*
X13835931Y-14093879D02*
X13845454Y-14046260D01*
X13845454Y-14046260D02*
X13845454Y-14008165D01*
X13845454Y-14008165D02*
X13835931Y-13960546D01*
X13835931Y-13960546D02*
X13826407Y-13931975D01*
X13826407Y-13931975D02*
X13816883Y-13912927D01*
X13816883Y-13912927D02*
X13797835Y-13884356D01*
X13797835Y-13884356D02*
X13788312Y-13874832D01*
M02*
