M48
; DRILL file {KiCad 7.0.1} date Sun Oct 29 13:19:16 2023
; FORMAT={-:-/ absolute / inch / decimal}
; #@! TF.CreationDate,2023-10-29T13:19:16+05:30
; #@! TF.GenerationSoftware,Kicad,Pcbnew,7.0.1
; #@! TF.FileFunction,Plated,1,2,PTH
FMAT,2
INCH
; #@! TA.AperFunction,Plated,PTH,ViaDrill
T1C0.0157
; #@! TA.AperFunction,Plated,PTH,ComponentDrill
T2C0.0300
; #@! TA.AperFunction,Plated,PTH,ComponentDrill
T3C0.0320
; #@! TA.AperFunction,Plated,PTH,ComponentDrill
T4C0.0394
; #@! TA.AperFunction,Plated,PTH,ComponentDrill
T5C0.0409
; #@! TA.AperFunction,Plated,PTH,ComponentDrill
T6C0.0512
; #@! TA.AperFunction,Plated,PTH,ComponentDrill
T7C0.0520
%
G90
G05
T1
X3.5752Y-4.013
X3.6071Y-4.0815
X3.6902Y-4.0811
X3.8461Y-4.539
X3.8764Y-4.5744
X3.9681Y-3.628
X4.1665Y-3.7004
X4.1665Y-3.8004
X4.1665Y-3.9004
X4.2634Y-4.1711
X4.2665Y-3.7004
X4.2665Y-3.8004
X4.2665Y-3.9004
X4.3665Y-3.7004
X4.3665Y-3.8004
X4.3665Y-3.9004
X4.3972Y-4.1711
X4.752Y-4.5236
X4.7539Y-4.4661
X4.7543Y-4.6055
X4.7984Y-3.4449
X4.9087Y-2.1024
X5.1756Y-4.3969
X5.178Y-4.5457
X5.2953Y-4.4469
X6.8709Y-1.9067
T2
X3.773Y-2.3477
X3.773Y-2.6627
X6.1709Y-2.361
X6.1709Y-2.676
T3
X3.628Y-3.2071
X3.628Y-3.4071
X3.728Y-3.2071
X3.728Y-3.4071
X3.828Y-3.2071
X3.828Y-3.4071
T4
X4.4941Y-1.8583
X4.5941Y-1.8583
X4.6201Y-5.0055
X4.6941Y-1.8583
X4.7201Y-5.0055
X4.7941Y-1.8583
X4.8201Y-5.0055
X4.9201Y-5.0055
X5.0201Y-5.0055
X5.1201Y-5.0055
X5.2201Y-5.0055
X5.3201Y-5.0055
T5
X4.1894Y-2.0055
X4.1894Y-3.0055
X4.2894Y-2.0055
X4.2894Y-3.0055
X4.3894Y-2.0055
X4.3894Y-3.0055
X4.4894Y-2.0055
X4.4894Y-3.0055
X4.5894Y-2.0055
X4.5894Y-3.0055
X4.6894Y-2.0055
X4.6894Y-3.0055
X4.7894Y-2.0055
X4.7894Y-3.0055
X4.8894Y-2.0055
X4.8894Y-3.0055
X4.9894Y-2.0055
X4.9894Y-3.0055
X5.0894Y-2.0055
X5.0894Y-3.0055
X5.1894Y-2.0055
X5.1894Y-3.0055
X5.2894Y-2.0055
X5.2894Y-3.0055
X5.3894Y-2.0055
X5.3894Y-3.0055
X5.4894Y-2.0055
X5.4894Y-3.0055
X5.5894Y-2.0055
X5.5894Y-3.0055
X5.6894Y-2.0055
X5.6894Y-3.0055
X5.7894Y-2.0055
X5.7894Y-3.0055
X5.8894Y-2.0055
X5.8894Y-3.0055
X5.9894Y-2.0055
X5.9894Y-3.0055
T6
X3.5252Y-1.828
X3.722Y-1.828
T7
X5.1913Y-4.1626
X5.1913Y-4.7626
X5.2913Y-4.1626
X5.2913Y-4.7626
X5.3913Y-4.1626
X5.3913Y-4.7626
X5.4913Y-4.1626
X5.4913Y-4.7626
X5.5913Y-4.1626
X5.5913Y-4.7626
X5.6913Y-4.1626
X5.6913Y-4.7626
X5.7913Y-4.1626
X5.7913Y-4.7626
X5.8913Y-4.1626
X5.8913Y-4.7626
T0
M30
