%TF.GenerationSoftware,KiCad,Pcbnew,7.0.1*%
%TF.CreationDate,2023-10-29T13:19:21+05:30*%
%TF.ProjectId,MAZEBLAZE-V3,4d415a45-424c-4415-9a45-2d56332e6b69,rev?*%
%TF.SameCoordinates,Original*%
%TF.FileFunction,Drillmap*%
%TF.FilePolarity,Positive*%
%FSLAX45Y45*%
G04 Gerber Fmt 4.5, Leading zero omitted, Abs format (unit mm)*
G04 Created by KiCad (PCBNEW 7.0.1) date 2023-10-29 13:19:21*
%MOMM*%
%LPD*%
G01*
G04 APERTURE LIST*
%ADD10C,0.100000*%
%ADD11C,0.200000*%
%ADD12C,0.040000*%
%ADD13C,0.076200*%
%ADD14C,0.081280*%
%ADD15C,0.104000*%
%ADD16C,0.130000*%
%ADD17C,0.132000*%
G04 APERTURE END LIST*
D10*
X14456000Y-13026998D02*
G75*
G03*
X14810446Y-12832591I3160J414558D01*
G01*
X10413000Y-12843000D02*
G75*
G03*
X10765707Y-13045879I367000J230000D01*
G01*
X16230929Y-10686044D02*
X14810446Y-12832591D01*
X18192321Y-5009789D02*
G75*
G03*
X17254236Y-4203511I-880001J-75001D01*
G01*
X8978000Y-8738000D02*
X8977000Y-10565000D01*
X7992084Y-4205722D02*
X17254236Y-4203511D01*
X8977156Y-10564563D02*
G75*
G03*
X9009227Y-10686607I213974J-9007D01*
G01*
X7992084Y-4205722D02*
G75*
G03*
X7054000Y-5012000I-58084J-881278D01*
G01*
X18193000Y-7060000D02*
G75*
G03*
X16265454Y-8734635I201000J-2178000D01*
G01*
X10765707Y-13045879D02*
X14456000Y-13027000D01*
X16230931Y-10686045D02*
G75*
G03*
X16263000Y-10564000I-181911J113035D01*
G01*
X9009227Y-10686607D02*
X10413000Y-12843000D01*
X16265454Y-8734635D02*
X16263000Y-10564000D01*
X8977999Y-8738000D02*
G75*
G03*
X7050454Y-7063366I-2128545J-503365D01*
G01*
X18192320Y-5009789D02*
X18193000Y-7060000D01*
X7054000Y-5012000D02*
X7050454Y-7063366D01*
D11*
D12*
X9061000Y-10173000D02*
X9101000Y-10213000D01*
X9101000Y-10173000D02*
X9061000Y-10213000D01*
X9142000Y-10347000D02*
X9182000Y-10387000D01*
X9182000Y-10347000D02*
X9142000Y-10387000D01*
X9353000Y-10346000D02*
X9393000Y-10386000D01*
X9393000Y-10346000D02*
X9353000Y-10386000D01*
X9749000Y-11509000D02*
X9789000Y-11549000D01*
X9789000Y-11509000D02*
X9749000Y-11549000D01*
X9826000Y-11599000D02*
X9866000Y-11639000D01*
X9866000Y-11599000D02*
X9826000Y-11639000D01*
X10059000Y-9195000D02*
X10099000Y-9235000D01*
X10099000Y-9195000D02*
X10059000Y-9235000D01*
X10563000Y-9379000D02*
X10603000Y-9419000D01*
X10603000Y-9379000D02*
X10563000Y-9419000D01*
X10563000Y-9633000D02*
X10603000Y-9673000D01*
X10603000Y-9633000D02*
X10563000Y-9673000D01*
X10563000Y-9887000D02*
X10603000Y-9927000D01*
X10603000Y-9887000D02*
X10563000Y-9927000D01*
X10809000Y-10574500D02*
X10849000Y-10614500D01*
X10849000Y-10574500D02*
X10809000Y-10614500D01*
X10817000Y-9379000D02*
X10857000Y-9419000D01*
X10857000Y-9379000D02*
X10817000Y-9419000D01*
X10817000Y-9633000D02*
X10857000Y-9673000D01*
X10857000Y-9633000D02*
X10817000Y-9673000D01*
X10817000Y-9887000D02*
X10857000Y-9927000D01*
X10857000Y-9887000D02*
X10817000Y-9927000D01*
X11071000Y-9379000D02*
X11111000Y-9419000D01*
X11111000Y-9379000D02*
X11071000Y-9419000D01*
X11071000Y-9633000D02*
X11111000Y-9673000D01*
X11111000Y-9633000D02*
X11071000Y-9673000D01*
X11071000Y-9887000D02*
X11111000Y-9927000D01*
X11111000Y-9887000D02*
X11071000Y-9927000D01*
X11149000Y-10574500D02*
X11189000Y-10614500D01*
X11189000Y-10574500D02*
X11149000Y-10614500D01*
X12050000Y-11470000D02*
X12090000Y-11510000D01*
X12090000Y-11470000D02*
X12050000Y-11510000D01*
X12055000Y-11324000D02*
X12095000Y-11364000D01*
X12095000Y-11324000D02*
X12055000Y-11364000D01*
X12056000Y-11678000D02*
X12096000Y-11718000D01*
X12096000Y-11678000D02*
X12056000Y-11718000D01*
X12168000Y-8730000D02*
X12208000Y-8770000D01*
X12208000Y-8730000D02*
X12168000Y-8770000D01*
X12448000Y-5320000D02*
X12488000Y-5360000D01*
X12488000Y-5320000D02*
X12448000Y-5360000D01*
X13126000Y-11148000D02*
X13166000Y-11188000D01*
X13166000Y-11148000D02*
X13126000Y-11188000D01*
X13132000Y-11526000D02*
X13172000Y-11566000D01*
X13172000Y-11526000D02*
X13132000Y-11566000D01*
X13430000Y-11275000D02*
X13470000Y-11315000D01*
X13470000Y-11275000D02*
X13430000Y-11315000D01*
X17432000Y-4823000D02*
X17472000Y-4863000D01*
X17472000Y-4823000D02*
X17432000Y-4863000D01*
D13*
X9621554Y-5963192D02*
G75*
G03*
X9621554Y-5963192I-38100J0D01*
G01*
X9621554Y-6763192D02*
G75*
G03*
X9621554Y-6763192I-38100J0D01*
G01*
X15712100Y-5997000D02*
G75*
G03*
X15712100Y-5997000I-38100J0D01*
G01*
X15712100Y-6797000D02*
G75*
G03*
X15712100Y-6797000I-38100J0D01*
G01*
D14*
X9215000Y-8105360D02*
X9215000Y-8186640D01*
X9174360Y-8146000D02*
X9255640Y-8146000D01*
X9215000Y-8613360D02*
X9215000Y-8694640D01*
X9174360Y-8654000D02*
X9255640Y-8654000D01*
X9469000Y-8105360D02*
X9469000Y-8186640D01*
X9428360Y-8146000D02*
X9509640Y-8146000D01*
X9469000Y-8613360D02*
X9469000Y-8694640D01*
X9428360Y-8654000D02*
X9509640Y-8654000D01*
X9723000Y-8105360D02*
X9723000Y-8186640D01*
X9682360Y-8146000D02*
X9763640Y-8146000D01*
X9723000Y-8613360D02*
X9723000Y-8694640D01*
X9682360Y-8654000D02*
X9763640Y-8654000D01*
D10*
X11450356Y-4755356D02*
X11450356Y-4684644D01*
X11379644Y-4684644D01*
X11379644Y-4755356D01*
X11450356Y-4755356D01*
X11704356Y-4755356D02*
X11704356Y-4684644D01*
X11633644Y-4684644D01*
X11633644Y-4755356D01*
X11704356Y-4755356D01*
X11770356Y-12749356D02*
X11770356Y-12678644D01*
X11699644Y-12678644D01*
X11699644Y-12749356D01*
X11770356Y-12749356D01*
X11958356Y-4755356D02*
X11958356Y-4684644D01*
X11887644Y-4684644D01*
X11887644Y-4755356D01*
X11958356Y-4755356D01*
X12024356Y-12749356D02*
X12024356Y-12678644D01*
X11953644Y-12678644D01*
X11953644Y-12749356D01*
X12024356Y-12749356D01*
X12212356Y-4755356D02*
X12212356Y-4684644D01*
X12141644Y-4684644D01*
X12141644Y-4755356D01*
X12212356Y-4755356D01*
X12278356Y-12749356D02*
X12278356Y-12678644D01*
X12207644Y-12678644D01*
X12207644Y-12749356D01*
X12278356Y-12749356D01*
X12532356Y-12749356D02*
X12532356Y-12678644D01*
X12461644Y-12678644D01*
X12461644Y-12749356D01*
X12532356Y-12749356D01*
X12786356Y-12749356D02*
X12786356Y-12678644D01*
X12715644Y-12678644D01*
X12715644Y-12749356D01*
X12786356Y-12749356D01*
X13040356Y-12749356D02*
X13040356Y-12678644D01*
X12969644Y-12678644D01*
X12969644Y-12749356D01*
X13040356Y-12749356D01*
X13294356Y-12749356D02*
X13294356Y-12678644D01*
X13223644Y-12678644D01*
X13223644Y-12749356D01*
X13294356Y-12749356D01*
X13548356Y-12749356D02*
X13548356Y-12678644D01*
X13477644Y-12678644D01*
X13477644Y-12749356D01*
X13548356Y-12749356D01*
D15*
X10641000Y-5146000D02*
X10693000Y-5094000D01*
X10641000Y-5042000D01*
X10589000Y-5094000D01*
X10641000Y-5146000D01*
X10641000Y-7686000D02*
X10693000Y-7634000D01*
X10641000Y-7582000D01*
X10589000Y-7634000D01*
X10641000Y-7686000D01*
X10895000Y-5146000D02*
X10947000Y-5094000D01*
X10895000Y-5042000D01*
X10843000Y-5094000D01*
X10895000Y-5146000D01*
X10895000Y-7686000D02*
X10947000Y-7634000D01*
X10895000Y-7582000D01*
X10843000Y-7634000D01*
X10895000Y-7686000D01*
X11149000Y-5146000D02*
X11201000Y-5094000D01*
X11149000Y-5042000D01*
X11097000Y-5094000D01*
X11149000Y-5146000D01*
X11149000Y-7686000D02*
X11201000Y-7634000D01*
X11149000Y-7582000D01*
X11097000Y-7634000D01*
X11149000Y-7686000D01*
X11403000Y-5146000D02*
X11455000Y-5094000D01*
X11403000Y-5042000D01*
X11351000Y-5094000D01*
X11403000Y-5146000D01*
X11403000Y-7686000D02*
X11455000Y-7634000D01*
X11403000Y-7582000D01*
X11351000Y-7634000D01*
X11403000Y-7686000D01*
X11657000Y-5146000D02*
X11709000Y-5094000D01*
X11657000Y-5042000D01*
X11605000Y-5094000D01*
X11657000Y-5146000D01*
X11657000Y-7686000D02*
X11709000Y-7634000D01*
X11657000Y-7582000D01*
X11605000Y-7634000D01*
X11657000Y-7686000D01*
X11911000Y-5146000D02*
X11963000Y-5094000D01*
X11911000Y-5042000D01*
X11859000Y-5094000D01*
X11911000Y-5146000D01*
X11911000Y-7686000D02*
X11963000Y-7634000D01*
X11911000Y-7582000D01*
X11859000Y-7634000D01*
X11911000Y-7686000D01*
X12165000Y-5146000D02*
X12217000Y-5094000D01*
X12165000Y-5042000D01*
X12113000Y-5094000D01*
X12165000Y-5146000D01*
X12165000Y-7686000D02*
X12217000Y-7634000D01*
X12165000Y-7582000D01*
X12113000Y-7634000D01*
X12165000Y-7686000D01*
X12419000Y-5146000D02*
X12471000Y-5094000D01*
X12419000Y-5042000D01*
X12367000Y-5094000D01*
X12419000Y-5146000D01*
X12419000Y-7686000D02*
X12471000Y-7634000D01*
X12419000Y-7582000D01*
X12367000Y-7634000D01*
X12419000Y-7686000D01*
X12673000Y-5146000D02*
X12725000Y-5094000D01*
X12673000Y-5042000D01*
X12621000Y-5094000D01*
X12673000Y-5146000D01*
X12673000Y-7686000D02*
X12725000Y-7634000D01*
X12673000Y-7582000D01*
X12621000Y-7634000D01*
X12673000Y-7686000D01*
X12927000Y-5146000D02*
X12979000Y-5094000D01*
X12927000Y-5042000D01*
X12875000Y-5094000D01*
X12927000Y-5146000D01*
X12927000Y-7686000D02*
X12979000Y-7634000D01*
X12927000Y-7582000D01*
X12875000Y-7634000D01*
X12927000Y-7686000D01*
X13181000Y-5146000D02*
X13233000Y-5094000D01*
X13181000Y-5042000D01*
X13129000Y-5094000D01*
X13181000Y-5146000D01*
X13181000Y-7686000D02*
X13233000Y-7634000D01*
X13181000Y-7582000D01*
X13129000Y-7634000D01*
X13181000Y-7686000D01*
X13435000Y-5146000D02*
X13487000Y-5094000D01*
X13435000Y-5042000D01*
X13383000Y-5094000D01*
X13435000Y-5146000D01*
X13435000Y-7686000D02*
X13487000Y-7634000D01*
X13435000Y-7582000D01*
X13383000Y-7634000D01*
X13435000Y-7686000D01*
X13689000Y-5146000D02*
X13741000Y-5094000D01*
X13689000Y-5042000D01*
X13637000Y-5094000D01*
X13689000Y-5146000D01*
X13689000Y-7686000D02*
X13741000Y-7634000D01*
X13689000Y-7582000D01*
X13637000Y-7634000D01*
X13689000Y-7686000D01*
X13943000Y-5146000D02*
X13995000Y-5094000D01*
X13943000Y-5042000D01*
X13891000Y-5094000D01*
X13943000Y-5146000D01*
X13943000Y-7686000D02*
X13995000Y-7634000D01*
X13943000Y-7582000D01*
X13891000Y-7634000D01*
X13943000Y-7686000D01*
X14197000Y-5146000D02*
X14249000Y-5094000D01*
X14197000Y-5042000D01*
X14145000Y-5094000D01*
X14197000Y-5146000D01*
X14197000Y-7686000D02*
X14249000Y-7634000D01*
X14197000Y-7582000D01*
X14145000Y-7634000D01*
X14197000Y-7686000D01*
X14451000Y-5146000D02*
X14503000Y-5094000D01*
X14451000Y-5042000D01*
X14399000Y-5094000D01*
X14451000Y-5146000D01*
X14451000Y-7686000D02*
X14503000Y-7634000D01*
X14451000Y-7582000D01*
X14399000Y-7634000D01*
X14451000Y-7686000D01*
X14705000Y-5146000D02*
X14757000Y-5094000D01*
X14705000Y-5042000D01*
X14653000Y-5094000D01*
X14705000Y-5146000D01*
X14705000Y-7686000D02*
X14757000Y-7634000D01*
X14705000Y-7582000D01*
X14653000Y-7634000D01*
X14705000Y-7686000D01*
X14959000Y-5146000D02*
X15011000Y-5094000D01*
X14959000Y-5042000D01*
X14907000Y-5094000D01*
X14959000Y-5146000D01*
X14959000Y-7686000D02*
X15011000Y-7634000D01*
X14959000Y-7582000D01*
X14907000Y-7634000D01*
X14959000Y-7686000D01*
X15213000Y-5146000D02*
X15265000Y-5094000D01*
X15213000Y-5042000D01*
X15161000Y-5094000D01*
X15213000Y-5146000D01*
X15213000Y-7686000D02*
X15265000Y-7634000D01*
X15213000Y-7582000D01*
X15161000Y-7634000D01*
X15213000Y-7686000D01*
D16*
X8889000Y-4578000D02*
X9019000Y-4708000D01*
X9019000Y-4578000D02*
X8889000Y-4708000D01*
X9019000Y-4643000D02*
G75*
G03*
X9019000Y-4643000I-65000J0D01*
G01*
X9389000Y-4578000D02*
X9519000Y-4708000D01*
X9519000Y-4578000D02*
X9389000Y-4708000D01*
X9519000Y-4643000D02*
G75*
G03*
X9519000Y-4643000I-65000J0D01*
G01*
D17*
X13120000Y-10507000D02*
X13252000Y-10639000D01*
X13252000Y-10507000D02*
X13120000Y-10639000D01*
X13186000Y-10507000D02*
X13186000Y-10639000D01*
X13120000Y-10573000D02*
X13252000Y-10573000D01*
X13120000Y-12031000D02*
X13252000Y-12163000D01*
X13252000Y-12031000D02*
X13120000Y-12163000D01*
X13186000Y-12031000D02*
X13186000Y-12163000D01*
X13120000Y-12097000D02*
X13252000Y-12097000D01*
X13374000Y-10507000D02*
X13506000Y-10639000D01*
X13506000Y-10507000D02*
X13374000Y-10639000D01*
X13440000Y-10507000D02*
X13440000Y-10639000D01*
X13374000Y-10573000D02*
X13506000Y-10573000D01*
X13374000Y-12031000D02*
X13506000Y-12163000D01*
X13506000Y-12031000D02*
X13374000Y-12163000D01*
X13440000Y-12031000D02*
X13440000Y-12163000D01*
X13374000Y-12097000D02*
X13506000Y-12097000D01*
X13628000Y-10507000D02*
X13760000Y-10639000D01*
X13760000Y-10507000D02*
X13628000Y-10639000D01*
X13694000Y-10507000D02*
X13694000Y-10639000D01*
X13628000Y-10573000D02*
X13760000Y-10573000D01*
X13628000Y-12031000D02*
X13760000Y-12163000D01*
X13760000Y-12031000D02*
X13628000Y-12163000D01*
X13694000Y-12031000D02*
X13694000Y-12163000D01*
X13628000Y-12097000D02*
X13760000Y-12097000D01*
X13882000Y-10507000D02*
X14014000Y-10639000D01*
X14014000Y-10507000D02*
X13882000Y-10639000D01*
X13948000Y-10507000D02*
X13948000Y-10639000D01*
X13882000Y-10573000D02*
X14014000Y-10573000D01*
X13882000Y-12031000D02*
X14014000Y-12163000D01*
X14014000Y-12031000D02*
X13882000Y-12163000D01*
X13948000Y-12031000D02*
X13948000Y-12163000D01*
X13882000Y-12097000D02*
X14014000Y-12097000D01*
X14136000Y-10507000D02*
X14268000Y-10639000D01*
X14268000Y-10507000D02*
X14136000Y-10639000D01*
X14202000Y-10507000D02*
X14202000Y-10639000D01*
X14136000Y-10573000D02*
X14268000Y-10573000D01*
X14136000Y-12031000D02*
X14268000Y-12163000D01*
X14268000Y-12031000D02*
X14136000Y-12163000D01*
X14202000Y-12031000D02*
X14202000Y-12163000D01*
X14136000Y-12097000D02*
X14268000Y-12097000D01*
X14390000Y-10507000D02*
X14522000Y-10639000D01*
X14522000Y-10507000D02*
X14390000Y-10639000D01*
X14456000Y-10507000D02*
X14456000Y-10639000D01*
X14390000Y-10573000D02*
X14522000Y-10573000D01*
X14390000Y-12031000D02*
X14522000Y-12163000D01*
X14522000Y-12031000D02*
X14390000Y-12163000D01*
X14456000Y-12031000D02*
X14456000Y-12163000D01*
X14390000Y-12097000D02*
X14522000Y-12097000D01*
X14644000Y-10507000D02*
X14776000Y-10639000D01*
X14776000Y-10507000D02*
X14644000Y-10639000D01*
X14710000Y-10507000D02*
X14710000Y-10639000D01*
X14644000Y-10573000D02*
X14776000Y-10573000D01*
X14644000Y-12031000D02*
X14776000Y-12163000D01*
X14776000Y-12031000D02*
X14644000Y-12163000D01*
X14710000Y-12031000D02*
X14710000Y-12163000D01*
X14644000Y-12097000D02*
X14776000Y-12097000D01*
X14898000Y-10507000D02*
X15030000Y-10639000D01*
X15030000Y-10507000D02*
X14898000Y-10639000D01*
X14964000Y-10507000D02*
X14964000Y-10639000D01*
X14898000Y-10573000D02*
X15030000Y-10573000D01*
X14898000Y-12031000D02*
X15030000Y-12163000D01*
X15030000Y-12031000D02*
X14898000Y-12163000D01*
X14964000Y-12031000D02*
X14964000Y-12163000D01*
X14898000Y-12097000D02*
X15030000Y-12097000D01*
D11*
X7293073Y-13363403D02*
X7293073Y-13163403D01*
X7293073Y-13163403D02*
X7340692Y-13163403D01*
X7340692Y-13163403D02*
X7369263Y-13172927D01*
X7369263Y-13172927D02*
X7388311Y-13191975D01*
X7388311Y-13191975D02*
X7397835Y-13211022D01*
X7397835Y-13211022D02*
X7407359Y-13249117D01*
X7407359Y-13249117D02*
X7407359Y-13277689D01*
X7407359Y-13277689D02*
X7397835Y-13315784D01*
X7397835Y-13315784D02*
X7388311Y-13334832D01*
X7388311Y-13334832D02*
X7369263Y-13353879D01*
X7369263Y-13353879D02*
X7340692Y-13363403D01*
X7340692Y-13363403D02*
X7293073Y-13363403D01*
X7493073Y-13363403D02*
X7493073Y-13230070D01*
X7493073Y-13268165D02*
X7502597Y-13249117D01*
X7502597Y-13249117D02*
X7512121Y-13239594D01*
X7512121Y-13239594D02*
X7531168Y-13230070D01*
X7531168Y-13230070D02*
X7550216Y-13230070D01*
X7616882Y-13363403D02*
X7616882Y-13230070D01*
X7616882Y-13163403D02*
X7607359Y-13172927D01*
X7607359Y-13172927D02*
X7616882Y-13182451D01*
X7616882Y-13182451D02*
X7626406Y-13172927D01*
X7626406Y-13172927D02*
X7616882Y-13163403D01*
X7616882Y-13163403D02*
X7616882Y-13182451D01*
X7740692Y-13363403D02*
X7721644Y-13353879D01*
X7721644Y-13353879D02*
X7712121Y-13334832D01*
X7712121Y-13334832D02*
X7712121Y-13163403D01*
X7845454Y-13363403D02*
X7826406Y-13353879D01*
X7826406Y-13353879D02*
X7816882Y-13334832D01*
X7816882Y-13334832D02*
X7816882Y-13163403D01*
X8074025Y-13363403D02*
X8074025Y-13163403D01*
X8074025Y-13163403D02*
X8140692Y-13306260D01*
X8140692Y-13306260D02*
X8207359Y-13163403D01*
X8207359Y-13163403D02*
X8207359Y-13363403D01*
X8388311Y-13363403D02*
X8388311Y-13258641D01*
X8388311Y-13258641D02*
X8378787Y-13239594D01*
X8378787Y-13239594D02*
X8359740Y-13230070D01*
X8359740Y-13230070D02*
X8321644Y-13230070D01*
X8321644Y-13230070D02*
X8302597Y-13239594D01*
X8388311Y-13353879D02*
X8369263Y-13363403D01*
X8369263Y-13363403D02*
X8321644Y-13363403D01*
X8321644Y-13363403D02*
X8302597Y-13353879D01*
X8302597Y-13353879D02*
X8293073Y-13334832D01*
X8293073Y-13334832D02*
X8293073Y-13315784D01*
X8293073Y-13315784D02*
X8302597Y-13296737D01*
X8302597Y-13296737D02*
X8321644Y-13287213D01*
X8321644Y-13287213D02*
X8369263Y-13287213D01*
X8369263Y-13287213D02*
X8388311Y-13277689D01*
X8483549Y-13230070D02*
X8483549Y-13430070D01*
X8483549Y-13239594D02*
X8502597Y-13230070D01*
X8502597Y-13230070D02*
X8540692Y-13230070D01*
X8540692Y-13230070D02*
X8559740Y-13239594D01*
X8559740Y-13239594D02*
X8569264Y-13249117D01*
X8569264Y-13249117D02*
X8578787Y-13268165D01*
X8578787Y-13268165D02*
X8578787Y-13325308D01*
X8578787Y-13325308D02*
X8569264Y-13344356D01*
X8569264Y-13344356D02*
X8559740Y-13353879D01*
X8559740Y-13353879D02*
X8540692Y-13363403D01*
X8540692Y-13363403D02*
X8502597Y-13363403D01*
X8502597Y-13363403D02*
X8483549Y-13353879D01*
X8664502Y-13344356D02*
X8674025Y-13353879D01*
X8674025Y-13353879D02*
X8664502Y-13363403D01*
X8664502Y-13363403D02*
X8654978Y-13353879D01*
X8654978Y-13353879D02*
X8664502Y-13344356D01*
X8664502Y-13344356D02*
X8664502Y-13363403D01*
X8664502Y-13239594D02*
X8674025Y-13249117D01*
X8674025Y-13249117D02*
X8664502Y-13258641D01*
X8664502Y-13258641D02*
X8654978Y-13249117D01*
X8654978Y-13249117D02*
X8664502Y-13239594D01*
X8664502Y-13239594D02*
X8664502Y-13258641D01*
D12*
X7005454Y-13670879D02*
X7045454Y-13710879D01*
X7045454Y-13670879D02*
X7005454Y-13710879D01*
D11*
X7331168Y-13583403D02*
X7350216Y-13583403D01*
X7350216Y-13583403D02*
X7369263Y-13592927D01*
X7369263Y-13592927D02*
X7378787Y-13602451D01*
X7378787Y-13602451D02*
X7388311Y-13621498D01*
X7388311Y-13621498D02*
X7397835Y-13659594D01*
X7397835Y-13659594D02*
X7397835Y-13707213D01*
X7397835Y-13707213D02*
X7388311Y-13745308D01*
X7388311Y-13745308D02*
X7378787Y-13764356D01*
X7378787Y-13764356D02*
X7369263Y-13773879D01*
X7369263Y-13773879D02*
X7350216Y-13783403D01*
X7350216Y-13783403D02*
X7331168Y-13783403D01*
X7331168Y-13783403D02*
X7312121Y-13773879D01*
X7312121Y-13773879D02*
X7302597Y-13764356D01*
X7302597Y-13764356D02*
X7293073Y-13745308D01*
X7293073Y-13745308D02*
X7283549Y-13707213D01*
X7283549Y-13707213D02*
X7283549Y-13659594D01*
X7283549Y-13659594D02*
X7293073Y-13621498D01*
X7293073Y-13621498D02*
X7302597Y-13602451D01*
X7302597Y-13602451D02*
X7312121Y-13592927D01*
X7312121Y-13592927D02*
X7331168Y-13583403D01*
X7483549Y-13764356D02*
X7493073Y-13773879D01*
X7493073Y-13773879D02*
X7483549Y-13783403D01*
X7483549Y-13783403D02*
X7474025Y-13773879D01*
X7474025Y-13773879D02*
X7483549Y-13764356D01*
X7483549Y-13764356D02*
X7483549Y-13783403D01*
X7664502Y-13650070D02*
X7664502Y-13783403D01*
X7616882Y-13573879D02*
X7569263Y-13716737D01*
X7569263Y-13716737D02*
X7693073Y-13716737D01*
X7807359Y-13583403D02*
X7826406Y-13583403D01*
X7826406Y-13583403D02*
X7845454Y-13592927D01*
X7845454Y-13592927D02*
X7854978Y-13602451D01*
X7854978Y-13602451D02*
X7864502Y-13621498D01*
X7864502Y-13621498D02*
X7874025Y-13659594D01*
X7874025Y-13659594D02*
X7874025Y-13707213D01*
X7874025Y-13707213D02*
X7864502Y-13745308D01*
X7864502Y-13745308D02*
X7854978Y-13764356D01*
X7854978Y-13764356D02*
X7845454Y-13773879D01*
X7845454Y-13773879D02*
X7826406Y-13783403D01*
X7826406Y-13783403D02*
X7807359Y-13783403D01*
X7807359Y-13783403D02*
X7788311Y-13773879D01*
X7788311Y-13773879D02*
X7778787Y-13764356D01*
X7778787Y-13764356D02*
X7769263Y-13745308D01*
X7769263Y-13745308D02*
X7759740Y-13707213D01*
X7759740Y-13707213D02*
X7759740Y-13659594D01*
X7759740Y-13659594D02*
X7769263Y-13621498D01*
X7769263Y-13621498D02*
X7778787Y-13602451D01*
X7778787Y-13602451D02*
X7788311Y-13592927D01*
X7788311Y-13592927D02*
X7807359Y-13583403D01*
X7997835Y-13583403D02*
X8016883Y-13583403D01*
X8016883Y-13583403D02*
X8035930Y-13592927D01*
X8035930Y-13592927D02*
X8045454Y-13602451D01*
X8045454Y-13602451D02*
X8054978Y-13621498D01*
X8054978Y-13621498D02*
X8064502Y-13659594D01*
X8064502Y-13659594D02*
X8064502Y-13707213D01*
X8064502Y-13707213D02*
X8054978Y-13745308D01*
X8054978Y-13745308D02*
X8045454Y-13764356D01*
X8045454Y-13764356D02*
X8035930Y-13773879D01*
X8035930Y-13773879D02*
X8016883Y-13783403D01*
X8016883Y-13783403D02*
X7997835Y-13783403D01*
X7997835Y-13783403D02*
X7978787Y-13773879D01*
X7978787Y-13773879D02*
X7969263Y-13764356D01*
X7969263Y-13764356D02*
X7959740Y-13745308D01*
X7959740Y-13745308D02*
X7950216Y-13707213D01*
X7950216Y-13707213D02*
X7950216Y-13659594D01*
X7950216Y-13659594D02*
X7959740Y-13621498D01*
X7959740Y-13621498D02*
X7969263Y-13602451D01*
X7969263Y-13602451D02*
X7978787Y-13592927D01*
X7978787Y-13592927D02*
X7997835Y-13583403D01*
X8150216Y-13783403D02*
X8150216Y-13650070D01*
X8150216Y-13669117D02*
X8159740Y-13659594D01*
X8159740Y-13659594D02*
X8178787Y-13650070D01*
X8178787Y-13650070D02*
X8207359Y-13650070D01*
X8207359Y-13650070D02*
X8226406Y-13659594D01*
X8226406Y-13659594D02*
X8235930Y-13678641D01*
X8235930Y-13678641D02*
X8235930Y-13783403D01*
X8235930Y-13678641D02*
X8245454Y-13659594D01*
X8245454Y-13659594D02*
X8264502Y-13650070D01*
X8264502Y-13650070D02*
X8293073Y-13650070D01*
X8293073Y-13650070D02*
X8312121Y-13659594D01*
X8312121Y-13659594D02*
X8321644Y-13678641D01*
X8321644Y-13678641D02*
X8321644Y-13783403D01*
X8416883Y-13783403D02*
X8416883Y-13650070D01*
X8416883Y-13669117D02*
X8426406Y-13659594D01*
X8426406Y-13659594D02*
X8445454Y-13650070D01*
X8445454Y-13650070D02*
X8474026Y-13650070D01*
X8474026Y-13650070D02*
X8493073Y-13659594D01*
X8493073Y-13659594D02*
X8502597Y-13678641D01*
X8502597Y-13678641D02*
X8502597Y-13783403D01*
X8502597Y-13678641D02*
X8512121Y-13659594D01*
X8512121Y-13659594D02*
X8531168Y-13650070D01*
X8531168Y-13650070D02*
X8559740Y-13650070D01*
X8559740Y-13650070D02*
X8578787Y-13659594D01*
X8578787Y-13659594D02*
X8588311Y-13678641D01*
X8588311Y-13678641D02*
X8588311Y-13783403D01*
X8978787Y-13573879D02*
X8807359Y-13831022D01*
X9235930Y-13583403D02*
X9254978Y-13583403D01*
X9254978Y-13583403D02*
X9274026Y-13592927D01*
X9274026Y-13592927D02*
X9283549Y-13602451D01*
X9283549Y-13602451D02*
X9293073Y-13621498D01*
X9293073Y-13621498D02*
X9302597Y-13659594D01*
X9302597Y-13659594D02*
X9302597Y-13707213D01*
X9302597Y-13707213D02*
X9293073Y-13745308D01*
X9293073Y-13745308D02*
X9283549Y-13764356D01*
X9283549Y-13764356D02*
X9274026Y-13773879D01*
X9274026Y-13773879D02*
X9254978Y-13783403D01*
X9254978Y-13783403D02*
X9235930Y-13783403D01*
X9235930Y-13783403D02*
X9216883Y-13773879D01*
X9216883Y-13773879D02*
X9207359Y-13764356D01*
X9207359Y-13764356D02*
X9197835Y-13745308D01*
X9197835Y-13745308D02*
X9188311Y-13707213D01*
X9188311Y-13707213D02*
X9188311Y-13659594D01*
X9188311Y-13659594D02*
X9197835Y-13621498D01*
X9197835Y-13621498D02*
X9207359Y-13602451D01*
X9207359Y-13602451D02*
X9216883Y-13592927D01*
X9216883Y-13592927D02*
X9235930Y-13583403D01*
X9388311Y-13764356D02*
X9397835Y-13773879D01*
X9397835Y-13773879D02*
X9388311Y-13783403D01*
X9388311Y-13783403D02*
X9378788Y-13773879D01*
X9378788Y-13773879D02*
X9388311Y-13764356D01*
X9388311Y-13764356D02*
X9388311Y-13783403D01*
X9521645Y-13583403D02*
X9540692Y-13583403D01*
X9540692Y-13583403D02*
X9559740Y-13592927D01*
X9559740Y-13592927D02*
X9569264Y-13602451D01*
X9569264Y-13602451D02*
X9578788Y-13621498D01*
X9578788Y-13621498D02*
X9588311Y-13659594D01*
X9588311Y-13659594D02*
X9588311Y-13707213D01*
X9588311Y-13707213D02*
X9578788Y-13745308D01*
X9578788Y-13745308D02*
X9569264Y-13764356D01*
X9569264Y-13764356D02*
X9559740Y-13773879D01*
X9559740Y-13773879D02*
X9540692Y-13783403D01*
X9540692Y-13783403D02*
X9521645Y-13783403D01*
X9521645Y-13783403D02*
X9502597Y-13773879D01*
X9502597Y-13773879D02*
X9493073Y-13764356D01*
X9493073Y-13764356D02*
X9483549Y-13745308D01*
X9483549Y-13745308D02*
X9474026Y-13707213D01*
X9474026Y-13707213D02*
X9474026Y-13659594D01*
X9474026Y-13659594D02*
X9483549Y-13621498D01*
X9483549Y-13621498D02*
X9493073Y-13602451D01*
X9493073Y-13602451D02*
X9502597Y-13592927D01*
X9502597Y-13592927D02*
X9521645Y-13583403D01*
X9778788Y-13783403D02*
X9664502Y-13783403D01*
X9721645Y-13783403D02*
X9721645Y-13583403D01*
X9721645Y-13583403D02*
X9702597Y-13611975D01*
X9702597Y-13611975D02*
X9683549Y-13631022D01*
X9683549Y-13631022D02*
X9664502Y-13640546D01*
X9959740Y-13583403D02*
X9864502Y-13583403D01*
X9864502Y-13583403D02*
X9854978Y-13678641D01*
X9854978Y-13678641D02*
X9864502Y-13669117D01*
X9864502Y-13669117D02*
X9883549Y-13659594D01*
X9883549Y-13659594D02*
X9931169Y-13659594D01*
X9931169Y-13659594D02*
X9950216Y-13669117D01*
X9950216Y-13669117D02*
X9959740Y-13678641D01*
X9959740Y-13678641D02*
X9969264Y-13697689D01*
X9969264Y-13697689D02*
X9969264Y-13745308D01*
X9969264Y-13745308D02*
X9959740Y-13764356D01*
X9959740Y-13764356D02*
X9950216Y-13773879D01*
X9950216Y-13773879D02*
X9931169Y-13783403D01*
X9931169Y-13783403D02*
X9883549Y-13783403D01*
X9883549Y-13783403D02*
X9864502Y-13773879D01*
X9864502Y-13773879D02*
X9854978Y-13764356D01*
X10035930Y-13583403D02*
X10169264Y-13583403D01*
X10169264Y-13583403D02*
X10083549Y-13783403D01*
X10235930Y-13583403D02*
X10235930Y-13621498D01*
X10312121Y-13583403D02*
X10312121Y-13621498D01*
X10607359Y-13859594D02*
X10597835Y-13850070D01*
X10597835Y-13850070D02*
X10578788Y-13821498D01*
X10578788Y-13821498D02*
X10569264Y-13802451D01*
X10569264Y-13802451D02*
X10559740Y-13773879D01*
X10559740Y-13773879D02*
X10550216Y-13726260D01*
X10550216Y-13726260D02*
X10550216Y-13688165D01*
X10550216Y-13688165D02*
X10559740Y-13640546D01*
X10559740Y-13640546D02*
X10569264Y-13611975D01*
X10569264Y-13611975D02*
X10578788Y-13592927D01*
X10578788Y-13592927D02*
X10597835Y-13564356D01*
X10597835Y-13564356D02*
X10607359Y-13554832D01*
X10674026Y-13602451D02*
X10683550Y-13592927D01*
X10683550Y-13592927D02*
X10702597Y-13583403D01*
X10702597Y-13583403D02*
X10750216Y-13583403D01*
X10750216Y-13583403D02*
X10769264Y-13592927D01*
X10769264Y-13592927D02*
X10778788Y-13602451D01*
X10778788Y-13602451D02*
X10788311Y-13621498D01*
X10788311Y-13621498D02*
X10788311Y-13640546D01*
X10788311Y-13640546D02*
X10778788Y-13669117D01*
X10778788Y-13669117D02*
X10664502Y-13783403D01*
X10664502Y-13783403D02*
X10788311Y-13783403D01*
X10959740Y-13583403D02*
X10921645Y-13583403D01*
X10921645Y-13583403D02*
X10902597Y-13592927D01*
X10902597Y-13592927D02*
X10893073Y-13602451D01*
X10893073Y-13602451D02*
X10874026Y-13631022D01*
X10874026Y-13631022D02*
X10864502Y-13669117D01*
X10864502Y-13669117D02*
X10864502Y-13745308D01*
X10864502Y-13745308D02*
X10874026Y-13764356D01*
X10874026Y-13764356D02*
X10883550Y-13773879D01*
X10883550Y-13773879D02*
X10902597Y-13783403D01*
X10902597Y-13783403D02*
X10940692Y-13783403D01*
X10940692Y-13783403D02*
X10959740Y-13773879D01*
X10959740Y-13773879D02*
X10969264Y-13764356D01*
X10969264Y-13764356D02*
X10978788Y-13745308D01*
X10978788Y-13745308D02*
X10978788Y-13697689D01*
X10978788Y-13697689D02*
X10969264Y-13678641D01*
X10969264Y-13678641D02*
X10959740Y-13669117D01*
X10959740Y-13669117D02*
X10940692Y-13659594D01*
X10940692Y-13659594D02*
X10902597Y-13659594D01*
X10902597Y-13659594D02*
X10883550Y-13669117D01*
X10883550Y-13669117D02*
X10874026Y-13678641D01*
X10874026Y-13678641D02*
X10864502Y-13697689D01*
X11216883Y-13783403D02*
X11216883Y-13583403D01*
X11302597Y-13783403D02*
X11302597Y-13678641D01*
X11302597Y-13678641D02*
X11293073Y-13659594D01*
X11293073Y-13659594D02*
X11274026Y-13650070D01*
X11274026Y-13650070D02*
X11245454Y-13650070D01*
X11245454Y-13650070D02*
X11226407Y-13659594D01*
X11226407Y-13659594D02*
X11216883Y-13669117D01*
X11426407Y-13783403D02*
X11407359Y-13773879D01*
X11407359Y-13773879D02*
X11397835Y-13764356D01*
X11397835Y-13764356D02*
X11388311Y-13745308D01*
X11388311Y-13745308D02*
X11388311Y-13688165D01*
X11388311Y-13688165D02*
X11397835Y-13669117D01*
X11397835Y-13669117D02*
X11407359Y-13659594D01*
X11407359Y-13659594D02*
X11426407Y-13650070D01*
X11426407Y-13650070D02*
X11454978Y-13650070D01*
X11454978Y-13650070D02*
X11474026Y-13659594D01*
X11474026Y-13659594D02*
X11483550Y-13669117D01*
X11483550Y-13669117D02*
X11493073Y-13688165D01*
X11493073Y-13688165D02*
X11493073Y-13745308D01*
X11493073Y-13745308D02*
X11483550Y-13764356D01*
X11483550Y-13764356D02*
X11474026Y-13773879D01*
X11474026Y-13773879D02*
X11454978Y-13783403D01*
X11454978Y-13783403D02*
X11426407Y-13783403D01*
X11607359Y-13783403D02*
X11588311Y-13773879D01*
X11588311Y-13773879D02*
X11578788Y-13754832D01*
X11578788Y-13754832D02*
X11578788Y-13583403D01*
X11759740Y-13773879D02*
X11740692Y-13783403D01*
X11740692Y-13783403D02*
X11702597Y-13783403D01*
X11702597Y-13783403D02*
X11683550Y-13773879D01*
X11683550Y-13773879D02*
X11674026Y-13754832D01*
X11674026Y-13754832D02*
X11674026Y-13678641D01*
X11674026Y-13678641D02*
X11683550Y-13659594D01*
X11683550Y-13659594D02*
X11702597Y-13650070D01*
X11702597Y-13650070D02*
X11740692Y-13650070D01*
X11740692Y-13650070D02*
X11759740Y-13659594D01*
X11759740Y-13659594D02*
X11769264Y-13678641D01*
X11769264Y-13678641D02*
X11769264Y-13697689D01*
X11769264Y-13697689D02*
X11674026Y-13716737D01*
X11845454Y-13773879D02*
X11864502Y-13783403D01*
X11864502Y-13783403D02*
X11902597Y-13783403D01*
X11902597Y-13783403D02*
X11921645Y-13773879D01*
X11921645Y-13773879D02*
X11931169Y-13754832D01*
X11931169Y-13754832D02*
X11931169Y-13745308D01*
X11931169Y-13745308D02*
X11921645Y-13726260D01*
X11921645Y-13726260D02*
X11902597Y-13716737D01*
X11902597Y-13716737D02*
X11874026Y-13716737D01*
X11874026Y-13716737D02*
X11854978Y-13707213D01*
X11854978Y-13707213D02*
X11845454Y-13688165D01*
X11845454Y-13688165D02*
X11845454Y-13678641D01*
X11845454Y-13678641D02*
X11854978Y-13659594D01*
X11854978Y-13659594D02*
X11874026Y-13650070D01*
X11874026Y-13650070D02*
X11902597Y-13650070D01*
X11902597Y-13650070D02*
X11921645Y-13659594D01*
X11997835Y-13859594D02*
X12007359Y-13850070D01*
X12007359Y-13850070D02*
X12026407Y-13821498D01*
X12026407Y-13821498D02*
X12035931Y-13802451D01*
X12035931Y-13802451D02*
X12045454Y-13773879D01*
X12045454Y-13773879D02*
X12054978Y-13726260D01*
X12054978Y-13726260D02*
X12054978Y-13688165D01*
X12054978Y-13688165D02*
X12045454Y-13640546D01*
X12045454Y-13640546D02*
X12035931Y-13611975D01*
X12035931Y-13611975D02*
X12026407Y-13592927D01*
X12026407Y-13592927D02*
X12007359Y-13564356D01*
X12007359Y-13564356D02*
X11997835Y-13554832D01*
D13*
X7045454Y-13954879D02*
G75*
G03*
X7045454Y-13954879I-38100J0D01*
G01*
D11*
X7331168Y-13847403D02*
X7350216Y-13847403D01*
X7350216Y-13847403D02*
X7369263Y-13856927D01*
X7369263Y-13856927D02*
X7378787Y-13866451D01*
X7378787Y-13866451D02*
X7388311Y-13885498D01*
X7388311Y-13885498D02*
X7397835Y-13923594D01*
X7397835Y-13923594D02*
X7397835Y-13971213D01*
X7397835Y-13971213D02*
X7388311Y-14009308D01*
X7388311Y-14009308D02*
X7378787Y-14028356D01*
X7378787Y-14028356D02*
X7369263Y-14037879D01*
X7369263Y-14037879D02*
X7350216Y-14047403D01*
X7350216Y-14047403D02*
X7331168Y-14047403D01*
X7331168Y-14047403D02*
X7312121Y-14037879D01*
X7312121Y-14037879D02*
X7302597Y-14028356D01*
X7302597Y-14028356D02*
X7293073Y-14009308D01*
X7293073Y-14009308D02*
X7283549Y-13971213D01*
X7283549Y-13971213D02*
X7283549Y-13923594D01*
X7283549Y-13923594D02*
X7293073Y-13885498D01*
X7293073Y-13885498D02*
X7302597Y-13866451D01*
X7302597Y-13866451D02*
X7312121Y-13856927D01*
X7312121Y-13856927D02*
X7331168Y-13847403D01*
X7483549Y-14028356D02*
X7493073Y-14037879D01*
X7493073Y-14037879D02*
X7483549Y-14047403D01*
X7483549Y-14047403D02*
X7474025Y-14037879D01*
X7474025Y-14037879D02*
X7483549Y-14028356D01*
X7483549Y-14028356D02*
X7483549Y-14047403D01*
X7559740Y-13847403D02*
X7693073Y-13847403D01*
X7693073Y-13847403D02*
X7607359Y-14047403D01*
X7854978Y-13847403D02*
X7816882Y-13847403D01*
X7816882Y-13847403D02*
X7797835Y-13856927D01*
X7797835Y-13856927D02*
X7788311Y-13866451D01*
X7788311Y-13866451D02*
X7769263Y-13895022D01*
X7769263Y-13895022D02*
X7759740Y-13933117D01*
X7759740Y-13933117D02*
X7759740Y-14009308D01*
X7759740Y-14009308D02*
X7769263Y-14028356D01*
X7769263Y-14028356D02*
X7778787Y-14037879D01*
X7778787Y-14037879D02*
X7797835Y-14047403D01*
X7797835Y-14047403D02*
X7835930Y-14047403D01*
X7835930Y-14047403D02*
X7854978Y-14037879D01*
X7854978Y-14037879D02*
X7864502Y-14028356D01*
X7864502Y-14028356D02*
X7874025Y-14009308D01*
X7874025Y-14009308D02*
X7874025Y-13961689D01*
X7874025Y-13961689D02*
X7864502Y-13942641D01*
X7864502Y-13942641D02*
X7854978Y-13933117D01*
X7854978Y-13933117D02*
X7835930Y-13923594D01*
X7835930Y-13923594D02*
X7797835Y-13923594D01*
X7797835Y-13923594D02*
X7778787Y-13933117D01*
X7778787Y-13933117D02*
X7769263Y-13942641D01*
X7769263Y-13942641D02*
X7759740Y-13961689D01*
X7950216Y-13866451D02*
X7959740Y-13856927D01*
X7959740Y-13856927D02*
X7978787Y-13847403D01*
X7978787Y-13847403D02*
X8026406Y-13847403D01*
X8026406Y-13847403D02*
X8045454Y-13856927D01*
X8045454Y-13856927D02*
X8054978Y-13866451D01*
X8054978Y-13866451D02*
X8064502Y-13885498D01*
X8064502Y-13885498D02*
X8064502Y-13904546D01*
X8064502Y-13904546D02*
X8054978Y-13933117D01*
X8054978Y-13933117D02*
X7940692Y-14047403D01*
X7940692Y-14047403D02*
X8064502Y-14047403D01*
X8150216Y-14047403D02*
X8150216Y-13914070D01*
X8150216Y-13933117D02*
X8159740Y-13923594D01*
X8159740Y-13923594D02*
X8178787Y-13914070D01*
X8178787Y-13914070D02*
X8207359Y-13914070D01*
X8207359Y-13914070D02*
X8226406Y-13923594D01*
X8226406Y-13923594D02*
X8235930Y-13942641D01*
X8235930Y-13942641D02*
X8235930Y-14047403D01*
X8235930Y-13942641D02*
X8245454Y-13923594D01*
X8245454Y-13923594D02*
X8264502Y-13914070D01*
X8264502Y-13914070D02*
X8293073Y-13914070D01*
X8293073Y-13914070D02*
X8312121Y-13923594D01*
X8312121Y-13923594D02*
X8321644Y-13942641D01*
X8321644Y-13942641D02*
X8321644Y-14047403D01*
X8416883Y-14047403D02*
X8416883Y-13914070D01*
X8416883Y-13933117D02*
X8426406Y-13923594D01*
X8426406Y-13923594D02*
X8445454Y-13914070D01*
X8445454Y-13914070D02*
X8474026Y-13914070D01*
X8474026Y-13914070D02*
X8493073Y-13923594D01*
X8493073Y-13923594D02*
X8502597Y-13942641D01*
X8502597Y-13942641D02*
X8502597Y-14047403D01*
X8502597Y-13942641D02*
X8512121Y-13923594D01*
X8512121Y-13923594D02*
X8531168Y-13914070D01*
X8531168Y-13914070D02*
X8559740Y-13914070D01*
X8559740Y-13914070D02*
X8578787Y-13923594D01*
X8578787Y-13923594D02*
X8588311Y-13942641D01*
X8588311Y-13942641D02*
X8588311Y-14047403D01*
X8978787Y-13837879D02*
X8807359Y-14095022D01*
X9235930Y-13847403D02*
X9254978Y-13847403D01*
X9254978Y-13847403D02*
X9274026Y-13856927D01*
X9274026Y-13856927D02*
X9283549Y-13866451D01*
X9283549Y-13866451D02*
X9293073Y-13885498D01*
X9293073Y-13885498D02*
X9302597Y-13923594D01*
X9302597Y-13923594D02*
X9302597Y-13971213D01*
X9302597Y-13971213D02*
X9293073Y-14009308D01*
X9293073Y-14009308D02*
X9283549Y-14028356D01*
X9283549Y-14028356D02*
X9274026Y-14037879D01*
X9274026Y-14037879D02*
X9254978Y-14047403D01*
X9254978Y-14047403D02*
X9235930Y-14047403D01*
X9235930Y-14047403D02*
X9216883Y-14037879D01*
X9216883Y-14037879D02*
X9207359Y-14028356D01*
X9207359Y-14028356D02*
X9197835Y-14009308D01*
X9197835Y-14009308D02*
X9188311Y-13971213D01*
X9188311Y-13971213D02*
X9188311Y-13923594D01*
X9188311Y-13923594D02*
X9197835Y-13885498D01*
X9197835Y-13885498D02*
X9207359Y-13866451D01*
X9207359Y-13866451D02*
X9216883Y-13856927D01*
X9216883Y-13856927D02*
X9235930Y-13847403D01*
X9388311Y-14028356D02*
X9397835Y-14037879D01*
X9397835Y-14037879D02*
X9388311Y-14047403D01*
X9388311Y-14047403D02*
X9378788Y-14037879D01*
X9378788Y-14037879D02*
X9388311Y-14028356D01*
X9388311Y-14028356D02*
X9388311Y-14047403D01*
X9521645Y-13847403D02*
X9540692Y-13847403D01*
X9540692Y-13847403D02*
X9559740Y-13856927D01*
X9559740Y-13856927D02*
X9569264Y-13866451D01*
X9569264Y-13866451D02*
X9578788Y-13885498D01*
X9578788Y-13885498D02*
X9588311Y-13923594D01*
X9588311Y-13923594D02*
X9588311Y-13971213D01*
X9588311Y-13971213D02*
X9578788Y-14009308D01*
X9578788Y-14009308D02*
X9569264Y-14028356D01*
X9569264Y-14028356D02*
X9559740Y-14037879D01*
X9559740Y-14037879D02*
X9540692Y-14047403D01*
X9540692Y-14047403D02*
X9521645Y-14047403D01*
X9521645Y-14047403D02*
X9502597Y-14037879D01*
X9502597Y-14037879D02*
X9493073Y-14028356D01*
X9493073Y-14028356D02*
X9483549Y-14009308D01*
X9483549Y-14009308D02*
X9474026Y-13971213D01*
X9474026Y-13971213D02*
X9474026Y-13923594D01*
X9474026Y-13923594D02*
X9483549Y-13885498D01*
X9483549Y-13885498D02*
X9493073Y-13866451D01*
X9493073Y-13866451D02*
X9502597Y-13856927D01*
X9502597Y-13856927D02*
X9521645Y-13847403D01*
X9654978Y-13847403D02*
X9778788Y-13847403D01*
X9778788Y-13847403D02*
X9712121Y-13923594D01*
X9712121Y-13923594D02*
X9740692Y-13923594D01*
X9740692Y-13923594D02*
X9759740Y-13933117D01*
X9759740Y-13933117D02*
X9769264Y-13942641D01*
X9769264Y-13942641D02*
X9778788Y-13961689D01*
X9778788Y-13961689D02*
X9778788Y-14009308D01*
X9778788Y-14009308D02*
X9769264Y-14028356D01*
X9769264Y-14028356D02*
X9759740Y-14037879D01*
X9759740Y-14037879D02*
X9740692Y-14047403D01*
X9740692Y-14047403D02*
X9683549Y-14047403D01*
X9683549Y-14047403D02*
X9664502Y-14037879D01*
X9664502Y-14037879D02*
X9654978Y-14028356D01*
X9902597Y-13847403D02*
X9921645Y-13847403D01*
X9921645Y-13847403D02*
X9940692Y-13856927D01*
X9940692Y-13856927D02*
X9950216Y-13866451D01*
X9950216Y-13866451D02*
X9959740Y-13885498D01*
X9959740Y-13885498D02*
X9969264Y-13923594D01*
X9969264Y-13923594D02*
X9969264Y-13971213D01*
X9969264Y-13971213D02*
X9959740Y-14009308D01*
X9959740Y-14009308D02*
X9950216Y-14028356D01*
X9950216Y-14028356D02*
X9940692Y-14037879D01*
X9940692Y-14037879D02*
X9921645Y-14047403D01*
X9921645Y-14047403D02*
X9902597Y-14047403D01*
X9902597Y-14047403D02*
X9883549Y-14037879D01*
X9883549Y-14037879D02*
X9874026Y-14028356D01*
X9874026Y-14028356D02*
X9864502Y-14009308D01*
X9864502Y-14009308D02*
X9854978Y-13971213D01*
X9854978Y-13971213D02*
X9854978Y-13923594D01*
X9854978Y-13923594D02*
X9864502Y-13885498D01*
X9864502Y-13885498D02*
X9874026Y-13866451D01*
X9874026Y-13866451D02*
X9883549Y-13856927D01*
X9883549Y-13856927D02*
X9902597Y-13847403D01*
X10093073Y-13847403D02*
X10112121Y-13847403D01*
X10112121Y-13847403D02*
X10131169Y-13856927D01*
X10131169Y-13856927D02*
X10140692Y-13866451D01*
X10140692Y-13866451D02*
X10150216Y-13885498D01*
X10150216Y-13885498D02*
X10159740Y-13923594D01*
X10159740Y-13923594D02*
X10159740Y-13971213D01*
X10159740Y-13971213D02*
X10150216Y-14009308D01*
X10150216Y-14009308D02*
X10140692Y-14028356D01*
X10140692Y-14028356D02*
X10131169Y-14037879D01*
X10131169Y-14037879D02*
X10112121Y-14047403D01*
X10112121Y-14047403D02*
X10093073Y-14047403D01*
X10093073Y-14047403D02*
X10074026Y-14037879D01*
X10074026Y-14037879D02*
X10064502Y-14028356D01*
X10064502Y-14028356D02*
X10054978Y-14009308D01*
X10054978Y-14009308D02*
X10045454Y-13971213D01*
X10045454Y-13971213D02*
X10045454Y-13923594D01*
X10045454Y-13923594D02*
X10054978Y-13885498D01*
X10054978Y-13885498D02*
X10064502Y-13866451D01*
X10064502Y-13866451D02*
X10074026Y-13856927D01*
X10074026Y-13856927D02*
X10093073Y-13847403D01*
X10235930Y-13847403D02*
X10235930Y-13885498D01*
X10312121Y-13847403D02*
X10312121Y-13885498D01*
X10607359Y-14123594D02*
X10597835Y-14114070D01*
X10597835Y-14114070D02*
X10578788Y-14085498D01*
X10578788Y-14085498D02*
X10569264Y-14066451D01*
X10569264Y-14066451D02*
X10559740Y-14037879D01*
X10559740Y-14037879D02*
X10550216Y-13990260D01*
X10550216Y-13990260D02*
X10550216Y-13952165D01*
X10550216Y-13952165D02*
X10559740Y-13904546D01*
X10559740Y-13904546D02*
X10569264Y-13875975D01*
X10569264Y-13875975D02*
X10578788Y-13856927D01*
X10578788Y-13856927D02*
X10597835Y-13828356D01*
X10597835Y-13828356D02*
X10607359Y-13818832D01*
X10769264Y-13914070D02*
X10769264Y-14047403D01*
X10721645Y-13837879D02*
X10674026Y-13980737D01*
X10674026Y-13980737D02*
X10797835Y-13980737D01*
X11026407Y-14047403D02*
X11026407Y-13847403D01*
X11112121Y-14047403D02*
X11112121Y-13942641D01*
X11112121Y-13942641D02*
X11102597Y-13923594D01*
X11102597Y-13923594D02*
X11083550Y-13914070D01*
X11083550Y-13914070D02*
X11054978Y-13914070D01*
X11054978Y-13914070D02*
X11035931Y-13923594D01*
X11035931Y-13923594D02*
X11026407Y-13933117D01*
X11235930Y-14047403D02*
X11216883Y-14037879D01*
X11216883Y-14037879D02*
X11207359Y-14028356D01*
X11207359Y-14028356D02*
X11197835Y-14009308D01*
X11197835Y-14009308D02*
X11197835Y-13952165D01*
X11197835Y-13952165D02*
X11207359Y-13933117D01*
X11207359Y-13933117D02*
X11216883Y-13923594D01*
X11216883Y-13923594D02*
X11235930Y-13914070D01*
X11235930Y-13914070D02*
X11264502Y-13914070D01*
X11264502Y-13914070D02*
X11283550Y-13923594D01*
X11283550Y-13923594D02*
X11293073Y-13933117D01*
X11293073Y-13933117D02*
X11302597Y-13952165D01*
X11302597Y-13952165D02*
X11302597Y-14009308D01*
X11302597Y-14009308D02*
X11293073Y-14028356D01*
X11293073Y-14028356D02*
X11283550Y-14037879D01*
X11283550Y-14037879D02*
X11264502Y-14047403D01*
X11264502Y-14047403D02*
X11235930Y-14047403D01*
X11416883Y-14047403D02*
X11397835Y-14037879D01*
X11397835Y-14037879D02*
X11388311Y-14018832D01*
X11388311Y-14018832D02*
X11388311Y-13847403D01*
X11569264Y-14037879D02*
X11550216Y-14047403D01*
X11550216Y-14047403D02*
X11512121Y-14047403D01*
X11512121Y-14047403D02*
X11493073Y-14037879D01*
X11493073Y-14037879D02*
X11483550Y-14018832D01*
X11483550Y-14018832D02*
X11483550Y-13942641D01*
X11483550Y-13942641D02*
X11493073Y-13923594D01*
X11493073Y-13923594D02*
X11512121Y-13914070D01*
X11512121Y-13914070D02*
X11550216Y-13914070D01*
X11550216Y-13914070D02*
X11569264Y-13923594D01*
X11569264Y-13923594D02*
X11578788Y-13942641D01*
X11578788Y-13942641D02*
X11578788Y-13961689D01*
X11578788Y-13961689D02*
X11483550Y-13980737D01*
X11654978Y-14037879D02*
X11674026Y-14047403D01*
X11674026Y-14047403D02*
X11712121Y-14047403D01*
X11712121Y-14047403D02*
X11731169Y-14037879D01*
X11731169Y-14037879D02*
X11740692Y-14018832D01*
X11740692Y-14018832D02*
X11740692Y-14009308D01*
X11740692Y-14009308D02*
X11731169Y-13990260D01*
X11731169Y-13990260D02*
X11712121Y-13980737D01*
X11712121Y-13980737D02*
X11683550Y-13980737D01*
X11683550Y-13980737D02*
X11664502Y-13971213D01*
X11664502Y-13971213D02*
X11654978Y-13952165D01*
X11654978Y-13952165D02*
X11654978Y-13942641D01*
X11654978Y-13942641D02*
X11664502Y-13923594D01*
X11664502Y-13923594D02*
X11683550Y-13914070D01*
X11683550Y-13914070D02*
X11712121Y-13914070D01*
X11712121Y-13914070D02*
X11731169Y-13923594D01*
X11807359Y-14123594D02*
X11816883Y-14114070D01*
X11816883Y-14114070D02*
X11835931Y-14085498D01*
X11835931Y-14085498D02*
X11845454Y-14066451D01*
X11845454Y-14066451D02*
X11854978Y-14037879D01*
X11854978Y-14037879D02*
X11864502Y-13990260D01*
X11864502Y-13990260D02*
X11864502Y-13952165D01*
X11864502Y-13952165D02*
X11854978Y-13904546D01*
X11854978Y-13904546D02*
X11845454Y-13875975D01*
X11845454Y-13875975D02*
X11835931Y-13856927D01*
X11835931Y-13856927D02*
X11816883Y-13828356D01*
X11816883Y-13828356D02*
X11807359Y-13818832D01*
D14*
X7004814Y-14178239D02*
X7004814Y-14259519D01*
X6964174Y-14218879D02*
X7045454Y-14218879D01*
D11*
X7331168Y-14111403D02*
X7350216Y-14111403D01*
X7350216Y-14111403D02*
X7369263Y-14120927D01*
X7369263Y-14120927D02*
X7378787Y-14130451D01*
X7378787Y-14130451D02*
X7388311Y-14149498D01*
X7388311Y-14149498D02*
X7397835Y-14187594D01*
X7397835Y-14187594D02*
X7397835Y-14235213D01*
X7397835Y-14235213D02*
X7388311Y-14273308D01*
X7388311Y-14273308D02*
X7378787Y-14292356D01*
X7378787Y-14292356D02*
X7369263Y-14301879D01*
X7369263Y-14301879D02*
X7350216Y-14311403D01*
X7350216Y-14311403D02*
X7331168Y-14311403D01*
X7331168Y-14311403D02*
X7312121Y-14301879D01*
X7312121Y-14301879D02*
X7302597Y-14292356D01*
X7302597Y-14292356D02*
X7293073Y-14273308D01*
X7293073Y-14273308D02*
X7283549Y-14235213D01*
X7283549Y-14235213D02*
X7283549Y-14187594D01*
X7283549Y-14187594D02*
X7293073Y-14149498D01*
X7293073Y-14149498D02*
X7302597Y-14130451D01*
X7302597Y-14130451D02*
X7312121Y-14120927D01*
X7312121Y-14120927D02*
X7331168Y-14111403D01*
X7483549Y-14292356D02*
X7493073Y-14301879D01*
X7493073Y-14301879D02*
X7483549Y-14311403D01*
X7483549Y-14311403D02*
X7474025Y-14301879D01*
X7474025Y-14301879D02*
X7483549Y-14292356D01*
X7483549Y-14292356D02*
X7483549Y-14311403D01*
X7607359Y-14197117D02*
X7588311Y-14187594D01*
X7588311Y-14187594D02*
X7578787Y-14178070D01*
X7578787Y-14178070D02*
X7569263Y-14159022D01*
X7569263Y-14159022D02*
X7569263Y-14149498D01*
X7569263Y-14149498D02*
X7578787Y-14130451D01*
X7578787Y-14130451D02*
X7588311Y-14120927D01*
X7588311Y-14120927D02*
X7607359Y-14111403D01*
X7607359Y-14111403D02*
X7645454Y-14111403D01*
X7645454Y-14111403D02*
X7664502Y-14120927D01*
X7664502Y-14120927D02*
X7674025Y-14130451D01*
X7674025Y-14130451D02*
X7683549Y-14149498D01*
X7683549Y-14149498D02*
X7683549Y-14159022D01*
X7683549Y-14159022D02*
X7674025Y-14178070D01*
X7674025Y-14178070D02*
X7664502Y-14187594D01*
X7664502Y-14187594D02*
X7645454Y-14197117D01*
X7645454Y-14197117D02*
X7607359Y-14197117D01*
X7607359Y-14197117D02*
X7588311Y-14206641D01*
X7588311Y-14206641D02*
X7578787Y-14216165D01*
X7578787Y-14216165D02*
X7569263Y-14235213D01*
X7569263Y-14235213D02*
X7569263Y-14273308D01*
X7569263Y-14273308D02*
X7578787Y-14292356D01*
X7578787Y-14292356D02*
X7588311Y-14301879D01*
X7588311Y-14301879D02*
X7607359Y-14311403D01*
X7607359Y-14311403D02*
X7645454Y-14311403D01*
X7645454Y-14311403D02*
X7664502Y-14301879D01*
X7664502Y-14301879D02*
X7674025Y-14292356D01*
X7674025Y-14292356D02*
X7683549Y-14273308D01*
X7683549Y-14273308D02*
X7683549Y-14235213D01*
X7683549Y-14235213D02*
X7674025Y-14216165D01*
X7674025Y-14216165D02*
X7664502Y-14206641D01*
X7664502Y-14206641D02*
X7645454Y-14197117D01*
X7874025Y-14311403D02*
X7759740Y-14311403D01*
X7816882Y-14311403D02*
X7816882Y-14111403D01*
X7816882Y-14111403D02*
X7797835Y-14139975D01*
X7797835Y-14139975D02*
X7778787Y-14159022D01*
X7778787Y-14159022D02*
X7759740Y-14168546D01*
X7940692Y-14111403D02*
X8064502Y-14111403D01*
X8064502Y-14111403D02*
X7997835Y-14187594D01*
X7997835Y-14187594D02*
X8026406Y-14187594D01*
X8026406Y-14187594D02*
X8045454Y-14197117D01*
X8045454Y-14197117D02*
X8054978Y-14206641D01*
X8054978Y-14206641D02*
X8064502Y-14225689D01*
X8064502Y-14225689D02*
X8064502Y-14273308D01*
X8064502Y-14273308D02*
X8054978Y-14292356D01*
X8054978Y-14292356D02*
X8045454Y-14301879D01*
X8045454Y-14301879D02*
X8026406Y-14311403D01*
X8026406Y-14311403D02*
X7969263Y-14311403D01*
X7969263Y-14311403D02*
X7950216Y-14301879D01*
X7950216Y-14301879D02*
X7940692Y-14292356D01*
X8150216Y-14311403D02*
X8150216Y-14178070D01*
X8150216Y-14197117D02*
X8159740Y-14187594D01*
X8159740Y-14187594D02*
X8178787Y-14178070D01*
X8178787Y-14178070D02*
X8207359Y-14178070D01*
X8207359Y-14178070D02*
X8226406Y-14187594D01*
X8226406Y-14187594D02*
X8235930Y-14206641D01*
X8235930Y-14206641D02*
X8235930Y-14311403D01*
X8235930Y-14206641D02*
X8245454Y-14187594D01*
X8245454Y-14187594D02*
X8264502Y-14178070D01*
X8264502Y-14178070D02*
X8293073Y-14178070D01*
X8293073Y-14178070D02*
X8312121Y-14187594D01*
X8312121Y-14187594D02*
X8321644Y-14206641D01*
X8321644Y-14206641D02*
X8321644Y-14311403D01*
X8416883Y-14311403D02*
X8416883Y-14178070D01*
X8416883Y-14197117D02*
X8426406Y-14187594D01*
X8426406Y-14187594D02*
X8445454Y-14178070D01*
X8445454Y-14178070D02*
X8474026Y-14178070D01*
X8474026Y-14178070D02*
X8493073Y-14187594D01*
X8493073Y-14187594D02*
X8502597Y-14206641D01*
X8502597Y-14206641D02*
X8502597Y-14311403D01*
X8502597Y-14206641D02*
X8512121Y-14187594D01*
X8512121Y-14187594D02*
X8531168Y-14178070D01*
X8531168Y-14178070D02*
X8559740Y-14178070D01*
X8559740Y-14178070D02*
X8578787Y-14187594D01*
X8578787Y-14187594D02*
X8588311Y-14206641D01*
X8588311Y-14206641D02*
X8588311Y-14311403D01*
X8978787Y-14101879D02*
X8807359Y-14359022D01*
X9235930Y-14111403D02*
X9254978Y-14111403D01*
X9254978Y-14111403D02*
X9274026Y-14120927D01*
X9274026Y-14120927D02*
X9283549Y-14130451D01*
X9283549Y-14130451D02*
X9293073Y-14149498D01*
X9293073Y-14149498D02*
X9302597Y-14187594D01*
X9302597Y-14187594D02*
X9302597Y-14235213D01*
X9302597Y-14235213D02*
X9293073Y-14273308D01*
X9293073Y-14273308D02*
X9283549Y-14292356D01*
X9283549Y-14292356D02*
X9274026Y-14301879D01*
X9274026Y-14301879D02*
X9254978Y-14311403D01*
X9254978Y-14311403D02*
X9235930Y-14311403D01*
X9235930Y-14311403D02*
X9216883Y-14301879D01*
X9216883Y-14301879D02*
X9207359Y-14292356D01*
X9207359Y-14292356D02*
X9197835Y-14273308D01*
X9197835Y-14273308D02*
X9188311Y-14235213D01*
X9188311Y-14235213D02*
X9188311Y-14187594D01*
X9188311Y-14187594D02*
X9197835Y-14149498D01*
X9197835Y-14149498D02*
X9207359Y-14130451D01*
X9207359Y-14130451D02*
X9216883Y-14120927D01*
X9216883Y-14120927D02*
X9235930Y-14111403D01*
X9388311Y-14292356D02*
X9397835Y-14301879D01*
X9397835Y-14301879D02*
X9388311Y-14311403D01*
X9388311Y-14311403D02*
X9378788Y-14301879D01*
X9378788Y-14301879D02*
X9388311Y-14292356D01*
X9388311Y-14292356D02*
X9388311Y-14311403D01*
X9521645Y-14111403D02*
X9540692Y-14111403D01*
X9540692Y-14111403D02*
X9559740Y-14120927D01*
X9559740Y-14120927D02*
X9569264Y-14130451D01*
X9569264Y-14130451D02*
X9578788Y-14149498D01*
X9578788Y-14149498D02*
X9588311Y-14187594D01*
X9588311Y-14187594D02*
X9588311Y-14235213D01*
X9588311Y-14235213D02*
X9578788Y-14273308D01*
X9578788Y-14273308D02*
X9569264Y-14292356D01*
X9569264Y-14292356D02*
X9559740Y-14301879D01*
X9559740Y-14301879D02*
X9540692Y-14311403D01*
X9540692Y-14311403D02*
X9521645Y-14311403D01*
X9521645Y-14311403D02*
X9502597Y-14301879D01*
X9502597Y-14301879D02*
X9493073Y-14292356D01*
X9493073Y-14292356D02*
X9483549Y-14273308D01*
X9483549Y-14273308D02*
X9474026Y-14235213D01*
X9474026Y-14235213D02*
X9474026Y-14187594D01*
X9474026Y-14187594D02*
X9483549Y-14149498D01*
X9483549Y-14149498D02*
X9493073Y-14130451D01*
X9493073Y-14130451D02*
X9502597Y-14120927D01*
X9502597Y-14120927D02*
X9521645Y-14111403D01*
X9654978Y-14111403D02*
X9778788Y-14111403D01*
X9778788Y-14111403D02*
X9712121Y-14187594D01*
X9712121Y-14187594D02*
X9740692Y-14187594D01*
X9740692Y-14187594D02*
X9759740Y-14197117D01*
X9759740Y-14197117D02*
X9769264Y-14206641D01*
X9769264Y-14206641D02*
X9778788Y-14225689D01*
X9778788Y-14225689D02*
X9778788Y-14273308D01*
X9778788Y-14273308D02*
X9769264Y-14292356D01*
X9769264Y-14292356D02*
X9759740Y-14301879D01*
X9759740Y-14301879D02*
X9740692Y-14311403D01*
X9740692Y-14311403D02*
X9683549Y-14311403D01*
X9683549Y-14311403D02*
X9664502Y-14301879D01*
X9664502Y-14301879D02*
X9654978Y-14292356D01*
X9854978Y-14130451D02*
X9864502Y-14120927D01*
X9864502Y-14120927D02*
X9883549Y-14111403D01*
X9883549Y-14111403D02*
X9931169Y-14111403D01*
X9931169Y-14111403D02*
X9950216Y-14120927D01*
X9950216Y-14120927D02*
X9959740Y-14130451D01*
X9959740Y-14130451D02*
X9969264Y-14149498D01*
X9969264Y-14149498D02*
X9969264Y-14168546D01*
X9969264Y-14168546D02*
X9959740Y-14197117D01*
X9959740Y-14197117D02*
X9845454Y-14311403D01*
X9845454Y-14311403D02*
X9969264Y-14311403D01*
X10093073Y-14111403D02*
X10112121Y-14111403D01*
X10112121Y-14111403D02*
X10131169Y-14120927D01*
X10131169Y-14120927D02*
X10140692Y-14130451D01*
X10140692Y-14130451D02*
X10150216Y-14149498D01*
X10150216Y-14149498D02*
X10159740Y-14187594D01*
X10159740Y-14187594D02*
X10159740Y-14235213D01*
X10159740Y-14235213D02*
X10150216Y-14273308D01*
X10150216Y-14273308D02*
X10140692Y-14292356D01*
X10140692Y-14292356D02*
X10131169Y-14301879D01*
X10131169Y-14301879D02*
X10112121Y-14311403D01*
X10112121Y-14311403D02*
X10093073Y-14311403D01*
X10093073Y-14311403D02*
X10074026Y-14301879D01*
X10074026Y-14301879D02*
X10064502Y-14292356D01*
X10064502Y-14292356D02*
X10054978Y-14273308D01*
X10054978Y-14273308D02*
X10045454Y-14235213D01*
X10045454Y-14235213D02*
X10045454Y-14187594D01*
X10045454Y-14187594D02*
X10054978Y-14149498D01*
X10054978Y-14149498D02*
X10064502Y-14130451D01*
X10064502Y-14130451D02*
X10074026Y-14120927D01*
X10074026Y-14120927D02*
X10093073Y-14111403D01*
X10235930Y-14111403D02*
X10235930Y-14149498D01*
X10312121Y-14111403D02*
X10312121Y-14149498D01*
X10607359Y-14387594D02*
X10597835Y-14378070D01*
X10597835Y-14378070D02*
X10578788Y-14349498D01*
X10578788Y-14349498D02*
X10569264Y-14330451D01*
X10569264Y-14330451D02*
X10559740Y-14301879D01*
X10559740Y-14301879D02*
X10550216Y-14254260D01*
X10550216Y-14254260D02*
X10550216Y-14216165D01*
X10550216Y-14216165D02*
X10559740Y-14168546D01*
X10559740Y-14168546D02*
X10569264Y-14139975D01*
X10569264Y-14139975D02*
X10578788Y-14120927D01*
X10578788Y-14120927D02*
X10597835Y-14092356D01*
X10597835Y-14092356D02*
X10607359Y-14082832D01*
X10769264Y-14111403D02*
X10731169Y-14111403D01*
X10731169Y-14111403D02*
X10712121Y-14120927D01*
X10712121Y-14120927D02*
X10702597Y-14130451D01*
X10702597Y-14130451D02*
X10683550Y-14159022D01*
X10683550Y-14159022D02*
X10674026Y-14197117D01*
X10674026Y-14197117D02*
X10674026Y-14273308D01*
X10674026Y-14273308D02*
X10683550Y-14292356D01*
X10683550Y-14292356D02*
X10693073Y-14301879D01*
X10693073Y-14301879D02*
X10712121Y-14311403D01*
X10712121Y-14311403D02*
X10750216Y-14311403D01*
X10750216Y-14311403D02*
X10769264Y-14301879D01*
X10769264Y-14301879D02*
X10778788Y-14292356D01*
X10778788Y-14292356D02*
X10788311Y-14273308D01*
X10788311Y-14273308D02*
X10788311Y-14225689D01*
X10788311Y-14225689D02*
X10778788Y-14206641D01*
X10778788Y-14206641D02*
X10769264Y-14197117D01*
X10769264Y-14197117D02*
X10750216Y-14187594D01*
X10750216Y-14187594D02*
X10712121Y-14187594D01*
X10712121Y-14187594D02*
X10693073Y-14197117D01*
X10693073Y-14197117D02*
X10683550Y-14206641D01*
X10683550Y-14206641D02*
X10674026Y-14225689D01*
X11026407Y-14311403D02*
X11026407Y-14111403D01*
X11112121Y-14311403D02*
X11112121Y-14206641D01*
X11112121Y-14206641D02*
X11102597Y-14187594D01*
X11102597Y-14187594D02*
X11083550Y-14178070D01*
X11083550Y-14178070D02*
X11054978Y-14178070D01*
X11054978Y-14178070D02*
X11035931Y-14187594D01*
X11035931Y-14187594D02*
X11026407Y-14197117D01*
X11235930Y-14311403D02*
X11216883Y-14301879D01*
X11216883Y-14301879D02*
X11207359Y-14292356D01*
X11207359Y-14292356D02*
X11197835Y-14273308D01*
X11197835Y-14273308D02*
X11197835Y-14216165D01*
X11197835Y-14216165D02*
X11207359Y-14197117D01*
X11207359Y-14197117D02*
X11216883Y-14187594D01*
X11216883Y-14187594D02*
X11235930Y-14178070D01*
X11235930Y-14178070D02*
X11264502Y-14178070D01*
X11264502Y-14178070D02*
X11283550Y-14187594D01*
X11283550Y-14187594D02*
X11293073Y-14197117D01*
X11293073Y-14197117D02*
X11302597Y-14216165D01*
X11302597Y-14216165D02*
X11302597Y-14273308D01*
X11302597Y-14273308D02*
X11293073Y-14292356D01*
X11293073Y-14292356D02*
X11283550Y-14301879D01*
X11283550Y-14301879D02*
X11264502Y-14311403D01*
X11264502Y-14311403D02*
X11235930Y-14311403D01*
X11416883Y-14311403D02*
X11397835Y-14301879D01*
X11397835Y-14301879D02*
X11388311Y-14282832D01*
X11388311Y-14282832D02*
X11388311Y-14111403D01*
X11569264Y-14301879D02*
X11550216Y-14311403D01*
X11550216Y-14311403D02*
X11512121Y-14311403D01*
X11512121Y-14311403D02*
X11493073Y-14301879D01*
X11493073Y-14301879D02*
X11483550Y-14282832D01*
X11483550Y-14282832D02*
X11483550Y-14206641D01*
X11483550Y-14206641D02*
X11493073Y-14187594D01*
X11493073Y-14187594D02*
X11512121Y-14178070D01*
X11512121Y-14178070D02*
X11550216Y-14178070D01*
X11550216Y-14178070D02*
X11569264Y-14187594D01*
X11569264Y-14187594D02*
X11578788Y-14206641D01*
X11578788Y-14206641D02*
X11578788Y-14225689D01*
X11578788Y-14225689D02*
X11483550Y-14244737D01*
X11654978Y-14301879D02*
X11674026Y-14311403D01*
X11674026Y-14311403D02*
X11712121Y-14311403D01*
X11712121Y-14311403D02*
X11731169Y-14301879D01*
X11731169Y-14301879D02*
X11740692Y-14282832D01*
X11740692Y-14282832D02*
X11740692Y-14273308D01*
X11740692Y-14273308D02*
X11731169Y-14254260D01*
X11731169Y-14254260D02*
X11712121Y-14244737D01*
X11712121Y-14244737D02*
X11683550Y-14244737D01*
X11683550Y-14244737D02*
X11664502Y-14235213D01*
X11664502Y-14235213D02*
X11654978Y-14216165D01*
X11654978Y-14216165D02*
X11654978Y-14206641D01*
X11654978Y-14206641D02*
X11664502Y-14187594D01*
X11664502Y-14187594D02*
X11683550Y-14178070D01*
X11683550Y-14178070D02*
X11712121Y-14178070D01*
X11712121Y-14178070D02*
X11731169Y-14187594D01*
X11807359Y-14387594D02*
X11816883Y-14378070D01*
X11816883Y-14378070D02*
X11835931Y-14349498D01*
X11835931Y-14349498D02*
X11845454Y-14330451D01*
X11845454Y-14330451D02*
X11854978Y-14301879D01*
X11854978Y-14301879D02*
X11864502Y-14254260D01*
X11864502Y-14254260D02*
X11864502Y-14216165D01*
X11864502Y-14216165D02*
X11854978Y-14168546D01*
X11854978Y-14168546D02*
X11845454Y-14139975D01*
X11845454Y-14139975D02*
X11835931Y-14120927D01*
X11835931Y-14120927D02*
X11816883Y-14092356D01*
X11816883Y-14092356D02*
X11807359Y-14082832D01*
D10*
X7030810Y-14518235D02*
X7030810Y-14447524D01*
X6960098Y-14447524D01*
X6960098Y-14518235D01*
X7030810Y-14518235D01*
D11*
X7397835Y-14575403D02*
X7283549Y-14575403D01*
X7340692Y-14575403D02*
X7340692Y-14375403D01*
X7340692Y-14375403D02*
X7321644Y-14403975D01*
X7321644Y-14403975D02*
X7302597Y-14423022D01*
X7302597Y-14423022D02*
X7283549Y-14432546D01*
X7483549Y-14556356D02*
X7493073Y-14565879D01*
X7493073Y-14565879D02*
X7483549Y-14575403D01*
X7483549Y-14575403D02*
X7474025Y-14565879D01*
X7474025Y-14565879D02*
X7483549Y-14556356D01*
X7483549Y-14556356D02*
X7483549Y-14575403D01*
X7616882Y-14375403D02*
X7635930Y-14375403D01*
X7635930Y-14375403D02*
X7654978Y-14384927D01*
X7654978Y-14384927D02*
X7664502Y-14394451D01*
X7664502Y-14394451D02*
X7674025Y-14413498D01*
X7674025Y-14413498D02*
X7683549Y-14451594D01*
X7683549Y-14451594D02*
X7683549Y-14499213D01*
X7683549Y-14499213D02*
X7674025Y-14537308D01*
X7674025Y-14537308D02*
X7664502Y-14556356D01*
X7664502Y-14556356D02*
X7654978Y-14565879D01*
X7654978Y-14565879D02*
X7635930Y-14575403D01*
X7635930Y-14575403D02*
X7616882Y-14575403D01*
X7616882Y-14575403D02*
X7597835Y-14565879D01*
X7597835Y-14565879D02*
X7588311Y-14556356D01*
X7588311Y-14556356D02*
X7578787Y-14537308D01*
X7578787Y-14537308D02*
X7569263Y-14499213D01*
X7569263Y-14499213D02*
X7569263Y-14451594D01*
X7569263Y-14451594D02*
X7578787Y-14413498D01*
X7578787Y-14413498D02*
X7588311Y-14394451D01*
X7588311Y-14394451D02*
X7597835Y-14384927D01*
X7597835Y-14384927D02*
X7616882Y-14375403D01*
X7807359Y-14375403D02*
X7826406Y-14375403D01*
X7826406Y-14375403D02*
X7845454Y-14384927D01*
X7845454Y-14384927D02*
X7854978Y-14394451D01*
X7854978Y-14394451D02*
X7864502Y-14413498D01*
X7864502Y-14413498D02*
X7874025Y-14451594D01*
X7874025Y-14451594D02*
X7874025Y-14499213D01*
X7874025Y-14499213D02*
X7864502Y-14537308D01*
X7864502Y-14537308D02*
X7854978Y-14556356D01*
X7854978Y-14556356D02*
X7845454Y-14565879D01*
X7845454Y-14565879D02*
X7826406Y-14575403D01*
X7826406Y-14575403D02*
X7807359Y-14575403D01*
X7807359Y-14575403D02*
X7788311Y-14565879D01*
X7788311Y-14565879D02*
X7778787Y-14556356D01*
X7778787Y-14556356D02*
X7769263Y-14537308D01*
X7769263Y-14537308D02*
X7759740Y-14499213D01*
X7759740Y-14499213D02*
X7759740Y-14451594D01*
X7759740Y-14451594D02*
X7769263Y-14413498D01*
X7769263Y-14413498D02*
X7778787Y-14394451D01*
X7778787Y-14394451D02*
X7788311Y-14384927D01*
X7788311Y-14384927D02*
X7807359Y-14375403D01*
X7997835Y-14375403D02*
X8016883Y-14375403D01*
X8016883Y-14375403D02*
X8035930Y-14384927D01*
X8035930Y-14384927D02*
X8045454Y-14394451D01*
X8045454Y-14394451D02*
X8054978Y-14413498D01*
X8054978Y-14413498D02*
X8064502Y-14451594D01*
X8064502Y-14451594D02*
X8064502Y-14499213D01*
X8064502Y-14499213D02*
X8054978Y-14537308D01*
X8054978Y-14537308D02*
X8045454Y-14556356D01*
X8045454Y-14556356D02*
X8035930Y-14565879D01*
X8035930Y-14565879D02*
X8016883Y-14575403D01*
X8016883Y-14575403D02*
X7997835Y-14575403D01*
X7997835Y-14575403D02*
X7978787Y-14565879D01*
X7978787Y-14565879D02*
X7969263Y-14556356D01*
X7969263Y-14556356D02*
X7959740Y-14537308D01*
X7959740Y-14537308D02*
X7950216Y-14499213D01*
X7950216Y-14499213D02*
X7950216Y-14451594D01*
X7950216Y-14451594D02*
X7959740Y-14413498D01*
X7959740Y-14413498D02*
X7969263Y-14394451D01*
X7969263Y-14394451D02*
X7978787Y-14384927D01*
X7978787Y-14384927D02*
X7997835Y-14375403D01*
X8150216Y-14575403D02*
X8150216Y-14442070D01*
X8150216Y-14461117D02*
X8159740Y-14451594D01*
X8159740Y-14451594D02*
X8178787Y-14442070D01*
X8178787Y-14442070D02*
X8207359Y-14442070D01*
X8207359Y-14442070D02*
X8226406Y-14451594D01*
X8226406Y-14451594D02*
X8235930Y-14470641D01*
X8235930Y-14470641D02*
X8235930Y-14575403D01*
X8235930Y-14470641D02*
X8245454Y-14451594D01*
X8245454Y-14451594D02*
X8264502Y-14442070D01*
X8264502Y-14442070D02*
X8293073Y-14442070D01*
X8293073Y-14442070D02*
X8312121Y-14451594D01*
X8312121Y-14451594D02*
X8321644Y-14470641D01*
X8321644Y-14470641D02*
X8321644Y-14575403D01*
X8416883Y-14575403D02*
X8416883Y-14442070D01*
X8416883Y-14461117D02*
X8426406Y-14451594D01*
X8426406Y-14451594D02*
X8445454Y-14442070D01*
X8445454Y-14442070D02*
X8474026Y-14442070D01*
X8474026Y-14442070D02*
X8493073Y-14451594D01*
X8493073Y-14451594D02*
X8502597Y-14470641D01*
X8502597Y-14470641D02*
X8502597Y-14575403D01*
X8502597Y-14470641D02*
X8512121Y-14451594D01*
X8512121Y-14451594D02*
X8531168Y-14442070D01*
X8531168Y-14442070D02*
X8559740Y-14442070D01*
X8559740Y-14442070D02*
X8578787Y-14451594D01*
X8578787Y-14451594D02*
X8588311Y-14470641D01*
X8588311Y-14470641D02*
X8588311Y-14575403D01*
X8978787Y-14365879D02*
X8807359Y-14623022D01*
X9235930Y-14375403D02*
X9254978Y-14375403D01*
X9254978Y-14375403D02*
X9274026Y-14384927D01*
X9274026Y-14384927D02*
X9283549Y-14394451D01*
X9283549Y-14394451D02*
X9293073Y-14413498D01*
X9293073Y-14413498D02*
X9302597Y-14451594D01*
X9302597Y-14451594D02*
X9302597Y-14499213D01*
X9302597Y-14499213D02*
X9293073Y-14537308D01*
X9293073Y-14537308D02*
X9283549Y-14556356D01*
X9283549Y-14556356D02*
X9274026Y-14565879D01*
X9274026Y-14565879D02*
X9254978Y-14575403D01*
X9254978Y-14575403D02*
X9235930Y-14575403D01*
X9235930Y-14575403D02*
X9216883Y-14565879D01*
X9216883Y-14565879D02*
X9207359Y-14556356D01*
X9207359Y-14556356D02*
X9197835Y-14537308D01*
X9197835Y-14537308D02*
X9188311Y-14499213D01*
X9188311Y-14499213D02*
X9188311Y-14451594D01*
X9188311Y-14451594D02*
X9197835Y-14413498D01*
X9197835Y-14413498D02*
X9207359Y-14394451D01*
X9207359Y-14394451D02*
X9216883Y-14384927D01*
X9216883Y-14384927D02*
X9235930Y-14375403D01*
X9388311Y-14556356D02*
X9397835Y-14565879D01*
X9397835Y-14565879D02*
X9388311Y-14575403D01*
X9388311Y-14575403D02*
X9378788Y-14565879D01*
X9378788Y-14565879D02*
X9388311Y-14556356D01*
X9388311Y-14556356D02*
X9388311Y-14575403D01*
X9521645Y-14375403D02*
X9540692Y-14375403D01*
X9540692Y-14375403D02*
X9559740Y-14384927D01*
X9559740Y-14384927D02*
X9569264Y-14394451D01*
X9569264Y-14394451D02*
X9578788Y-14413498D01*
X9578788Y-14413498D02*
X9588311Y-14451594D01*
X9588311Y-14451594D02*
X9588311Y-14499213D01*
X9588311Y-14499213D02*
X9578788Y-14537308D01*
X9578788Y-14537308D02*
X9569264Y-14556356D01*
X9569264Y-14556356D02*
X9559740Y-14565879D01*
X9559740Y-14565879D02*
X9540692Y-14575403D01*
X9540692Y-14575403D02*
X9521645Y-14575403D01*
X9521645Y-14575403D02*
X9502597Y-14565879D01*
X9502597Y-14565879D02*
X9493073Y-14556356D01*
X9493073Y-14556356D02*
X9483549Y-14537308D01*
X9483549Y-14537308D02*
X9474026Y-14499213D01*
X9474026Y-14499213D02*
X9474026Y-14451594D01*
X9474026Y-14451594D02*
X9483549Y-14413498D01*
X9483549Y-14413498D02*
X9493073Y-14394451D01*
X9493073Y-14394451D02*
X9502597Y-14384927D01*
X9502597Y-14384927D02*
X9521645Y-14375403D01*
X9654978Y-14375403D02*
X9778788Y-14375403D01*
X9778788Y-14375403D02*
X9712121Y-14451594D01*
X9712121Y-14451594D02*
X9740692Y-14451594D01*
X9740692Y-14451594D02*
X9759740Y-14461117D01*
X9759740Y-14461117D02*
X9769264Y-14470641D01*
X9769264Y-14470641D02*
X9778788Y-14489689D01*
X9778788Y-14489689D02*
X9778788Y-14537308D01*
X9778788Y-14537308D02*
X9769264Y-14556356D01*
X9769264Y-14556356D02*
X9759740Y-14565879D01*
X9759740Y-14565879D02*
X9740692Y-14575403D01*
X9740692Y-14575403D02*
X9683549Y-14575403D01*
X9683549Y-14575403D02*
X9664502Y-14565879D01*
X9664502Y-14565879D02*
X9654978Y-14556356D01*
X9874026Y-14575403D02*
X9912121Y-14575403D01*
X9912121Y-14575403D02*
X9931169Y-14565879D01*
X9931169Y-14565879D02*
X9940692Y-14556356D01*
X9940692Y-14556356D02*
X9959740Y-14527784D01*
X9959740Y-14527784D02*
X9969264Y-14489689D01*
X9969264Y-14489689D02*
X9969264Y-14413498D01*
X9969264Y-14413498D02*
X9959740Y-14394451D01*
X9959740Y-14394451D02*
X9950216Y-14384927D01*
X9950216Y-14384927D02*
X9931169Y-14375403D01*
X9931169Y-14375403D02*
X9893073Y-14375403D01*
X9893073Y-14375403D02*
X9874026Y-14384927D01*
X9874026Y-14384927D02*
X9864502Y-14394451D01*
X9864502Y-14394451D02*
X9854978Y-14413498D01*
X9854978Y-14413498D02*
X9854978Y-14461117D01*
X9854978Y-14461117D02*
X9864502Y-14480165D01*
X9864502Y-14480165D02*
X9874026Y-14489689D01*
X9874026Y-14489689D02*
X9893073Y-14499213D01*
X9893073Y-14499213D02*
X9931169Y-14499213D01*
X9931169Y-14499213D02*
X9950216Y-14489689D01*
X9950216Y-14489689D02*
X9959740Y-14480165D01*
X9959740Y-14480165D02*
X9969264Y-14461117D01*
X10140692Y-14442070D02*
X10140692Y-14575403D01*
X10093073Y-14365879D02*
X10045454Y-14508737D01*
X10045454Y-14508737D02*
X10169264Y-14508737D01*
X10235930Y-14375403D02*
X10235930Y-14413498D01*
X10312121Y-14375403D02*
X10312121Y-14413498D01*
X10607359Y-14651594D02*
X10597835Y-14642070D01*
X10597835Y-14642070D02*
X10578788Y-14613498D01*
X10578788Y-14613498D02*
X10569264Y-14594451D01*
X10569264Y-14594451D02*
X10559740Y-14565879D01*
X10559740Y-14565879D02*
X10550216Y-14518260D01*
X10550216Y-14518260D02*
X10550216Y-14480165D01*
X10550216Y-14480165D02*
X10559740Y-14432546D01*
X10559740Y-14432546D02*
X10569264Y-14403975D01*
X10569264Y-14403975D02*
X10578788Y-14384927D01*
X10578788Y-14384927D02*
X10597835Y-14356356D01*
X10597835Y-14356356D02*
X10607359Y-14346832D01*
X10788311Y-14575403D02*
X10674026Y-14575403D01*
X10731169Y-14575403D02*
X10731169Y-14375403D01*
X10731169Y-14375403D02*
X10712121Y-14403975D01*
X10712121Y-14403975D02*
X10693073Y-14423022D01*
X10693073Y-14423022D02*
X10674026Y-14432546D01*
X10864502Y-14394451D02*
X10874026Y-14384927D01*
X10874026Y-14384927D02*
X10893073Y-14375403D01*
X10893073Y-14375403D02*
X10940692Y-14375403D01*
X10940692Y-14375403D02*
X10959740Y-14384927D01*
X10959740Y-14384927D02*
X10969264Y-14394451D01*
X10969264Y-14394451D02*
X10978788Y-14413498D01*
X10978788Y-14413498D02*
X10978788Y-14432546D01*
X10978788Y-14432546D02*
X10969264Y-14461117D01*
X10969264Y-14461117D02*
X10854978Y-14575403D01*
X10854978Y-14575403D02*
X10978788Y-14575403D01*
X11216883Y-14575403D02*
X11216883Y-14375403D01*
X11302597Y-14575403D02*
X11302597Y-14470641D01*
X11302597Y-14470641D02*
X11293073Y-14451594D01*
X11293073Y-14451594D02*
X11274026Y-14442070D01*
X11274026Y-14442070D02*
X11245454Y-14442070D01*
X11245454Y-14442070D02*
X11226407Y-14451594D01*
X11226407Y-14451594D02*
X11216883Y-14461117D01*
X11426407Y-14575403D02*
X11407359Y-14565879D01*
X11407359Y-14565879D02*
X11397835Y-14556356D01*
X11397835Y-14556356D02*
X11388311Y-14537308D01*
X11388311Y-14537308D02*
X11388311Y-14480165D01*
X11388311Y-14480165D02*
X11397835Y-14461117D01*
X11397835Y-14461117D02*
X11407359Y-14451594D01*
X11407359Y-14451594D02*
X11426407Y-14442070D01*
X11426407Y-14442070D02*
X11454978Y-14442070D01*
X11454978Y-14442070D02*
X11474026Y-14451594D01*
X11474026Y-14451594D02*
X11483550Y-14461117D01*
X11483550Y-14461117D02*
X11493073Y-14480165D01*
X11493073Y-14480165D02*
X11493073Y-14537308D01*
X11493073Y-14537308D02*
X11483550Y-14556356D01*
X11483550Y-14556356D02*
X11474026Y-14565879D01*
X11474026Y-14565879D02*
X11454978Y-14575403D01*
X11454978Y-14575403D02*
X11426407Y-14575403D01*
X11607359Y-14575403D02*
X11588311Y-14565879D01*
X11588311Y-14565879D02*
X11578788Y-14546832D01*
X11578788Y-14546832D02*
X11578788Y-14375403D01*
X11759740Y-14565879D02*
X11740692Y-14575403D01*
X11740692Y-14575403D02*
X11702597Y-14575403D01*
X11702597Y-14575403D02*
X11683550Y-14565879D01*
X11683550Y-14565879D02*
X11674026Y-14546832D01*
X11674026Y-14546832D02*
X11674026Y-14470641D01*
X11674026Y-14470641D02*
X11683550Y-14451594D01*
X11683550Y-14451594D02*
X11702597Y-14442070D01*
X11702597Y-14442070D02*
X11740692Y-14442070D01*
X11740692Y-14442070D02*
X11759740Y-14451594D01*
X11759740Y-14451594D02*
X11769264Y-14470641D01*
X11769264Y-14470641D02*
X11769264Y-14489689D01*
X11769264Y-14489689D02*
X11674026Y-14508737D01*
X11845454Y-14565879D02*
X11864502Y-14575403D01*
X11864502Y-14575403D02*
X11902597Y-14575403D01*
X11902597Y-14575403D02*
X11921645Y-14565879D01*
X11921645Y-14565879D02*
X11931169Y-14546832D01*
X11931169Y-14546832D02*
X11931169Y-14537308D01*
X11931169Y-14537308D02*
X11921645Y-14518260D01*
X11921645Y-14518260D02*
X11902597Y-14508737D01*
X11902597Y-14508737D02*
X11874026Y-14508737D01*
X11874026Y-14508737D02*
X11854978Y-14499213D01*
X11854978Y-14499213D02*
X11845454Y-14480165D01*
X11845454Y-14480165D02*
X11845454Y-14470641D01*
X11845454Y-14470641D02*
X11854978Y-14451594D01*
X11854978Y-14451594D02*
X11874026Y-14442070D01*
X11874026Y-14442070D02*
X11902597Y-14442070D01*
X11902597Y-14442070D02*
X11921645Y-14451594D01*
X11997835Y-14651594D02*
X12007359Y-14642070D01*
X12007359Y-14642070D02*
X12026407Y-14613498D01*
X12026407Y-14613498D02*
X12035931Y-14594451D01*
X12035931Y-14594451D02*
X12045454Y-14565879D01*
X12045454Y-14565879D02*
X12054978Y-14518260D01*
X12054978Y-14518260D02*
X12054978Y-14480165D01*
X12054978Y-14480165D02*
X12045454Y-14432546D01*
X12045454Y-14432546D02*
X12035931Y-14403975D01*
X12035931Y-14403975D02*
X12026407Y-14384927D01*
X12026407Y-14384927D02*
X12007359Y-14356356D01*
X12007359Y-14356356D02*
X11997835Y-14346832D01*
D15*
X6993454Y-14798879D02*
X7045454Y-14746879D01*
X6993454Y-14694879D01*
X6941454Y-14746879D01*
X6993454Y-14798879D01*
D11*
X7397835Y-14839403D02*
X7283549Y-14839403D01*
X7340692Y-14839403D02*
X7340692Y-14639403D01*
X7340692Y-14639403D02*
X7321644Y-14667975D01*
X7321644Y-14667975D02*
X7302597Y-14687022D01*
X7302597Y-14687022D02*
X7283549Y-14696546D01*
X7483549Y-14820356D02*
X7493073Y-14829879D01*
X7493073Y-14829879D02*
X7483549Y-14839403D01*
X7483549Y-14839403D02*
X7474025Y-14829879D01*
X7474025Y-14829879D02*
X7483549Y-14820356D01*
X7483549Y-14820356D02*
X7483549Y-14839403D01*
X7616882Y-14639403D02*
X7635930Y-14639403D01*
X7635930Y-14639403D02*
X7654978Y-14648927D01*
X7654978Y-14648927D02*
X7664502Y-14658451D01*
X7664502Y-14658451D02*
X7674025Y-14677498D01*
X7674025Y-14677498D02*
X7683549Y-14715594D01*
X7683549Y-14715594D02*
X7683549Y-14763213D01*
X7683549Y-14763213D02*
X7674025Y-14801308D01*
X7674025Y-14801308D02*
X7664502Y-14820356D01*
X7664502Y-14820356D02*
X7654978Y-14829879D01*
X7654978Y-14829879D02*
X7635930Y-14839403D01*
X7635930Y-14839403D02*
X7616882Y-14839403D01*
X7616882Y-14839403D02*
X7597835Y-14829879D01*
X7597835Y-14829879D02*
X7588311Y-14820356D01*
X7588311Y-14820356D02*
X7578787Y-14801308D01*
X7578787Y-14801308D02*
X7569263Y-14763213D01*
X7569263Y-14763213D02*
X7569263Y-14715594D01*
X7569263Y-14715594D02*
X7578787Y-14677498D01*
X7578787Y-14677498D02*
X7588311Y-14658451D01*
X7588311Y-14658451D02*
X7597835Y-14648927D01*
X7597835Y-14648927D02*
X7616882Y-14639403D01*
X7854978Y-14706070D02*
X7854978Y-14839403D01*
X7807359Y-14629879D02*
X7759740Y-14772737D01*
X7759740Y-14772737D02*
X7883549Y-14772737D01*
X7997835Y-14639403D02*
X8016883Y-14639403D01*
X8016883Y-14639403D02*
X8035930Y-14648927D01*
X8035930Y-14648927D02*
X8045454Y-14658451D01*
X8045454Y-14658451D02*
X8054978Y-14677498D01*
X8054978Y-14677498D02*
X8064502Y-14715594D01*
X8064502Y-14715594D02*
X8064502Y-14763213D01*
X8064502Y-14763213D02*
X8054978Y-14801308D01*
X8054978Y-14801308D02*
X8045454Y-14820356D01*
X8045454Y-14820356D02*
X8035930Y-14829879D01*
X8035930Y-14829879D02*
X8016883Y-14839403D01*
X8016883Y-14839403D02*
X7997835Y-14839403D01*
X7997835Y-14839403D02*
X7978787Y-14829879D01*
X7978787Y-14829879D02*
X7969263Y-14820356D01*
X7969263Y-14820356D02*
X7959740Y-14801308D01*
X7959740Y-14801308D02*
X7950216Y-14763213D01*
X7950216Y-14763213D02*
X7950216Y-14715594D01*
X7950216Y-14715594D02*
X7959740Y-14677498D01*
X7959740Y-14677498D02*
X7969263Y-14658451D01*
X7969263Y-14658451D02*
X7978787Y-14648927D01*
X7978787Y-14648927D02*
X7997835Y-14639403D01*
X8150216Y-14839403D02*
X8150216Y-14706070D01*
X8150216Y-14725117D02*
X8159740Y-14715594D01*
X8159740Y-14715594D02*
X8178787Y-14706070D01*
X8178787Y-14706070D02*
X8207359Y-14706070D01*
X8207359Y-14706070D02*
X8226406Y-14715594D01*
X8226406Y-14715594D02*
X8235930Y-14734641D01*
X8235930Y-14734641D02*
X8235930Y-14839403D01*
X8235930Y-14734641D02*
X8245454Y-14715594D01*
X8245454Y-14715594D02*
X8264502Y-14706070D01*
X8264502Y-14706070D02*
X8293073Y-14706070D01*
X8293073Y-14706070D02*
X8312121Y-14715594D01*
X8312121Y-14715594D02*
X8321644Y-14734641D01*
X8321644Y-14734641D02*
X8321644Y-14839403D01*
X8416883Y-14839403D02*
X8416883Y-14706070D01*
X8416883Y-14725117D02*
X8426406Y-14715594D01*
X8426406Y-14715594D02*
X8445454Y-14706070D01*
X8445454Y-14706070D02*
X8474026Y-14706070D01*
X8474026Y-14706070D02*
X8493073Y-14715594D01*
X8493073Y-14715594D02*
X8502597Y-14734641D01*
X8502597Y-14734641D02*
X8502597Y-14839403D01*
X8502597Y-14734641D02*
X8512121Y-14715594D01*
X8512121Y-14715594D02*
X8531168Y-14706070D01*
X8531168Y-14706070D02*
X8559740Y-14706070D01*
X8559740Y-14706070D02*
X8578787Y-14715594D01*
X8578787Y-14715594D02*
X8588311Y-14734641D01*
X8588311Y-14734641D02*
X8588311Y-14839403D01*
X8978787Y-14629879D02*
X8807359Y-14887022D01*
X9235930Y-14639403D02*
X9254978Y-14639403D01*
X9254978Y-14639403D02*
X9274026Y-14648927D01*
X9274026Y-14648927D02*
X9283549Y-14658451D01*
X9283549Y-14658451D02*
X9293073Y-14677498D01*
X9293073Y-14677498D02*
X9302597Y-14715594D01*
X9302597Y-14715594D02*
X9302597Y-14763213D01*
X9302597Y-14763213D02*
X9293073Y-14801308D01*
X9293073Y-14801308D02*
X9283549Y-14820356D01*
X9283549Y-14820356D02*
X9274026Y-14829879D01*
X9274026Y-14829879D02*
X9254978Y-14839403D01*
X9254978Y-14839403D02*
X9235930Y-14839403D01*
X9235930Y-14839403D02*
X9216883Y-14829879D01*
X9216883Y-14829879D02*
X9207359Y-14820356D01*
X9207359Y-14820356D02*
X9197835Y-14801308D01*
X9197835Y-14801308D02*
X9188311Y-14763213D01*
X9188311Y-14763213D02*
X9188311Y-14715594D01*
X9188311Y-14715594D02*
X9197835Y-14677498D01*
X9197835Y-14677498D02*
X9207359Y-14658451D01*
X9207359Y-14658451D02*
X9216883Y-14648927D01*
X9216883Y-14648927D02*
X9235930Y-14639403D01*
X9388311Y-14820356D02*
X9397835Y-14829879D01*
X9397835Y-14829879D02*
X9388311Y-14839403D01*
X9388311Y-14839403D02*
X9378788Y-14829879D01*
X9378788Y-14829879D02*
X9388311Y-14820356D01*
X9388311Y-14820356D02*
X9388311Y-14839403D01*
X9521645Y-14639403D02*
X9540692Y-14639403D01*
X9540692Y-14639403D02*
X9559740Y-14648927D01*
X9559740Y-14648927D02*
X9569264Y-14658451D01*
X9569264Y-14658451D02*
X9578788Y-14677498D01*
X9578788Y-14677498D02*
X9588311Y-14715594D01*
X9588311Y-14715594D02*
X9588311Y-14763213D01*
X9588311Y-14763213D02*
X9578788Y-14801308D01*
X9578788Y-14801308D02*
X9569264Y-14820356D01*
X9569264Y-14820356D02*
X9559740Y-14829879D01*
X9559740Y-14829879D02*
X9540692Y-14839403D01*
X9540692Y-14839403D02*
X9521645Y-14839403D01*
X9521645Y-14839403D02*
X9502597Y-14829879D01*
X9502597Y-14829879D02*
X9493073Y-14820356D01*
X9493073Y-14820356D02*
X9483549Y-14801308D01*
X9483549Y-14801308D02*
X9474026Y-14763213D01*
X9474026Y-14763213D02*
X9474026Y-14715594D01*
X9474026Y-14715594D02*
X9483549Y-14677498D01*
X9483549Y-14677498D02*
X9493073Y-14658451D01*
X9493073Y-14658451D02*
X9502597Y-14648927D01*
X9502597Y-14648927D02*
X9521645Y-14639403D01*
X9759740Y-14706070D02*
X9759740Y-14839403D01*
X9712121Y-14629879D02*
X9664502Y-14772737D01*
X9664502Y-14772737D02*
X9788311Y-14772737D01*
X9902597Y-14639403D02*
X9921645Y-14639403D01*
X9921645Y-14639403D02*
X9940692Y-14648927D01*
X9940692Y-14648927D02*
X9950216Y-14658451D01*
X9950216Y-14658451D02*
X9959740Y-14677498D01*
X9959740Y-14677498D02*
X9969264Y-14715594D01*
X9969264Y-14715594D02*
X9969264Y-14763213D01*
X9969264Y-14763213D02*
X9959740Y-14801308D01*
X9959740Y-14801308D02*
X9950216Y-14820356D01*
X9950216Y-14820356D02*
X9940692Y-14829879D01*
X9940692Y-14829879D02*
X9921645Y-14839403D01*
X9921645Y-14839403D02*
X9902597Y-14839403D01*
X9902597Y-14839403D02*
X9883549Y-14829879D01*
X9883549Y-14829879D02*
X9874026Y-14820356D01*
X9874026Y-14820356D02*
X9864502Y-14801308D01*
X9864502Y-14801308D02*
X9854978Y-14763213D01*
X9854978Y-14763213D02*
X9854978Y-14715594D01*
X9854978Y-14715594D02*
X9864502Y-14677498D01*
X9864502Y-14677498D02*
X9874026Y-14658451D01*
X9874026Y-14658451D02*
X9883549Y-14648927D01*
X9883549Y-14648927D02*
X9902597Y-14639403D01*
X10064502Y-14839403D02*
X10102597Y-14839403D01*
X10102597Y-14839403D02*
X10121645Y-14829879D01*
X10121645Y-14829879D02*
X10131169Y-14820356D01*
X10131169Y-14820356D02*
X10150216Y-14791784D01*
X10150216Y-14791784D02*
X10159740Y-14753689D01*
X10159740Y-14753689D02*
X10159740Y-14677498D01*
X10159740Y-14677498D02*
X10150216Y-14658451D01*
X10150216Y-14658451D02*
X10140692Y-14648927D01*
X10140692Y-14648927D02*
X10121645Y-14639403D01*
X10121645Y-14639403D02*
X10083549Y-14639403D01*
X10083549Y-14639403D02*
X10064502Y-14648927D01*
X10064502Y-14648927D02*
X10054978Y-14658451D01*
X10054978Y-14658451D02*
X10045454Y-14677498D01*
X10045454Y-14677498D02*
X10045454Y-14725117D01*
X10045454Y-14725117D02*
X10054978Y-14744165D01*
X10054978Y-14744165D02*
X10064502Y-14753689D01*
X10064502Y-14753689D02*
X10083549Y-14763213D01*
X10083549Y-14763213D02*
X10121645Y-14763213D01*
X10121645Y-14763213D02*
X10140692Y-14753689D01*
X10140692Y-14753689D02*
X10150216Y-14744165D01*
X10150216Y-14744165D02*
X10159740Y-14725117D01*
X10235930Y-14639403D02*
X10235930Y-14677498D01*
X10312121Y-14639403D02*
X10312121Y-14677498D01*
X10607359Y-14915594D02*
X10597835Y-14906070D01*
X10597835Y-14906070D02*
X10578788Y-14877498D01*
X10578788Y-14877498D02*
X10569264Y-14858451D01*
X10569264Y-14858451D02*
X10559740Y-14829879D01*
X10559740Y-14829879D02*
X10550216Y-14782260D01*
X10550216Y-14782260D02*
X10550216Y-14744165D01*
X10550216Y-14744165D02*
X10559740Y-14696546D01*
X10559740Y-14696546D02*
X10569264Y-14667975D01*
X10569264Y-14667975D02*
X10578788Y-14648927D01*
X10578788Y-14648927D02*
X10597835Y-14620356D01*
X10597835Y-14620356D02*
X10607359Y-14610832D01*
X10664502Y-14639403D02*
X10788311Y-14639403D01*
X10788311Y-14639403D02*
X10721645Y-14715594D01*
X10721645Y-14715594D02*
X10750216Y-14715594D01*
X10750216Y-14715594D02*
X10769264Y-14725117D01*
X10769264Y-14725117D02*
X10778788Y-14734641D01*
X10778788Y-14734641D02*
X10788311Y-14753689D01*
X10788311Y-14753689D02*
X10788311Y-14801308D01*
X10788311Y-14801308D02*
X10778788Y-14820356D01*
X10778788Y-14820356D02*
X10769264Y-14829879D01*
X10769264Y-14829879D02*
X10750216Y-14839403D01*
X10750216Y-14839403D02*
X10693073Y-14839403D01*
X10693073Y-14839403D02*
X10674026Y-14829879D01*
X10674026Y-14829879D02*
X10664502Y-14820356D01*
X10902597Y-14725117D02*
X10883550Y-14715594D01*
X10883550Y-14715594D02*
X10874026Y-14706070D01*
X10874026Y-14706070D02*
X10864502Y-14687022D01*
X10864502Y-14687022D02*
X10864502Y-14677498D01*
X10864502Y-14677498D02*
X10874026Y-14658451D01*
X10874026Y-14658451D02*
X10883550Y-14648927D01*
X10883550Y-14648927D02*
X10902597Y-14639403D01*
X10902597Y-14639403D02*
X10940692Y-14639403D01*
X10940692Y-14639403D02*
X10959740Y-14648927D01*
X10959740Y-14648927D02*
X10969264Y-14658451D01*
X10969264Y-14658451D02*
X10978788Y-14677498D01*
X10978788Y-14677498D02*
X10978788Y-14687022D01*
X10978788Y-14687022D02*
X10969264Y-14706070D01*
X10969264Y-14706070D02*
X10959740Y-14715594D01*
X10959740Y-14715594D02*
X10940692Y-14725117D01*
X10940692Y-14725117D02*
X10902597Y-14725117D01*
X10902597Y-14725117D02*
X10883550Y-14734641D01*
X10883550Y-14734641D02*
X10874026Y-14744165D01*
X10874026Y-14744165D02*
X10864502Y-14763213D01*
X10864502Y-14763213D02*
X10864502Y-14801308D01*
X10864502Y-14801308D02*
X10874026Y-14820356D01*
X10874026Y-14820356D02*
X10883550Y-14829879D01*
X10883550Y-14829879D02*
X10902597Y-14839403D01*
X10902597Y-14839403D02*
X10940692Y-14839403D01*
X10940692Y-14839403D02*
X10959740Y-14829879D01*
X10959740Y-14829879D02*
X10969264Y-14820356D01*
X10969264Y-14820356D02*
X10978788Y-14801308D01*
X10978788Y-14801308D02*
X10978788Y-14763213D01*
X10978788Y-14763213D02*
X10969264Y-14744165D01*
X10969264Y-14744165D02*
X10959740Y-14734641D01*
X10959740Y-14734641D02*
X10940692Y-14725117D01*
X11216883Y-14839403D02*
X11216883Y-14639403D01*
X11302597Y-14839403D02*
X11302597Y-14734641D01*
X11302597Y-14734641D02*
X11293073Y-14715594D01*
X11293073Y-14715594D02*
X11274026Y-14706070D01*
X11274026Y-14706070D02*
X11245454Y-14706070D01*
X11245454Y-14706070D02*
X11226407Y-14715594D01*
X11226407Y-14715594D02*
X11216883Y-14725117D01*
X11426407Y-14839403D02*
X11407359Y-14829879D01*
X11407359Y-14829879D02*
X11397835Y-14820356D01*
X11397835Y-14820356D02*
X11388311Y-14801308D01*
X11388311Y-14801308D02*
X11388311Y-14744165D01*
X11388311Y-14744165D02*
X11397835Y-14725117D01*
X11397835Y-14725117D02*
X11407359Y-14715594D01*
X11407359Y-14715594D02*
X11426407Y-14706070D01*
X11426407Y-14706070D02*
X11454978Y-14706070D01*
X11454978Y-14706070D02*
X11474026Y-14715594D01*
X11474026Y-14715594D02*
X11483550Y-14725117D01*
X11483550Y-14725117D02*
X11493073Y-14744165D01*
X11493073Y-14744165D02*
X11493073Y-14801308D01*
X11493073Y-14801308D02*
X11483550Y-14820356D01*
X11483550Y-14820356D02*
X11474026Y-14829879D01*
X11474026Y-14829879D02*
X11454978Y-14839403D01*
X11454978Y-14839403D02*
X11426407Y-14839403D01*
X11607359Y-14839403D02*
X11588311Y-14829879D01*
X11588311Y-14829879D02*
X11578788Y-14810832D01*
X11578788Y-14810832D02*
X11578788Y-14639403D01*
X11759740Y-14829879D02*
X11740692Y-14839403D01*
X11740692Y-14839403D02*
X11702597Y-14839403D01*
X11702597Y-14839403D02*
X11683550Y-14829879D01*
X11683550Y-14829879D02*
X11674026Y-14810832D01*
X11674026Y-14810832D02*
X11674026Y-14734641D01*
X11674026Y-14734641D02*
X11683550Y-14715594D01*
X11683550Y-14715594D02*
X11702597Y-14706070D01*
X11702597Y-14706070D02*
X11740692Y-14706070D01*
X11740692Y-14706070D02*
X11759740Y-14715594D01*
X11759740Y-14715594D02*
X11769264Y-14734641D01*
X11769264Y-14734641D02*
X11769264Y-14753689D01*
X11769264Y-14753689D02*
X11674026Y-14772737D01*
X11845454Y-14829879D02*
X11864502Y-14839403D01*
X11864502Y-14839403D02*
X11902597Y-14839403D01*
X11902597Y-14839403D02*
X11921645Y-14829879D01*
X11921645Y-14829879D02*
X11931169Y-14810832D01*
X11931169Y-14810832D02*
X11931169Y-14801308D01*
X11931169Y-14801308D02*
X11921645Y-14782260D01*
X11921645Y-14782260D02*
X11902597Y-14772737D01*
X11902597Y-14772737D02*
X11874026Y-14772737D01*
X11874026Y-14772737D02*
X11854978Y-14763213D01*
X11854978Y-14763213D02*
X11845454Y-14744165D01*
X11845454Y-14744165D02*
X11845454Y-14734641D01*
X11845454Y-14734641D02*
X11854978Y-14715594D01*
X11854978Y-14715594D02*
X11874026Y-14706070D01*
X11874026Y-14706070D02*
X11902597Y-14706070D01*
X11902597Y-14706070D02*
X11921645Y-14715594D01*
X11997835Y-14915594D02*
X12007359Y-14906070D01*
X12007359Y-14906070D02*
X12026407Y-14877498D01*
X12026407Y-14877498D02*
X12035931Y-14858451D01*
X12035931Y-14858451D02*
X12045454Y-14829879D01*
X12045454Y-14829879D02*
X12054978Y-14782260D01*
X12054978Y-14782260D02*
X12054978Y-14744165D01*
X12054978Y-14744165D02*
X12045454Y-14696546D01*
X12045454Y-14696546D02*
X12035931Y-14667975D01*
X12035931Y-14667975D02*
X12026407Y-14648927D01*
X12026407Y-14648927D02*
X12007359Y-14620356D01*
X12007359Y-14620356D02*
X11997835Y-14610832D01*
D16*
X6915454Y-14945879D02*
X7045454Y-15075879D01*
X7045454Y-14945879D02*
X6915454Y-15075879D01*
X7045454Y-15010879D02*
G75*
G03*
X7045454Y-15010879I-65000J0D01*
G01*
D11*
X7397835Y-15103403D02*
X7283549Y-15103403D01*
X7340692Y-15103403D02*
X7340692Y-14903403D01*
X7340692Y-14903403D02*
X7321644Y-14931975D01*
X7321644Y-14931975D02*
X7302597Y-14951022D01*
X7302597Y-14951022D02*
X7283549Y-14960546D01*
X7483549Y-15084356D02*
X7493073Y-15093879D01*
X7493073Y-15093879D02*
X7483549Y-15103403D01*
X7483549Y-15103403D02*
X7474025Y-15093879D01*
X7474025Y-15093879D02*
X7483549Y-15084356D01*
X7483549Y-15084356D02*
X7483549Y-15103403D01*
X7559740Y-14903403D02*
X7683549Y-14903403D01*
X7683549Y-14903403D02*
X7616882Y-14979594D01*
X7616882Y-14979594D02*
X7645454Y-14979594D01*
X7645454Y-14979594D02*
X7664502Y-14989117D01*
X7664502Y-14989117D02*
X7674025Y-14998641D01*
X7674025Y-14998641D02*
X7683549Y-15017689D01*
X7683549Y-15017689D02*
X7683549Y-15065308D01*
X7683549Y-15065308D02*
X7674025Y-15084356D01*
X7674025Y-15084356D02*
X7664502Y-15093879D01*
X7664502Y-15093879D02*
X7645454Y-15103403D01*
X7645454Y-15103403D02*
X7588311Y-15103403D01*
X7588311Y-15103403D02*
X7569263Y-15093879D01*
X7569263Y-15093879D02*
X7559740Y-15084356D01*
X7807359Y-14903403D02*
X7826406Y-14903403D01*
X7826406Y-14903403D02*
X7845454Y-14912927D01*
X7845454Y-14912927D02*
X7854978Y-14922451D01*
X7854978Y-14922451D02*
X7864502Y-14941498D01*
X7864502Y-14941498D02*
X7874025Y-14979594D01*
X7874025Y-14979594D02*
X7874025Y-15027213D01*
X7874025Y-15027213D02*
X7864502Y-15065308D01*
X7864502Y-15065308D02*
X7854978Y-15084356D01*
X7854978Y-15084356D02*
X7845454Y-15093879D01*
X7845454Y-15093879D02*
X7826406Y-15103403D01*
X7826406Y-15103403D02*
X7807359Y-15103403D01*
X7807359Y-15103403D02*
X7788311Y-15093879D01*
X7788311Y-15093879D02*
X7778787Y-15084356D01*
X7778787Y-15084356D02*
X7769263Y-15065308D01*
X7769263Y-15065308D02*
X7759740Y-15027213D01*
X7759740Y-15027213D02*
X7759740Y-14979594D01*
X7759740Y-14979594D02*
X7769263Y-14941498D01*
X7769263Y-14941498D02*
X7778787Y-14922451D01*
X7778787Y-14922451D02*
X7788311Y-14912927D01*
X7788311Y-14912927D02*
X7807359Y-14903403D01*
X7997835Y-14903403D02*
X8016883Y-14903403D01*
X8016883Y-14903403D02*
X8035930Y-14912927D01*
X8035930Y-14912927D02*
X8045454Y-14922451D01*
X8045454Y-14922451D02*
X8054978Y-14941498D01*
X8054978Y-14941498D02*
X8064502Y-14979594D01*
X8064502Y-14979594D02*
X8064502Y-15027213D01*
X8064502Y-15027213D02*
X8054978Y-15065308D01*
X8054978Y-15065308D02*
X8045454Y-15084356D01*
X8045454Y-15084356D02*
X8035930Y-15093879D01*
X8035930Y-15093879D02*
X8016883Y-15103403D01*
X8016883Y-15103403D02*
X7997835Y-15103403D01*
X7997835Y-15103403D02*
X7978787Y-15093879D01*
X7978787Y-15093879D02*
X7969263Y-15084356D01*
X7969263Y-15084356D02*
X7959740Y-15065308D01*
X7959740Y-15065308D02*
X7950216Y-15027213D01*
X7950216Y-15027213D02*
X7950216Y-14979594D01*
X7950216Y-14979594D02*
X7959740Y-14941498D01*
X7959740Y-14941498D02*
X7969263Y-14922451D01*
X7969263Y-14922451D02*
X7978787Y-14912927D01*
X7978787Y-14912927D02*
X7997835Y-14903403D01*
X8150216Y-15103403D02*
X8150216Y-14970070D01*
X8150216Y-14989117D02*
X8159740Y-14979594D01*
X8159740Y-14979594D02*
X8178787Y-14970070D01*
X8178787Y-14970070D02*
X8207359Y-14970070D01*
X8207359Y-14970070D02*
X8226406Y-14979594D01*
X8226406Y-14979594D02*
X8235930Y-14998641D01*
X8235930Y-14998641D02*
X8235930Y-15103403D01*
X8235930Y-14998641D02*
X8245454Y-14979594D01*
X8245454Y-14979594D02*
X8264502Y-14970070D01*
X8264502Y-14970070D02*
X8293073Y-14970070D01*
X8293073Y-14970070D02*
X8312121Y-14979594D01*
X8312121Y-14979594D02*
X8321644Y-14998641D01*
X8321644Y-14998641D02*
X8321644Y-15103403D01*
X8416883Y-15103403D02*
X8416883Y-14970070D01*
X8416883Y-14989117D02*
X8426406Y-14979594D01*
X8426406Y-14979594D02*
X8445454Y-14970070D01*
X8445454Y-14970070D02*
X8474026Y-14970070D01*
X8474026Y-14970070D02*
X8493073Y-14979594D01*
X8493073Y-14979594D02*
X8502597Y-14998641D01*
X8502597Y-14998641D02*
X8502597Y-15103403D01*
X8502597Y-14998641D02*
X8512121Y-14979594D01*
X8512121Y-14979594D02*
X8531168Y-14970070D01*
X8531168Y-14970070D02*
X8559740Y-14970070D01*
X8559740Y-14970070D02*
X8578787Y-14979594D01*
X8578787Y-14979594D02*
X8588311Y-14998641D01*
X8588311Y-14998641D02*
X8588311Y-15103403D01*
X8978787Y-14893879D02*
X8807359Y-15151022D01*
X9235930Y-14903403D02*
X9254978Y-14903403D01*
X9254978Y-14903403D02*
X9274026Y-14912927D01*
X9274026Y-14912927D02*
X9283549Y-14922451D01*
X9283549Y-14922451D02*
X9293073Y-14941498D01*
X9293073Y-14941498D02*
X9302597Y-14979594D01*
X9302597Y-14979594D02*
X9302597Y-15027213D01*
X9302597Y-15027213D02*
X9293073Y-15065308D01*
X9293073Y-15065308D02*
X9283549Y-15084356D01*
X9283549Y-15084356D02*
X9274026Y-15093879D01*
X9274026Y-15093879D02*
X9254978Y-15103403D01*
X9254978Y-15103403D02*
X9235930Y-15103403D01*
X9235930Y-15103403D02*
X9216883Y-15093879D01*
X9216883Y-15093879D02*
X9207359Y-15084356D01*
X9207359Y-15084356D02*
X9197835Y-15065308D01*
X9197835Y-15065308D02*
X9188311Y-15027213D01*
X9188311Y-15027213D02*
X9188311Y-14979594D01*
X9188311Y-14979594D02*
X9197835Y-14941498D01*
X9197835Y-14941498D02*
X9207359Y-14922451D01*
X9207359Y-14922451D02*
X9216883Y-14912927D01*
X9216883Y-14912927D02*
X9235930Y-14903403D01*
X9388311Y-15084356D02*
X9397835Y-15093879D01*
X9397835Y-15093879D02*
X9388311Y-15103403D01*
X9388311Y-15103403D02*
X9378788Y-15093879D01*
X9378788Y-15093879D02*
X9388311Y-15084356D01*
X9388311Y-15084356D02*
X9388311Y-15103403D01*
X9521645Y-14903403D02*
X9540692Y-14903403D01*
X9540692Y-14903403D02*
X9559740Y-14912927D01*
X9559740Y-14912927D02*
X9569264Y-14922451D01*
X9569264Y-14922451D02*
X9578788Y-14941498D01*
X9578788Y-14941498D02*
X9588311Y-14979594D01*
X9588311Y-14979594D02*
X9588311Y-15027213D01*
X9588311Y-15027213D02*
X9578788Y-15065308D01*
X9578788Y-15065308D02*
X9569264Y-15084356D01*
X9569264Y-15084356D02*
X9559740Y-15093879D01*
X9559740Y-15093879D02*
X9540692Y-15103403D01*
X9540692Y-15103403D02*
X9521645Y-15103403D01*
X9521645Y-15103403D02*
X9502597Y-15093879D01*
X9502597Y-15093879D02*
X9493073Y-15084356D01*
X9493073Y-15084356D02*
X9483549Y-15065308D01*
X9483549Y-15065308D02*
X9474026Y-15027213D01*
X9474026Y-15027213D02*
X9474026Y-14979594D01*
X9474026Y-14979594D02*
X9483549Y-14941498D01*
X9483549Y-14941498D02*
X9493073Y-14922451D01*
X9493073Y-14922451D02*
X9502597Y-14912927D01*
X9502597Y-14912927D02*
X9521645Y-14903403D01*
X9769264Y-14903403D02*
X9674026Y-14903403D01*
X9674026Y-14903403D02*
X9664502Y-14998641D01*
X9664502Y-14998641D02*
X9674026Y-14989117D01*
X9674026Y-14989117D02*
X9693073Y-14979594D01*
X9693073Y-14979594D02*
X9740692Y-14979594D01*
X9740692Y-14979594D02*
X9759740Y-14989117D01*
X9759740Y-14989117D02*
X9769264Y-14998641D01*
X9769264Y-14998641D02*
X9778788Y-15017689D01*
X9778788Y-15017689D02*
X9778788Y-15065308D01*
X9778788Y-15065308D02*
X9769264Y-15084356D01*
X9769264Y-15084356D02*
X9759740Y-15093879D01*
X9759740Y-15093879D02*
X9740692Y-15103403D01*
X9740692Y-15103403D02*
X9693073Y-15103403D01*
X9693073Y-15103403D02*
X9674026Y-15093879D01*
X9674026Y-15093879D02*
X9664502Y-15084356D01*
X9969264Y-15103403D02*
X9854978Y-15103403D01*
X9912121Y-15103403D02*
X9912121Y-14903403D01*
X9912121Y-14903403D02*
X9893073Y-14931975D01*
X9893073Y-14931975D02*
X9874026Y-14951022D01*
X9874026Y-14951022D02*
X9854978Y-14960546D01*
X10045454Y-14922451D02*
X10054978Y-14912927D01*
X10054978Y-14912927D02*
X10074026Y-14903403D01*
X10074026Y-14903403D02*
X10121645Y-14903403D01*
X10121645Y-14903403D02*
X10140692Y-14912927D01*
X10140692Y-14912927D02*
X10150216Y-14922451D01*
X10150216Y-14922451D02*
X10159740Y-14941498D01*
X10159740Y-14941498D02*
X10159740Y-14960546D01*
X10159740Y-14960546D02*
X10150216Y-14989117D01*
X10150216Y-14989117D02*
X10035930Y-15103403D01*
X10035930Y-15103403D02*
X10159740Y-15103403D01*
X10235930Y-14903403D02*
X10235930Y-14941498D01*
X10312121Y-14903403D02*
X10312121Y-14941498D01*
X10607359Y-15179594D02*
X10597835Y-15170070D01*
X10597835Y-15170070D02*
X10578788Y-15141498D01*
X10578788Y-15141498D02*
X10569264Y-15122451D01*
X10569264Y-15122451D02*
X10559740Y-15093879D01*
X10559740Y-15093879D02*
X10550216Y-15046260D01*
X10550216Y-15046260D02*
X10550216Y-15008165D01*
X10550216Y-15008165D02*
X10559740Y-14960546D01*
X10559740Y-14960546D02*
X10569264Y-14931975D01*
X10569264Y-14931975D02*
X10578788Y-14912927D01*
X10578788Y-14912927D02*
X10597835Y-14884356D01*
X10597835Y-14884356D02*
X10607359Y-14874832D01*
X10674026Y-14922451D02*
X10683550Y-14912927D01*
X10683550Y-14912927D02*
X10702597Y-14903403D01*
X10702597Y-14903403D02*
X10750216Y-14903403D01*
X10750216Y-14903403D02*
X10769264Y-14912927D01*
X10769264Y-14912927D02*
X10778788Y-14922451D01*
X10778788Y-14922451D02*
X10788311Y-14941498D01*
X10788311Y-14941498D02*
X10788311Y-14960546D01*
X10788311Y-14960546D02*
X10778788Y-14989117D01*
X10778788Y-14989117D02*
X10664502Y-15103403D01*
X10664502Y-15103403D02*
X10788311Y-15103403D01*
X11026407Y-15103403D02*
X11026407Y-14903403D01*
X11112121Y-15103403D02*
X11112121Y-14998641D01*
X11112121Y-14998641D02*
X11102597Y-14979594D01*
X11102597Y-14979594D02*
X11083550Y-14970070D01*
X11083550Y-14970070D02*
X11054978Y-14970070D01*
X11054978Y-14970070D02*
X11035931Y-14979594D01*
X11035931Y-14979594D02*
X11026407Y-14989117D01*
X11235930Y-15103403D02*
X11216883Y-15093879D01*
X11216883Y-15093879D02*
X11207359Y-15084356D01*
X11207359Y-15084356D02*
X11197835Y-15065308D01*
X11197835Y-15065308D02*
X11197835Y-15008165D01*
X11197835Y-15008165D02*
X11207359Y-14989117D01*
X11207359Y-14989117D02*
X11216883Y-14979594D01*
X11216883Y-14979594D02*
X11235930Y-14970070D01*
X11235930Y-14970070D02*
X11264502Y-14970070D01*
X11264502Y-14970070D02*
X11283550Y-14979594D01*
X11283550Y-14979594D02*
X11293073Y-14989117D01*
X11293073Y-14989117D02*
X11302597Y-15008165D01*
X11302597Y-15008165D02*
X11302597Y-15065308D01*
X11302597Y-15065308D02*
X11293073Y-15084356D01*
X11293073Y-15084356D02*
X11283550Y-15093879D01*
X11283550Y-15093879D02*
X11264502Y-15103403D01*
X11264502Y-15103403D02*
X11235930Y-15103403D01*
X11416883Y-15103403D02*
X11397835Y-15093879D01*
X11397835Y-15093879D02*
X11388311Y-15074832D01*
X11388311Y-15074832D02*
X11388311Y-14903403D01*
X11569264Y-15093879D02*
X11550216Y-15103403D01*
X11550216Y-15103403D02*
X11512121Y-15103403D01*
X11512121Y-15103403D02*
X11493073Y-15093879D01*
X11493073Y-15093879D02*
X11483550Y-15074832D01*
X11483550Y-15074832D02*
X11483550Y-14998641D01*
X11483550Y-14998641D02*
X11493073Y-14979594D01*
X11493073Y-14979594D02*
X11512121Y-14970070D01*
X11512121Y-14970070D02*
X11550216Y-14970070D01*
X11550216Y-14970070D02*
X11569264Y-14979594D01*
X11569264Y-14979594D02*
X11578788Y-14998641D01*
X11578788Y-14998641D02*
X11578788Y-15017689D01*
X11578788Y-15017689D02*
X11483550Y-15036737D01*
X11654978Y-15093879D02*
X11674026Y-15103403D01*
X11674026Y-15103403D02*
X11712121Y-15103403D01*
X11712121Y-15103403D02*
X11731169Y-15093879D01*
X11731169Y-15093879D02*
X11740692Y-15074832D01*
X11740692Y-15074832D02*
X11740692Y-15065308D01*
X11740692Y-15065308D02*
X11731169Y-15046260D01*
X11731169Y-15046260D02*
X11712121Y-15036737D01*
X11712121Y-15036737D02*
X11683550Y-15036737D01*
X11683550Y-15036737D02*
X11664502Y-15027213D01*
X11664502Y-15027213D02*
X11654978Y-15008165D01*
X11654978Y-15008165D02*
X11654978Y-14998641D01*
X11654978Y-14998641D02*
X11664502Y-14979594D01*
X11664502Y-14979594D02*
X11683550Y-14970070D01*
X11683550Y-14970070D02*
X11712121Y-14970070D01*
X11712121Y-14970070D02*
X11731169Y-14979594D01*
X11807359Y-15179594D02*
X11816883Y-15170070D01*
X11816883Y-15170070D02*
X11835931Y-15141498D01*
X11835931Y-15141498D02*
X11845454Y-15122451D01*
X11845454Y-15122451D02*
X11854978Y-15093879D01*
X11854978Y-15093879D02*
X11864502Y-15046260D01*
X11864502Y-15046260D02*
X11864502Y-15008165D01*
X11864502Y-15008165D02*
X11854978Y-14960546D01*
X11854978Y-14960546D02*
X11845454Y-14931975D01*
X11845454Y-14931975D02*
X11835931Y-14912927D01*
X11835931Y-14912927D02*
X11816883Y-14884356D01*
X11816883Y-14884356D02*
X11807359Y-14874832D01*
D17*
X6913454Y-15208879D02*
X7045454Y-15340879D01*
X7045454Y-15208879D02*
X6913454Y-15340879D01*
X6979454Y-15208879D02*
X6979454Y-15340879D01*
X6913454Y-15274879D02*
X7045454Y-15274879D01*
D11*
X7397835Y-15367403D02*
X7283549Y-15367403D01*
X7340692Y-15367403D02*
X7340692Y-15167403D01*
X7340692Y-15167403D02*
X7321644Y-15195975D01*
X7321644Y-15195975D02*
X7302597Y-15215022D01*
X7302597Y-15215022D02*
X7283549Y-15224546D01*
X7483549Y-15348356D02*
X7493073Y-15357879D01*
X7493073Y-15357879D02*
X7483549Y-15367403D01*
X7483549Y-15367403D02*
X7474025Y-15357879D01*
X7474025Y-15357879D02*
X7483549Y-15348356D01*
X7483549Y-15348356D02*
X7483549Y-15367403D01*
X7559740Y-15167403D02*
X7683549Y-15167403D01*
X7683549Y-15167403D02*
X7616882Y-15243594D01*
X7616882Y-15243594D02*
X7645454Y-15243594D01*
X7645454Y-15243594D02*
X7664502Y-15253117D01*
X7664502Y-15253117D02*
X7674025Y-15262641D01*
X7674025Y-15262641D02*
X7683549Y-15281689D01*
X7683549Y-15281689D02*
X7683549Y-15329308D01*
X7683549Y-15329308D02*
X7674025Y-15348356D01*
X7674025Y-15348356D02*
X7664502Y-15357879D01*
X7664502Y-15357879D02*
X7645454Y-15367403D01*
X7645454Y-15367403D02*
X7588311Y-15367403D01*
X7588311Y-15367403D02*
X7569263Y-15357879D01*
X7569263Y-15357879D02*
X7559740Y-15348356D01*
X7759740Y-15186451D02*
X7769263Y-15176927D01*
X7769263Y-15176927D02*
X7788311Y-15167403D01*
X7788311Y-15167403D02*
X7835930Y-15167403D01*
X7835930Y-15167403D02*
X7854978Y-15176927D01*
X7854978Y-15176927D02*
X7864502Y-15186451D01*
X7864502Y-15186451D02*
X7874025Y-15205498D01*
X7874025Y-15205498D02*
X7874025Y-15224546D01*
X7874025Y-15224546D02*
X7864502Y-15253117D01*
X7864502Y-15253117D02*
X7750216Y-15367403D01*
X7750216Y-15367403D02*
X7874025Y-15367403D01*
X7997835Y-15167403D02*
X8016883Y-15167403D01*
X8016883Y-15167403D02*
X8035930Y-15176927D01*
X8035930Y-15176927D02*
X8045454Y-15186451D01*
X8045454Y-15186451D02*
X8054978Y-15205498D01*
X8054978Y-15205498D02*
X8064502Y-15243594D01*
X8064502Y-15243594D02*
X8064502Y-15291213D01*
X8064502Y-15291213D02*
X8054978Y-15329308D01*
X8054978Y-15329308D02*
X8045454Y-15348356D01*
X8045454Y-15348356D02*
X8035930Y-15357879D01*
X8035930Y-15357879D02*
X8016883Y-15367403D01*
X8016883Y-15367403D02*
X7997835Y-15367403D01*
X7997835Y-15367403D02*
X7978787Y-15357879D01*
X7978787Y-15357879D02*
X7969263Y-15348356D01*
X7969263Y-15348356D02*
X7959740Y-15329308D01*
X7959740Y-15329308D02*
X7950216Y-15291213D01*
X7950216Y-15291213D02*
X7950216Y-15243594D01*
X7950216Y-15243594D02*
X7959740Y-15205498D01*
X7959740Y-15205498D02*
X7969263Y-15186451D01*
X7969263Y-15186451D02*
X7978787Y-15176927D01*
X7978787Y-15176927D02*
X7997835Y-15167403D01*
X8150216Y-15367403D02*
X8150216Y-15234070D01*
X8150216Y-15253117D02*
X8159740Y-15243594D01*
X8159740Y-15243594D02*
X8178787Y-15234070D01*
X8178787Y-15234070D02*
X8207359Y-15234070D01*
X8207359Y-15234070D02*
X8226406Y-15243594D01*
X8226406Y-15243594D02*
X8235930Y-15262641D01*
X8235930Y-15262641D02*
X8235930Y-15367403D01*
X8235930Y-15262641D02*
X8245454Y-15243594D01*
X8245454Y-15243594D02*
X8264502Y-15234070D01*
X8264502Y-15234070D02*
X8293073Y-15234070D01*
X8293073Y-15234070D02*
X8312121Y-15243594D01*
X8312121Y-15243594D02*
X8321644Y-15262641D01*
X8321644Y-15262641D02*
X8321644Y-15367403D01*
X8416883Y-15367403D02*
X8416883Y-15234070D01*
X8416883Y-15253117D02*
X8426406Y-15243594D01*
X8426406Y-15243594D02*
X8445454Y-15234070D01*
X8445454Y-15234070D02*
X8474026Y-15234070D01*
X8474026Y-15234070D02*
X8493073Y-15243594D01*
X8493073Y-15243594D02*
X8502597Y-15262641D01*
X8502597Y-15262641D02*
X8502597Y-15367403D01*
X8502597Y-15262641D02*
X8512121Y-15243594D01*
X8512121Y-15243594D02*
X8531168Y-15234070D01*
X8531168Y-15234070D02*
X8559740Y-15234070D01*
X8559740Y-15234070D02*
X8578787Y-15243594D01*
X8578787Y-15243594D02*
X8588311Y-15262641D01*
X8588311Y-15262641D02*
X8588311Y-15367403D01*
X8978787Y-15157879D02*
X8807359Y-15415022D01*
X9235930Y-15167403D02*
X9254978Y-15167403D01*
X9254978Y-15167403D02*
X9274026Y-15176927D01*
X9274026Y-15176927D02*
X9283549Y-15186451D01*
X9283549Y-15186451D02*
X9293073Y-15205498D01*
X9293073Y-15205498D02*
X9302597Y-15243594D01*
X9302597Y-15243594D02*
X9302597Y-15291213D01*
X9302597Y-15291213D02*
X9293073Y-15329308D01*
X9293073Y-15329308D02*
X9283549Y-15348356D01*
X9283549Y-15348356D02*
X9274026Y-15357879D01*
X9274026Y-15357879D02*
X9254978Y-15367403D01*
X9254978Y-15367403D02*
X9235930Y-15367403D01*
X9235930Y-15367403D02*
X9216883Y-15357879D01*
X9216883Y-15357879D02*
X9207359Y-15348356D01*
X9207359Y-15348356D02*
X9197835Y-15329308D01*
X9197835Y-15329308D02*
X9188311Y-15291213D01*
X9188311Y-15291213D02*
X9188311Y-15243594D01*
X9188311Y-15243594D02*
X9197835Y-15205498D01*
X9197835Y-15205498D02*
X9207359Y-15186451D01*
X9207359Y-15186451D02*
X9216883Y-15176927D01*
X9216883Y-15176927D02*
X9235930Y-15167403D01*
X9388311Y-15348356D02*
X9397835Y-15357879D01*
X9397835Y-15357879D02*
X9388311Y-15367403D01*
X9388311Y-15367403D02*
X9378788Y-15357879D01*
X9378788Y-15357879D02*
X9388311Y-15348356D01*
X9388311Y-15348356D02*
X9388311Y-15367403D01*
X9521645Y-15167403D02*
X9540692Y-15167403D01*
X9540692Y-15167403D02*
X9559740Y-15176927D01*
X9559740Y-15176927D02*
X9569264Y-15186451D01*
X9569264Y-15186451D02*
X9578788Y-15205498D01*
X9578788Y-15205498D02*
X9588311Y-15243594D01*
X9588311Y-15243594D02*
X9588311Y-15291213D01*
X9588311Y-15291213D02*
X9578788Y-15329308D01*
X9578788Y-15329308D02*
X9569264Y-15348356D01*
X9569264Y-15348356D02*
X9559740Y-15357879D01*
X9559740Y-15357879D02*
X9540692Y-15367403D01*
X9540692Y-15367403D02*
X9521645Y-15367403D01*
X9521645Y-15367403D02*
X9502597Y-15357879D01*
X9502597Y-15357879D02*
X9493073Y-15348356D01*
X9493073Y-15348356D02*
X9483549Y-15329308D01*
X9483549Y-15329308D02*
X9474026Y-15291213D01*
X9474026Y-15291213D02*
X9474026Y-15243594D01*
X9474026Y-15243594D02*
X9483549Y-15205498D01*
X9483549Y-15205498D02*
X9493073Y-15186451D01*
X9493073Y-15186451D02*
X9502597Y-15176927D01*
X9502597Y-15176927D02*
X9521645Y-15167403D01*
X9769264Y-15167403D02*
X9674026Y-15167403D01*
X9674026Y-15167403D02*
X9664502Y-15262641D01*
X9664502Y-15262641D02*
X9674026Y-15253117D01*
X9674026Y-15253117D02*
X9693073Y-15243594D01*
X9693073Y-15243594D02*
X9740692Y-15243594D01*
X9740692Y-15243594D02*
X9759740Y-15253117D01*
X9759740Y-15253117D02*
X9769264Y-15262641D01*
X9769264Y-15262641D02*
X9778788Y-15281689D01*
X9778788Y-15281689D02*
X9778788Y-15329308D01*
X9778788Y-15329308D02*
X9769264Y-15348356D01*
X9769264Y-15348356D02*
X9759740Y-15357879D01*
X9759740Y-15357879D02*
X9740692Y-15367403D01*
X9740692Y-15367403D02*
X9693073Y-15367403D01*
X9693073Y-15367403D02*
X9674026Y-15357879D01*
X9674026Y-15357879D02*
X9664502Y-15348356D01*
X9854978Y-15186451D02*
X9864502Y-15176927D01*
X9864502Y-15176927D02*
X9883549Y-15167403D01*
X9883549Y-15167403D02*
X9931169Y-15167403D01*
X9931169Y-15167403D02*
X9950216Y-15176927D01*
X9950216Y-15176927D02*
X9959740Y-15186451D01*
X9959740Y-15186451D02*
X9969264Y-15205498D01*
X9969264Y-15205498D02*
X9969264Y-15224546D01*
X9969264Y-15224546D02*
X9959740Y-15253117D01*
X9959740Y-15253117D02*
X9845454Y-15367403D01*
X9845454Y-15367403D02*
X9969264Y-15367403D01*
X10093073Y-15167403D02*
X10112121Y-15167403D01*
X10112121Y-15167403D02*
X10131169Y-15176927D01*
X10131169Y-15176927D02*
X10140692Y-15186451D01*
X10140692Y-15186451D02*
X10150216Y-15205498D01*
X10150216Y-15205498D02*
X10159740Y-15243594D01*
X10159740Y-15243594D02*
X10159740Y-15291213D01*
X10159740Y-15291213D02*
X10150216Y-15329308D01*
X10150216Y-15329308D02*
X10140692Y-15348356D01*
X10140692Y-15348356D02*
X10131169Y-15357879D01*
X10131169Y-15357879D02*
X10112121Y-15367403D01*
X10112121Y-15367403D02*
X10093073Y-15367403D01*
X10093073Y-15367403D02*
X10074026Y-15357879D01*
X10074026Y-15357879D02*
X10064502Y-15348356D01*
X10064502Y-15348356D02*
X10054978Y-15329308D01*
X10054978Y-15329308D02*
X10045454Y-15291213D01*
X10045454Y-15291213D02*
X10045454Y-15243594D01*
X10045454Y-15243594D02*
X10054978Y-15205498D01*
X10054978Y-15205498D02*
X10064502Y-15186451D01*
X10064502Y-15186451D02*
X10074026Y-15176927D01*
X10074026Y-15176927D02*
X10093073Y-15167403D01*
X10235930Y-15167403D02*
X10235930Y-15205498D01*
X10312121Y-15167403D02*
X10312121Y-15205498D01*
X10607359Y-15443594D02*
X10597835Y-15434070D01*
X10597835Y-15434070D02*
X10578788Y-15405498D01*
X10578788Y-15405498D02*
X10569264Y-15386451D01*
X10569264Y-15386451D02*
X10559740Y-15357879D01*
X10559740Y-15357879D02*
X10550216Y-15310260D01*
X10550216Y-15310260D02*
X10550216Y-15272165D01*
X10550216Y-15272165D02*
X10559740Y-15224546D01*
X10559740Y-15224546D02*
X10569264Y-15195975D01*
X10569264Y-15195975D02*
X10578788Y-15176927D01*
X10578788Y-15176927D02*
X10597835Y-15148356D01*
X10597835Y-15148356D02*
X10607359Y-15138832D01*
X10788311Y-15367403D02*
X10674026Y-15367403D01*
X10731169Y-15367403D02*
X10731169Y-15167403D01*
X10731169Y-15167403D02*
X10712121Y-15195975D01*
X10712121Y-15195975D02*
X10693073Y-15215022D01*
X10693073Y-15215022D02*
X10674026Y-15224546D01*
X10959740Y-15167403D02*
X10921645Y-15167403D01*
X10921645Y-15167403D02*
X10902597Y-15176927D01*
X10902597Y-15176927D02*
X10893073Y-15186451D01*
X10893073Y-15186451D02*
X10874026Y-15215022D01*
X10874026Y-15215022D02*
X10864502Y-15253117D01*
X10864502Y-15253117D02*
X10864502Y-15329308D01*
X10864502Y-15329308D02*
X10874026Y-15348356D01*
X10874026Y-15348356D02*
X10883550Y-15357879D01*
X10883550Y-15357879D02*
X10902597Y-15367403D01*
X10902597Y-15367403D02*
X10940692Y-15367403D01*
X10940692Y-15367403D02*
X10959740Y-15357879D01*
X10959740Y-15357879D02*
X10969264Y-15348356D01*
X10969264Y-15348356D02*
X10978788Y-15329308D01*
X10978788Y-15329308D02*
X10978788Y-15281689D01*
X10978788Y-15281689D02*
X10969264Y-15262641D01*
X10969264Y-15262641D02*
X10959740Y-15253117D01*
X10959740Y-15253117D02*
X10940692Y-15243594D01*
X10940692Y-15243594D02*
X10902597Y-15243594D01*
X10902597Y-15243594D02*
X10883550Y-15253117D01*
X10883550Y-15253117D02*
X10874026Y-15262641D01*
X10874026Y-15262641D02*
X10864502Y-15281689D01*
X11216883Y-15367403D02*
X11216883Y-15167403D01*
X11302597Y-15367403D02*
X11302597Y-15262641D01*
X11302597Y-15262641D02*
X11293073Y-15243594D01*
X11293073Y-15243594D02*
X11274026Y-15234070D01*
X11274026Y-15234070D02*
X11245454Y-15234070D01*
X11245454Y-15234070D02*
X11226407Y-15243594D01*
X11226407Y-15243594D02*
X11216883Y-15253117D01*
X11426407Y-15367403D02*
X11407359Y-15357879D01*
X11407359Y-15357879D02*
X11397835Y-15348356D01*
X11397835Y-15348356D02*
X11388311Y-15329308D01*
X11388311Y-15329308D02*
X11388311Y-15272165D01*
X11388311Y-15272165D02*
X11397835Y-15253117D01*
X11397835Y-15253117D02*
X11407359Y-15243594D01*
X11407359Y-15243594D02*
X11426407Y-15234070D01*
X11426407Y-15234070D02*
X11454978Y-15234070D01*
X11454978Y-15234070D02*
X11474026Y-15243594D01*
X11474026Y-15243594D02*
X11483550Y-15253117D01*
X11483550Y-15253117D02*
X11493073Y-15272165D01*
X11493073Y-15272165D02*
X11493073Y-15329308D01*
X11493073Y-15329308D02*
X11483550Y-15348356D01*
X11483550Y-15348356D02*
X11474026Y-15357879D01*
X11474026Y-15357879D02*
X11454978Y-15367403D01*
X11454978Y-15367403D02*
X11426407Y-15367403D01*
X11607359Y-15367403D02*
X11588311Y-15357879D01*
X11588311Y-15357879D02*
X11578788Y-15338832D01*
X11578788Y-15338832D02*
X11578788Y-15167403D01*
X11759740Y-15357879D02*
X11740692Y-15367403D01*
X11740692Y-15367403D02*
X11702597Y-15367403D01*
X11702597Y-15367403D02*
X11683550Y-15357879D01*
X11683550Y-15357879D02*
X11674026Y-15338832D01*
X11674026Y-15338832D02*
X11674026Y-15262641D01*
X11674026Y-15262641D02*
X11683550Y-15243594D01*
X11683550Y-15243594D02*
X11702597Y-15234070D01*
X11702597Y-15234070D02*
X11740692Y-15234070D01*
X11740692Y-15234070D02*
X11759740Y-15243594D01*
X11759740Y-15243594D02*
X11769264Y-15262641D01*
X11769264Y-15262641D02*
X11769264Y-15281689D01*
X11769264Y-15281689D02*
X11674026Y-15300737D01*
X11845454Y-15357879D02*
X11864502Y-15367403D01*
X11864502Y-15367403D02*
X11902597Y-15367403D01*
X11902597Y-15367403D02*
X11921645Y-15357879D01*
X11921645Y-15357879D02*
X11931169Y-15338832D01*
X11931169Y-15338832D02*
X11931169Y-15329308D01*
X11931169Y-15329308D02*
X11921645Y-15310260D01*
X11921645Y-15310260D02*
X11902597Y-15300737D01*
X11902597Y-15300737D02*
X11874026Y-15300737D01*
X11874026Y-15300737D02*
X11854978Y-15291213D01*
X11854978Y-15291213D02*
X11845454Y-15272165D01*
X11845454Y-15272165D02*
X11845454Y-15262641D01*
X11845454Y-15262641D02*
X11854978Y-15243594D01*
X11854978Y-15243594D02*
X11874026Y-15234070D01*
X11874026Y-15234070D02*
X11902597Y-15234070D01*
X11902597Y-15234070D02*
X11921645Y-15243594D01*
X11997835Y-15443594D02*
X12007359Y-15434070D01*
X12007359Y-15434070D02*
X12026407Y-15405498D01*
X12026407Y-15405498D02*
X12035931Y-15386451D01*
X12035931Y-15386451D02*
X12045454Y-15357879D01*
X12045454Y-15357879D02*
X12054978Y-15310260D01*
X12054978Y-15310260D02*
X12054978Y-15272165D01*
X12054978Y-15272165D02*
X12045454Y-15224546D01*
X12045454Y-15224546D02*
X12035931Y-15195975D01*
X12035931Y-15195975D02*
X12026407Y-15176927D01*
X12026407Y-15176927D02*
X12007359Y-15148356D01*
X12007359Y-15148356D02*
X11997835Y-15138832D01*
M02*
